<svg xmlns="http://www.w3.org/2000/svg" width="1200" height="600" viewBox="0 0 1200 600"><g class="entities"><path d="m881.465 296.364-2.057 1.469-1.543 1.469-2.57.22-2.13.22-.22 1.763.661 2.496 1.689-.146-1.542 1.836-.294 1.321-2.423 1.102-1.836-.661-.955-1.616-1.542 1.836-1.543 1.91-.734 1.322-1.616 1.028-1.101-2.497-.147-1.689-1.028-1.616-.955-1.175-1.542-1.983-2.644-.587-3.818-.074-1.396-.734-1.762-.661-1.689.147-.514-1.248-2.13.22-3.378 1.175-3.011-.514-3.085-.955-1.321.073-1.836 2.791-2.571-.22-.22 2.644-1.689.146.147 1.249-2.056 1.101-124.844-.146v105.97l.147.514 2.643-.441 4.333 2.057 2.424-1.69 4.112.661 4.994.588 4.039 3.378 1.175 4.773 2.57 2.277.074-2.277 2.497-1.248 2.276.514 4.039.294 2.35.955 1.469 6.462 3.378 4.847 2.644.073 3.819 1.616 4.626 4.186.881 3.011 3.011 2.203 3.819 1.616 3.084-.441-.587-3.452 1.175-1.542 1.689-.22 1.983 1.028 4.333-.661 3.378 1.689 2.129-.294 2.865 1.322 2.79.514 1.542-1.615 2.057-.735 2.497 1.396 4.553 1.101 3.451-.954 2.497-.808 1.763-.294 1.689-.661 2.129-.808 3.305 1.763-.441 2.717 1.322 2.864 1.689 2.423.808 2.571-.367 3.158 19.241 9.546 4.039.294 1.689 1.542h1.542l-.367 1.029.293.22 2.571-1.249-.514-4.039 1.028-.514h1.028l-1.028-2.497-1.983-.514.955-1.983-.955-2.496.955.514 1.028-3.525 1.983-8.005-.515-4.994 1.029-3.011h-1.029l2.497-1.983-1.468-1.982 1.982.44 4.039-9.473 3.452-1.028-1.469-3.011 1.469-.441v1.983l1.028-.514-1.028-3.011-.955.514.514-1.028-2.056-.441 3.525-1.542 1.028-3.525-1.028-1.469 1.542-.514v-3.525l3.966-3.965-1.469-.515 2.497-.514-3.011-.954 3.452-.514.514-2.497-1.469.954-1.028-.954 1.542.514-.514-1.542 1.469 1.028.514-4.039v-.514l-1.028 1.028v-1.469l-.441.441-.514-1.469 1.469 1.028.514-2.497v1.983l1.983-1.028.514-2.497-.955-.955h1.983l1.469-4.039-1.469 1.983-.514-1.983h1.469v-1.983l.514 1.983 2.056-3.525-.514-.954h.955v1.468l6.021-3.525-1.982-.44-1.983 1.468-.514-.514.954-.954-.44-1.028 1.983 1.028 1.468-1.028.514 1.028 1.983-3.011 3.525-2.057.514-3.965-1.542-.514v1.028l-1.983-1.028h2.497l.514-3.525 3.525-2.937 4.48-14.541-.514-9.987 3.525-9.033.514-1.542 1.469-8.446-1.469-1.028 1.469.514-.441-1.983 3.966-7.564h-1.028l1.028-.44.514-4.039-1.542-1.983.44-4.48-2.276.073-2.13-.22-1.249.955-1.175.514-1.321.147-2.204-.661-2.423 1.101-1.909-1.909Zm-59.558 132.188c1.074-.043 2.218.122 3.231.587.869.399 1.155.986 1.101 1.616-.055.629-.526 1.293-1.028 2.056-1.002 1.526-2.353 3.221-2.276 4.7-.18.812-1.028 2.568-2.203 2.791-.588.111-1.29-.16-1.983-1.102-.693-.941-1.427-2.542-2.13-5.14-.429-1.587.075-2.933 1.102-3.893 1.026-.959 2.573-1.551 4.186-1.615"/><path d="m790.952 369.425.308 2.113.452-1.904 3.169-11.181h1.783l3.092 11.181.441 1.937.341-2.157 2.488-10.961h2.124l-3.885 16.024h-1.926l-3.302-11.677-.253-1.221-.254 1.221-3.422 11.677h-1.926l-3.874-16.024h2.113Zm-12.105-2.091q-2.718-.782-3.962-1.914-1.233-1.145-1.232-2.818 0-1.892 1.508-3.125 1.518-1.244 3.94-1.244 1.65 0 2.938.639 1.299.638 2.003 1.76.715 1.123.715 2.454h-2.124q0-1.452-.924-2.278-.924-.836-2.608-.836-1.563 0-2.443.693-.87.683-.87 1.904 0 .98.826 1.662.836.671 2.828 1.233 2.003.56 3.125 1.243 1.134.671 1.673 1.574.55.901.55 2.124 0 1.947-1.518 3.125-1.519 1.167-4.061 1.167a7.6 7.6 0 0 1-3.082-.628q-1.43-.638-2.212-1.738-.77-1.101-.77-2.498h2.124q0 1.452 1.068 2.3 1.078.836 2.872.836 1.673 0 2.564-.682t.891-1.86-.825-1.816q-.825-.649-2.994-1.277m-8.474 7.143h-2.124l-8.067-12.348v12.348h-2.124v-16.024h2.124l8.089 12.403v-12.403h2.102Z" class="label-text"/><path d="m538.12 21.237 5.004 3.004 5.006-3.004 1.5-2.5 1.505.498v-2.002l1.5-.498-2-3.003h-2.005l-.499-1.502-1.501 2.002 1 2.503-1.499-3.504-.5 1.502-1.001-.499v3.001l-.5-2.502h-.501l-1.501-.499-3.004 1.002 2.003 3.003-2.003-1.001-.5-2.503-1.001 1.001.5.5h-.5v-2.502l-3.504-2.002 1.234 6.573-1.732.434.999-1-.999.5.999-2.002-.999-2.003-3.504 2.503 2.002 1.001h-1.001v2.003l.498.333v1.168l-.498-1.501-.501 1-1.501-1v2.002h-1.001l9.508 1ZM629.205 60.276l3.501 2.002h4.505l-.5-2.503-.504 1.001-2.498-.5v-2l1.499-.503-.501-1.5 2.504-2.002-1.504-1.003v1.502h-1.997l-.503-2.003.503-.998-2.508.498 1.004 1.504-3.502.999v2.502l.501 2.003-1.504 2.002Z"/><path d="M511.486 71.278v196.299h139.971V95.659l-1.761-2.35-4.994-1.542-6.536-4.48-1.469.514.514 1.028-2.497-1.028-1.542.514V86.26l-5.509-2.497-1.981-3.966-8.005-4.993-.514.514v-1.028l-1.47.514-2.496-2.497-1.029-3.525 3.011-1.028 2.497-5.949 3.011-1.542.514-3.01 2.497-5.509-2.057 1.543-.954-.514-.514-4.48 1.028.44.955-.954-1.469-.514.514-1.47 1.469-1.027.514 1.468 1.468-2.937.514 2.497.515-2.497 1.468.44.514-1.468 1.028 2.497-1.028 1.468 1.983-.954 1.542-3.011-1.542-1.542 3.011.514-3.011-3.452 1.028.44.514-.954 1.028 1.469-.514-1.983h1.469l1.028-2.497-.514-1.542h1.028v1.542l3.011-3.525-3.011-3.01-1.542 1.027 1.028.955h-1.542l-1.983-4.48h-1.028l1.542-1.982-6.022 4.48 3.525 1.027-1.542 3.011-1.468.955-1.983-.44-1.028.954v-1.469h-1.029l1.543-2.497-1.543.441-.44-.955 1.983-2.497-4.039 1.983-.515 1.543-1.468-1.029 4.039-4.48-5.508 2.938-.514-.954-2.497.514-2.497 1.468 1.983 1.029-3.011-.515 1.028 1.47-6.022-2.498-1.542-3.451-1.983 2.497-6.022-1.543-1.468 3.011 1.028-2.496-1.028-1.983-1.028.514-.515-1.543-1.982 1.543-1.469-1.543 1.469-1.468-1.983-.514-4.48 2.497.441-1.983-.955.954-1.028-1.468-1.469.954.441-1.468-2.938.514-3.525-6.022H573.1l.514 1.542-1.028-.514-2.497 1.983-3.451-4.994-1.028 1.469-.514-3.011-1.47 1.028.514 1.469-2.57-2.497.514 3.01 1.028.515-1.028 1.542-.955-3.525-2.056-1.542v2.056l-2.497-.514.514.955-.955 1.028 2.497-.514.441 1.028-.441.514 1.983.514.514 1.469 1.983-1.028 4.479-.441v.955h1.029l-1.029.514 1.543.514h-1.029l1.029.514-1.029.44h3.011l-2.496 2.497 1.982 1.543-.954.514-.514 3.01 2.496.955-3.451-.954-1.542.954-.514 3.011-.955-2.497-1.542 1.029-.514-1.543-2.497 2.497-2.497-1.469-6.977.955-1.982-1.469-.514-2.496-1.029 3.01-3.965-1.028.954 3.525-2.496-.514-.955 1.028 2.497 1.983-2.056-.514.954 1.542-.954.955-.955-1.983v.514l-1.028.514.514-2.57-3.011-.44.514 3.45h-1.028l3.011 1.543h-1.469v.955l-2.497-2.497-1.542.514.514 1.028-1.028-1.028v3.525l-3.452.955v3.525l2.938 3.525-.955-.514-4.039 3.01-1.469-.514v-.954l-1.542.954-.441 4.48.955-.44-1.983 1.468.514 2.497-1.542 1.028-.955-1.028.955 2.497-.955-.955-1.028 1.983-.514-1.542-1.983 3.525v1.542l1.469 1.469 1.028-1.028v1.542l1.983-.514.514 1.028 1.983-1.028-.441 1.028-2.496 1.469h1.468v1.028h-.514l.367.66.368.148 1.248-.808-.441 1.469 3.452-1.983v1.469H526.1l1.028 1.028-1.542-.514h-3.012l1.028 1.983-1.028-.955.514 3.525-1.469.44-1.542-3.451-1.468-.514.514 2.497-2.057-3.011.514 1.028h-1.468l.954 1.469-.954 1.028 1.468.514h-1.468l-.514 1.983v-1.543l-1.029 2.057 1.029-2.497-.514-.514-1.029-1.028v-1.983l-.954 1.469v-1.983Z"/><path d="M596.537 175.244h-5.151v14.284h-2.102v-14.284h-5.139v-1.739h12.392Zm-14.505 14.284h-2.124l-8.067-12.347v12.347h-2.125v-16.023h2.125l8.089 12.403v-12.403h2.102Z" class="label-text"/><path d="m891.448 236.439 1.997 3.003-4.004 4.505h1.003l-1.003 3.502-.997 2.503 2 3.503 4.505-13.514-1.003-2.003v-3.501ZM675.248 99.812l1.497.501 1.504-3.004.501 1.502 1.996-.5-2.498-2.501-4.004 1.5-2.501 2.502 2.501 1.502Z"/><path d="m725.263 4.23-1.983.513-1.542 3.011-2.938.955.441 2.497-1.469 6.536h-.514l-.514 3.525h1.542l-1.983.44-.514 3.011.955 1.543 1.028-1.029-1.028 1.543-.955-.514-.514 1.982-.514-3.525-2.497 4.04 1.469.514h-1.469l-1.982 4.993h1.468l-.514-1.983 1.542.441-1.028.514 1.983 1.542h2.57l-2.57.955 2.57 1.028-1.028.514.514 2.497-2.056-3.525-.955 2.497-2.496 1.983 1.468 4.553-.514 1.469 1.028-.514-.514.514 1.028.514h-1.982l-2.571 7.49 2.571 5.508-1.543 4.994 1.983 9.033-3.011 8.004-1.468 6.022 1.028 2.497-3.525 9.988-4.039 4.994-.955 6.536-4.553 3.525-8.446 1.982-1.028-.514-3.011-1.982-3.525-.514-1.982-2.497-3.525-1.543-.955-4.479-1.983-1.983-6.536-1.983-8.005-1.028-4.259-5.655v171.918h48.763v39.803l124.843.147 2.057-1.102-.147-1.248 1.689-.147.22-2.644 2.57.22 1.836-2.79 1.322-.074 3.085.955 3.011.514 3.378-1.175 2.129-.22.514 1.248 1.69-.147 1.762.661 1.395.735 3.819.073 2.644.588 1.542 1.982.955 1.175 1.028 1.616.147 1.689 1.101 2.497 1.616-1.028.734-1.322 1.542-1.909 1.543-1.836.954 1.615 1.836.661 2.424-1.101.293-1.322 1.543-1.836-1.689.147-.661-2.497.22-1.763 2.13-.22 2.57-.22 1.542-1.469 2.056-1.469 2.203.661 1.91 1.91 2.423-1.102 2.203.661 1.322-.147 1.175-.514 1.249-.955 2.129.221 2.277-.074.073-1.028-1.983-1.983-1.395-6.021-1.101-4.48-1.469-2.056-1.542 1.028 1.028-1.542-2.057-.955 1.543-1.542-1.543-1.469 2.057-1.028-1.542-1.469v-1.542l2.496 3.011-1.468-4.48-.514 1.469 1.028-3.966-1.028-.661.514-4.333h-1.028l2.056-8.004h-1.028l-1.028-2.057-.955 3.011.441-2.496h-1.469l1.028-.955-2.056-1.542v-3.011l1.542-1.469-3.011.955 2.497-.955-.514-2.497-5.508-1.542 1.542-.955-3.011-3.525.515-1.983-1.543-1.028-.514 1.028.514-1.542-3.011-1.469v.515l-2.496-2.497-2.497-6.537-1.983-.514.514-1.982-1.028 1.468v-1.468l-1.469-.514.955 1.982-1.983-.954v.954l-1.983-.954v.954l-6.536-8.959-1.469 1.983-2.056-3.011 1.028-.514-1.469-3.011.955-.955-1.469-5.508h.955l.514-4.039-.955-2.497v1.543l-1.028-.514-1.028-1.983 1.542.514.514-.514-1.542-2.497v1.983l-.514-1.983-.954-.514-.515 1.469 1.469 2.496-.954-.44.954 2.497-6.976-5.068-2.497-3.965-.514 1.028-1.469 2.497 1.469 3.451 1.028 2.057-1.028-1.028-3.011-3.525-3.011 3.525 1.542-3.525h-2.056l1.028-.515-.514-.954-1.983.514 1.983-1.028-3.011-6.977 1.028-5.508-.514.955-1.983-1.983-.514 1.028v-4.553l-1.983 1.028.514-1.542h-.514l.955-2.497-1.983-1.983-1.469 1.029.441-1.983h-3.452l-.514-1.542 1.029-.514-2.497-1.469.44-1.028-1.468-1.469 1.468-.514-.954-1.028 1.468.514.514-1.028 2.497 2.056-3.011-4.994-.954.441v-1.469h-1.543l-.514-1.983h-1.982v1.983l-1.469-.514-2.056-1.983.514-.514v-.514l-2.497-1.469-3.011.514-.955-3.525h-1.542l1.028 2.497-2.056-.514-2.938-3.011 1.983 1.028-3.011-6.536v2.057l-4.479.44-2.057-4.479-.44 1.982h-1.543l-1.468-1.982-5.067-1.983-2.938-3.525.955-5.508h-1.983l-3.525-6.022 2.497-8.519h-.955v-3.965l-3.011-5.508.955-2.497-2.497.514-5.949-8.005v-2.497h.955v-3.525l-1.983-2.497-.514-5.507-1.983-1.983 2.497-3.011V77.3l-1.542.514-.44-2.497 1.982-2.497h-1.028l-.954-2.056-3.011-.44-2.057-3.012-3.451-1.028-2.497-6.536-3.011 2.497-1.983-.955-1.028 3.011-3.011 1.469-2.497-1.983-1.469-6.536-2.57-3.965 1.028-4.994-1.468-4.994.44-4.553-2.937 1.028 1.468-4.553-3.011-1.983v-1.983l-2.496-.514-.514-3.525 3.01-2.497-2.496-.954-1.983.514-1.542-1.543v-7.49l-1.983-6.022h-1.469l-1.028-1.983v.955l-1.983 1.028 2.497-4.039-.514-.44Z"/><path d="M756.732 223.907v-16.023h4.523q2.09 0 3.698.924 1.606.925 2.476 2.631.88 1.706.891 3.917v1.024q0 2.266-.88 3.973-.87 1.705-2.498 2.619-1.618.913-3.775.935Zm2.114-14.284v12.556h2.222q2.443 0 3.797-1.518 1.364-1.519 1.365-4.325v-.936q0-2.728-1.288-4.237-1.277-1.519-3.631-1.54Zm-12.117 12.556h7.594v1.728h-9.718v-16.023h2.124Zm-5.381-5.766q0 2.322-.737 4.006-.738 1.673-2.069 2.619l2.861 2.245-1.442 1.331-3.378-2.685a7 7 0 0 1-1.673.198q-1.893 0-3.356-.924-1.465-.936-2.278-2.652-.804-1.728-.826-3.995V215.4q0-2.31.804-4.083.802-1.771 2.267-2.707 1.474-.946 3.367-.946 1.936 0 3.4.935 1.475.936 2.268 2.696.792 1.75.792 4.094Zm-2.113-1.035q0-2.828-1.134-4.358-1.123-1.54-3.214-1.54-1.992 0-3.147 1.529-1.145 1.519-1.178 4.226v1.178q0 2.75 1.145 4.336 1.155 1.584 3.202 1.584t3.17-1.485q1.122-1.497 1.155-4.281Z" class="label-text"/><path d="M511.486 359.153V71.277h-2.938l-.954-1.027-1.983-.441-3.012.44 1.983 1.543.514 1.983-1.983-2.497 1.469 2.497-.514-.514-.514 1.028-.955-1.028-.514 2.056-1.028-2.57-.955 1.542 2.497 6.976h-1.028l-.514-2.497-2.497-2.496v4.039l-1.469 1.468.955-1.983-.955-1.542.955-.44-.514-3.011 1.542-3.525h-1.028l2.056-.514-1.028-1.47 1.028-.513-3.525-2.497-.514 1.028-4.479-7.05-3.525-1.983-.515-1.983-1.468-.514.514 1.47-1.542-1.47-1.029.955v-.955l-.954.955-1.028-2.497-3.011-.954v.954l-1.983-.44 1.028 2.497 1.983.954-.881-.073-2.644-.44.514 1.541-1.028 1.028-.441-1.028-.514 3.011-1.542-3.01-.955.513.955-2.496-3.011 1.982-.441 1.028.955.955-1.983 1.028-.514-2.497h-.955l.955-1.028h-.955l.955-1.028-1.469 1.028-1.542-.514v1.028l-.44-1.028v1.028l2.937 1.47-1.983 1.541.514 1.469-1.468 1.028.954 1.983h-1.983v2.497l-1.542-1.469.515-1.983-1.983.44v-1.468l-1.469 3.966.44-4.48 1.029-1.469-1.983-1.028v5.508l-1.543-.514-.954 1.983-.514-1.469-1.028 1.028.514-2.056-1.983 2.056.955.44-3.011 1.543 1.542 1.983h1.469l-1.983 1.542 3.011.955.514-.955.954.44-1.982 2.057 2.496.955h-2.496l-.955-1.47-2.056 1.47-1.469-3.452-1.028.44.514 2.057-3.011.44 1.028.514-.514 1.543 3.011-2.057-3.011 2.57 1.028.955 2.497-1.468v.954h.955l-1.469 1.543 3.011 2.496-2.497-1.982-1.028.954-1.028-1.983-1.983-.514v-1.028l-1.469 1.028-1.028 1.983-.514-.954-.514 1.468-1.983-.514.514.514-1.983 1.543.955.44-1.469.514 1.983 5.508.514-.881v.367l1.028-1.469-.881.808 1.322-2.35 1.542-.955-1.028.955h1.542l-2.056 1.542-.441 3.525h.955l-1.983.955 1.028.514-1.028.514-1.028-2.497-.955 4.48 3.452-.514 1.983 1.028-4.48.514-.955-1.028-1.028 1.028.881.514-2.35.44 1.469-.44-1.469-.514-1.542-1.983-3.451-1.542 1.468 1.542h-1.028l1.028 1.469-1.982-1.469v.44l-2.497-.954h.954l-.514-1.028h1.029l-1.983-1.028v1.028l-1.542-.514.514 1.028-.955-1.028.955 1.542-.955.514 1.983.44.514 1.029-1.542-.514 1.542 1.028h-3.525l2.497 1.469h-3.452l.955 1.542.514-1.028 1.469.514-1.983 1.469 3.525 1.028.954 3.011 2.057-1.028v-.955l.954.441-2.496 2.497 1.028 1.028-1.543-.514 2.571 4.553-4.553-4.553-1.469.514 1.983 3.525-1.028-.514-.955 2.497v2.496l-3.011-3.01-1.542-4.994-1.983-1.469V100.8h-1.469l-1.542-1.47.514-2.055 1.542-.441-1.028-1.542-1.542.514-2.938 4.994 1.469 1.542-4.039-.514-.44 1.469.954 1.983-1.983-.955v.955l-1.982.514-1.543 2.056 1.029.441-2.497 2.056-.514 4.48 1.468 3.525-.954 3.451 3.525.514v1.983l-7.05 5.067-1.983.441-1.542 2.056 1.028 1.469-2.497.514.514 1.983-2.497 4.553-6.022 7.49-14.026 6.022-3.525.441h-3.452l-1.542 1.028-1.983 1.469-1.469-1.469-4.553-1.028.514 1.028v.514l-.514-.514-.955-.514-.514.514-3.525 4.48-10.501 2.056v-1.028l-3.966 2.497.441 1.028h-1.469l-1.028 1.983-2.497.514v-.514l-3.966 1.983-3.01-1.469-.515-1.542-3.525 2.056-1.468-.514-1.028-.514 1.542-2.497h-1.028l-2.497 3.011.514.514h-1.028l-4.994 2.497-1.542-1.028-.441 2.496-4.039 1.983-1.469 3.011-2.497.514-2.496 4.039-9.547 2.497-3.966 2.497-.514 3.011-1.028.441-1.028-.441.514 1.983-1.469 2.497.955 1.028-.955-.514.514.954-2.056 2.497-.955-1.468-2.497 1.468.955-3.451-.955.954-.514-3.451 1.983-6.022-3.525 1.028-4.994 11.97 2.497 6.536-.955 3.011.515 5.949-5.068 7.05-.954 8.959 3.965 6.536-.514 1.028 1.028 3.966 1.983 1.542 5.508 11.016 1.542.44.514 2.497h-1.542l.514 5.508-2.497 3.011-2.497-3.966-.514-5.507v2.496l-2.497 1.983.514-5.508-4.039-6.462-1.468 3.966.954 1.028v-2.057l1.543 7.564 4.993 3.966-.514 4.553-3.011 1.469-.514-3.525-.44 3.011-1.029-6.022-.514 3.011-1.982-8.005.514 6.536-1.543-1.028v-5.508l-.44 4.039-2.056-1.542 12.998 19.02 3.011 8.005-.955 2.497.955 5.067 5.508 6.463 1.542 3.011-.514 1.982 4.48 6.022 2.056 7.05-.514 8.96v1.028l1.469 8.005 9.987 21.003.514 7.49 2.497-1.468v.954l-2.497.514.514 2.497-1.028 1.542.514 3.525-1.983 3.966 1.469 11.53-5.434 6.462h-2.571l-2.937-1.983v10.502l1.983 5.508.514-.955 2.937-.514 5.508 3.011 4.553 6.977 6.022 1.982.441-1.468 2.056 1.468h-2.497l3.966 2.497 1.542-1.468 2.937 1.468 7.05-.954 3.966 2.496 1.028-2.056 4.48 1.542 1.028-.514-2.497-1.028 1.028-1.983.955-.514-.514 2.057h4.039l-.514-1.543 3.525-.514.514-3.011 4.48-1.982.514-1.983 2.497-1.028-1.029-.955 6.536 1.983.514-1.983 1.983.514v-2.056l2.497.514-1.983-1.983 6.977-6.536h1.469l6.536 1.028 2.496-1.983 12.558-1.542 6.463 1.983 3.525-1.469 1.983 3.525h2.496l1.029-2.056 3.451 1.028.514-1.469 6.536-.514 1.469.955.514 2.056 3.525-2.497 2.497.955 6.976-6.977 2.057-8.004 1.982-2.056 9.033-2.938 17.993-10.575 3.965-.955 7.564.955 8.446-.441 16.082-4.993ZM448.99 95.806l-2.497 1.028-.88-.955.88.441ZM264.367 257.458l-4.004-9.008v5.005l4.004 6.505Z"/><path d="M408.322 270.512h-6.714l-1.507 4.182h-2.179l6.119-16.023h1.849l6.13 16.023h-2.168Zm-6.075-1.739h5.448l-2.729-7.494Zm-18.84.87.308 2.113.451-1.904 3.17-11.181h1.783l3.092 11.181.44 1.937.341-2.157 2.487-10.961h2.124l-3.884 16.023h-1.926l-3.302-11.676-.253-1.222-.253 1.222-3.423 11.676h-1.925l-3.874-16.023h2.113Z" class="label-text"/><path d="m838.87 470.631-1.469-1.468h.441l-1.688-1.542-4.04-.294-19.24-9.547.366-3.158-.807-2.57-1.689-2.424-1.322-2.864.441-2.717-3.305-1.762-2.129.807-1.69.661-1.762.294-2.497.808-3.451.955-4.554-1.102-2.496-1.395-2.057.734-1.542 1.616-2.791-.514-2.864-1.322-2.129.294-3.379-1.69-4.332.661-1.983-1.028-1.689.22-1.175 1.543.587 3.451-3.084.441-3.819-1.616-3.011-2.203-.881-3.011-4.627-4.186-3.818-1.615-2.644-.074-3.378-4.847-1.469-6.462-2.35-.955-4.039-.294-2.277-.514-2.496 1.249-.074 2.276-2.57-2.276-1.175-4.774-4.039-3.378-4.994-.587-4.112-.661-2.424 1.689-4.333-2.056-2.643.44-.147-.514v66.755l1.028.073 5.508 4.48v2.497l1.542-.514 1.469 1.028 3.01-3.525 6.022 3.011 3.966-1.028 18.506 10.061 7.564-7.491 5.949-4.039h3.525l1.028-3.011-3.525 1.028-1.983-1.542h2.497l6.462-4.994 3.011 6.022-3.011 3.966-4.479-.955 4.479 3.966 3.011-1.983 1.543.514.44-4.039h3.525l1.028 3.011-1.983.514-.514 3.011 3.452 2.497 3.525-.514.514 1.028-1.469-.514 2.497 4.479 1.983-1.468 1.983 1.028-.514-1.542 2.056 4.039 2.497 2.496.955-6.535-3.011 1.982-.955-3.965h4.994l5.948-1.983 9.547-10.061 6.536-3.966-8.005 3.452 4.48-2.938-.147-.22-1.322-1.322 3.452 1.028 4.039-1.542-.514 1.028 22.031-1.982Z"/><path d="M747.734 462.991q-.297 2.542-1.882 3.929-1.574 1.375-4.193 1.375-2.839 0-4.556-2.035-1.706-2.037-1.706-5.448v-1.541q0-2.234.793-3.928.803-1.695 2.267-2.598 1.464-.912 3.389-.913 2.553 0 4.094 1.431 1.54 1.419 1.794 3.94h-2.124q-.274-1.916-1.2-2.774-.912-.858-2.564-.858-2.025 0-3.18 1.497-1.145 1.496-1.145 4.258v1.552q0 2.608 1.09 4.149 1.089 1.54 3.048 1.541 1.761 0 2.696-.793.947-.803 1.255-2.784Zm-15.649 5.084h-2.114v-16.023h2.114Zm-11.302-2.806 4.578-13.217h2.311l-5.943 16.023h-1.871l-5.931-16.023h2.299Z" class="label-text"/><path d="M700.221 480.105V267.577H511.486v91.576l1.101-.587 15.495-1.542 2.497-.514 10.061 1.028 5.509-3.011 9.472 4.993 7.05 5.508h4.48l-.514-.954 1.028-.514h3.451l6.023 4.993h6.022l-1.542-1.468 1.028-.515 1.028.955.955-1.469 5.508 5.508-1.469.514v2.497l3.011-1.542 1.983.514 1.982 4.039-1.469 1.983.514-1.542h-2.497l.956 2.056-.956 1.469 1.983.514-1.028 1.469 3.011 3.01-.955-3.01 1.469 3.01 1.468-.954 3.011 1.983-1.468-1.469 2.496.44-1.028 1.029 3.011 4.039v2.937l5.508 5.067 3.011 13.513.514-1.542.514 1.542.955.441-1.983.514-1.028-1.983.514-.514-1.983-.514v-.955l-1.542 3.011 2.056-1.028 6.022 7.49 2.497-1.468 2.497 3.011.955-5.508-3.452 1.469 1.47-1.029.514-3.965 1.982-1.028 1.028 1.028v-3.525l7.49-8.519 6.023-3.011-1.542.514 1.028-1.983 1.028 1.028 3.452-1.028 3.525-9.987 3.01-3.525 1.983 1.028v-10.061l2.497 5.508.514 4.553 1.468 1.469-3.965 3.525 3.011 5.507-6.022 6.022-1.469 4.48-1.028.514 1.028 3.011-1.542 2.938 1.028-.441.514 2.937-1.028 6.022-1.028 1.028-5.949-1.542-2.57 7.564 5.067-.514 3.966-3.011 3.525 1.469 1.983-.955-1.028-1.028 2.496-5.508.514-4.993 3.011-6.977 7.05 12.117.441.882-.955.514-.514-1.543-.514 11.016-5.508 4.994 7.05.514 2.938-2.497 2.57.514 7.491 5.949-7.491-5.435 6.463 4.994 4.259 5.508-3.231-4.994 2.497 1.983 3.011 6.536-1.322-2.057 3.819 10.061-.515 2.497-2.496 2.497 1.982 3.011-.954 1.469 3.965 5.508 5.802 7.784.22.734 3.011 2.497Z"/><path d="m650.222 437.127.501-2.505h-3.506l1.004-3.001-16.516 3.501-1.001 2.503 3.006 3.504 4.505-.501 3.501-1.001 4.001 2.003 2.002-1.502.501-2.005h6.507l.999-2-3.504-1.501Z"/><path d="M613.062 320.127h-6.712l-1.509 4.182h-2.178l6.119-16.023h1.849l6.13 16.023h-2.168Zm-6.075-1.739h5.448l-2.73-7.494Zm-11.423-1.221q-2.718-.781-3.962-1.915-1.232-1.144-1.232-2.817 0-1.893 1.507-3.126 1.52-1.243 3.94-1.243 1.652 0 2.939.638 1.298.639 2.002 1.761.716 1.122.716 2.454h-2.124q0-1.453-.925-2.278-.924-.837-2.608-.836-1.562 0-2.442.693-.87.682-.87 1.904 0 .98.826 1.662.836.67 2.828 1.232 2.003.561 3.125 1.244 1.133.671 1.673 1.573.55.903.55 2.124 0 1.948-1.519 3.126-1.518 1.166-4.061 1.166-1.65 0-3.081-.627-1.43-.638-2.212-1.739-.77-1.1-.77-2.498h2.123q0 1.452 1.068 2.3 1.078.837 2.872.836 1.673 0 2.564-.682.892-.683.892-1.86t-.826-1.816q-.825-.649-2.993-1.276" class="label-text"/><path d="m747.311 510.694-1.499 3.003.5 6.004v2.002l.999 1.002 3.006-3.004-.501-7.005ZM808.871 517.699v2.002l2 2.002 1.501 3.504 4.002-1.504-.998-2.5-1.004 1.001 1.004-2.503.498-1.001h-2.002l-4.005-5.003-3.001 3.504ZM805.865 580.759l-.999 3.003 2 .499-1.001 1.003 1.502 2 1.504-.501v-2.002l2 2.503-1.004-4.505-2.5.5Zm10.01-28.028-1-3.001 1.5-4.005-1.5-1.499 1.5-4.007-4.002-5.003-2.505-.501-.996 3.004-3.006-1.502-3.504 4.002-2.5-1.501-2.503 2.004-2.002-1.001-3.502 1.499 2.501 2.505-.503.999-3.001-3.504-2.498 2.002.493 2.005-.996-2.505-4.503 1.003-11.512-7.01h-3.004l-1.004-2.5v2.002l-1.996-.5v.998l-7.009-3.501.504 4.002-1.505 3.003 2 8.51 3.506 5.005-1.004.999 5.008 6.507v4.503l1.5-1.502 2.503 4.505h.999l-.999 3.504-.5-3.001-4.505-4.007 1.499 9.01 1.504.5 2.503 7.506 2.503 1.001 2.5 5.507h1.504l-1.004-.501 1.004-2.005 1.001 3.006h4.004l-.502 1.001-3.502-1.001v1.499l-1.001-.498 1.499 4.005 3.506-1.504 5.499 1.003-.493-1.502 1.997 3.502h3.001l2.005-3.003-1.504-1.502 2.007.503.5-2.002-1.504-.501 2.005-1.001-2.005-2.5.501-1.004v1.499l1.003 1.004.501-1.499v1.499l1.997 1.001.503-5.506 1.504.5v-3.001l-2.507-4.004 3.504 4.505 1.001-.501-1.001 3.001 2.004-1.501-.503-2.501 1.504-.5-2.505-1.502 2.505.498.999 2.505 2.002-.5 2.503-4.505-1.499-2.503 2-1.001.498-4.002-1.502.498 2.505-5.003h1.5l-1.5-.5 2-3.004-.999 3.004 2.501.998v3.006l1.003-1.504-1.501-3.502ZM810.871 528.208h5.004l.5 1.504 2.003-1.504-2.003-2.502Z"/><path d="M887.057 546.572h47.056c3.061 0 5.525 2.342 5.525 5.252v21.19c0 2.91-2.465 5.252-5.525 5.252h-47.056c-3.062 0-5.525-2.342-5.525-5.252v-21.19c0-2.91 2.464-5.252 5.525-5.252" class="label-box"/><path d="M924.274 563.289q-2.718-.782-3.962-1.915-1.231-1.144-1.231-2.818 0-1.892 1.506-3.125 1.52-1.244 3.941-1.244 1.651 0 2.938.639 1.3.637 2.003 1.761.716 1.122.716 2.454h-2.124q0-1.453-.925-2.278-.924-.837-2.608-.837-1.563 0-2.443.694-.87.682-.869 1.903 0 .98.825 1.662.836.672 2.828 1.233 2.003.56 3.126 1.243 1.133.672 1.672 1.574.55.903.551 2.124 0 1.947-1.519 3.125-1.518 1.167-4.061 1.167-1.65 0-3.081-.627-1.43-.64-2.212-1.739-.771-1.101-.771-2.498h2.124q0 1.452 1.068 2.3 1.078.836 2.872.836 1.673 0 2.564-.682.892-.683.892-1.86t-.826-1.816q-.825-.65-2.993-1.276Zm-10.576 2.96h-6.712l-1.507 4.182h-2.18l6.119-16.023h1.849l6.13 16.023h-2.168Zm-6.075-1.739h5.448l-2.729-7.494Zm-4.28-8.364h-5.151v14.285h-2.101v-14.285h-5.139v-1.738h12.392Z" class="label-text"/><path d="M879.481 561.652h-60.249v1.579h60.245Z" class="label-connector"/><path d="M821.929 428.537c1.076-.043 2.182.134 3.194.599.869.399 1.153.967 1.098 1.597-.055.629-.497 1.332-.998 2.095-1.003 1.527-2.373 3.211-2.296 4.69-.18.812-1.02 2.572-2.195 2.795-.588.111-1.303-.157-1.996-1.098s-1.393-2.591-2.096-5.189c-.428-1.586.072-2.933 1.098-3.892s2.579-1.532 4.191-1.597"/><path d="M887.057 418.822h47.056c3.061 0 5.525 2.343 5.525 5.253v21.19c0 2.909-2.465 5.252-5.525 5.252h-47.056c-3.062 0-5.525-2.343-5.525-5.252v-21.19c0-2.91 2.464-5.253 5.525-5.253" class="label-box"/><path d="M931.361 428.397h-5.149v14.284h-2.102v-14.284h-5.139v-1.739h12.39Zm-13.635 9.2q-.296 2.542-1.881 3.929-1.574 1.375-4.193 1.375-2.839 0-4.556-2.036-1.706-2.036-1.707-5.447v-1.541q0-2.234.794-3.929.802-1.694 2.267-2.597 1.464-.913 3.389-.913 2.553 0 4.094 1.431 1.54 1.419 1.794 3.939h-2.124q-.275-1.914-1.199-2.773-.914-.858-2.565-.858-2.025 0-3.18 1.496-1.145 1.497-1.145 4.259v1.552q0 2.608 1.09 4.149 1.089 1.54 3.048 1.541 1.761 0 2.696-.793.947-.803 1.255-2.784Zm-17.519.902h-6.713l-1.508 4.182h-2.179l6.119-16.023h1.849l6.13 16.023h-2.168Zm-6.076-1.738h5.448l-2.729-7.495Z" class="label-text"/><path d="M879.426 433.878h-50.114l.017 1.587h49.949Z" class="label-connector"/></g></svg>