<svg xmlns="http://www.w3.org/2000/svg" width="1200" height="600" viewBox="0 0 1200 600"><g class="entities"><path d="m744.881 523.544 1.311-1.002-.439.836ZM746.653 523.601l-1.289 1.031 1.16.641Z"/><path d="M814.873 522.081h47.056c3.061 0 5.525 2.343 5.525 5.253v21.19c0 2.909-2.465 5.252-5.525 5.252h-47.056c-3.062 0-5.525-2.343-5.525-5.252v-21.19c0-2.91 2.464-5.253 5.525-5.253" class="label-box"/><path d="M853.51 537.468q0 2.23-.75 3.896-.75 1.656-2.125 2.531t-3.208.875q-1.791 0-3.177-.875-1.386-.885-2.156-2.511-.76-1.635-.782-3.781v-1.094q0-2.187.761-3.864.76-1.677 2.146-2.563 1.396-.895 3.187-.895 1.823 0 3.208.885 1.396.875 2.146 2.552.75 1.666.75 3.885Zm-1.989-.979q0-2.698-1.084-4.136-1.083-1.448-3.031-1.448-1.896 0-2.989 1.448-1.084 1.438-1.115 4v1.115q0 2.614 1.094 4.114 1.104 1.49 3.031 1.49 1.938 0 3-1.406 1.062-1.417 1.094-4.052Zm-25.719-7.094 4.958 12.375 4.959-12.375h2.593v15.167h-2v-5.907l.188-6.375-4.979 12.282h-1.531l-4.969-12.25.198 6.343v5.907h-2v-15.167Z" class="label-text"/><path d="m747.96 525.328-1.06 1.059 12.406 12.406h48.253v-1.498h-47.333Z" class="label-connector"/><path d="m285.256 304.696 3.534-3.913-.54-3.566 2.262-.476.123-1.88 2.738-2.328 1.851-2.803.253-.828 2.421 2.169 5.987 2.961 2.133-.634 3.278 1.239 1.946 3.149 3.883-.605 3.12-4.648 3.697-1.592h1.592l2.068 1.499 3.79-.13 1.938 1.182 2.904.41 4.806 4.237 4.554.54 1.621 1.081 11.211-2.637 1.723-.735 5.281 1.528 1.34-.317 8.308-5.03 4.871-.864 7.681.129 3.689-2.132 5.606.252 5.094 1.181 4.871 2.926 1.787.418 4.676 2.803 4.395-.483 2.868.288-.252 2.644-3.502 1.528-.101 1.275 3.062.699.764 1.052-.101 3.66-1.974 3.056-1.816 5.829 1.182 1.686-.829 2.55-3.631.317-.829 1.117.447 2.162 1.023.893-.894 2.58.476 1.434 2.356 3.819 1.499 1.693.475 3.213 2.551 3.531 2.227 6.499 6.463.605 2.01 1.24 2.702.511 2.327 1.24 3.091.288 3.308 1.816 3.314 3.602 3.596 1.175 1.974-1.016 1.787.122.922 1.629 3.66.072 3.603 1.974 9.49.159 1.239.634 5.634.41 2.515 1.276 1.405 2.55 3.725 2.767 2.039.764 1.11 4.972 2.904.634 2.99 2.104 1.909.317 1.722-1.304 1.492.158 3.286 1.946 1.016-.483 6.052-8.279.252-1.91 1.463-1.397-.072-2.198-.67-.93.317-1.527 2.673-.663 2.068 2.414 2.262 1.563 3.79 1.016 3.027 2.263.353 2.738 1.974 2.291.281 4.395 2.104 2.839 3.214 3.185-.224 1.11-1.715 1.275-1.246.094.259 1.693 1.816 2.162.764 3.249 1.145 1.081.253 9.36.763 2.01-.158 2.925-.447.8.735 8.438-1.369-.094-1.211.987-.187 2.32-1.434 1.751-2.075.641.382 2.515-.922 1.909.482 1.024-.1 3.977-2.58 1.21-2.003-1.34-3.026 2.551-1.369-2.068-2.169-.418-1.715-2.515-1.844-.353-4.079 4.079-2.673-2.645-1.88.764-1.499-.728-1.528.094-2.385-1.751-2.867 1.117-1.247-.865 1.153-2.356 3.278-2.579-.101-1.052-1.873-3.502-1.945.576-1.715 1.528-.605-2.868 2.579-1.146.821-1.592-2.356-.634-1.592-2.486-6.845 2.738-1.369 2.515-1.175.605-2.262-.411-2.998-1.628-3.148-.987-1.499-2.385-1.657 1.239-2.133.829-3.754 2.774-1.751.281.094 1.434-5.188 2.709-5.065-.195-1.658.67-1.08 3.185-3.185 2.104-3.473 2.291-.123 2.328-3.379 1.333-5 .072-1.24.699-1.88-.123-6.269-2.961-2.457-2.039-5.411-.094-3.344-.987-3.379-4.237-4.806-1.47-7.515 3.127-4.964 4.295-2.897 3.984-2.14 1.211-1.492-2.522 2.385-4.993-.446-2.457-2.097-1.975-2.01.289-5.7 1.686-6.715 1.117-2.738-1.658-2.803 1.052-7.775-6.369-3.501 2.01-1.845-.223-1.751-2.839-2.997 1.88-1.11-3.12-4.395-3.595-4.237-.548-1.052-3.566 1.052-1.398-.792-1.052-3.315.8-3.761-2.998-5.217-2.385.569-4.748-.763-3.149-1.816-.8-2.45 3.221-1.434.317-3.055-3.538-.317-4.107-4.431-4.683-1.621-.764-2.674-4.201-3.184-1.304-2.515-2.961-4.683-2.421-.634-2.803-7.84 5.094-1.146-3.754-2.258-1.563-1.529-2.58-5.254-4.424 1.306-1.275-.924-1.052-1.433-.346-2.293-3.185-2.388-.958-2.643-.159-2.547-3.343-1.561-5.699-4.075 1.174-.478-2.637 1.273-2.421-.636-2.263 1.432-4.042-2.738-4.935.541-1.528-.159-1.758.765-1.239 3.47.093.223 2.616 1.847 1.78 3.822-1.146 2.865-.605 1.911-2.767-1.146-3.315.827-2.543-4.139-3.379-.987-2.486-.455-1.276.956-3.638V310.9l-.273-2.818.273-1.001.955-.317 1.91-.274 1.092-.958.273-1.319-.409-1.138 2.404-.49 1.608.555 2.213-.318 1.951.898Z"/><path d="M361.282 355.015h8.677v1.635h-11.041v-1.5l8.312-12.02h-8.177v-1.646h10.573v1.468Zm-9.927-7.719 3.636-5.812h2.354l-4.792 7.52 4.906 7.646h-2.375l-3.729-5.916-3.75 5.916h-2.364l4.916-7.646-4.802-7.52h2.344Z" class="label-text"/><path d="m422.759 89.4-.454 2.479-1.304 2.384 2.385 3.38-.087 2.255 5.087 3.423 3.106 7.205 3.696.584 1.888-1.218 4.1 4.237 2.435-.317 3.286 5.584 1.441 6.262 4.186 7.969-.584 3.646-1.844 2.745 1.081 4.193-4.864 7.069-.274 4.683 1.535 1.621 14.18 5.181 9.684.404 5.764 1.758 4.907 4.77 6.622 4.056 1.801 2.068 3.286 1.441 3.876.634-.677 2.702 2.565 1.751 3.877 12.97 4.323 5.274.677 2.248-1.715 4.46.714 2.918-4.043 3.373-6.175.735-2.521 1.75-3.531 1.182-4.806 2.385-2.745 3.221-4.965 3.437-4.647 4.741-1.081 2.486-3.221 2.356-5.281-.317-1.47 6.874-.252 9.078-1.016 3.697-3.286 2.421-2.385-.958-4.366 2.161-9.043 1.405-8.625.224-6.052 3.79.072 9.23 9.777 7.551.598.951-1.873 1.693.159 2.767-1.751 1.369-2.328.8-2.514 1.779.987 4.554 3.314.353.606.634-.447 1.305-3.661.893-2.961 1.463-2.68.223-5.188-2.702-4.201-.259-4.366.382-4.806-2.861-1.686-.288-4.878-3.026-4.777-1.081-5.758-.418-3.948 2.234-7.263-.073-5.094.887-8.949 5.159-1.052.165-4.936-1.592-13.15 3.502-1.657-1.182-4.424-.382-4.936-4.424-2.838-.418-1.809-1.239-4.114.159-1.809-1.593-1.758.094-3.242 1.434-3.344 4.935-3.948.577-2.133-3.156-3.444-1.333-1.845.67-6.117-2.868-2.032-2.104-2.392 3.725-2.767 2.011v2.068l-2.198.41.447 3.502-3.471 3.891-3.726-1.722-2.261.447-1.783-.541-2.452.447-1.496-.958-2.07-2.738-3.471-1.658-.733-1.462-.065-2.709-.573-1.622.223-2.132-.924-3.473 1.752-3.949-2.548.634-8.47-3.307-5.254-3.92-1.657-2.709-3.661-.987-2.102-5.094 1.083-2.58-.287-6.528-1.751-2.032-2.516-.223-.605-3.156-2.866-1.909-2.515-.195-4.49-2.58-.255-2.702 8.566.073.478-1.881-1.083-2.551 1.274-6.621-.86-3.25 1.687-3.214.096-1.434-5.031-3.854-3.599-.663-1.783 1.491-1.528-3.084.541-3.314 1.815-1.304-1.401-3.949 1.083-3.502 3.248-.324 1.114-2.097-.35-2.457 1.019-2.161 3.089-1.593 3.502.764 1.943-1.117 4.108-.663.924-2.55 4.457 2.161 4.331-1.527.764 2.486v2.644l1.656.764 2.516-1.016 3.184 1.174 3.121-1.909 5.349-6.528 2.516.13 5.063 2.132 5 .188 2.006.893 6.34-5.188 9.771-3.062 3.379-.094 4.107-1.34 1.592-.821 2.738.504 1.211-.699 1.21-6.463-.158-2.169 1.938-2.608 2.839-.605-.512-2.45 4.684-1.528-.072-1.405-.67-1.398 1.016-3.12-2.133-9.972.764-1.304.446-5.065 2.04-2.99-2.227-1.946-2.644-.439-.699-1.088 2.421-1.816 11.046-.505 7.58-.958 2.514 3.567 4.014-.224 2.068 1.686 1.909-.662.893-3.509-2.961-2.702 3.408-6.882.67-2.067 7.227-11.659 1.593-4.229 2.262.569 6.463 4.712 7.926.923 1.974 3.062.707-.072 3.624-1.852 3.92-.411 2.644-3.156-1.247-3.977.865-6.845 3.408-7.328 4.777.735 5.476-2.227 1.658-3.22.345-3.726 4.806-1.016 2.998 1.657 1.844-.958Z"/><path d="M384.846 218.118h2.01v10.74q0 2.177-1.312 3.406-1.302 1.23-3.479 1.229-2.26 0-3.521-1.156-1.26-1.156-1.261-3.24h2q0 1.303.709 2.032.719.729 2.073.729 1.24 0 2-.781.77-.781.781-2.188Zm-14.781 5.813 3.635-5.813h2.354l-4.791 7.521 4.906 7.646h-2.375l-3.729-5.917-3.75 5.917h-2.365l4.917-7.646-4.802-7.521h2.344Z" class="label-text"/><path d="m519.671 205.68 1.844-.403 19.952 2.925 11.752-1.758 19.051 3.199 4.143 5.087 10.354 2.162 9.143 3.156 8.827-.498.857 2.883 4.143 1.167 9.504-6.975 11.839-5.541 5.043-1.174 1.441-1.665h2.162l3.92.764 3.285-1.167 15.132-1.261 5.994-3.106 5.044-2.572 7.335-10.354 5.541-2.702 1.758-2.118 2.839-2.249-.18-1.26-7.162-8.157 4.186-11.478 7.249-.411 2.118 2.436 10.808.403 8.38-7.205 2.068-4.59 10.945-1.081 6.485-7.256-.498-2.024 2.025-5.181 3.379-3.732 5.361-.497 1.665-3.38 2.522.584 6.167-4.453 7.436-.771 4.633.814 3.74-1.124 1.621-2.659.072-1.08-3.466-5.181-6.802-4.46-1.75-3.062-2.883-.181-4.46-2.702-7.789 1.175-3.156 5.764-4.186-2.342-9.324 1.759-1.758 2.608-3.912-2.428-1.938-4.504 2.925-2.392.317-6.074 1.664-2.392-.497-2.385 4.684-16.032 3.242 1.664 9.057 1.492 2.292-1.132 5.223-6.751 5.181-1.535 1.938-2.968-2.298-4.55.583-2.836 1.398-2.747 3.826-15.582 4.684-5.584.317-5.539-1.758-2.071.137-1.982-1.168-1.35-2.658-.27-2.976.584.072-3.557 2.248-2.027 2.839-5.539 7.652-4.503 3.941 4.638-.764 2.455-3.328 4.728-.231 1.216 3.538 1.644 1.96.27 1.484 1.846 1.174.158 1.232-1.329.253-2.296 1.059-.766 1.39.654 2.097 2.273 1.802.18.698.586-.273 1.328.093 1.397 1.283 2.476v2.792l2.86 4.099 2.681 2.116 2.385.18 1.304-.833 1.441 1.08 1.153-.157.965-1.981 1.715-.315 1.168-1.036 2.183.518 1.333-1.397 2.788-.27 1.578-2.747.721-2.522 1.866-.382 2.457.63 5.289 5.54 1.758.36.994 2.229-.411 1.801-1.462 1.621v1.666l.965 1.104.115 1.666-2.586 2.994-.137 3.356-1.484.945.49 4.571.72 1.96-.288 1.89 2.161 3.334-.432 4.071-.627.613-1.758.086-1.037.742-.786 6.982.339 5.138.583 1.707-.136 1.694-.426.72-1.441-1.578-1.304-3.04-1.037-.18-.786.54-5.36 9.05-1.867 1.714-.699 2.99-6.016 5.455-.468 3.084 2.925 3.329 1.686.317 2.839 2.904 1.938.836 3.106.223.763-.454.613-1.325.403 1.174-.72 2.003-1.441.85-3.084.252-.721 1.038.764 1.369-.605 1.938.519 1.348 1.642.338.073 1.578-.807.901-1.759.295-.18 1.42.562 1.21v2.457l-.497 1.081-.901-.072-1.325-1.419-1.535-.836-.879.454-.49 1.189-3.199-1.91-2.255.159-.181 2.586-.583 1.6.72.966 1.895-.361.764.634 1.081 2.162 1.96.605.944 1.557v2.471l-1.355.901-.331 1.289 1.592 6.37 2.637 2.205.677 1.599-.944 1.355 2.047 1.484 1.398-.612 6.146-5.736h.828l.541 1.369 2.551 3.336.381.404.181 1.78 1.599 1.325 1.751 4.079-.13.677-.836.692v1.715l4.237 1.462-.475 4.143-3.805 2.637-1.016 3.149-3.963 1.96-1.707-1.261-2.436-.072-.288.966.764 1.534-1.124 1.103-1.492-.613-2.248.411-.857.85.245 2.212-2.183 1.391-2.227-.721-1.326 1.038-3.04 4.28-2.544.339-2.817 2.478-4.482 7.357-.54-.267-1.081-2.363-2.522-2.976-.18-1.441-1.938.072-2.292-1.758-2.521 2.14.309 1.304 1.175 1.556.403 7.112 1.737 2.414-.231 2.205-1.823 1.664-.807-.382-1.621.18-1.304.743-6.125-.137-.9-.987-.296-2.14-3.019-3.358.699-1.326-.245-2.406-3.112-2.371-1.146-2.81-2.839-3.199-1.621.158-2.63 2.407h-2.097l-2.969 2.14-.338 1.124.922 2.075-.115 3.329-1.059.901h-2.926l-1.506-.627-1.621 1.282-.454 1.081-1.844.857-1.78-.569-1.376.433-4.323 3.962-1.125 1.888-1.26.296-2.385-.116-.858-.828-.137-5.404-1.549-2.162-3.314.087-1.283 2.817-1.801 2.608-.087 3.221-.857 1.153-1.376 1.506-.404 2.5 1.124 1.708-1.39 2.053 1.801 1.823 2.587 3.848-2.097 3.401-2.789 1.441-2.565 1.981-1.736.159-2.14-1.124-1.506.49-1.218 1.196-.9 1.621-1.485.994-3.675-1.333-1.505.678-2.119 4.258-1.866 5.31-1.917 1.261-2.831-.317-.815.973-.626 1.982-1.6 1.26-1.333-.136-1.463-2.004-2.788 2.811-1.081 1.578-.634.381-1.78-1.145-3.105.807-.18-1.103-.627-.245-1.175 2.544-2.839 2.997-.425 3.942.944 1.145-.202 1.485-.857.763-2.969.75-.994 2.068-1.599 1.419-2.047 3.401-1.981 1.686-1.304 2.882-1.305 3.423-1.152 1.037-3.2.137-2.046-2.723-1.038.072-1.102 1.188-3.105.073-3.423.807-.454-3.128-1.412-2.096-2.572-1.24-2.811.116-3.357-1.124-1.557-1.305.072-.857 4.864-11.168-2.5-1.802-.159-2.839h-2.255l-1.845 1.305-1.621.137-.785 1.599-2.5 1.758-.094 2.428-2.407 3.668.382 7.544-6.232 5.454-2.371 3.574-1.981 1.535-3.084.584-2.068.072-1.715 1.282-2.5.13-3.826-1.391-.404-1.599-2.277-.793-1.823-1.189-.223-3.538.857-1.08.519-1.96-.158-2.522 3.804-1.146 1.369-1.441.137-3.379-.497-1.866 1.78-2.277-.426-3.243-4.099-3.444-1.463-.655-4.929.23-1.174.85-5.289 5.361-6.038 2.363-8.509.202-3.826-1.102-1.103-.944-2.342-.382-1.851-1.398-.469-3.242.678-1.758-.591-1.146-5.383-.36-1.549-2.428-3.581-1.557-2.723-2.615.137-.966 1.642-1.419 1.686-2.501 4.569-3.083.497-1.982-.699-3.242-3.646-2.407h-12.206l-1.931.807-3.992 4.078-2.63.317-1.801-1.282-1.873-2.753-3.264-3.105-4.071-8.762.072-2.968 1.844-4.749-1.823-3.112Z"/><path d="m767.037 159.651 4.958 12.375 4.958-12.375h2.594v15.167h-2v-5.906l.188-6.375-4.98 12.281h-1.531l-4.969-12.25.198 6.344v5.906h-2v-15.167Zm-6.136 15.167h-2.01l-7.636-11.688v11.688h-2.01v-15.167h2.01l7.657 11.74v-11.74h1.989Z" class="label-text"/><path d="m605.746 287.684.771-.749h2.637l2.514-.591 2.328-1.528 2.327-3.775 6.074-5.145-.31-7.659 2.457-3.747-.1-2.255 1.837-1.499.72-.281.807-1.607 1.521-.259 1.888-1.347 2.255.079.259 2.695 2.198 1.859-.288 1.606-4.295 9.411-.101 1.268 1.737 1.318 3.149 1.088 2.795-.18 2.717 1.11 1.398 2.226.41 2.897-.67.519-1.549 2.067-.677 3.675.908 2.169-.339 1.189-2.039.238-2.198.59-1.787-1.498h-1.448l-1.167 4.503 1.088 1.758-.411 1.088-1.657.569-.339 3.877.987 2.767 5.275 2.406.439 2.227-.728 1.679-.461 2.305-1.607.699-1.837-.497-1.16.598-.259 5.015-.62.879-1.809.187-2.125-1.527-2.789-.13-1.765-4.013-4.237-1.11-1.707-2.298.129-1.427 1.398-2.068.101-2.947-1.679-2.017-.987-3.005-.331-3.905-1.067-1.268-2.896-2.248-1.189-2.198-2.018-.101.18-1.607-1.109-1.448Z"/><path d="M608.777 142.892h47.056c3.061 0 5.525 2.343 5.525 5.253v21.19c0 2.909-2.465 5.252-5.525 5.252h-47.056c-3.062 0-5.525-2.343-5.525-5.252v-21.19c0-2.91 2.464-5.253 5.525-5.253" class="label-box"/><path d="m639.419 156.969 3.636-5.813h2.354l-4.792 7.521 4.906 7.646h-2.375l-3.729-5.917-3.75 5.917h-2.364l4.916-7.646-4.802-7.521h2.344Zm-8.677 9.354h-2.01l-7.636-11.688v11.688h-2.01v-15.167h2.01l7.657 11.74v-11.74h1.989Z" class="label-text"/><path d="M631.355 176.06h1.503v79.644h-1.498Z" class="label-connector"/><path d="m625.589 515.755 5.159-5.152 2.09.36 1.333-.475.425-4.929.36-1.059-2.615-3.264-3.012 1.21-3.315-1.686-2.341 1.441-3.373-1.578-.475-2.831-1.96-2.299-1.556.966-.923-.649-2.341.202-.519 1.42-1.009-.721-1.873-3.314.612-1.73 3.127.829 3.805-2.407 1.916-2.594 4.187.519 1.282 2.003 2.839.317 1.535.944 1.506-.086.857.836 3.106-1.982-.094-2.774 2.032-.288 5.173-3.56 2.818-.273 1.376-1.348 1.102-2.14 2.746-2.565 1.059.584.627 1.916 2.032 1.506 1.866-.403 3.019 2.406 1.549-1.059 1.83-.317 1.03-2.745 1.153-1.528 1.866-.951 3.423 2.14 1.736-3.221 3.445-.086.742-1.261-1.124-1.398.468-.828 1.621-.771 1.895.742 3.041-4.143 1.708-.072 1.304 1.016h1.081l1.26-1.333.476-1.708 1.376-2.205 1.081-.158 1.081 1.102.086 2.522 2.385.158 3.761-4.64.743-1.037 3.019.54 1.938-1.506 4.1 1.326-.274 4.64.814.922 2.565.116-.072 1.686-.973 1.398-.338 4.481-1.549.987-.339 1.694-1.96 2.341-.223 1.73 1.167 1.196 2.839-3.019h1.484l1.355 1.398.468 5.267.541.54 1.174-.742.836-1.528 4.294.152.389 1.621.923 1.621.086 1.196.656 1.081-.202 1.506-1.715 1.599v1.694l.497 2.226-1.621 2.227-1.844.54-.274 2.212-1.549 1.463-1.175 3.984.072 3.063.793 1.556-.252 2.608-4.007 3.963-3.264 2.047-1.895.634-.742 1.779 1.016 2.544-2.659 2.068-2.882.454-.158 2.947.612 1.059-1.282.699-3.293.158-1.391 1.059-.857 2.746-1.737.634-.648 2.313h-.368l-2.219-2.767-1.196.245.735 3.098-4.23.872-1.088.785-.698-2.759-2.068-.562-2.104-1.153-1.052 1.052-1.665-2.183-.591-2.328-2.305.627v3.466l-1.946.533-.72 1.607h-1.268l-.418-.382-2.529 1.002-2.983-1.442-4.504 1.189-5.742-2.831-1.73-1.96-4.705-1.059-.973-5.066-1.102-1.081.295-2.255 2.472-2.298-.245-2.27-3.898-1.737-3.034 1.153-2.975-2.032-3.128 1.197-5.295-3.243Z"/><path d="m681.608 503.403 3.636-5.812h2.354l-4.792 7.52 4.907 7.646h-2.375l-3.73-5.916-3.75 5.916h-2.364l4.916-7.646-4.802-7.52h2.344Zm-8.281 7.365q-.771 1.104-2.156 1.656-1.375.542-3.208.542-1.855 0-3.292-.865-1.437-.875-2.229-2.479-.781-1.605-.802-3.719v-1.323q0-3.427 1.593-5.312 1.605-1.886 4.5-1.886 2.376 0 3.823 1.219 1.449 1.208 1.771 3.437h-2q-.562-3.01-3.583-3.01-2.01 0-3.052 1.417-1.032 1.406-1.042 4.083v1.24q0 2.552 1.167 4.062 1.166 1.5 3.156 1.5 1.125 0 1.969-.25a3.05 3.05 0 0 0 1.396-.844v-3.406h-3.511v-1.625h5.5Z" class="label-text"/><path d="m759.645 240.648.259-2.659-.159-3.884 1.658-2.507 1.578-.26 2.017.879-.13 2.198-.778.778.389 2.536 1.708 2.299 1.477-.151.879.799.44 1.939 1.779.288.937 1.059-.209 3.17-.684.159-2.983 2.053-1.305 3.178.303 4.006-1.888.685-4.1-1.636-1.657.62-1.419-.288-1.917-2.227-.209-1.391 1.067-2.385-.073-2.017-.879-1.499.469-2.788-.389-1.766 1.189-1.318Z"/><path d="M876.118 250.769h47.056c3.061 0 5.525 2.343 5.525 5.253v21.19c0 2.909-2.465 5.252-5.525 5.252h-47.056c-3.062 0-5.525-2.343-5.525-5.252v-21.19c0-2.91 2.464-5.253 5.525-5.253" class="label-box"/><path d="M907.558 258.929h2.01v10.739q0 2.178-1.313 3.407-1.302 1.229-3.479 1.229-2.26 0-3.52-1.156t-1.261-3.24h2q0 1.302.708 2.031.72.729 2.073.729 1.24 0 2-.781.771-.781.782-2.187Zm-6.105 1.646h-4.875v13.52h-1.989v-13.52h-4.865v-1.646h11.729Z" class="label-text"/><path d="M769.418 253.224v-1.504h61.6l27.143 14.172h9.238v1.504h-9.502l-27.255-14.151Z" class="label-connector"/><path d="m833.643 359.838-1.167 1.629-.771 4.006-1.167 1.037-.699 1.499 1.556.959.62 1.65 2.897.598 1.03 1.578 3.408-2.45 2.335-2.875.511-2.76-2.443-2.097-3.811-1.448ZM835.632 357.821l4.352 1.109.36 1.132-2.853-.389-2.817-.634-2.558-1.773 1.254-.807ZM840.878 361.596l-.073.483-2.68-.958Z"/><path d="M919.313 349.518h47.056c3.061 0 5.525 2.343 5.525 5.253v21.19c0 2.909-2.465 5.252-5.525 5.252h-47.056c-3.062 0-5.525-2.343-5.525-5.252v-21.19c0-2.91 2.464-5.253 5.525-5.253" class="label-box"/><path d="M955.461 372.949h-2.01v-7.011h-7.646v7.011h-2v-15.167h2v6.521h7.646v-6.521h2.01Zm-19.844-6.761q-2.573-.74-3.75-1.812-1.166-1.083-1.166-2.667 0-1.791 1.427-2.958 1.437-1.177 3.729-1.177 1.563 0 2.781.604 1.23.604 1.896 1.667a4.23 4.23 0 0 1 .677 2.323h-2.01q0-1.375-.875-2.157-.875-.79-2.469-.791-1.48 0-2.312.656-.823.646-.823 1.802 0 .927.781 1.573.792.635 2.677 1.167 1.896.53 2.958 1.177 1.073.635 1.584 1.489.52.855.52 2.011 0 1.843-1.437 2.958-1.437 1.104-3.844 1.104a7.2 7.2 0 0 1-2.916-.594q-1.355-.604-2.094-1.645a4.03 4.03 0 0 1-.729-2.365h2.01q0 1.375 1.01 2.177 1.021.792 2.719.792 1.584 0 2.427-.646.844-.646.844-1.76 0-1.115-.781-1.719-.781-.615-2.834-1.209" class="SH-text"/><path d="M843.772 364.616v1.499h66.83v-1.499Z" class="label-connector"/><path d="m835.899 372.844-1.218-1.621-2.796-.678-.403-1.686-1.535-.763-2.003 1.232-.627 1.578-1.758 1.578-1.239-.454-.584-1.146h-1.441l-1.664.944-4.821-3.17-3.177.85-.087 3.963-1.196 3.494-2.089 2.047 1.75 2.659-1.059 1.441-2.068.583-2.723-.18-.296.677.541 6.752-1.326.792-.137 2.501-3.898 4.229-1.348.274-2.384 3.192-.231 3.041 4.482 3.537 2.075 2.501 1.441 5.541 3.329-.209 1.081.879.252 2.392-.252.764 1.599 1.823 2.162 5 .295 1.304 3.668.425 3.019-1.823 1.037-2.204.541-.606 1.059.404 2.089 3.667 1.485.923 4.078-1.686 1.081-.678 2.161.404 1.571 1.03 1.146-1.542-.18-2.68.18-1.672 1.282-3.66 1.117-2.608 1.247-.887.367-4.395 2.493-1.038.519 3.437 1.758-2.406 2.27-1.571-1.384-2.94-1.347-2.305 2.053-1.867v-2.529l1.982-2.702-.735-2.212 1.275-1.088-.699-2.63-.309-3.66-1.031 2.515-2.507.223 2.803-3.797 3.105-2.385 2.457-1.225-.317-1.592-3.855-1.578-1.498.504-1.088 2.536-1.982.793-2.443-1.693-3.228-2.508-2.593.346-3.437 3.077-1.895.763-3.337-.554-2.99-.75-.67-1.138 2.551-1.376 3.84-.368 2.054-.684.173-2.14Z"/><path d="M831.514 393.519h2.011v10.74q0 2.177-1.313 3.406-1.302 1.23-3.479 1.229-2.26 0-3.521-1.156-1.26-1.157-1.26-3.24h2q0 1.303.708 2.032.719.729 2.073.729 1.24 0 2-.781.77-.781.781-2.188Zm-17.625 13.531h8.677v1.636h-11.041v-1.5l8.312-12.021h-8.177v-1.646h10.573v1.469Z" class="label-text"/><path d="m519.246 435.869 2.723-2.457 1.931 1.175 2.659-1.153.223-3.689-.562-1.333.815-1.982-.361-2.565 2.205-.288 1.376-1.83.13-2.184 1.174-1.145h1.42l1.059 13.87 2.472 3.581 1.895-1.873 1.462.209 3.985-4.1 2.053-.404 1.261.649.152 2.255-1.146 1.686.922 2.342.274 2.5 4.525 1.758h2.27l4.236 4.929.425 2.435 3.293 3.372.382 4.057 1.78 1.462.872 1.867.792.317-.454 2.839 1.823 1.325.433 3.855 1.823.764 1.037 1.643 4.208.295 1.059-1.196 4.821-2.882 1.189-.159 1.196 2.162 4.662-2.817.425-1.506v-3.603l-1.939-2.968.613-7.343.922-1.239 1.304-.137 5.448-5.512.518-2.997-.828-1.578 1.189-2.63 3.465-.642.858-1.196-1.023-2.896 1.138-1.852 2.623.49 2.745-.958 1.261 1.239-1.081 1.117.396 2.896 1.759 1.182.144 2.745-.865 1.225 2.241 1.823 2.45.296 3.004-.685 1.42-2.738 1.599-.454 1.506 1.592.62.181-.187 2.723.965.879-2.27 5.901-2.291.209-1.571 1.038-2.053-.281-3.12.187-1.311-.965-1.643-.245-1.953 2.046-2.45-1.628h-.915l-4.359 4.568v.756l2.018.75.497 1.261-1.124 2.075 1.102 1.585.144 2.255 2.659.67 1.21-.49.879-1.397 2.854-.166 1.311-.858 3.819 4.547-2.017 2.435-.188 3.524-2.86 5.634 1.916 4.136 2.464 1.067 1.478 2.183-.339 4.222-1.571 1.996-.987 3.869 1.837 3.3.901.613.641-1.441 2.32-.094.923.519 1.29-.757 2.053 1.672.483 3.394 3.797 1.455 1.953-1.679 1.981 1.355 1.542.483 1.873-.613.937-.41 2.789 3.112-1.016 6.161-1.47.353-1.895-.418-5.332 5.382-3.113-1.354-6.355 4.438.108 3.329-7.731 2.76-1.852-1.888-2.032 1.765-1.578 3.769-4.647-4.684-1.758 3.257-2.4-3.156-5.541 5.505-6.326-4.907-1.758.476-.829 1.988-3.624 3.192-6.96-.778-2.104 4.086 2.889 5.548.641 5.995-.771 5.346-1.931-.922-4.928.086-2.702-8.452-4.424 1.6-3.401 2.853-3.041-1.16-2.5 1.492-1.65-4.115-1.938-1.592.18-4.503-11.572-2.22 1.124-3.905 1.837-2.551-.281-3.71 2.493-2.724-.49-2.68-5.966-.072-2.435-2.097-.778-5.901-1.888-5.26 1.909-3.228-3.566.137-4.467-1.024-4.446.844-3.257 3.04-2.183.202v-1.881l1.657-3.357-.519-2.868-1.117-1.124-.612-3.279.886-2.32 2.609-.857-.57-1.729 1.787-4.633 3.862-.98 1.362-3.452 2.277-.259 2.421-3.444 1.744-.476.886-1.203-1.261-2.659 1.974-2.86 1.117-11.169-1.009-4.308.62-2.544-.144-3.055-3.005-1.945-1.815 2.067-2.983-6.65Z"/><path d="M579.603 505.741h-2.01l-7.635-11.687v11.687h-2.011v-15.167h2.011l7.656 11.74v-11.74h1.989Zm-19.843-7.552 3.958-7.615h2.271l-5.229 9.511v5.656h-2v-5.656l-5.23-9.511h2.292Z" class="label-text"/><path d="m721.535 228.737-.547.339-1.239 2.716-2.991 1.391-3.026 2.27-1.585.072-1.888-1.196-1.383.41-1.593 1.499-.713 1.477-1.693.944-3.452-1.369-1.628.641-2.716 5.937-1.319 3.675-1.902 1.333-2.76-.439-.85 1.354-.468 1.672-1.823 1.499-.642-.13-.072 3.689-.266 1.715-1.737 1.801v3.985l-.728 1.808-.425 3.077-2.558 2.226-1.282 2.609.101 2.68 1.981 1.823 1.902 2.731-.072 1.989-.864 1.614.137 2.226-2.544 4.799-.115 5.454 1.189 1.621.216 7.191 2.86 7.508-.245 2.335-1.952 3.257-1.362 4.1.238 5.223.771 1.564 4.193.13 2.328-.865 1.412-1.902 3.437-1.448 3.192-.599 3.833-4.107 1.146-.533 1.707-.072.742-1.902 2.104-.749 3.502.072 1.881-1.564 1.988.634 1.204-.31 1.988-1.671 4.194-2.854 1.787-1.736.194-5.174.44-2.103-.072-5.073-1.888-1.744-1.729-2.406.259-1.708.685-.54.771-.108 1.787-2.609-.476-2.255.195-1.384.49-.835.461-2.486 1.477-2.248.749-2.176-.684-1.643-3.156-3.79-.915-2.673-2.76-1.023-.836-1.038-.497-4.15 1.009-1.276 1.001-.907 1.009-1.204.072-1.023-.829-.713-.23-1.067 1.643-1.902 3.04-.62 2.393-1.311.36-.929.31-2.796.879-2.198-.714-1.693-1.513-1.412-.396-2.183-.749-.829-2.457-.231-1.463-1.008-.353-1.168.807-1.823 2.363-.749 1.629-1.419v-.505l-1.859-.893-.404-2.421Z"/><path d="m708.382 292.337 3.636-5.812h2.354l-4.792 7.521 4.906 7.645h-2.375l-3.729-5.916-3.75 5.916h-2.364l4.916-7.645-4.802-7.521h2.344Zm-13.135 2.594q-2.574-.74-3.75-1.813-1.167-1.083-1.167-2.666 0-1.792 1.427-2.959 1.438-1.177 3.729-1.177 1.563 0 2.782.605 1.229.603 1.895 1.666.678 1.063.678 2.323h-2.011q0-1.375-.875-2.156-.874-.792-2.469-.792-1.48 0-2.312.656-.823.647-.823 1.803 0 .927.781 1.572.792.636 2.677 1.167 1.896.531 2.959 1.177 1.073.635 1.583 1.49.52.853.521 2.01 0 1.843-1.438 2.959-1.437 1.104-3.843 1.104a7.2 7.2 0 0 1-2.917-.594q-1.354-.604-2.094-1.646a4.02 4.02 0 0 1-.729-2.364h2.01q0 1.374 1.011 2.177 1.02.79 2.719.791 1.583 0 2.427-.646.843-.645.843-1.76t-.781-1.719q-.781-.614-2.833-1.208" class="label-text"/><path d="m652.112 280.817 2.003 2.681 2.998-.202 1.441-.857 1.124-3.445 1.441-3.083 2.075-1.463 2.226-3.855 1.355-1.146.987-1.959 2.904-.836 1.059-.872v-1.376l-1.009-1.24.541-4.049 2.766-2.616 1.168-2.723.699.446.273.721 2.969-.49 1.96 1.059.764-.655.72-1.326 2.659-2.796 2.054 2.227.244 3.062-.273 2.118-1.866 1.823-.073 3.92-.59 1.758-.382 3.149-2.681 2.5-1.282 2.457.115 2.428 2.097 2.299 1.751 2.68v1.866l-.851 1.737.109 2.161-2.522 4.799-.18 5.426 1.131 1.686.331 7.183 2.702 7.501-.223 2.133-1.823 3.314-1.347 4.165.18 5.289.85 1.621.634 2.572 1.304 1.326.296 1.528 1.959.972.671 3.106-.13 1.376 1.844 1.304 1.398 2.277 2.27 2.047v3.465l-2.839 3.221-2.63-1.888-2.162 1.549h-3.019l-1.016-.54-5.022-.562-1.772.605-.569.793.432 1.261 2.702.36.447 2.363 3.084.678 1.938 1.304-.224 2.025-2.363.475-2.277 1.103-2.003.288-1.196 3.876.749 1.845 1.91 1.938-.605 1.708v2.19l-4.684.901-1.333-.389-.519-2.068-3.465-.562-5.851-3.675-2.774.231-4.122 1.801-4.028-3.134-2.118-.267-1.506-1.715-1.535.836-1.822-.202-.743-1.102-.583-2.277-3.336-.339-1.441.699-6.276 1.535-1.578-.879-.497-2.457-1.06-.656-3.465-.245 2.457-2.723.763-2.767-.742-1.874-2.255-1.217.973-1.593 2.608-1.239 5.361-.072.288-.649-.245-.835v-3.221l-.72-1.189 1.981-4.482 1.081-1.059-.072-1.239-1.6-1.535-2.817-.807-.137-1.081 2.118-1.917.339-2.161-.699-1.549.497-1.578 3.488-.858 2.658.361 2.457 2.204 6.348-1.102 1.377-.829-.93-1.671.159-2.522.972-.151 1.888.871 2.234-1.188 3.984.223 1.506-.966.36-3.422-1.462-1.96-.339-3.336 2.342-2.025-.202-5.469-1.844-1.671-1.333-.288-2.811-1.96-1.938.54-2.767-2.702-4.777-1.376-.54-.49-1.578-.36-1.211-3.041.382-1.715-1.037-1.96.807-3.783 1.873-2.111 3.768-.98 2.875-.072 1.643-1.203Z"/><path d="M667.148 353.727h-2.011l-7.635-11.688v11.688h-2.011V338.56h2.011l7.656 11.74v-11.74h1.99Zm-19.844-6.76q-2.573-.74-3.75-1.813-1.167-1.083-1.167-2.667 0-1.791 1.427-2.958 1.438-1.177 3.729-1.177 1.563 0 2.782.604 1.228.604 1.896 1.667.677 1.062.677 2.323h-2.011q0-1.375-.875-2.157-.874-.79-2.469-.791-1.48 0-2.312.656-.823.646-.823 1.802 0 .927.781 1.573.792.636 2.677 1.167 1.896.53 2.959 1.177 1.073.635 1.583 1.489.52.855.521 2.011 0 1.844-1.438 2.958-1.437 1.104-3.843 1.104a7.2 7.2 0 0 1-2.917-.593q-1.355-.605-2.094-1.646a4.03 4.03 0 0 1-.729-2.365h2.01q0 1.375 1.011 2.177 1.02.792 2.719.792 1.582 0 2.427-.646.843-.646.843-1.76t-.781-1.719q-.781-.615-2.833-1.208" class="label-text"/><path d="m770.943 262.862-1.146 1.823-1.881 1.383-.259 2.457-1.297.641-1.787-.158-4.619.821-1.03 2.097-2.983 3.221-1.362-.8-.9 1.362-.692 2.587-2.227.763-1.585 5.52-1.772 3.487-1.83 1.297-1.557 2.14-.173 2.529 1.153 2.234 1.441 1.758.137 2.262-1.182 1.427-.194 1.981.576.598 4.107-3.004 2.162-.951 2.025-1.542.281 1.275-3.344 2.767-5.382 5.721-.36 1.643-2.947 2.205-.361 1.779-1.397 1.499-.101 1.383 4.136.858 2.644 1.758 1.506.648.281 2.032 1.816 1.211 2.262-.922 2.63-.145 1.174-.518 2.443.201 2.104-1.16.483-4.287 3.819-1.599 1.815.634 2.767 2.831.966 2.472 1.001.692 1.931-1.283 2.047 1.102 1.037-.151 1.982-1.7.641-1.78 2.09-.54 2.514 1.541.072 1.658.923.72 1.844-1.138 1.225-4.064 2.76-.641.98-4.417.994-1.809 2.406-.893 2.097-.166.353-2.961 1.103-1.643 1.484-3.711 2.356-.728.519-1.736 1.11-2.954 1.714-1.542-1.995-2.183 1.311-1.297 1.909.951 2.248.346 1.874-1.881-.18-4.338 1.16-2.118 1.671-.375 3.257-2.709 2.385-1.657 1.131-.858 1.924-1.477 1.859-2.421 2.018.368.965-.966 2.018 1.83 2.14-1.65-.887-2.298.743-1.852-.173-3.12-2.184-.843-2.003 1.095-2.385-1.095-3.566 1.434-2.962 1.477-1.758-.771-1.232-1.405-1.599.353-3.149-2.032-2.291-1.059-2.811 1.059-3.026 2.306-.547 2.911-3.264 2.904-.548 3.091-2.464 2.644-5.203-.555-3.948-1.506-.555-6.967-2.284-2.464-3.437-.901-2.14-1.6-1.895.685-2.457 1.513-2.291-1.909Z"/><path d="M777.103 301.691v-15.166h4.281q1.979 0 3.5.875t2.344 2.489q.833 1.615.843 3.709v.968q0 2.146-.833 3.761a5.8 5.8 0 0 1-2.364 2.479q-1.532.864-3.573.885Zm2-13.52v11.885h2.104q2.312 0 3.594-1.438 1.291-1.437 1.291-4.093v-.886q0-2.583-1.218-4.01-1.209-1.438-3.438-1.458Zm-10.188 6.76q-2.572-.74-3.75-1.813-1.166-1.083-1.166-2.666 0-1.792 1.427-2.959 1.437-1.177 3.729-1.177 1.562 0 2.781.605 1.228.603 1.896 1.666.677 1.063.677 2.323h-2.01q0-1.375-.875-2.156-.876-.792-2.469-.792-1.479 0-2.313.656-.823.647-.823 1.803 0 .927.782 1.572.791.636 2.677 1.167 1.896.531 2.958 1.177 1.073.635 1.583 1.49.521.853.521 2.01 0 1.843-1.437 2.959-1.438 1.104-3.844 1.104a7.2 7.2 0 0 1-2.917-.594q-1.353-.604-2.093-1.646a4 4 0 0 1-.73-2.364h2.011q0 1.374 1.01 2.177 1.021.79 2.719.791 1.584 0 2.427-.646.844-.645.844-1.76t-.781-1.719q-.782-.614-2.834-1.208" class="label-text"/><path d="m512.487 361.474 1.686-.432.721-1.867-.944-1.527.295-1.42 3.466-2.521 3.538-.858 2.089.742 3.315-.54 1.801.562 3.062-.627 4.77 2.702 1.463.339 1.419 1.008 3.264-2.406h2.861l1.037 2.385 7.249 7.724 2.5.447 1.441-.562 1.622.403 1.462-2.342-.158-2.565 1.311-2.478 3.985-2.472 1.729.267 1.261 1.419.879 1.802h.792l2.854-2.457h1.981l1.376 1.491 1.535-.252.382-2.27 1.369-2.413-.339-1.78-1.484-1.081-1.145-3.466-.159-1.866 2.183-1.664 3.401-.901 3.127-1.758 1.355-.202 2.089 1.124-.331 3.646 1.124 2.5 2.904.879 1.059 3.178 4.864 4.273 1.599.201 2.565-2.183h.944l1.578 3.855.764 1.347-.108 2.861 2.63 2.839 3.105.288 1.081.749.793-.475 2.089 1.239 3.92-1.938.158-2.861.995-.9 6.665.274 1.124.763.36 2.277 1.506.829 6.24-1.398 1.621-.742 3.127.18.994 2.933.923.85 1.549.072 1.196-.901 1.686 1.665 2.118.36 3.718 2.904h.678l3.53-1.643 2.817-.245 2.205 1.347-.086.858.266 1.484-1.707 2.025.072.814 2.839 1.888.072.612-.36 1.506-1.96 1.304-1.6 2.162-3.761 8.74-1.391 1.081-3.718-.274-1.217.742-.807 4.842-4.482 6.759-1.715.497-3.149-.656-3.199-3.848-.836.404-1.261 1.081-1.642.108-3.308-2.046-1.895-.743-1.707.476-2.076 3.603 2.097 2.766-.115.879-.49.541-6.506 5.332 3.602 4.532 2.428.382 1.622 4.59 5.137.857 1.621 1.801.649 2.638-.289 1.931-4.46-3.466-.922.382-.497 1.916-1.938.202-1.146 1.6.288 2.767 5.138 2.183 2.068.454.929 2.478 1.369 2.292-.764 1.131h-2.882l-5.137 1.917-2.09-1.578-3.379.497-.879-.858.274-2.767-.793-.158-1.484-1.556-1.528.273-1.491 2.969-3.351.656-2.413-.447-1.823-1.693.857-1.189-.223-2.659-1.737-1.196-.497-2.882 1.102-1.261-1.282-1.304-2.652 1.037-2.594-.54-1.239 2.046 1.081 2.681-.879 1.196-3.625.627-1.008 2.838.879 1.463-.634 3.019-3.488 3.286-1.96 2.341-1.332.159-.872.987-.613 7.342 2.075 2.998-.273 4.546-.202.721-4.59 2.659-1.131-2.162-1.463.202-4.864 2.99-.626 1.11-4.417-.159-1.24-1.938-1.707-.476-.274-3.941-1.96-1.369.476-2.637-.836-.541-.922-1.938-1.665-1.304-.36-4.121-3.401-3.329-.36-2.479-4.367-4.95-2.205-.072-4.46-1.549-.403-2.637-.973-2.227 1.261-1.873v-2.046l-1.441-.764-1.953.403-4.193 4.1-1.283-.23-1.844 1.822-2.457-3.393-1.78-22.452.475-1.239v-2.681l-.677-1.686-.245-9.547-1.304-.973-.699-3.242-1.693-2.046-.267-1.686 1.103-.137 1.895-1.355.072-1.052-3.106-2.976-2.053-3.285-.31-4.165-1.96-2.212-.36-2.745-3.084-2.407-3.833-.901-2.342-1.664Z"/><path d="M594.149 399.196q-.282 2.406-1.782 3.719-1.49 1.302-3.968 1.302-2.688 0-4.313-1.927-1.615-1.928-1.615-5.156v-1.459q0-2.114.75-3.719.761-1.603 2.146-2.458 1.385-.864 3.209-.864 2.416 0 3.875 1.354 1.458 1.344 1.698 3.729h-2.011q-.26-1.812-1.135-2.625-.865-.813-2.427-.813-1.917 0-3.011 1.417-1.083 1.417-1.083 4.031v1.469q0 2.469 1.031 3.927t2.886 1.458q1.666 0 2.552-.75.896-.76 1.187-2.635Zm-19.344-1.948q-2.573-.74-3.75-1.812-1.167-1.084-1.167-2.667 0-1.792 1.427-2.958 1.438-1.177 3.729-1.177 1.563 0 2.782.604 1.229.604 1.895 1.666.678 1.063.678 2.323h-2.011q0-1.374-.875-2.156-.874-.792-2.469-.792-1.48 0-2.312.657-.823.645-.823 1.802 0 .927.781 1.573.792.635 2.677 1.166 1.896.532 2.959 1.177 1.073.636 1.583 1.49.52.854.521 2.01 0 1.845-1.438 2.959-1.437 1.104-3.843 1.104a7.2 7.2 0 0 1-2.917-.594q-1.354-.604-2.094-1.646a4.02 4.02 0 0 1-.729-2.364h2.01q0 1.374 1.011 2.177 1.02.791 2.719.791 1.582 0 2.427-.645.843-.647.843-1.761t-.781-1.719q-.781-.614-2.833-1.208" class="label-text"/><path d="m634.135 430.235 1.21-.699.778-1.708-.23-1.837 1.578 1.397-.159 1.838 1.996 1.109 1.29-1.289.987-2.875 1.11-1.939 2.096-.907 2.018.936 1.549-.158 1.859-1.448-1.16-2.947.519-1.809.8-.108 1.916 1.037 1.448.231.771 1.787 1.168.461 1.679-1.391 3.674.073 1.398 3.754-.439 1.678 1.109.829 2.587.67.158 2.716.57 1.708.9-.828-.331-1.369.54-.231.93.958-.209 1.679 1.138 1.038 2.897.151 1.398-1.917v-1.578l1.318-.85-.648-9.828-2.018-.908-3.076-3.725-.26-3.336-1.888-.569-2.356-2.587-1.578 1.268.778-7.421-2.197-3.027 2.976-2.176 2.096.072 2.998-1.318 3.105.202 3.488-1.139 4.143-4.525 2.738 1.088 1.059-2.226-.49-2.846.728-1.629-.57-2.558-1.707-2.096-1.557-1.038-.072-3.228-4.114-.13-4.993.901-1.16-.281-.598-2.306-3.625-.382-3.408-2.226-.468.389.411 1.708-1.83 2.169.151.677 2.767 2.068.288.67-.548 1.297-2.068 1.39-1.599 2.385-3.524 8.2-1.599 1.239-3.725-.18-1.168.591-.72 5.022-4.705 6.644-1.657.619-3.135-.821-2.918-3.704-.958.31-1.499 1.189h-1.319l-3.624-2.27-1.989-.518-1.556.67-1.729 2.846v.98l1.679 1.815.259 1.16-.85 1.009-6.031 4.813v.649l3.235 4.287 2.299.209.879 1.347.958 3.437 5.152.779 1.679 1.758.619 2.766-.18 1.968Z"/><path d="M416.86 466.305h47.056c3.061 0 5.525 2.343 5.525 5.253v21.19c0 2.909-2.465 5.252-5.525 5.252H416.86c-3.062 0-5.525-2.343-5.525-5.252v-21.19c0-2.91 2.464-5.253 5.525-5.253" class="label-box"/><path d="M453.357 481.465q0 2.198-.698 3.791-.698 1.584-1.958 2.48l2.708 2.125-1.365 1.26-3.197-2.542a6.5 6.5 0 0 1-1.584.188q-1.791 0-3.177-.875-1.385-.885-2.156-2.511-.76-1.635-.781-3.781v-1.094q0-2.187.76-3.864t2.146-2.563q1.395-.895 3.187-.895 1.834 0 3.219.885 1.396.885 2.146 2.552.75 1.656.75 3.875Zm-2-.979q0-2.678-1.073-4.125-1.062-1.46-3.042-1.459-1.886 0-2.979 1.448-1.083 1.438-1.114 4v1.115q0 2.604 1.083 4.104 1.094 1.5 3.031 1.5t3-1.406q1.063-1.417 1.094-4.052Zm-12.313 3.26q-.28 2.406-1.781 3.719-1.49 1.302-3.969 1.302-2.687 0-4.312-1.927-1.614-1.928-1.615-5.156v-1.459q0-2.115.75-3.719.761-1.603 2.146-2.458 1.386-.864 3.209-.864 2.416 0 3.875 1.354 1.458 1.344 1.697 3.729h-2.01q-.26-1.812-1.135-2.625-.865-.813-2.427-.813-1.917 0-3.011 1.417-1.083 1.416-1.083 4.031v1.469q0 2.469 1.031 3.927t2.885 1.458q1.667 0 2.553-.75.896-.76 1.187-2.635Z" class="label-text"/><path d="m619.035 416.113.758 1.158-113.601 65.66H471.52v-1.497h34.131Z" class="label-connector"/><path d="m418.861 297.094.836.072 5.447 2.63h2.594l3.148-1.686 3.646-.785.541-1.398-.649-.742-3.401-.159-.763-4.503 2.204-2.003 2.385-.656 1.737-1.326-.137-2.86 1.801-1.621-.18-.923-10.066-7.68-.158-9.05 6.196-3.985 8.596-.137 8.762-1.239 4.662-2.428 8.264 3.934 1.888 3.963 6.78-.425 1.218 2.817 4.835-.252 2.954 6.038 7.746-1.218 7.385 2.637 4.367-.317 3.444 2.227 2.277-1.081 2.81-.425.432-4.165 2.724-3.675.072-3.148-.966-2.883 1.578-1.397 8.798 2.565 1.355 1.83 2.925 2.342 3.56-3.654 1.822 1.78 2.047-1.78 4.532 1.622 2.853 3.293 1.333.086 6.168 7.249 2.075.201 1.009-2.493 2.234 1.168 2.493 2.298 2.161 1.124 3.516 3.127.519 1.693 3.985 2.789.879-.072 3.444 1.823 2.522-1.621.944.115.201 1.888 2.883 2.413.951 2.789 1.21 1.845.36 3.494 1.895 1.866.267 3.697 1.96 1.03.742 2.659 1.672 1.916-.699 2.205-.252 3.697-3.041 4.654-2.003-1.167-1.081 2.659-1.643.67-.785 1.693 1.146 2.342-.404 1.578-2.882 1.952-2.767.879v5.181l.584 2.587-1.24 2.911-2.118.583-3.869-1.152-3.336-3.034-2.003.108-.447 4.756 1.506 1.369 5.18.223 3.488 1.801 1.736 3.401 2.745.296h2.724l.541 1.556 1.282.721.274 1.664-1.218 2.428-.317 2.436-1.578.288-1.621-1.549-1.823.072-2.587 2.522-1.059-.072-.922-1.823-1.304-1.6h-1.6l-4.078 2.32-1.42 2.652.317 2.478-1.217 2.14-1.751-.086-1.693.403-2.767-.432-.814-1.081-6.01-6.614-.965-2.32-2.911-.072-3.127 2.493-1.42-1.081-1.78-.288-3.372-2.119-1.779-.699-2.544.743-1.78-.584-3.019.562-2.385-.807-3.782 1.081-3.2 2.14-.244 1.592 1.051 1.6-.9 1.693-4.864 1.463-.31 1.462.649.786.094 2.161-1.333 1.312-.426 2.269-6.009 8.041-.994.584-3.351-2.046-1.599.072-1.398 1.146-1.895-.224-2.853-2.161-3.178-.678-1.174-4.993-1.773-.497-4.035-2.904-1.369-2.637-2.551-1.326-5.649-.432-1.059-.541-9.864-.266-3.286-2.075-3.826.115-1.059-1.686-1.664-.072-1.938 1.059-3.488-1.347-3.113-3.272-3.645-2.003-2.702-.223-2.45-1.261-2.818-.605-1.981-1.218-6.485-.605-1.398-4.28-1.282-2.681-2.14-2.882-.562-3.444-2.637-3.336-.987-2.068-.454-1.823.677-2.183-1.059-1.016-.245-1.801.54-1.377 3.718-.245.966-2.521-1.218-1.665 1.715-5.678 1.96-3.264.288-3.689-.786-1.196-3.105-.584.13-1.174 3.581-1.729Z"/><path d="M511.882 322.739h-2.011v-7.01h-7.645v7.01h-2v-15.166h2v6.521h7.645v-6.521h2.011Zm-14.74-7.093q0 2.198-.698 3.791-.698 1.584-1.958 2.48l2.708 2.125-1.364 1.26-3.198-2.542a6.5 6.5 0 0 1-1.584.188q-1.791 0-3.177-.875-1.385-.886-2.156-2.511-.76-1.635-.781-3.781v-1.094q0-2.187.76-3.864.761-1.677 2.146-2.563 1.396-.896 3.188-.896 1.833 0 3.218.886 1.396.885 2.146 2.552.75 1.656.75 3.875Zm-2-.979q0-2.678-1.073-4.125-1.062-1.46-3.041-1.459-1.885 0-2.98 1.448-1.083 1.438-1.114 4v1.115q0 2.604 1.083 4.104 1.094 1.5 3.031 1.5t3-1.406q1.063-1.418 1.094-4.052Z" class="label-text"/><path d="m792.004 230.027-1.477-.771-.541-2.385-2.053-1.491-.699-2.724-3.848-.447-1.282-1.599-2.256.201-2.341-2.586 1.376-1.578-.115-2.119 1.801-1.866-.087-1.261 1.708-1.96.317-2.075-1.643-2.183-.475-2.248v-5.116l-1.391-1.463-.137-1.261 2.457-2.363 2.133 1.938h2.162l.072 1.305 2.658 2.954.988 2.428.72.339.584-2.004 2.839-3.739.922-1.665 2.817-2.478 2.522-.425 2.99-4.396 1.355-.698 2.161.475 2.119-1.261-.202-2.342 1.283-.742 1.779-.317 1.622.382 1.282-1.009-1.059-1.441.288-1.037h2.522l1.873 1.217 4.028-1.916.454-2.342 1.059-1.441 3.034-1.888.749-6.146.512-.252 2.86 1.535 3.315.742 2.183 2.385-.115 2.205.792.677 1.686-.836.627-2.608 1.513-1.059.858.742.468 3.062 1.556 1.124.519 1.65 1.6.966 3.869 5.382 1.895.245.108 1.463-1.059 3.494 1.261 3.084 1.261.245 2.298 2.839 3.041 2.817.086 2.832-.648 1.801 1.009 2.032-2.27 3.214-4.1 2.457-1.398 2.586-1.325.858-3.697 5.087-.382 3.559-2.01 1.722-.994.606-3.934.36-1.514 1.506-3.35.598-.807 1.765-1.773.173-3.876 3.185-5.476 4.936-1.283 2.925-1.599 1.78-2.918 2.003-2.551 2.925-2.76 2.234-.915-1.074.67-2.522 1.614-.173.742-1.498 2.025-1.103.389-1.902 1.189-3.394-2.781.793-1.391-1.211-2.291-1.311 1.448-.807.18-3.675 1.225-1.398 2.94-2.204.937-2.803 2.586-5.916-2.104-1.527-3.653-3.668-2.313-.576-2.572 1.47-3.646.18-2.471 1.52-.368 2.385-1.059 1.066-2.767 3.877-.18 3.603-2.118 1.405Z"/><path d="m826.035 235.64 1.549-.13-.389 1.031h-1.29Z"/><path d="M840.787 204.636h-2.011l-7.635-11.687v11.687h-2.01v-15.167h2.01l7.656 11.74v-11.74h1.99Zm-21.125-1.635h7.187v1.635h-9.198v-15.167h2.011Z" class="label-text"/><path d="m746.336 470.678 1.283 1.002.245.994 3.062.144 2.255-1.282 1.982-.498 1.282.62.987 1.845-.605 1.823-2.745 1.931-.757 2.824-2.017 2.68 3.235 2.169 10.196-3.963 3.977-2.046 3.588 2.709 1.838-.101.482-1.203-1.03-2.882 2.025-1.528-1.304-2.723-.08-1.65 1.189-1.124.771-6.708 1.023-1.434.087-2.565 1.873-1.067 1.304-2.803-.835-2.997 2.32-2.399v-.901l-1.42-2.846.346-3.985 1.715-1.318 3.365-1.427 2.125-3.538-1.325-4.345 1.542-3.595.367-2.27 2.731-1.592 1.441.151.865.858 1.542.201.439-1.297 2.205-1.664 5.087-2.421-.144-2.155 1.297-1.779-1.456-5.527-2.363-2.651-4.287-3.416.144-2.702 1.239-2.147-1.686-1.96-1.571-.36-1.585.641-4.186-.259-1.938-1.383-1.045-1.578-1.542-.166-.36-.778-1.204-.094-.619.814-.389 2.191-.944.936-1.362 2.342-1.801.195-1.038-1.197.274-1.505 1.419-1.456.26-1.621-1.333-1.585-1.132-.483-1.635.728-.397 1.498-1.505 1.297-6.889 3.387-2.291-1.117-2.572-.144-1.477.382-.339 2.478-1.218.627-1.888-.245-1.001.735.519 1.312-1.816.432-1.556 1.405-.462 1.196-4.308 1.484-2.796.267-.886 1.275-3.459 2.277-.245 1.067 3.509 4.546.094 3.062 1.787 2.825-.404 1.355-1.563 1.657-1.362 3.408-2.659.922-.259 2.364-1.067 1.578-.18 2.759.829 3.127.85.461 1.304-1.001.966.8.331.936-1.059 2.097.403 1.009 2.104 1.78-1.138 2.356.382 1.405 1.693 1.448 1.845.598.273 2.133-.792 1.311-.288 2.637 1.088.505 1.534-.98.671.49-1.802 2.406.101 2.227-1.571 3.444 1.103 1.571Z"/><path d="m770.641 422.134 3.636-5.813h2.354l-4.792 7.521 4.906 7.646h-2.375l-3.729-5.917-3.75 5.917h-2.364l4.916-7.646-4.802-7.521h2.344Zm-10.364-5.813h2.01v10.74q0 2.177-1.312 3.406-1.303 1.23-3.48 1.229-2.26 0-3.52-1.156-1.261-1.157-1.261-3.239h2q0 1.302.708 2.031.72.729 2.073.729 1.24 0 2-.781.771-.781.782-2.188Z" class="label-text"/><path d="M797.761 308.392h-2.284l-.987.786-1.355.23-.785 1.665-.923 4.409-2.795.836-1.146 3.805-1.938 1.196-1.103-.793-.072-1.729-2.14-1.355-2.277.497-.583 1.823-2.364 1.96-1.08-.137-1.441-1.03-2.364 1.232-1.311-1.412-.699-1.874-2.882-3.019-1.845-.201-3.264 1.376-.656 2.745.073 1.6 1.621.295 1.506 1.419 4.777 1.283.692 2.205 2.55 2.118 1.621-.158 5.015.763 1.578 1.557.454 1.78.764.288 3.487-1.189 1.038.562-.115 2.5-1.441 4.41.317 1.484 2.975.54 1.391 2.162-.086 1.196 1.08 1.78 1.441 1.189 3.87-.923.634-2.471 1.441-1.578 3.739 1.823 1.189 2.789-1.462 2.774-.987-.137-1.715-1.24-3.56.721-.31 1.037 1.261 1.305.742 1.758-.72 1.758-1.556 1.009-1.146 2.572.425 1.369 2.299 2.14 2.32.605.699.814 1.931.606v3.062l-.923 1.081.901 1.397h2.68l1.917-1.102 2.09-.072 1.671 1.052 3.041.231 1.369-.562 1.895-.231 4.633 3.019 1.917-.879 1.124.072.677 1.081 1.441.266 1.643-1.325.583-1.557 1.982-1.484.591-1.484 1.304-.951.583-3.625 1.182-2.053-.605-.339-1.434-1.621-2.824-.526-3.61-.577-.368-2.003-2.543-.504-2.868 1.427-.937.317-.266-.375 1.189-1.881 2.457-1.131 3.588.375 1.29 1.837 1.909.699h3.444l2.601.368 2.551 1.462 3.214.534 1.513-.339.461-.915-1.931-2.63-3.776-3.415-3.509-.923-1.275-3.653-3.185-1.239-3.66-.915-1.398-1.002.555-2.428-.879-2.291-4.367-6.37-2.702-4.503-3.465-6.571-1.78-1.773-8.92-2.731-1.629-1.816-4.071-.734-.396-3.488Z"/><path d="M806.683 332.007q-2.572-.74-3.75-1.812-1.167-1.083-1.167-2.667 0-1.791 1.427-2.958 1.438-1.177 3.73-1.177 1.562 0 2.781.604 1.228.604 1.896 1.667.677 1.062.677 2.322h-2.011q0-1.374-.875-2.156-.875-.791-2.468-.791-1.479 0-2.313.656-.823.645-.823 1.802 0 .927.781 1.573.792.635 2.678 1.166 1.895.532 2.958 1.178 1.073.635 1.583 1.489.52.855.521 2.011 0 1.843-1.437 2.958-1.438 1.104-3.844 1.104a7.2 7.2 0 0 1-2.917-.594q-1.355-.603-2.094-1.646a4.02 4.02 0 0 1-.729-2.364h2.011q0 1.375 1.01 2.177 1.021.792 2.719.792 1.582 0 2.427-.646.844-.647.844-1.761 0-1.115-.782-1.718-.78-.615-2.833-1.209m-9.885-8.406h2.01v10.74q0 2.176-1.312 3.406-1.302 1.229-3.48 1.229-2.26 0-3.52-1.156t-1.261-3.24h2q0 1.302.708 2.031.72.73 2.073.73 1.24 0 2-.782.771-.78.782-2.187Z" class="label-text"/><path d="m810.651 124.015 1.672-.901 2.342-.094 3.962-1.505 1.391.828 1.556 2.119-.454 1.505 1.831 3.517 4.373 3.444 1.881.641 2.853-1.362 1.261-1.225 2.14 1.319 2.551-.411 1.333-2.241 2.01-.331 1.002.728v1.657l1.859 1.304 4.424.281 2.428-2.623 1.477-.201 2.025 1.217 2.233-.072 2.349 3.084-.684 2.082 1.664 2.227 2.234-.346.987-.836 1.996.915.36 2.349 4.784 5.015 1.91-.915.634-1.448-1.585-5.202.31-1.895 2.774.072 1.311 1.318.634 4.467 2.58 3.12 2.745.562.274 1.117 2.709 3.387 2.781-.541 1.016-1.664-.454-2.299 1.881-1.686 3.415-.814.252-2.767 1.614-.302 1.859 1.592 2.529-2.068 2.443 4.086 2.255.432 3.444 1.772 4.201-1.751v6.312l-2.082 4.965-3.596 2.255-.266 1.607 1.059 1.232-2.083.187-4.604-4.561-2.277.973-.281 9.093-4.517 2.14-.289 3.848-4.719 3.538-5.851 1.044-.857 2.313 3.941 4.648-.461 2.947-10.959 1.016-4.187-3.264-4.301 2.839-.26 5.814-5.252 8.798-1.513.447-1.081-1.6.634-1.866-.231-3.041-3.372-3.148-1.801-2.371-1.218-.266-1.463-2.998 1.283-3.422-.202-1.643-1.78-.224-4.186-5.519-1.556-.85-.296-1.737-1.642-1.037-.49-3.019-.951-.829-1.369 1.146-.743 2.478-1.513.944-.857-.879-.072-2.024-2.14-2.299-3.264-.922-2.81-1.485-.613.426-.072 1.621-3.646-1.059-.749-.649-.072-1.196 1.124-.922v-.699l-1.801-4.028-1.6-1.239-.115-2.14-.836-.404-2.227-3.04-.446-1.42-.815.245-6.102 5.433-1.442.648-2.118-1.188.973-1.42-.879-1.758-2.587-2.363-.951-4.504-.54-1.376.41-1.441 1.391-1.239.252-2.111-1.441-1.737-1.917-.785-.857-2.032-1.03-.699-1.694.36-.763-.807.626-1.715v-2.363l2.277-.425 3.243 2.118.763-1.218.793-.36 1.463.721 1.261 1.326.965.072.605-1.218-.086-2.342-.562-1.196.267-1.419 1.758-.361.814-.763Z"/><path d="M850.142 158.566h7.188v1.635h-9.198v-15.166h2.01Zm-7.427-13.531h2.01v10.739q0 2.178-1.312 3.406-1.302 1.23-3.479 1.23-2.26 0-3.521-1.157-1.26-1.156-1.26-3.239h2q0 1.302.708 2.031.719.729 2.073.729 1.24 0 2-.781.77-.781.781-2.188Z" class="label-text"/><path d="m674.492 418.684.389-2.745 2.025-4.186 1.887-1.866 4.035-2.457 2.45-.202 1.355 1.708 1.844-.426 2.025.181 2.68-1.759-.36-1.621-2.5-2.024.295-.966 2.767-.295 1.196-1.124 6.082.403 2.586 1.556 6.219.31 6.708 4.662 1.801-1.261 1.909-.382 3.113-2.363 2.27.807-.562 1.715.382 1.556 1.981.224 3.56-4.216 2.723-2.493.404 1.708 1.47 2.003.36 1.355-.901 1.621v2.089l1.167 1.261.519 1.78.858-.468 2.226.331 3.336 4.395.288 3.329 1.823 2.616-.518 1.369-1.571 1.873-1.312 3.264-1.981.562-.829.656-.137 2.226-1.08 1.355-.224 2.832.966 3.264.764.274 1.289-.923 1.261 1.081.13.879-1.283 1.845.476.944 2.248 1.823-1.102 2.435.295 1.261 1.708 1.506 1.895.699.245 2.097-.807 1.282-.296 2.702 1.016.519 1.708-1.131.54.475-.266.721-1.6 1.715.087 2.204-1.485 3.603 1.218 1.664v2.025l-2.14 1.96-4.885.202-2.954-1.751-4.345 3.422v.851l.944 1.578-.18 3.422-2.27.274-3.516-3.041-5.512.31-.519 3.113.648 1.506-.922 1.779-2.09.743-4.532-.137-1.751 2.233-.54.245-.634-.965.223-1.801-.511-3.337-1.261-1.347-1.441.108-1.672 1.6-1.369 1.398-.922-1.081.072-1.686 1.758-2.479.699-1.578 1.347-1.218.454-4.611.922-1.102.159-1.65-.973-.404-1.909.36-.771-1.261.454-4.503-1.917-.497-1.145-.721-1.557.18-1.369 1.261-3.134-.605-1.304 2.097-2.047 2.003-.792 1.398-1.888.49-.771-.469.072-2.276-1.333-1.261-1.239.245-1.146 2.14-.519 1.736-1.419 1.42-1.059-.224-.944-.951h-1.982l-.338-1.643-2.227-2.882-.18-1.527 1.398-1.852.086-.85-1.397-2.119 2.212-2.097.223-1.08-.382-2.991-1.153-.972-1.664-.072-1.283.583-1.578-.086-2.161 1.643-1.009-.18-.973-1.24 4.194-4.388 2.248-.836.742-1.304 1.124-.814.18-1.664-1.304-1.759-.605-2.766-.159-3.985.267-1.038-1.031-1.196-.72-2.5Z"/><path d="M720.566 441.427h-2.01l-7.636-11.687v11.687h-2.01v-15.166h2.01L718.576 438v-11.739h1.99Zm-15.208 0h-2.011v-7.01h-7.646v7.01h-2v-15.166h2v6.521h7.646v-6.521h2.011Z" class="label-text"/><path d="m771.317 11.766 14.187-4.976 5.203-1.667 12.018 4.121 3.898-1.711 5.988 1.846 4.885 4.053.721 1.801 3.559 2.5 2.659 4.458.699 2.927 7.27 9.3.339 3.017 6.621 6.597.829 5.292 2.839 1.576.202 4.008 4.417 4.638 4.791-.135 4.165-2.5 6.103 2.838 2.658-1.328 10.607 5.718 4.121-.9 1.009 4.235 3.992 4.503-.771 3.243 3.963 3.4 1.153 1.73 5.022-1.866 3.602-.317 7.314-3.264 1.016-3.2 4.431-4.971 2.997-.339 2.003-2.974 5.628-4.954 4.352.676.072 5.224 3.286 3.577-1.06 4.958-2.658 1.938 1.131 11.997-.432 2.385 1.174 4.395-1.153 2.428-.72 9.778-2.112 2.227.764 6.571-1.261.793-10.491.288-2.298-1.167-3.041 6.931-4.028 2.68.072 1.038 6.665 10.671.519 7.638.944 1.462-3.242 1.485-3.509-1.888-2.277-.375-2.385-4.222-2.436 2.262-2.068-1.707-1.484.338-.238 2.753-3.3.937-2.075 1.506.49 2.334-.937 1.758-2.824.505-2.803-3.38-.18-.944-2.659-.72-2.738-3.055-.519-4.388-1.311-1.499-2.716-.072-.447 1.996 1.491 5.108-.439 1.434-1.852.858-4.784-4.619-.476-2.507-2.061-.973-1.224.879-1.859.396-1.845-2.161.692-2.104-2.349-3.3h-2.227l-1.772-1.196-1.585.194-2.421 2.731-4.482-.382-1.902-1.11-.072-1.736-.959-.822-2.082.346-1.333 2.155-2.752.382-1.751-1.276-1.391 1.254-2.702 1.34-1.996-.555-4.503-3.545-1.665-3.401.281-1.462-1.297-1.96-1.578-1.045-4.085 1.427-2.342.238-1.52.742-1.765-.317-.483-1.009.504-2.025-.627-1.535.606-1.102 3.242-.166 1.427-1.189.569-1.722-.49-1.102-.62 1.412-1.426.368-2.861-.497-1.203-.642-2.904-2.925-1.679-.368-3.019-3.192.433-2.961 6.102-5.974.584-2.673 2.306-2.183 4.827-8.416 1.16-.75.8.231 1.283 2.89 1.556 1.534.454-.72-.094-2.003-.54-1.319-.317-5.858 1.052-6.333 1.052-.591 1.895-.281.764-4.345-2.22-3.433.332-1.947-.793-2.116-.446-4.279 1.527-1.092.151-3.175 2.529-3.04v-1.846l-1.109-1.092.086-1.553 1.405-1.678.339-1.723-.922-2.398-1.845-.258-5.685-5.844-3.739-.1-1.204 3.478-1.174 2.06-2.767.065-1.261 1.419-2.407-.316-1.16.934-1.477.124-1.174 2.286-1.448-.112-1.305-.947-1.261.823-2.24-.26-2.774-1.902-2.724-4.537V33.15l-1.448-2.826-.072-1.17.266-1.036-.706-.686-2.017-.35-1.823-2.184-1.189-.608-1.232.586-.13 2.51-1.275 1.137-1.24.065-1.441-1.767-2.226-.462-3.293-1.542.238-1.261 3.379-4.976.641-2.162-.987-1.633Z"/><path d="M864.104 107.115h7.187v1.635h-9.198V93.584h2.011Zm-5.563 1.635h-2.01v-7.01h-7.646v7.01h-2V93.584h2v6.52h7.646v-6.52h2.01Z" class="label-text"/><path d="m690.805 565.284 3.732.641 2.32-.511.641-1.16 4.763-.641 3.084-.901 3.473-1.542 1.03.382v2.572l1.031 2.832.389 2.45-1.801 1.542-1.931 2.702-1.932 4.114-.641 4.503-.519 3.351-1.671.771h-1.542l-2.572 3.213-.13 1.42-2.32.122-2.573.649v2.572l-3.213.512-1.542-1.413-4.381.26-3.084-1.42-3.862-1.671-.511-3.091-.901-2.184-.649-3.473.649-1.671-.519-1.802.901-1.931 5.533-3.862 1.931-.511 1.031-1.679-1.802-.123v-1.549l1.542-1.03 2.832.13 1.03-.512v-1.29l1.283-.641Z"/><path d="M753.541 562.173h47.056c3.061 0 5.525 2.343 5.525 5.253v21.19c0 2.909-2.465 5.252-5.525 5.252h-47.056c-3.062 0-5.525-2.343-5.525-5.252v-21.19c0-2.91 2.464-5.253 5.525-5.253" class="label-box"/><path d="M785.746 585.604h-2v-15.167h2Zm-5.698 0h-2.01v-7.011h-7.646v7.011h-2v-15.167h2v6.521h7.646v-6.521h2.01Z" class="label-text"/><path d="M746.315 577.271v1.498h-38.149v-1.498Z" class="label-connector"/><path d="m792.011 230.113-1.6-.835-.518-2.277-1.982-1.369-.901-2.954-3.847-.426-1.103-1.556-2.161.159-2.479-2.724 1.528-1.528-.202-1.981 1.78-1.938v-1.24l-.743-.382-1.895.073-1.167.634-6.24-.094-.828-.785-.231-2.184-3.04-3.422.677-1.535-.382-2.118-2.969-2.407-1.354-2.968-2.724-3.135-1.823.274-2.363 2.09-2.003.115-3.271 2.342-.087 1.167.901 2.01-.094 3.084-.829.901-3.134.072-1.643-.584-3.105 3.041-1.016.31-1.802-.743-4.452 3.401-2.162 2.926-3.538.36-.857-1.081-.18-5.13-1.506-2.342-3.106.072-1.758 3.517-1.535 1.909-.108 3.466-2.32 2.392-.403 2.608 1.189 1.42-1.261 2.096.338.923 1.261.922 4.395 6.485.447 2.385 1.737.742.108.771-1.888 1.304-2.039.656-.843 1.88.735 1.463 1.398.764 2.183.209.699.843.461 2.305 1.448 1.369.605 1.578-.814 2.306-.346 3.379-1.801 1.175-3.949.85-1.556 1.845.173 1.354.937.887-.123.85-2.983 3.185.26 4.424 1.369 1.066 2.305 1.002.858 2.341 4.092 5.426-2.435 5.209-.346 2.263-.785.792.144 1.831.447 1.433-1.816 2.71-1.578.288v2.241l2.147 2.997 1.686.793 3.776.317.958.706 4.28.238 1.355 1.095 1.397.158 1.305-1.001.972-.159 1.931 1.24 1.831-1.636 1.621-.072 2.63.922.158-1.7-2.594-3.74.123-2.882 1.96-2.615 1.563-1.081 2.032-4.554 1.131-4.237 2.155-.778.713-2.724 1.023-1.21 1.319.706 1.001-.627 2.011-2.817 1.124-1.737 1.563-.526 2.832-.36 2.039.159 1.261-.75v-1.88l1.938-1.895 1.247-1.729-2.025-1.643-2.039-3.877-.072-.663-1.765.541-4.439-1.737-1.34.764-1.657-.461-1.78-1.938-.173-1.867.857-2.067.072-2.054-.864-1.326.511-3.084-.526-1.628-2.788.288-1.29 1.103-.079 1.253h-1.657l-1.895-.951-5.347 1.067-2.896-1.831-1.103-2.341.433-3.156 1.34-2.371 2.226-.843.591-2.327-1.578-1.686.656-1.593 2.003-1.513.699-.591 2.198-.439-.685-2.76 1.247.18.108-.843 1.354-1.959 1.802-.318 4.186 3.848 1.398.418 1.304-.879.641.447 1.765-.397.685 1.254-1.528 1.326-.381 1.578.734 1.751 2.083 1.859h1.275l1.83.72.08 2.465-1.117.497.461 2.846 1.614 1.916 1.78.217.67.655.49 1.96 2.01.332.569.72v3.365l.966-.209 2.536 1.254 1.708-.858 1.109-1.297h2.587l1.117-.749.792.317.519-3.43.915-3.314 2.039-3.329 1.773-1.066v-1.622Z"/><path d="m754.104 235.921 1.866-1.175 1.218-.122.821-.36 1.484-.188.512 4.043-.418 2.608-2.443-.296-.281-1.722Z"/><path d="M752.27 264.424h-6.572v5.375h7.635v1.636h-9.635v-15.167h9.531v1.646h-7.531v4.875h6.572Zm-12.125 7.011h-2.01v-7.011h-7.646v7.011h-2v-15.167h2v6.521h7.646v-6.521h2.01Z" class="label-text"/><path d="m747.201 225.934-.829-2.947 1.506.519v-.828l1.189-1.968 1.859-.511 4.194 3.927 1.549.439 1.008-.958.699.389 2.018-.36.598 1.239-1.448 1.348-.389 1.786.67 1.578 1.866 1.78-1.946 2.695-1.758.101-1.008.619-1.319.109-1.628 1.21 1.059 1.319 1.736 1.376.202 1.549-1.29 1.528-3.026.309-.98.98-.259 1.218-1.067.281-2.399-1.239-5.382 1.239-2.926-1.909-1.268-2.328.778-3.646 1.319-1.996 2.147-.799.36-2.198-1.29-1.628.469-1.578 2.017-1.578.721-.728Z"/><path d="M876.325 211.074h47.056c3.061 0 5.525 2.343 5.525 5.253v21.19c0 2.909-2.465 5.252-5.525 5.252h-47.056c-3.062 0-5.525-2.343-5.525-5.252v-21.19c0-2.91 2.464-5.253 5.525-5.253" class="label-box"/><path d="M908.665 219.234h2.011v10.739q0 2.178-1.313 3.407-1.302 1.229-3.479 1.229-2.26 0-3.521-1.156-1.26-1.156-1.26-3.24h2q0 1.302.708 2.031.719.729 2.073.729 1.24 0 2-.781.77-.781.781-2.187ZM889.03 234.4v-15.166h4.958q2.469 0 3.709 1.021 1.25 1.02 1.25 3.02 0 1.063-.605 1.886-.604.813-1.645 1.26 1.229.344 1.937 1.313.719.959.719 2.291 0 2.043-1.323 3.209-1.323 1.167-3.74 1.166Zm2-7.093v5.458h3.302q1.396 0 2.198-.719.813-.728.812-2 0-2.739-2.979-2.739Zm0-1.604h3.021q1.313 0 2.094-.657.79-.656.791-1.781 0-1.25-.729-1.812-.73-.573-2.219-.573h-2.958Z" class="label-text"/><path d="M761.666 226.145v1.498h105.968v-1.498Z" class="label-connector"/><path d="m692.937 350.515 1.759 1.614 2.586 4.164 2.227 1.283 1.599 2.406 2.601.31 1.398 1.24 2.868.612 4.23 1.448 3.4-.987 1.622.44 4.589-1.564 2.22-.079 2.976 1.708 1.383-.671 1.254-1.448 1.232-.504.735.411.295 5.022.894 1.679 2.961 2.637 1.066-.209 1.499-1.074 2.472 1.391 1.729-.317.749.569.072 1.412 3.365 1.737 3.221-.562 1.095-1.859 1.448.554.39 1.492 2.082.67 2.666 2.738 1.679-.31 2.925.714 2.162 1.542-.368 1.563-2.378 3.48 1.362 2.299 1.326.944-.13 2.406 1.823 1.16 1.766 4.669.576 2.911-3.221 1.528-2.14-1.074-2.651-.295-1.528.346-.245 2.442-1.513.858-1.643-.159-.879.714.332 1.297-1.578.245-1.679 1.513-.533 1.318-4.252 1.384-2.846.144-1.153 1.614-3.047 1.967-.555 1.023-1.917-.382-1.045.519-.432-1.679-1.275-1.203.086-2.292.894-1.397-.425-1.766-1.499-1.7-.173-1.499-2.868 2.082-3.516 4.504-2.075-.245-.44-1.557.822-2.024-.923.252-.85-.879-1.607.584-2.226 2.096h-1.888l-1.78 1.232-6.614-4.517-6.334-.31-2.276-1.405-4.086-.62-2.161.231-1.319.814-2.608.468-.26.98 2.364 1.967.389 1.485-2.911 1.808h-2.428l-1.319.425-1.362-1.909-2.479.295-2.435 1.693-1.398.663-2.363 2.155-.324 2.046-1.305 1.614-.367 2.796-2.053-.649-3.012-3.862-.209-3.249-2.097-.57-2.234-2.507-1.693 1.124.555-2.356.115-5.483-1.989-2.623 2.832-2.147 2.472.079 2.529-1.319 2.255.202 2.803-.317 2.615-1.528 3.351-3.761 2.774 1.031.987-2.263-.439-2.507.749-2.111-.634-2.249-1.023-1.772-2.299-1.513v-3.221l-4.359-.324.13-2.407.49-1.434-2.004-2.118-.72-1.621 1.34-3.862 2.436-.454 1.758-1.023 2.392-.462.36-2.082-2.032-1.297-3.321-.591-.217-2.471-2.709-.26-.475-1.102.684-.958 1.852-.505 4.993.562 1.16.555 2.832-.108 1.816-1.52 2.767 1.808Z"/><path d="M717.68 390.561v-15.166h4.958q2.469 0 3.708 1.02 1.25 1.022 1.25 3.021 0 1.063-.604 1.886-.604.812-1.646 1.26 1.23.344 1.938 1.313.719.957.719 2.291 0 2.042-1.323 3.209-1.323 1.166-3.74 1.166Zm2-7.094v5.459h3.302q1.395 0 2.198-.719.812-.73.812-2 0-2.74-2.979-2.74Zm0-1.604h3.021q1.312 0 2.093-.656.792-.656.792-1.781 0-1.25-.729-1.813-.73-.573-2.219-.573h-2.958Zm-5.552 8.698h-2.011v-7.01h-7.646v7.01h-2v-15.166h2v6.52h7.646v-6.52h2.011Z" class="label-text"/><path d="m682.735 329.742 4.035.36 2.068-.85 1.765-2.032 1.974-.519 1.297-1.045 3.207-.324 3.609-3.891 1.456-.872h1.852l.763-2.111 1.658-.785 4.035.266 1.448-1.498 2.529.468 2.565-1.513 3.61-2.565 2.659-2.22.223-6.03.461-1.73v-4.719h4.035l1.189.886 4.006.274 1.377.944 1.549.166 1.304-1.031 1.153.209 1.736.901 1.888-1.657 1.391-.13 1.052.634 1.902.317v.692l-.93 1.001-.533 2.234.793.555 4.035-3.012 2.024-.786 2.126-1.606.231 1.426-2.638 2.068-5.872 6.139-.634 1.758-1.614 1.088-1.268 1.413-.353 1.563-1.319 1.463v1.254l.778.489 3.416.31 2.233 1.802 1.881.886.216 1.917 1.643 1.296 2.183-1.073 2.846.086 1.009-.67 1.722.375.389 1.527 2.983 2.429 1.866.209.634.634.426 2.493 1.282 1.498-.548 1.052-.943.642-.894 1.246-2.522 1.629h-1.124l-2.183-2.926-1.614-1.369-2.061-.158-1.189.908-.468 2.082 1.074 4.77-2.897 1.354-.771 2.357.706 1.671-.9 2.407-1.528 1.059-2.666-.274-.324 1.348.432.929 3.156.786.93.943.129 2.306.721 1.218 2.306.36 2.154 1.91 1.376.223 1.369-1.693 1.607-.894-.079 1.679 1.729 5.152-.721 5.044-2.831.749-2.083 2.313-.389 4.006-2.132-.562-.44-1.492-1.347-.554-.764.684-.324 1.175-3.322.389-3.365-1.528-.331-1.924-1.204-.115-1.117.281-1.952-1.304h-.67l-1.24 1.16h-1.253l-1.088-1.268-1.903-1.542-.605-1.953-.403-4.474-.67-.505-1.153.454-1.398 1.384-1.578.605-3.156-1.664-2.053.151-4.374 1.751-1.722-.685-3.113.966-7.349-1.838-1.341-1.433-2.694-.274-1.636-2.313-2.579-1.967-2.054-3.401-1.801-1.809.079-3.934-2.536-2.169-1.016-2.161-2.018-1.268.18-1.773-.598-2.687-1.974-.815-.353-1.851-1.347-1.204-.382-1.96Z"/><path d="M732.089 342.168h-6.354l-1.427 3.958h-2.063l5.792-15.166h1.75l5.802 15.166h-2.052Zm-5.75-1.646h5.156l-2.583-7.094Zm-6.365 5.604h-2.01v-7.01h-7.646v7.01h-2V330.96h2v6.52h7.646v-6.52h2.01Z" class="label-text"/><path d="m634.019 429.91.39.08 1.188-.519.851-1.629-.462-2.226 1.73 1.499-.26 2.046 1.838.994 1.657-1.318.735-3.041 1.182-1.758 2.039-.858 2.19 1.074 1.52-.267 1.622-1.397-.959-3.077.591-1.773.894.087 1.578.922 1.491.245.894 1.859 1.073.353 1.665-1.362 3.609.123 1.218 2.363.202 1.413-.231 1.577 1.088.8 2.508.541v2.846l.735 1.657.9-.764-.331-1.448h.519l1.073.85-.317 1.737 1.333.98 2.702.072 1.204-1.823.194-1.773 1.348-.49.735 1.931 1.152 1.304-.345 1.665.252 3.336.518 2.652 1.463 1.7-.31 1.693-1.102.879-.8 1.369-2.161.915-4.187 4.1.865 1.441.994.252 2.306-1.664 1.664-.115 1.297-.584 1.384.115 1.153 1.038.475 3.466-.389.85-2.162 1.801 1.506 2.003-.338 1.355-1.009 1.398v1.499l2.284 3.184.324 1.449-2.86 4.294-2.263-.713-1.808.843v.929l1.023.93-.418 1.311-3.206.13-1.146.655-1.088 2.602-3.351-1.996-1.988.936-1.247 1.499-.85 2.781-2.126.267-1.26 1.066-3.171-2.514-1.996.454-1.765-1.369-.677-2.119-.894-.533-3.062 2.796-1.045 2.132-1.246 1.124-2.782.26-5.288 3.401-1.874.533-.072 2.774-2.99 1.981-.901-.879-1.686-.072-.98-.799-3.429-.339-.98-2.032-4.014-.476-.915.555-1.304 2.277-1.592.476-1.737 1.527-2.089-.086-1.492-.663.533-1.809 1.679-2.406.353-3.956-1.643-2.147-2.442-1.059-1.881-4.208 2.681-5.52.18-3.53 2.118-2.457-3.682-4.554-1.254.778h-2.781l-1.347 1.802-1.095.115-2.731-.505v-2.248l-.959-1.657.894-1.916-.36-1.305-2.133-.958 3.992-4.9 1.477-.18 2.493 1.341 2.161-1.96 2.666 1.21h5.275l1.621-.749 2.068-.404 2.342-5.858 3.307-.504 2.277 1.398 5.159-1.708 2.666-.072.864-1.023-1.693-2.803-.663-2.162-2.327-.439-4.77-2.082-.44-2.688 1.153-1.499 1.874-.418.54-1.707 1.182-.397Z"/><path d="M646.004 465.517h8.677v1.636h-11.042v-1.5l8.313-12.021h-8.178v-1.646h10.573v1.469Zm-4.834-.354q-.77 1.105-2.156 1.657-1.375.541-3.208.541-1.855 0-3.292-.864-1.437-.876-2.229-2.48-.781-1.604-.802-3.718v-1.323q0-3.428 1.594-5.313 1.603-1.885 4.5-1.885 2.374 0 3.822 1.219 1.449 1.208 1.771 3.437h-2q-.562-3.01-3.583-3.01-2.01 0-3.052 1.416-1.032 1.407-1.042 4.084v1.239q0 2.553 1.167 4.063 1.167 1.5 3.156 1.5 1.125 0 1.969-.25a3.05 3.05 0 0 0 1.396-.844v-3.406h-3.511v-1.625h5.5Z" class="label-text"/><path d="m508.474 203.014 11.031 2.875.122 6.233 1.665 2.853-.396 1.65-1.542 3.379.079 3.019 1.751 3.783 2.486 4.777 3.184 3.127 1.665 2.818 1.96 1.117 2.687-.188 3.769-3.876 1.974-1.081 12.328.079 3.473 2.263.75 3.494-.346 1.809-4.576 3.112-2.082 2.926-1.297.951-.166.915 2.702 2.781 3.682 1.391 1.312 2.5 5.454.332.749.972-.619 1.679.122 3.365 2.068 1.556 2.364.454 1.333 1.117 3.458.865 8.704-.224 5.851-2.413 6.514-6.182 5.065-.13 2.522 1.542 2.853 2.572.44 3.113-1.686 2.32.533 2.306-.252 2.889-1.153 1.52-3.682.75-.397 3.934-1.08 2.464.201 3.386 4.165 1.773.44 1.535 4.027 1.448 2.284-.274.534-.439 1.534.641 1.261 1.189v1.679l1.823.187 1.391 2.284 3.862 3.149.274 4.15 1.023 3.127 1.809 1.773-.253 3.033-1.376 2.126v1.477l1.391 2.197 4.554 1.189.497 1.795 1.008 2.139 2.962.123 2.306 1.628 1.678-.418.498-.843.273-4.769 1.276-.807 1.815.497 1.405-.57.476-2.543.807-1.499-.274-2.068-5.454-2.651-1.038-2.818.31-3.674 1.499-.605.691-.952-1.188-1.988 1.102-4.338 1.592-.072 1.845 1.427 4.172-.656.418 2.097.771 1.318 1.621.404.533.439 4.849 1.391 2.63 2.58 1.722-.606 6.327 3.747.201 5.491-2.32 2.176.18 3.379 1.463 2.017-.403 3.452-1.405.915-4.079-.202-2.032 1.081-2.341-.93-.764.166-.072 2.572 1.225 1.888-8.085 1.737-2.558-2.248-2.161-.238-3.747.677-.62 1.751.714 1.542-.332 2.118-2.01 1.903.108 1.008 2.76 1.023 1.484 1.24.166 1.268-.987 1.167-2.198 4.576.893 1.26-.201 3.106.475.785-.36.75-1.592-.238-4.172.389-2.234 1.167-1.001 1.593 2.082 1.023.821 2.032-.547 2.745-2.904 2.76-2.947.072-.807.727-.072 2.947-3.898 1.975-2.025-1.189-1.117.202-1.095-.699-3.019-.144-2.565-2.76.072-2.889-1.391-2.45-.821-2.839-.951.072-2.817 2.032h-1.449l-4.914-4.41-1.081-3.163-2.889-.857-1.059-2.306.418-3.877-.987-.309-.822-.714-1.578.216-3.199 1.593-3.329.843-2.176 1.772.188 2.508.439 1.297-5.433-.144-1.506-3.553-3.177-1.679-5.433-.187-1.607-1.261.216-4.662 2.047-.403 3.696 3.199 3.97.937 1.593-.461 1.57-2.832-.569-2.508-.072-5.245 2.486-.951 3.091-2.054.605-1.585-1.376-2.14.735-1.83 1.513-.641 1.319-2.709 2.068 1.174 2.983-4.993.288-3.567.699-2.01-1.722-1.816-.656-2.817-2.14-.987-.18-3.654-1.96-1.794-.418-3.516-1.174-1.808-.678-2.76-2.983-2.342-.418-2.233h-.85l-2.536 1.621-3.963-1.636-4.338-2.889-.677-1.751-3.509-3.221-2.234-1.052-2.204-2.089-2.27-1.276-1.031 2.695-2.003-.403-6.333-7.292-1.391-.224-2.745-3.184-4.316-1.477-1.96 1.722-2.118-1.701-3.552 3.459-2.847-2.104-1.347-1.802-8.805-2.673-1.635 1.398 1.088 2.861-.094 3.192-2.724 3.696-.591 3.984-2.579.418-2.399 1.139-3.538-2.133-4.266.259-7.32-2.593-7.725 1.21-2.954-6.052-4.928.259-1.189-2.889-6.665.497-1.895-4.035-6.045-2.803 3.357-2.464 1.06-3.38.281-9.54 1.534-6.758 5.347.324 3.127-2.457.872-2.356 4.582-4.727 5.21-3.624 2.615-3.163 5.563-2.522 2.759-.937 2.565-1.808 6.139-.728 3.898-3.257-.677-3.077Z"/><path d="M503.974 244.065q-2.572-.74-3.75-1.813-1.166-1.083-1.166-2.667 0-1.791 1.427-2.958 1.437-1.177 3.729-1.177 1.561 0 2.781.604 1.229.605 1.896 1.667.677 1.063.677 2.323h-2.011q0-1.376-.875-2.156-.875-.792-2.468-.792-1.479 0-2.313.656-.822.646-.823 1.802 0 .927.782 1.573.791.636 2.677 1.167 1.896.53 2.958 1.177 1.073.635 1.583 1.489.522.855.521 2.011 0 1.844-1.437 2.958-1.438 1.104-3.844 1.104a7.2 7.2 0 0 1-2.917-.593q-1.354-.605-2.093-1.646a4.02 4.02 0 0 1-.73-2.365h2.011q0 1.376 1.01 2.177 1.021.792 2.719.792 1.582 0 2.427-.646.844-.645.844-1.76t-.782-1.719q-.78-.615-2.833-1.208m-7.802 4.77q-.771 1.105-2.156 1.657-1.375.541-3.208.541-1.855 0-3.292-.864-1.438-.876-2.229-2.479-.781-1.604-.802-3.719v-1.323q0-3.428 1.593-5.313 1.605-1.885 4.5-1.885 2.376 0 3.823 1.219 1.449 1.208 1.771 3.437h-2q-.562-3.01-3.583-3.01-2.011 0-3.052 1.417-1.032 1.405-1.042 4.083v1.239q0 2.553 1.167 4.063 1.166 1.5 3.156 1.5 1.125 0 1.969-.25a3.05 3.05 0 0 0 1.396-.844v-3.406h-3.511v-1.625h5.5Z" class="label-text"/><path d="m689.601 540.274.735-2.363 1.737-.699.929-2.853 1.016-.872 4.986-.598-.735-1.182.109-3.033 3.026-.468 2.543-1.946-1.045-2.68.829-1.722 3.005-1.247 5.022-4.323 1.102-1.376.108-2.529-.677-1.557-.072-2.983 1.239-3.919 1.6-1.449.202-2.233 1.823-.548 1.599-2.255-.54-3.689 1.808-1.78.072-1.78-.655-1.297-.101-1.102-.901-1.42-.079-1.426 2.025-.742 1.253-1.773-.763-1.643.641-2.925 5.454-.425 3.574 3.242 2.27-.36.115-3.56-1.167-1.635.411-1.081 4.272-3.149 2.846 1.845 4.943-.296 2.183-1.844 1.168 1.073.439 1.103 2.818.072 2.485-1.405 1.917-.317 1.463.836.785 1.765-.648 1.881-2.681 1.808-.699 2.652-2.024 2.608 3.083 2.183 10.246-3.66 3.092-2.025h1.037l3.675 2.522 1.412-.18.677-1.347-.922-2.299.497-1.146 2.746-.994 1.779.699 2.364-.476 2.024 1.153 1.737 2.09 2.522-1.059.655.273.627 1.802 1.6 1.398 2.046 2.81.231 3.624 2.183 3.631.072.786 1.124.742.231.627-1.427 2.039 1.369 1.203-2.45 1.139-4.157.367-.072.339 1.39.526.958 1.592-2.824 1.24-.353 3.782-3.365.534-2.19 1.635-1.636.368-2.666 1.952-2.947-1.65-.85 1.067-.526 2.983h-1.693l-.173-1.571-1.038-.62-2.306.188-2.608 2.428-1.059 1.765-2.104.159-.375-2.811-2.86 1.434-.188 2.573-1.923-.908-2.717 1.081-2.832.972-1.923.116-1.614-1.514-.75-1.815-1.643.151-.929-.922-.713-.533-.627 1.657.555.872.158.771.187 1.88 1.016 2.652.173 1.239-.079.137-1.693 1.002-1.722-1.658-.289.202.894 2.212-2.349 3.019-2.486-3.192-.821 1.845.281 4.107h-2.781l-3.07 2.169-2.81-.75-.562 1.672h-5.188l-1.672.929-2.291.764v1.672l-2.241 1.549h-2.37l-1.283 1.095-4.02.187-1.276 1.636-2.918.187-2.543 3.459-1.795.18-2.593 1.852-1.723 1.729.786 2.551 1.989.72.54 2.508 2.515 2.514-.159.952-2.457 2.449-5.245.181-.476-1.578 1.03-.815-3.249-1.722-.368-4.215-1.967-.533.699-5.635 1.989-3.069 1.037-1.873Z"/><path d="m701.101 546.24-1.16.771.389.649 1.802-.13.381-1.419ZM743.829 526.087l-.62.872.764.187ZM734.642 532.824v1.095l.893.361.073-2.191ZM732.603 533.127l-.785 1.426.821-.072.634-.771ZM721.723 536.283l-.094.727 1.095-.547v-1.362Z"/><path d="M742.728 506.326v-15.167h4.281q1.98 0 3.5.875a5.9 5.9 0 0 1 2.344 2.49q.834 1.614.844 3.708v.969q0 2.146-.833 3.76a5.8 5.8 0 0 1-2.365 2.479q-1.532.865-3.573.886Zm2-13.521v11.885h2.104q2.313 0 3.594-1.437 1.292-1.437 1.292-4.094v-.885q0-2.583-1.219-4.011-1.208-1.437-3.437-1.458Zm-5.333 11.531q-.771 1.104-2.156 1.656-1.375.542-3.209.542-1.854 0-3.291-.864-1.438-.876-2.23-2.48-.78-1.604-.802-3.718v-1.323q0-3.428 1.594-5.313 1.605-1.885 4.5-1.885 2.375 0 3.823 1.219 1.448 1.208 1.771 3.437h-2q-.563-3.01-3.583-3.01-2.011 0-3.053 1.416-1.03 1.407-1.041 4.084v1.239q0 2.553 1.166 4.063 1.167 1.5 3.157 1.5 1.125 0 1.968-.25a3.04 3.04 0 0 0 1.396-.844v-3.406h-3.51v-1.625h5.5Z" class="label-text"/><path d="m796.219 493.843-.353-.713-1.023-.677-.26-1.024-2.104-3.681-.396-3.517-2.284-3.127-1.117-.8-.641-1.916-1.348-.152-1.837.973-2.003-2.19-2.075-1.124-2.083.562-1.124-.634-1.859.115-1.419-2.738-.072-1.679 1.319-1.081.576-6.931 1.088-1.232v-2.731l1.852-.937 1.484-2.781-.937-2.803 1.016-1.528 1.261-1.03v-1.009l-1.434-2.478.339-4.23 1.837-1.47 3.142-1.21 1.607-2.133.67-1.83-1.175-3.394.562-2.846.836-1.182.368-2.385 1.751-1.016 1.088-.807 1.361.281.822 1.024 1.412.108.684-1.413 2.241-1.491 5.001-2.544-.151-2.147 1.059-1.693 3.437-.18.908.634.533 2.543-.361.735 1.65 1.852 1.276 3.437 1.145 2.241.116.684 2.586.202.88.31 2.918-1.859 1.707-2.932 1.06.554 2.377 3.639 1.477.85 1.773-1.009 3.437-1.34 1.981.382 1.47 1.045-.756 1.03h-2.284l1.556 1.117-1.355 1.355-.187 2.529-1.023.857-2.421 1.679-.483 2.601-.526-.663-2.594-.396-.619 2.263 2.788 2.413.656 1.146-1.218 1.564-.944 3.026 1.095 1.83-.367 1.628.893 1.607-1.643 2.551 1.658 2.399-.296 1.031-1.448-.325-2.097-1.333-1.405 1.607-.389 2.133 1.528 1.866-1.434.476-3.041 2.666 1.11 2.039-.634 1.102-3.963.187.655 1.744 1.377.858-.663 1.491-.843 1.167h-3.048l-2.255 1.124-1.261 1.802-3.2.598 1.881 1.679.843 1.671-1.383 1.384-1.413 2.298h-2.082v3.041l-2.788-.742.735 3.3-1.903-.346-.554 2.565Z"/><path d="m829.255 437.779-.518 1.801.9 1.282.771-1.542ZM828.225 456.303l-.259 1.672 1.16 1.42 1.16-1.29-.778-1.542Z"/><path d="M807.906 440.293h2.011v10.739q0 2.178-1.313 3.407-1.302 1.229-3.479 1.229-2.26 0-3.521-1.156-1.26-1.156-1.26-3.24h2q0 1.302.708 2.031.719.729 2.073.729 1.24 0 2-.781.77-.782.781-2.187Zm-7.031 8.469h-6.364v6.698h-2v-15.167h9.395v1.646h-7.395v5.187h6.364Z" class="label-text"/><path d="m748.318 347.957 1.498-1.139.671-2.298-.49-1.888.698-2.356 2.818-1.11.079-.879-1.038-4.013.418-2.147 1.42-.771 1.916.151 1.499 1.477 2.356 2.796 1.11-.072 2.457-1.499.829-1.549 1.217-.699.411-.858-1.419-1.628-.159-2.327-.648-.699-2.119-.152-2.947-2.197-.209-1.837 1.398-.339 1.47-.93 1.427.072 1.469 1.478 5.123 1.628.49 2.169 2.616 1.866 1.499-.18 2.125.591h2.457l2.09 2.068.468 1.448 1.038.519 1.261-.649 2.147-.67.677.418v2.637l-1.297 4.575.159 1.24 2.976.677 1.469 2.068-.129 1.038 1.059 2.039 1.506 1.138 3.725-.828.54-.98.281-1.427.988-1.448.749-.072 3.336 1.678 1.29 2.818-1.549 2.716-1.06-.18-1.549-1.167-3.415.547-.288 1.139 1.189 1.47.619 1.426-.54 1.679-1.657 1.319-.951 1.607-.238 1.448.958 1.47 1.528 1.217 2.377.829.728.778 2.068.591v3.055l-.98 1.059 1.009 1.679 2.587-.23 2.118-.908 1.758-.18 1.636.958 3.047.36v3.495l-.907 3.307-.98 1.319-1.398 1.037.13.75 1.188.958.361 1.268-1.088 1.369-1.521.519-2.716-.18-.857.67.208 2.687.339.548.231 3.466-1.348.778-.36 2.349-3.675 4.373-1.268.361-1.47 1.347-1.657-1.816-1.448-.41-1.838.699-4.056-.361-1.787-1.189-1.268-1.815-1.528-.231-.281-.49-1.167-.209-.67.728-.288 2.198-.98.771-1.449 2.514-2.017.152-.879-1.189.339-1.369 1.469-1.578.159-1.369-1.247-1.737-1.21-.648-1.556.936-.462 1.319-1.347 1.369-3.876 1.729-.418-2.089-.959-3.394-1.03-1.96-1.787-1.218.159-2.276-1.658-1.55-.987-1.578 1.088-2.125 1.369-1.938.26-1.168-2.501-1.83-1.109.072-1.614-.446h-1.787l-2.356-2.443.511-4.179 2.003-2.176 2.861-.786.692-5.087-1.686-4.798.079-1.96-1.485.663-1.556 1.794-1.398-.072-2.269-2.097-2.256-.274-.627-1.045-.136-2.521-1.096-1.038-2.947-.605-.497-.886.454-1.377Z"/><path d="M798.205 388.223h-2.011v-7.011h-7.645v7.011h-2v-15.167h2v6.521h7.645v-6.521h2.011Zm-17.198-3.959h-6.354l-1.427 3.959h-2.063l5.792-15.167h1.75l5.802 15.167h-2.052Zm-5.75-1.645h5.156l-2.583-7.094Z" class="label-text"/></g><path d="m854.679 512.786 1.679-.511.382-3.473-.771-3.221.9-4.244 2.573-4.114 1.419-4.893.771-4.633.512-13.251.518-3.991.642-1.023v-2.702l-.901-1.031-.771-2.061 1.283-2.06.518-1.153-.9-1.03-2.573-.649h-1.16l-1.289-1.542h-1.802l-.9 1.42.389 1.542-3.091 1.16-2.184 1.801-1.03 2.313-.389 2.832-1.672 1.801-1.16 4.244-1.282 3.732-1.931 4.503-1.031 3.733-.382 3.984.253 3.733 1.03 1.671 1.542 2.321 1.419 4.114 1.802 2.45 2.183.9 2.061.512 1.671 2.19 1.031 2.702v1.542ZM813.637 478.049l1.412.26-.641 1.03h-1.412ZM797.44 541.377l-.454.634h1.095l.36-.54ZM754.438 517.837l2.817-.937 2.09 1.773-1.376.85.367 1.153-1.743-.317-1.225-.324-1.6.158ZM754.438 522.023l-2.464.411 2.262-1.664ZM758.163 521.389l-.699.591-.929-.764Z"/></svg>