<svg xmlns="http://www.w3.org/2000/svg" width="1200" height="600" viewBox="0 0 1200 600"><g class="entities"><path d="m355.73 134.391-2.218 1.707-4.914.614-.99 1.365-3.344-2.491-4.948 3.31 1.775 2.389-2.662 3.651-3.481-2.013-6.381.204v4.266h-1.126l-.41-1.979-2.525.409-.478-5.289-2.662 2.935-2.423-1.024-4.982.478-.853 2.149-2.286.546-.41-2.32-5.494.717v1.467l-2.969.171-1.57-1.092-2.047 1.023-.41 2.457-5.63.205-3.31 3.993 2.491 1.877-3.31 2.695 1.16 2.048-.887 4.914 3.89.478 1.16-1.126.512.716 8.292-1.092 1.673-1.16-1.434 1.365.546 2.696 3.993-1.775-.785 2.696 4.778.239-.103.58-4.777-.17-3.993-1.024-5.153-2.457-3.446 3.958 4.06 1.365-.238 6.211 1.638-1.297 2.252-3.446 4.197 2.423 2.048.443.785 3.071-1.161 2.014-2.559-.171h-2.628l-4.231.649-7.405.409-1.775 2.355 2.525 1.501 2.321-.205 1.911 1.707 2.73-.205 4.334 4.948 1.024 5.324-1.638 3.276 4.948.955 5.118-.239 1.229-2.252-1.263-1.74.819.375 1.945-.205 3.413 1.911 2.525-.478v-1.057l.205.887 2.866 4.709 6.45.444.137-.785 1.092 1.57 3.856.682h2.593l.034.034 2.491 3.993 3.754.921.307-.409-.204.648 3.173 1.399 3.788 3.72 1.194 2.218-.887 5.665 2.969 2.184 1.672-1.911-1.399-1.843v-3.276l2.457.58.683-2.048.307.717 3.139 2.73 1.604-2.628-.205-.409.717.99.171-.034-2.048 2.593 2.867.956 1.979 3.037 11.671-1.058 2.286.512-1.092.921.239 2.252.614.478 1.16-.205 1.741-1.706 1.126 1.297h3.583l4.163-2.15 6.177-2.423.205-6.006 1.365-.751 3.958-2.081 13.377-.683.887-2.491 2.014-1.979 4.845-.649.205-2.286 2.73.375 1.877 2.56 4.675 1.126.956-1.979 1.092-3.822 2.696-6.723 1.33-.751 3.857.478v-6.279l-1.502-1.501v-6.041l-.648-2.149v-3.242l2.15-2.15v-4.539l-1.058-.853.204-6.04-1.876-.921-2.594-.035-2.32-1.842-2.423 2.9-1.945.239-1.638 2.252-1.434-.341-3.515-3.071-1.228-3.959-.717-2.934h-10.647l-3.446-2.116 2.696-3.651-5.904-.239-2.252 2.559v.034l-1.126 1.263-4.198-.444-.443 2.389-1.946.17-.204-2.866-2.594-.785-1.058 1.229v-4.061l-2.969 2.218-3.924-.649-1.365 2.662-7.951 4.334v2.013h-1.058v-3.753l-4.436-2.082.409-3.822-4.061-2.969v-3.719l-2.968-.649.204-3.446-2.32-.205.205-2.389h-4.846l-.478 1.467zm10.647 79.887 2.014.478 1.911 2.286-.819 1.297-2.457-.751-3.276-1.536 3.139-.477Z"/><path d="M392.864 182.511h-6.573v5.375h7.636v1.635h-9.636v-15.167h9.531V176h-7.531v4.875h6.573Zm-16.146.875h-3.562v6.135h-2.011v-15.167h5.021q2.563 0 3.938 1.167 1.385 1.167 1.385 3.396 0 1.416-.771 2.469-.76 1.051-2.125 1.573l3.563 6.437v.125h-2.146Zm-3.562-1.636h3.073q1.49 0 2.364-.771.886-.77.886-2.062 0-1.406-.844-2.156-.833-.75-2.417-.761h-3.062Zm-15.281 7.771v-15.167h4.958q2.469 0 3.708 1.021 1.25 1.022 1.25 3.021a3.1 3.1 0 0 1-.604 1.885q-.604.813-1.646 1.261 1.23.344 1.938 1.312.718.958.718 2.292 0 2.042-1.322 3.208t-3.74 1.167Zm2-7.094v5.459h3.302q1.395 0 2.198-.719.812-.73.812-2 0-2.74-2.979-2.74Zm0-1.604h3.02q1.313 0 2.094-.656.792-.656.792-1.781 0-1.25-.729-1.813-.73-.573-2.219-.573h-2.958Z" class="label-text"/><path d="m478.785 159.883-2.457.239-.921 2.184-2.935 1.194-5.801-.853-5.699 3.378-2.116-1.501-3.208 2.15-2.116-1.536-1.535-2.594-3.447-1.433-2.184 1.741-3.856-.444-.205 6.074 1.058.853v3.959l-2.15 2.15v3.549l.649 2.184v6.245l1.501 1.501v5.255l-3.344-.409-1.706.989-2.833 6.962-1.058 3.788-.341.716-.375.751-.341-.068-3.584-.887-1.911-2.594-3.685-.478-.205 2.423-4.538.615-2.219 2.218-.853 2.252-13.001.648-5.87 3.106-.205 5.937-5.801 2.287-3.992 2.081h-3.174l-1.399-1.638-2.082 2.082-1.604.307 1.399.956-3.992 3.583 1.058 1.058.75 1.501-2.252 3.14 2.662 1.433 4.47.955.307-1.365 2.048 2.594h4.163l2.764-3.003h2.082l-2.764 1.399.205 2.355.784 1.808-2.081 2.116h-2.798l.546 3.924 4.845-.887 5.221 4.778-.068.102-.239.307-6.21 7.985-.205 5.358 6.586 6.381-.239 2.116h2.048l4.026 12.08 4.334 2.15 4.334 4.334h4.812l1.911 4.266h4.743l2.082 3.139 5.221 2.594.205-2.799.853.819 6.688-4.026 2.662-.171 1.297 3.481 4.197-1.775 3.447 2.594 2.866-1.365 2.457-.683 1.092-1.296 3.276-2.116-2.593-2.628-1.502 1.126-.102-1.058 1.535-2.866-1.501-2.525 1.228-1.638-.682-6.109-2.013-3.105 1.501-1.979-3.447-3.856 1.263-2.799-5.187-4.334v-2.525l-1.945-2.73.546-.239 3.481-1.501 6.654 1.535 3.208-2.149v-2.833l5.528-.409 5.255-1.058 5.529-.205.58 1.297 1.877 1.638 1.638-2.833 3.958-4.163h1.74l2.457-8.906 3.447-4.095-.239-4.71 2.15-2.798v-1.467l-.99-1.229.615-1.262 1.228-2.457 4.061 2.832h2.901l-1.161-3.822 2.082 1.399 1.604-2.32 6.415-1.775-1.126-2.73 1.331-1.706 3.208-1.263 3.071-3.992v-3.857h2.082l.921-3.276.205-4.641-2.013-1.876 1.535-2.696 2.73-3.481-3.242-2.286-2.764-.478-3.003-4.505h-1.331l-.068.649h-4.334l-2.116-3.174-3.549-1.263-1.023-7.473-1.877-2.593-6.04.204-5.767 5.324-2.935-.171-.307-.034-1.058-3.788-2.764-1.058-.819-4.606Z"/><path d="M466.912 229.497h7.187v1.636h-9.198v-15.167h2.011Zm-16 1.636v-15.167h4.281q1.979 0 3.5.875t2.344 2.49q.832 1.614.843 3.708v.969q0 2.145-.833 3.76a5.8 5.8 0 0 1-2.365 2.479q-1.53.865-3.572.886Zm2-13.521v11.885h2.104q2.311 0 3.594-1.437 1.291-1.437 1.291-4.094v-.885q0-2.583-1.219-4.011-1.208-1.437-3.437-1.458Zm-13.459 7.583v5.938h-2v-15.167h5.594q2.49 0 3.896 1.271 1.417 1.27 1.417 3.365 0 2.208-1.386 3.406-1.375 1.187-3.948 1.187Zm0-1.635h3.594q1.604 0 2.458-.75.855-.76.855-2.188 0-1.354-.855-2.166-.854-.813-2.343-.844h-3.709Z" class="label-text"/><path d="m485.337 246.492-4.197 4.402-.478.853-.785 1.365-1.16-.955-.683-1.638-6.04.239-5.289 1.057-6.075.444v3.105l-2.695 1.775-6.587-1.502-4.948 2.116 2.287 3.242v2.628l5.05 4.197-1.262 2.73 3.378 3.788-1.467 1.911 2.184 3.31.648 5.767-1.331 1.775 1.502 2.559-1.434 2.73.273 2.389 1.945-1.468 1.604 1.673-2.627 1.672-1.058 1.262-2.321.649-2.559 1.194-.034-.034-.58-.478v.068l-2.799-2.115-3.924 1.672-1.228-3.344-3.242.238-7.03 4.232 1.604 1.467-3.208 2.594-.375 2.047-2.799.342-1.672-1.877-4.163-.376-.444-2.047-2.798-1.877-4.163 1.501 2.696 3.891h3.037l2.901 1.842 2.457 1.98 4.368-.205.819 1.877 2.968.648 1.058 2.935 1.843.785-.171 1.774-2.422-.375-1.092 1.604 1.945 2.832-.956 4.3-2.627-.205-.683-1.467-1.024-.887-.443-5.256-3.754-.477-3.413-4.164-.511 8.497 4.914 3.652.409 3.924.853 4.641.478 5.051 2.764-.273 4.402 3.617 2.833 1.604.238 2.218 2.492.444 6.688 6.688 1.502 6.893.136.649h.034l1.706 7.234.41 6.074-.58.922-.888-4.334-3.037-11.807-10.851-9.794.273-4.607-2.662-.273-3.583 5.358-1.058 17.983-2.764 18.121-1.945 14.093-.205 3.652.648.102 1.468-4.846 2.73-3.549 3.924 3.583.444 1.195.921 1.297-4.504.204-.922-1.365-2.525 1.024-.478 3.31-2.354 3.208v4.948l-.035.137-3.787 20.304-4.914 18.769-1.502 7.268-1.228 5.085-3.003 5.153-.137.239-.205.307-.682 1.228-4.846 5.904-3.685 1.467-3.038.444v2.798l2.765 2.525 3.651.171.205 2.764 3.515.273.819-1.843 3.787 1.604 2.389.58.512 2.184-1.433 1.263v3.959l-2.969 1.501-.239 2.252 2.048 2.321 3.856 1.194.716-3.481 1.195-1.33-.137 1.911 1.672 2.388h3.822l1.672 2.287 5.187.853 4.949 3.037h7.882l.444 4.3 5.562 4.334 2.321 2.73 2.559-1.365 1.911-.376 1.092 1.092 6.04-3.31.342-4.436 1.706-1.263.853-6.825 2.969.58 1.638-1.058-1.502-3.037 5.563-4.743 3.446-7.746 2.253-2.935-4.232-6.347 2.355-2.15-3.856-6.348-5.733-.409-.069-.068-.238-.444-1.263-2.184 1.433-3.89 2.184-2.833-.648-3.583 1.774-1.774-2.559-4.3 1.911-2.286 2.15-.41 2.184.922 2.798-2.389.921 2.73 1.229 1.774 2.832-.75-.239-2.969.717-1.536.58-1.194 2.423 2.047 3.344-3.344 1.399 1.979 3.822-.682 4.027-.444 1.706-3.003 6.041-.58 3.344 3.31 1.262-1.228 2.355-.717-.853-2.969 2.866-.751 4.403-.955-.922-2.73 1.16-1.331 1.161-4.368-2.355-2.559 1.331-4.3 2.969 1.774 5.255-.955-2.32-5.051-1.604-6.006 4.061-.17 1.057-2.764.069-.171 1.979-1.945.205-3.071 4.538-.41 3.345-4.743-1.502-.512-.171-1.775 3.549-.443.273-2.218 1.57-1.024 2.116-3.72-1.979-2.184v-2.081l1.569-1.365.137-.034 4.504-2.082 5.187 2.32 4.266 6.109 2.73-.376 3.378-3.378 1.195 2.116 2.593-2.56 2.935.785.137 1.024 3.412-2.389-.955-2.354-1.161-1.195 1.434-1.774h1.808l1.126-3.583.922-1.809-.649-3.822 2.628-3.651 3.958-2.423.205-5.631 1.365.785 2.218 2.423h2.423l1.536-1.775-1.092-2.627 1.024-3.788-.683-3.788-1.263-1.467v-2.799l1.946-3.207-.478-3.208-.273-.307-4.607-4.641-.341-1.57 3.822-2.218 2.491-1.365.614-3.003 2.628-1.979-.888-4.266-1.706-2.184-.409-6.518-2.423-5.767-2.389-.853-1.877-3.31-1.535 1.945-1.161-1.467v-2.56l-2.73-3.856-7.166.853-4.027-1.024-10.954-1.33-1.262 3.412-3.549-.171-.854-.477-2.559.239-2.047-1.4-3.311 3.822-.477.546-.171.205-.273.307-3.378-3.378-2.048 2.013-3.856-.273.478-3.617-2.389-1.297-1.331-4.538-3.515-.478-2.047-2.048-3.89-3.071.784-2.354v-4.3l-3.856-3.822-.409-3.003-3.686-3.856-1.262-5.187-1.57-.683-1.843-2.525-2.15 1.365.41 2.252-5.153 1.229h-6.04l.17-2.253v-4.299l-5.118-1.502v-2.593l-4.129-.853-.854-3.447zm-54.156 79.204.204 3.105.376.717h-2.15l-.307-1.331Z"/><path d="M530.477 341.585q0 2.198-.698 3.791-.698 1.583-1.958 2.48l2.708 2.125-1.364 1.26-3.198-2.542a6.5 6.5 0 0 1-1.584.188q-1.791 0-3.177-.875-1.385-.885-2.156-2.511-.76-1.635-.781-3.781v-1.094q0-2.187.76-3.864t2.146-2.563q1.396-.895 3.187-.895 1.834 0 3.219.885 1.396.885 2.146 2.552.75 1.656.75 3.875Zm-2-.979q0-2.678-1.073-4.125-1.062-1.46-3.042-1.459-1.885 0-2.979 1.448-1.083 1.438-1.114 4v1.115q0 2.604 1.083 4.104 1.094 1.5 3.031 1.5t3-1.406q1.063-1.417 1.094-4.052Zm-15.01 4.114h-6.355l-1.427 3.959h-2.062l5.792-15.167h1.75l5.802 15.167h-2.052Zm-5.75-1.646h5.156l-2.583-7.093Zm-6.365 5.605h-2.01l-7.636-11.688v11.688h-2.01v-15.167h2.01l7.657 11.739v-11.739h1.989Z" class="label-text"/><path d="m558.535 119.513-2.047 2.525-1.331 4.812-1.263 2.115h-.034l-.137.273-5.937 1.707-1.058 1.331 1.16 1.808v1.877l1.57.341-.751.785.171 1.672.375-.273 1.843 1.843.648 2.559 1.638 1.638-.785 2.15-.034 2.355 1.434 1.604-1.468 2.525 1.604 3.89 2.935 2.082.443 2.457 2.56.409.614 4.539 2.047 2.525 3.584.683.784.136.376 2.56.443.716.478 5.972 7.269-.648 2.627-2.457 2.219 1.808 5.664.41 1.331 1.979.785 1.16 2.457 1.229.205 3.242-3.617 2.491 2.422 2.15 2.457-1.57 5.768.205 2.286-.444.614-1.672 1.877.171.444 1.911 5.699-3.208 4.777-5.631-1.74-1.945 1.365-2.935 3.651-1.808 8.361.409 1.774-1.365.444.444.546-4.232.853-4.197 1.501-1.945.205-2.457 2.969-1.263v-2.286l-3.276.205-.512-1.126 1.058-1.877-.921-3.481-1.638-1.024.409-2.593 1.741-1.126-.239-1.331.853-1.058-3.925-.819-1.092-2.525-1.979-.683-5.596-5.392-.649-4.743-2.627-1.911-1.536.785-1.979 1.604-2.082-.649-3.617 1.502-3.071-1.775-1.365 1.809-1.638.171-1.229-.99-2.32-1.365-2.491 1.672-.376-.375-.955-.922-4.744-2.832-4.641-2.423-2.423 1.092-2.388.614-1.604-1.228-3.617-2.218-2.867 2.184-3.924.443-5.597-.443-1.194-1.911Z"/><path d="M608.002 155.183h-6.365v6.698h-2v-15.167h9.396v1.646h-7.396v5.188h6.365Zm-22.354 6.698v-15.167h4.281q1.979 0 3.5.875 1.521.876 2.343 2.49.834 1.614.844 3.708v.969q0 2.146-.833 3.76a5.8 5.8 0 0 1-2.365 2.48q-1.53.864-3.573.885Zm2-13.521v11.886h2.104q2.312 0 3.593-1.438 1.293-1.437 1.292-4.094v-.885q0-2.583-1.219-4.01-1.208-1.438-3.437-1.459Zm-5.657 13.521h-2v-15.167h2Z" class="label-text"/><path d="m591.602 4.375-7.064 3.31-10.613 1.706-.375.069h-.068l-.614.102v.034l-11.33 2.15-9.657 7.405V48.09l-.034.444-.069.682-.546 6.893 4.71 4.266v1.468l-5.495-3.276-7.405 9.077 2.321.99 2.218-.205.955 1.945 9.385 9.18.614 3.719 2.048 3.754-.581.716-1.399 1.672-1.058 2.662h1.707l-.717 1.74-.853 4.403 1.263 2.15v3.89h1.911l-2.082 3.822-.683 2.116 1.98 1.774.58 4.812.921 1.467-.955.239-2.218-1.228-.546 4.163.511-.649.615 1.434 1.399 2.286 6.006.444 4.129-.444 2.662-2.047 3.207 1.979 1.843 1.399 2.764-.717 2.15-.989 4.368 2.286 4.641 2.73 1.638 1.672 2.628-1.74 1.911 1.126 1.399 1.126 2.184-.239 1.194-1.57 2.867 1.638 3.685-1.535 2.184.682 2.184-1.774 1.126-.58.069.068v.034l.341.239.273.17 1.399 1.024.648 4.675 5.802 5.597 1.877.682 1.126 2.594 3.924.819.614-.785 1.058-2.184 3.208-1.502 1.706-4.504 2.116-1.433-1.399-1.911h-2.662l-.273-.956 1.74-.785 1.092-1.638-1.979-1.331.478-1.501 5.153-.41-1.092-2.422-2.901-1.911v-5.392l3.822-2.833h4.778l-.444-2.252 2.15-.921 3.583 2.354 1.877-.511-.205-7.508.649-2.491.921-3.242-2.764-1.467.478-1.263 4.129-.887v-2.832l3.173-1.673.922-2.832-1.092-1.74.204-2.97 2.014-1.774-1.979-3.754.614-4.06h-4.778l-.136-1.638 4.265-2.56-.716-4.47-3.72-.99.751-.785v-2.934l3.31-2.423-.99-1.945-6.995-5.495-12.251.649-1.263 2.116h-.989l.204-7.269-3.617-4.266-2.559.41-1.536-1.74-4.265 1.91-1.4-1.399-2.9-.41-.785-2.524-.205-8.702-1.945-.853-.239-1.4h-1.262l-.444-2.593-3.14.273-5.425 1.74-2.526 3.14h-2.252l-1.57-1.945-.614-2.287-2.286-2.593h-2.969l-1.126-2.082v-3.48l1.501-2.355-.921-3.413Z"/><path d="M624.454 83.198h-6.365v6.698h-2V74.729h9.396v1.646h-7.396v5.187h6.365ZM602.1 89.896V74.729h4.281q1.979 0 3.5.875 1.52.874 2.344 2.49.832 1.614.843 3.708v.969q0 2.145-.833 3.76a5.8 5.8 0 0 1-2.365 2.48q-1.53.863-3.573.885Zm2-13.521V88.26h2.104q2.312 0 3.594-1.437 1.291-1.437 1.291-4.094v-.885q0-2.585-1.219-4.01-1.208-1.439-3.437-1.46Zm-5.552 13.52h-2.011v-7.01h-7.646v7.01h-2V74.73h2v6.52h7.646v-6.52h2.011Z" class="label-text"/><path d="m767.824 370.4-2.15.955-.444 3.14-3.276.375-.614-2.798-1.433-1.467-4.095.443-1.672 1.433-.888 4.71.785 1.296 4.402.444.853 2.696 1.638.819v4.129l-3.856-.171-1.706 1.877-4.846-.853-2.73 2.321-1.945-.853-3.139 2.457 1.092 1.945-1.434 1.433h-5.528v3.071l1.604.819-.478 1.092-3.446 1.399-4.607.444-1.399 4.368-.205 2.73 2.218 1.774-1.979 2.321-2.73-1.365-3.822-.273-.546 2.389 1.945 1.365-2.389 1.569.99 4.027 7.268 1.945 1.297 2.799 1.979.375-.682 6.518-.034.341-.819-.955-2.082-1.809-1.228 3.583-1.741 1.536-.409-.034h-.307l-.376-.035-1.433-.102-3.037-2.252-.887-2.867-6.177-.443-4.231-.41-.376-2.184 1.433-3.139-.511-.376-2.628 2.253-3.959-.41-.682-1.16 3.003-4.095-3.276-3.105-3.31.273-2.457 3.856.648 4.197 3.481.41-.41 1.126-2.73.204-3.003 3.038-.511-.683.614-4.266-1.468-1.74-6.142.921-1.331 2.696.819.444 3.515 5.869v4.88l6.347 6.313v2.423l-2.866 1.638-5.529 3.14-1.535 11.295-6.245-.853-1.945 5.221 1.399 1.945-6.723 4.129-2.15 4.949 7.235.341 8.838.648 1.058 1.058h-2.593l-2.423 4.163 9.623 2.014 7.985-1.399-4.061-3.822 2.116-1.775 3.788 1.604 1.911 4.129 12.456.205 2.934-1.195.444 1.4-3.856 3.378 5.085.205-.683 1.672-1.706 2.013h11.09l4.983 1.638.375.512.683.956 3.787 1.672 1.058 4.334 2.696.477 2.252-1.569 3.72-2.287 6.177.614-.137 1.195-2.013.989.136.615 5.938.273-1.74-1.809-.41-2.457 2.457-1.706 3.071.989 1.195.41 1.194 1.433 1.877-1.297.41-2.832 1.501-1.297h4.539l1.262-1.911 2.833.853 3.719-1.604v-6.142l-3.549.171 2.355-1.468 1.774-2.423.478-3.31 6.074-.853 3.276-3.651v-.034l.205-.205.239-.273.034-.068.205-4.607 4.095.819 1.501-1.945 2.321.477.205-6.722 4.743-.376 4.231-3.856h3.993l.239-2.491 3.958-2.389-2.184-4.948 3.174-2.73-.614-3.105 4.607-1.468 1.331-4.914-.649-3.276-1.092-1.979-.921-3.037-3.447.273-10.067 3.617h-3.037l-5.426-4.402-5.699-1.57h-2.968v-3.719l-4.471-2.764v-3.788l3.447-.478-2.252-1.979-2.116-.649-.956-2.491.785-1.74 3.89-4.163-.614-3.003.341-.342.069-.068.512-.546 1.433-1.57 2.491.239v-2.491l-2.969-1.501-.648-6.211-2.628-.956-2.969.444-5.289-2.662-.887-6.415-3.242-1.058-1.024-2.048-1.467-3.241z"/><path d="M771.609 455.789q0 2.199-.698 3.792-.698 1.584-1.958 2.479l2.708 2.125-1.364 1.261-3.198-2.542q-.75.188-1.583.188-1.792 0-3.178-.875-1.385-.886-2.156-2.511-.76-1.635-.781-3.781v-1.094q0-2.187.76-3.864.761-1.678 2.146-2.563 1.396-.896 3.188-.896 1.833 0 3.218.886 1.396.885 2.146 2.552.75 1.656.75 3.875Zm-2-.979q0-2.676-1.073-4.125-1.062-1.458-3.041-1.458-1.885 0-2.979 1.448-1.084 1.438-1.115 4v1.114q0 2.605 1.083 4.105 1.094 1.5 3.032 1.5t3-1.407q1.062-1.416 1.093-4.052Zm-15.01 4.115h-6.354l-1.427 3.958h-2.063l5.792-15.166h1.75l5.802 15.166h-2.052Zm-5.75-1.646h5.156l-2.583-7.094Zm-12.646-.333v5.937h-2v-15.166h5.594q2.49 0 3.896 1.27 1.416 1.271 1.416 3.365 0 2.208-1.385 3.406-1.375 1.188-3.948 1.188Zm0-1.636h3.594q1.604 0 2.458-.75.855-.76.854-2.187 0-1.354-.854-2.167t-2.344-.844h-3.708Z" class="label-text"/><path d="m801.3 491.271-3.549 2.388.478 2.321 1.57 2.013-1.877 1.433.444.888.443.887-1.228 1.399v2.184l2.15 1.945v2.764l-1.229 2.594-1.092.478-.648-.854-1.024-1.433-3.071.239-.649-.444h-2.764l-2.491 2.321-.853 3.515-5.426 1.024-4.402 3.719-.785 2.218-1.74-.17-1.468-1.741-.682 4.164-1.536.614-.478 3.685.581 1.365-2.219 1.604-.58 1.57h-1.808v2.866l2.286 1.604 3.515 2.048.171 1.262-1.843.581-3.686.682v1.877l1.263 1.297.239 4.368 4.914 1.569 1.57.376 1.33 2.081-.887 1.229-1.706.614-1.331 2.423-1.365 1.604.683 4.266 3.378-.205.921.682 3.003-1.467.512.512-1.501 3.208 1.399 1.399-2.321 1.74-1.911 4.266 5.119 1.194 5.972.546-2.218 2.559c-.449-.151-1.365-.386-1.911-.136-.033.016-.064.006-.137.068-.007.007-.044.041-.102.102-.02.016-.073.053-.102.103l-.069.136v.068a.6.6 0 0 0-.034.137v.102c0 .802-1.034 2.786-1.433 3.481l-.136.205 2.286 2.491 3.924 2.423 7.303 1.945 2.082.853 1.638.682-1.399 2.594 3.753-.239.649 1.467h3.89l.99-4.641-1.911-.375 2.832-2.969-1.194-1.194.17-1.604 3.856-2.116.273-2.866-3.037-.239-1.262 1.092v-1.092l3.31-.205 1.126-2.73.887-7.576v-.068l-.648-3.174-.069-2.9-.136-6.382 5.119-7.234v-12.046l-.103-.171-2.013-3.992-.648-12.797-1.536-2.423-2.73-2.116-.444-7.712 1.331-3.652-1.74-5.835-1.058-4.675-.955-1.433-2.184-1.229Z"/><path d="M862.065 529.294h44.541c2.897 0 5.23 2.218 5.23 4.972v20.057c0 2.754-2.333 4.971-5.23 4.971h-44.541c-2.897 0-5.229-2.217-5.229-4.971v-20.057c0-2.754 2.332-4.972 5.229-4.972" class="label-box"/><path d="M896.773 545.742h-3.562v6.136H891.2v-15.167h5.021q2.563 0 3.938 1.167 1.385 1.167 1.385 3.396 0 1.416-.771 2.468-.76 1.053-2.125 1.573l3.563 6.438v.125h-2.146Zm-3.562-1.635h3.073q1.49 0 2.364-.771.886-.77.886-2.062 0-1.407-.844-2.157-.834-.75-2.417-.76h-3.062Zm-4.969 1.302q0 3.385-1.156 5.031-1.157 1.646-3.615 1.646-2.427 0-3.593-1.604-1.167-1.615-1.209-4.813v-2.572q0-3.345 1.156-4.969 1.157-1.625 3.625-1.625 2.448 0 3.605 1.573 1.155 1.562 1.187 4.833Zm-1.927-2.635q0-2.448-.687-3.563-.688-1.125-2.178-1.125-1.478 0-2.156 1.115-.677 1.114-.698 3.427v3.083q0 2.459.709 3.636.719 1.166 2.166 1.166 1.428 0 2.115-1.104.697-1.104.729-3.479Zm-9.625 9.104h-9.937v-1.386l5.25-5.833q1.166-1.323 1.604-2.146a3.6 3.6 0 0 0 .448-1.719q0-1.187-.719-1.947-.718-.76-1.917-.761-1.437 0-2.239.823-.792.813-.792 2.271h-1.927q0-2.093 1.344-3.386 1.353-1.291 3.614-1.291 2.115 0 3.344 1.114 1.229 1.104 1.229 2.948 0 2.24-2.854 5.334l-4.063 4.406h7.615Z" class="label-text"/><path d="M855.286 542.679h-40.539v1.504h40.506Z" class="label-connector"/><path d="m543.486 67.097-1.502 1.843-9.111 6.995-16.175 4.061-10.715 3.856-8.736 4.71-5.222 7.78-1.16 6.279 4.436 3.344 4.607.99-4.265.751-8.19 4.743-9.009 3.549-7.132-3.993-17.507-2.593-4.129-2.15-6.074 1.57-1.979.477-.205-4.811-5.494-6.518 1.536-3.89h2.593l-2.32-6.416-9.521-.444-4.812 3.345-5.358-3.515-8.292-2.457-1.058 2.628 4.573 3.685v4.436l-1.809 2.252 1.297 1.297.478.342-.41 3.958 1.536 3.481 4.914 5.562 1.024 4.812 1.058 1.535v7.576l2.559 5.221v5.802l-2.798 5.596 3.105 7.985 4.641 1.024.341 1.706-2.047.922h-4.368l.751 3.105 1.296 4.163 3.72 3.276 2.082.512 1.74-2.354 1.911-.239 2.184-2.628 1.979 1.57h2.594l1.467.716v.512l4.027.478 2.116-1.638 2.9 1.16v.034l.205.376 1.228 2.047 2.628 1.945 3.208-2.15 2.116 1.502 5.869-3.481 5.733.853 3.378-1.365.854-2.081 1.774-.171 1.74 1.536.854 4.743 2.798 1.092 1.092 3.924 3.992.205 5.768-5.323 5.494-.205 1.569 2.116 1.058 7.814 3.686 1.297 2.218 3.276h4.334l.17 1.194.649-.034.17-1.808h.41l2.969 4.436 2.832.478v-5.563l-1.467-1.979-.376-1.399 2.935-1.774 3.276-.649 2.287-2.73-.444-8.156-4.505-3.822-.204-3.685-.512-.341 2.662-2.56h2.866l7.712-3.992 2.389.989 5.631.034 1.433-1.706v-3.14l4.266-2.115v-3.447l1.194-.99-.102-.955 1.399-1.399-2.253-.478v-1.536l-1.023-1.603.648-.785 6.006-1.707 1.57-2.695 1.297-4.71 1.603-1.979.273-2.116 1.604.888 2.082-.581-1.297-2.013-.614-4.948-1.843-1.672.512-1.638 1.502-2.798 1.126-1.946h-2.389v-3.446l-1.229-2.082.819-4.06 1.024-2.594h-1.706l.648-1.638 2.218-2.696-2.184-3.993-.648-3.89-9.418-9.214-1.161-2.252-2.491.205z"/><path d="M518.451 132.965h-3.562v6.136h-2.011v-15.167h5.021q2.562 0 3.938 1.167 1.385 1.167 1.385 3.396 0 1.416-.771 2.468-.76 1.053-2.125 1.573l3.563 6.438v.125h-2.146Zm-3.562-1.635h3.073q1.49 0 2.364-.771.885-.77.886-2.062 0-1.407-.844-2.157-.833-.75-2.417-.76h-3.062Zm-5 .677q0 2.23-.75 3.896-.75 1.656-2.125 2.531t-3.209.875q-1.791 0-3.177-.875-1.385-.885-2.156-2.51-.76-1.636-.781-3.781v-1.094q0-2.188.76-3.865t2.146-2.562q1.396-.896 3.187-.896 1.824 0 3.209.885 1.396.876 2.146 2.552.75 1.668.75 3.886Zm-1.99-.979q0-2.698-1.083-4.135-1.084-1.448-3.032-1.448-1.895 0-2.989 1.448-1.083 1.437-1.115 4v1.114q0 2.615 1.094 4.115 1.105 1.49 3.031 1.489 1.938 0 3-1.406 1.063-1.416 1.094-4.052Zm-13.229 8.073h-2.011l-7.635-11.688v11.688h-2.01v-15.167h2.01l7.656 11.74v-11.74h1.99Z" class="label-text"/><path d="m680.668 61.023-2.218 3.276-2.013 2.013v4.436l-2.389 1.604-4.641 1.467-2.389.99-2.934-2.286h-4.471l-.614 4.163 1.843 3.48-1.843 1.639-.205 3.446 1.024 1.638-.751 2.287-3.276 1.74v2.696l-3.992.853-.785 2.15 2.798 1.501-.785 2.73-.648 2.594.136 5.699.069 1.365-1.127.307-3.617-2.355-2.969 1.263.41 1.979h-4.198l-4.265 3.174v6.074l3.037 1.979.614 1.399-4.675.376-.751 2.389 1.843 1.228-.614.956-2.082.921.546 1.979h2.867l.785 1.092-1.707 1.16-1.706 4.437-3.174 1.501-1.126 2.355-1.16 1.433.239 1.194-1.638 1.058-.512 3.31 1.775 1.127.784 2.934-1.057 1.945.819 1.843 3.037-.17v1.126l-2.969 1.262-.205 2.662-1.433 1.843-.922 4.436-.511 3.754 1.569 1.297h2.526l5.357 5.562-.682 5.801 4.197 3.208 2.116-1.467 3.139 3.753.41 3.856 2.389 3.174 1.126 2.559 8.838.444 4.061-2.047 1.16 2.218 1.911.273 1.126-2.389 6.825-.205 3.037-1.604.444-2.661h5.801l1.468.819 1.842 1.023 3.754 3.993 4.744 6.415-2.833 3.038 2.082 1.433.239 3.754 3.515-.205.853 1.706 2.832.205 1.74-.956 3.208 3.993.546 1.263 5.119-1.127.853-2.081.341.068v-2.32l2.628-1.161 3.412 1.297 3.276-1.331h2.116l.683-4.47 1.399-1.638-2.252-.239-.171-2.013 2.935-.649.17-1.638h3.037v-2.866l2.457-.888-.648-1.774.205-.137.068-.034.512-.341 1.365-.819-.819-1.263.546-.307 1.467 1.707 2.491-1.741.615-2.013 3.685-.614.853.682-.204 2.355 3.003 2.286 1.945-.205 1.877-1.501h4.197l3.208 3.617h1.296l1.911-1.194.239-1.229 1.399-.716 1.707 1.16 1.877 2.116 6.79 3.583.956 1.842 3.481.205 3.719 2.867.546 1.331-.204 2.422-1.058 1.98.477 2.969 3.038-.444.546 2.082 1.126 4.811 2.388-.375-.409 2.047 1.74 1.502 8.122-.205 4.266-3.378.204-4.744 2.253-2.9-2.935-3.379-1.365-3.173 1.638-2.287v-5.391l1.058-2.492v-4.299l1.979-2.867-2.184-3.071-.171-5.528-.034-.478v-.239l-.034-.375 5.529-10.818.068-.102-.683-6.211 2.56-8.327.648-7.098 5.528-4.06v-2.594l1.98-2.593h1.706l2.116-2.116-.444-3.686 1.843-4.88 3.446-.784-3.583-2.833-5.357-.614-4.812-2.423-3.105 1.877-1.638-1.809h-2.457l-3.379.922v-.034l-.614.17-.307.103-.068.034-1.331-1.911-4.3-2.628-1.57-2.457-5.426.478-3.003 2.764-6.995.205-2.014-1.399c-.272-.484-1.279-2.173-2.218-2.696-.042-.023-.077-.081-.136-.103-.042-.02-.101-.016-.137-.034l-.205-.034v.307l-.102-.307c-.753 0-2.293-.807-3.003-1.228l-.136-.069-3.345 1.4-.204 2.491-3.14.375-2.082-3.958-1.194-.41v-2.969l-3.003-1.297-.205-5.05-2.252-2.184-4.539-2.218-2.354-.034-.649.443h-1.945l-2.969-2.559-3.446.204-2.662 2.219-.614.989h-3.276l-1.263-1.296h-3.412l-3.857-4.266h-5.187l-2.559 2.355-3.651.204-1.263 1.297h-.887l-.819-3.89-1.843-1.843-.853-.136-.683-.103-1.092-.17-.853-4.164-1.877-1.433-5.869-.648-1.024-2.662-2.013-1.331-6.723-.853-.375-4.505.853-.853v-2.218l-3.344-2.116.546-2.081.955-2.355-1.399-1.194 2.184-1.98v-4.163l-1.058-.75Z"/><path d="M732.221 149.35q-2.572-.74-3.75-1.813-1.167-1.083-1.167-2.666 0-1.792 1.427-2.959 1.438-1.177 3.729-1.177 1.563 0 2.782.604 1.228.605 1.896 1.667.677 1.062.677 2.323h-2.011q0-1.376-.875-2.156-.875-.792-2.469-.792-1.479 0-2.312.656-.823.646-.823 1.802 0 .928.781 1.573.792.636 2.677 1.167 1.896.53 2.959 1.177 1.073.635 1.583 1.49.52.853.521 2.01 0 1.844-1.438 2.958-1.437 1.104-3.843 1.104a7.2 7.2 0 0 1-2.917-.593q-1.355-.605-2.094-1.646a4.03 4.03 0 0 1-.729-2.365h2.01q0 1.376 1.011 2.177 1.02.792 2.719.792 1.582 0 2.427-.646.843-.645.843-1.76t-.781-1.719q-.781-.615-2.833-1.208m-8.021-.25h-6.573v5.375h7.636v1.635h-9.636v-15.167h9.531v1.646h-7.531v4.875h6.573Zm-11.906 5.021q-.771 1.104-2.156 1.656-1.376.541-3.209.541-1.854 0-3.291-.864-1.438-.875-2.23-2.479-.78-1.605-.802-3.719v-1.323q0-3.428 1.594-5.312 1.605-1.886 4.5-1.886 2.375 0 3.823 1.219 1.448 1.208 1.771 3.437h-2q-.563-3.01-3.584-3.01-2.01 0-3.052 1.417-1.03 1.406-1.041 4.083v1.24q0 2.552 1.166 4.062 1.167 1.5 3.157 1.5 1.125 0 1.968-.25a3.04 3.04 0 0 0 1.396-.844v-3.406h-3.51v-1.625h5.5Z" class="label-text"/><path d="m549.594 379.272-4.607 2.15-1.126.171.273.409-1.365 1.161v2.627l1.843 2.048-1.774 3.105-1.775 1.16-.205 2.014-3.685.443.239 2.833 1.092.375-2.662 3.788-4.778.409-.238 3.379-1.843 1.808-1.058 2.73-4.47.205 1.842 6.825 1.877 4.095.102.239-4.197.751-3.447-2.048-1.672 5.46 2.355 2.56-.99 3.822-1.365 1.569.819 2.389-3.719.785-3.515.921.853 3.003-1.126.308-.546.17-.171.068-.955.888-3.106-3.037-6.688.648-1.706 3.003-3.72.409-3.413.581-1.603-2.253-3.481 3.481-2.628-2.218-1.706 3.651.171 2.594-1.843.512-.922-1.263-1.194-3.651-3.208 2.764-2.013-.819-2.594.478-2.32 2.832 2.491 4.266-1.638 1.638.648 3.651-2.013 2.628-1.604 4.299 1.877 3.276 5.221.376.546.068 3.379 5.596-2.355 2.15 4.3 6.416-2.014 2.627-3.378 7.644-5.904 5.017 1.468 2.969-.922.614-3.412-.683-.887 7.235-1.741 1.297-.375 5.187.887-.546 3.447 2.047 4.163 3.14.409 2.525 3.584 2.935h2.934l6.928-2.935 2.866 3.31 4.402 1.16 1.502-2.491 1.638.717 3.924.273 9.316.648.444-10.476 2.559.375 3.925 2.321 1.569.887 6.757 1.297h2.628l3.617 4.709 9.146-.444 3.685 5.836 3.378-1.365 9.044 1.262.614 3.379.102.648.341 2.013 3.276 3.072 6.279 1.74.205 3.72 3.652 3.207 2.832-.511 3.651-4.471 4.266-.819 6.893 2.321 6.177 5.289 1.808-2.286h1.229l1.57 1.126 1.638-.785.204-2.969 6.279-1.467 2.116-2.764 3.071-1.024h4.266l2.798 2.969 3.891.273v-3.891l-1.809-2.491-2.901-1.262-.443-17.882-.205-6.62.273-7.405-2.764.205-1.911-2.833 1.399-2.252 3.515 3.31 3.446-2.764 2.253-2.184.239-2.082.17-1.228 7.61-2.355.819-1.843 5.938-.204 1.945-2.423 11.5-9.18 7.166-5.05 2.014.136 3.753.273v4.3l5.187-.239 2.867.137 1.945-4.539 7.132-4.368-1.604-2.252 1.672-4.402 6.382.887 1.535-11.637 8.463-4.811V443.7l-6.347-6.313v-4.777l-3.719-6.177-8.02-4.504-.614 3.549-2.491.238-.922-3.344-3.549.683-.546 4.061-1.979-.717-5.289-3.447-2.116 1.092v-5.699l-3.583-2.149-.921-.546.614-4.471-3.652-3.958-1.501-7.747-5.631-7.234-3.856.921-.819-2.9h-2.696l-.409 2.627-5.051 1.57-3.856-9.862-6.381 2.32-1.604 3.583-3.89-2.593-3.106 9.794-2.866 6.586-1.468-1.843-.648-6.245h-2.082l-.955-6.074-4.197.614-.546-3.617-.854-1.365-6.449 5.494v4.948h-1.468l-.614 4.914-1.467.58-1.16 2.628h-6.245l-.58-.887h-3.413l-1.809 2.969-.307-.034-1.467-.205 1.16-3.515-2.696-1.194 2.696-6.279-3.719-2.765-1.229-7.917-3.685-.989-2.253 2.218-1.194-2.116-3.856 3.822-2.116.273-4.129-5.903Z"/><path d="M601.693 457.767q-.28 2.406-1.781 3.719-1.49 1.302-3.969 1.302-2.687 0-4.312-1.927-1.615-1.928-1.615-5.157v-1.458q0-2.115.75-3.719.76-1.604 2.146-2.458 1.386-.864 3.208-.865 2.417 0 3.875 1.355 1.46 1.343 1.698 3.729h-2.01q-.26-1.813-1.136-2.625-.864-.813-2.427-.813-1.916 0-3.01 1.417-1.083 1.416-1.083 4.031v1.469q0 2.469 1.031 3.927t2.885 1.458q1.667 0 2.552-.75.896-.76 1.188-2.635Zm-13.885 0q-.281 2.406-1.781 3.719-1.49 1.302-3.969 1.302-2.688 0-4.313-1.927-1.614-1.928-1.614-5.157v-1.458q0-2.115.75-3.719.76-1.604 2.146-2.458 1.385-.864 3.208-.865 2.417 0 3.875 1.355 1.458 1.343 1.698 3.729h-2.011q-.26-1.813-1.135-2.625-.864-.813-2.427-.813-1.917 0-3.01 1.417-1.084 1.416-1.084 4.031v1.469q0 2.469 1.031 3.927 1.032 1.458 2.886 1.458 1.667 0 2.552-.75.896-.76 1.187-2.635Zm-14.156-2.281q0 2.228-.75 3.896-.75 1.656-2.125 2.531t-3.209.875q-1.791 0-3.177-.875-1.385-.885-2.156-2.511-.76-1.635-.781-3.781v-1.094q0-2.187.76-3.864t2.146-2.563q1.396-.896 3.187-.896 1.824 0 3.209.886 1.395.875 2.146 2.552.75 1.666.75 3.885Zm-1.99-.979q0-2.699-1.083-4.136-1.084-1.448-3.032-1.448-1.895 0-2.989 1.448-1.083 1.438-1.115 4v1.115q0 2.614 1.094 4.114 1.104 1.49 3.031 1.49 1.938 0 3-1.406 1.063-1.418 1.094-4.052Z" class="label-text"/><path d="m608.596 270.789-2.968 3.856-1.707.205-1.74 1.808-2.15-2.354-6.074 6.108v3.686l1.058.887.17 1.365-2.696 2.116-2.695-.819-5.529 1.126-2.832 3.242-1.331 2.866.58-.136 2.389 3.378v2.559l1.774 2.321 1.468-1.843 1.535 2.662 2.321.853 2.286 5.358.103 1.672v.034l.307 4.948 1.74 2.116.785 3.788-2.491 1.876-.614 2.969-2.219 1.195-4.265 2.457.478 2.252 4.914 4.914.409 2.764-1.945 3.174v3.207l1.331 1.536.614 3.447-.478 1.706-.614 2.15 1.058 2.457-1.092 1.262h-1.809l-2.047-2.252-2.457-1.399-.239 6.347-3.686 2.253-2.968 4.026.682 3.891-.853 1.638-.99 3.207h-1.638l-1.979 2.457 1.467 1.468.717 1.808-2.73 1.911 1.194 7.474 3.515 2.627-2.764 6.382 2.764 1.228-1.228 3.686 3.003.409 1.808-3.037h2.662l.58.887h7.064l1.229-2.764 1.535-.648.615-4.709h1.535v-5.29l5.665-4.811.341.546.614 4.163 4.266-.614.887 6.006h2.082l.58 5.733v.102l2.286 2.832 3.311-7.61 2.866-8.974 3.788 2.559 1.809-4.061 5.391-1.945.137-.068 3.856 9.828 6.006-1.843.409-2.491h1.604l.888 3.037 4.06-.99 4.641 5.938.41.512.205.239 1.467 7.78.034.103 3.583 3.856-.648 4.572 4.573 2.765v6.381l2.73-1.399 5.05 3.276 2.798 1.058.581-4.437 2.525-.477.887 3.31 3.549-.376.546-3.105 6.825 3.856 1.194-2.457 3.038-.443 2.388-.342 1.058 1.229-.614 4.265 1.16 1.468 3.344-3.379 2.901-.238.819-2.287-3.788-.443-.546-3.481 2.15-3.379 2.696-.204 2.662 2.491-2.935 3.992 1.058 1.809 4.573.478 1.706-1.468-.887 1.946.511 2.9 4.71.444 5.767.409.819 2.662 3.344 2.491 3.003.205 2.082-1.843.955-2.832 1.297 1.16 1.774 2.082.956-8.975-2.252-.444-1.297-2.764-7.166-1.911-.785-3.208 2.798-1.842-2.389-1.673.342-1.433 3.071.205 3.139 1.57 2.73-3.208-2.457-2.013.171-2.321 1.228-3.856 4.266-.41 3.822-1.535.341-.751.069-.205.204-.443h-.034l.239-.512-1.809-.922v-2.013h5.119l1.979-1.979-1.023-1.877 2.388-1.877 1.946.853 2.798-2.388 4.914.887 1.706-1.945 4.266.205v-5.222l-1.775-.887-.853-2.832-4.538-.444-.478-.819.785-4.231 1.331-1.126 3.617-.41 1.092 1.092.682 3.208 4.368-.512.444-3.276 1.672-.751 4.607.239-.171-.341 5.904-2.355 2.286 1.468h2.73l.239-2.696 2.594-1.399 1.092-1.297 5.664-2.184.717-3.925-1.058-1.638 3.106-5.289-3.003-1.126-.819-2.969-5.733-3.378c.056-1.226.282-6.427-.239-7.678l.409-.342h-1.024c-.705.177-3.13.36-3.787.41l-3.038-3.413.103-3.685.102-3.208 7.2-3.003.922-2.286-.444-4.914-4.948-5.153-1.228.716v-4.777l-4.095-1.945-.137-1.399 2.321-2.526v-3.241l-3.856-4.061-.205-2.935h-7.644l-4.948.853-4.505 3.651-1.16-1.774-2.764.239-2.218 4.88-.034.102.273 2.116 2.081 1.706-3.958 2.593-2.662 2.492h-6.586v-3.549l2.355-1.365 3.992-.444.307-2.594-1.16-.784 3.105-3.925-.546-1.535-3.992-2.15-8.941 9.862h-5.733v-2.457l-3.788-1.877-4.163 4.539-2.73.375v-2.832l-2.867-1.297-4.265-6.006-3.822-1.468-1.263-2.798-2.457-.512-2.184 1.536-1.501.409-2.321-1.945-2.662.273-1.603 3.003-4.027 15.698-.58 1.297v.034l-.615 1.467-1.023-.136-.785-4.095-1.195-3.652-2.695.239-1.741 1.74-1.262-1.706-1.98 1.775-2.491-1.604h-2.32l-1.024.785-.512 2.764-.717 3.924h-2.218l-1.569 1.57-1.161-1.16-6.927-1.058-.102-.034-2.594 1.535h-1.365l-.375-1.467-3.174-.648-.205-3.379-.58-.205 4.198-3.207.204-8.566-1.672-2.354h-3.412l-1.263-1.707h-3.617l-.887-1.092v-3.105l-4.334-8.224-2.491-1.809-4.164 5.733-1.262.307-.615-2.593-2.354-1.058-.888 1.809h-2.73l-.477-2.082-2.526 1.468-2.081 1.16-2.389-2.594-3.583-1.706-.205-2.832Z"/><path d="M698.556 354.44h-6.354l-1.427 3.958h-2.063l5.792-15.167h1.75l5.802 15.167h-2.052Zm-5.75-1.646h5.156l-2.583-7.094Zm-10.198-.531h-3.562v6.135h-2.011v-15.167h5.021q2.562 0 3.937 1.167 1.386 1.167 1.386 3.396 0 1.416-.771 2.469-.76 1.051-2.125 1.573l3.563 6.437v.125H685.9Zm-3.562-1.636h3.072q1.49 0 2.365-.771.885-.77.885-2.062 0-1.406-.843-2.156-.834-.75-2.417-.761h-3.062Zm-7.542 3.813h-6.354l-1.427 3.958h-2.063l5.792-15.167h1.75l5.802 15.167h-2.052Zm-5.75-1.646h5.156l-2.583-7.094Z" class="label-text"/><path d="m549.287 137.599-1.638 1.365v3.344l-4.265 2.116v3.31l-1.092 1.297h-5.119l-2.628-1.092-7.78 4.061h-3.003l-3.481 3.31.921.614.205 3.617 4.505 3.822.409 7.61-1.945 2.389-3.105.614-3.515 2.082.477 1.945 1.468 1.945v5.255l.648.069 2.628 1.877-.717.887-.239.307-.17.239-1.229 1.535-1.808 3.208 2.184 2.014-.205 4.265-.785 2.73h-2.218v4.266l-2.833 3.685-3.207 1.263-1.672 2.15.511 1.297.171.409.102.273.205.41-5.938 1.638-1.365 1.979-3.071-2.014 1.433 4.71h-1.808l-4.505-3.174-2.388 4.812 1.126 1.365v1.023l-2.15 2.799.239 4.675-3.345 3.958-2.593 9.282h.444l.853 3.379 3.992.819v2.559l5.119 1.502v3.787l-.239 2.901h6.825l5.87-1.365-.478-2.457 1.263-.785 1.569 2.184 1.434.614 1.262 5.051 3.652 3.822.409 3.003 3.481 3.447.341.341v3.89l-.921 2.73 4.231 3.31 2.184 2.184 3.31.444 1.297 4.402 2.218 1.228-.341 2.73-1.467.273v.649l.648.136 5.494.41 1.809-1.775 3.412 3.413 4.3-4.948 1.774 1.194 2.56-.239.785.41 4.231.239 1.263-3.379 10.374 1.263 4.129 1.058 1.501-.171.546-.068h.103l4.948-.614 1.092-2.321 2.662-3.037 5.118-1.058 2.901.887 3.242-2.559-.239-2.013-1.058-.819v-3.14l5.426-5.426 2.15 2.355 2.047-2.116 1.741-.205 2.934-3.788 4.471.376.034.887.648.068 1.672-5.357-1.057-1.945.17-2.662.683-5.699-2.355-2.355.444-5.05-2.184-4.505-.205-3.071-3.89-3.003-.546-2.32 1.877-2.73v-4.266l-1.98-2.355-.409-.477-.034-.035-.137-.136-.17-1.775 4.334-1.262-.751-2.662-.649-3.412-2.764-3.891-.512-1.877h3.925l3.208-2.286.443-3.481-1.774-2.013 5.391-4.539v-4.163l-2.832-3.003-1.058-3.412-4.095-3.891-5.153 2.901-.375-1.502-2.832-.238-.649 1.774-1.877.341-5.869-.204-2.218 1.433-1.434-1.263 3.242-2.218-.239-3.993-2.661-1.33-2.184-3.276-5.802-.41-2.491-2.047-2.866 2.695-5.528.478.034-.034-.581.068-.238.034-.069.034-.443-5.494-.444-.648-.443-2.935-4.573-.887-1.809-2.184-.648-4.846-2.56-.409-.409-2.253-3.003-2.149-1.433-3.413 1.569-2.628-1.603-1.774v-1.945l.921-2.491-1.809-1.809-.648-2.559z"/><path d="M569.478 238.306h7.187v1.635h-9.198v-15.166h2.011Zm-10.563-1.021 4.334-12.51h2.187l-5.625 15.166h-1.771l-5.614-15.166h2.177Zm-7.75-2.156q-.28 2.406-1.781 3.718-1.49 1.302-3.969 1.302-2.687 0-4.312-1.927-1.615-1.926-1.615-5.156v-1.458q0-2.115.75-3.719.761-1.604 2.146-2.458 1.386-.865 3.208-.865 2.418 0 3.875 1.354 1.46 1.344 1.698 3.73h-2.01q-.26-1.814-1.135-2.625-.865-.813-2.428-.813-1.916 0-3.01 1.417-1.083 1.416-1.083 4.031v1.469q0 2.468 1.031 3.927 1.03 1.458 2.885 1.458 1.667 0 2.552-.75.897-.76 1.188-2.635Z" class="label-text"/><path d="m627.126 171.758-2.013 1.536-8.292-.41-4.027 2.014-1.638 3.515 1.672 1.842-4.539 5.358 4.027 3.788 1.024 3.344 2.798 3.003v3.583l-5.699 4.778 2.014 2.286-.376 2.901-2.798 2.013h-4.573l.751 2.764 2.764 3.856.648 3.379.581 2.047-2.15.614-2.082.615.239 2.525 2.559 2.969v3.856l-1.945 2.798.683 2.798 3.822 2.969.204 2.833 2.15 4.538-.443 5.187 2.354 2.321-.648 5.426-.205 2.866 1.024 1.877-1.604 5.119.171 1.877 3.753 1.74 2.696 2.969 2.56-1.433 1.74-1.058.41 1.74h3.651l.785-1.604 1.467.649.683 2.934 2.15-.511 3.958-5.392 1.775 1.262.477.888 3.754 7.064v3.241l1.229 1.502h3.617l1.262 1.706h3.413l1.331 1.877-.205 8.054-4.402 3.378-.375.853.819-.102.375.102.205 3.447 3.242.648.409 1.57h2.048l2.559-1.502 6.586 1.024 1.467 1.467 1.843-1.842h2.491l1.297-6.962.648-.512h1.911l2.73 1.809 1.809-1.638 1.297 1.706 2.116-2.081 1.945-.171.989 3.105.888 4.505 1.979.273 1.399-3.276 3.993-15.698 1.433-2.627 2.047-.205 2.355 1.979 1.877-.478 2.116-1.467 1.842.375 1.263 2.73 1.331.512.102.034 2.423.956 4.266 5.972 2.661 1.194v3.174l3.72-.512 3.958-4.368 3.003 1.501v2.696h6.655l9.248-10.169-.546-.307.375-4.163 3.447-4.095-2.321-.922.171-1.126 13.138-12.319.102-.102-.409-10.17 4.47-2.218 3.208-1.501 3.139-2.901.239-3.992 2.799-1.434 7.063-8.121-1.023-2.457 2.081-.922 3.072-3.719-1.843-1.843-4.982 1.024-.069-.376 4.88-5.63h-.034l.478-.546 3.037-.478-1.126-4.88-.717-2.662-2.969.444-.341-2.116.99-1.843.239-2.764-.683-1.638-3.993-3.105-3.31-.205-.716-1.433-.103-.205-6.859-3.617-1.877-2.116-2.149-1.433-2.014 1.024-.239 1.262-1.501.956h-.819l-3.208-3.618h-4.743l-1.911 1.502-1.502.171-2.525-1.911.205-2.355-1.331-1.058-4.368.717-.683 2.184-1.808 1.296-1.468-1.706-1.569.956.819 1.262-2.048 1.263.614 1.672-2.252.819v2.662h-2.969l-.205 1.74-3.037.683.273 3.105 1.57.171-.751.853-.614 4.095h-1.638l-3.208 1.262-3.412-1.296-3.276 1.433v1.945h-.068l-.922 2.252-4.231.956-.342-.785-3.651-4.573-2.047 1.16-2.287-.204-.853-1.741-3.31.205-.205-3.447-1.74-1.16 2.696-2.9-5.085-6.86-3.822-4.06-3.583-2.014h-6.518l-.478 2.867-2.559 1.399-6.654.205-.171-.751-.341.751h-.171l.068.273-.955 2.047-1.092-.171-1.331-2.491-4.47 2.253-8.259-.41-1.023-2.252-2.287-3.106-.409-3.856-3.686-4.368-2.184 1.536-3.515-2.696.649-5.733-5.733-6.006h-2.594Z"/><path d="M705.93 251.265q-.281 2.406-1.781 3.719-1.49 1.302-3.969 1.302-2.688 0-4.313-1.927-1.614-1.928-1.614-5.156v-1.459q0-2.115.75-3.719.76-1.603 2.146-2.458 1.385-.864 3.208-.864 2.417 0 3.875 1.354 1.458 1.344 1.698 3.729h-2.011q-.26-1.812-1.135-2.625-.864-.813-2.427-.813-1.916 0-3.011 1.417-1.083 1.416-1.083 4.031v1.469q0 2.469 1.031 3.927 1.032 1.458 2.886 1.458 1.667 0 2.552-.75.896-.76 1.187-2.635Zm-14.584-1.885h-6.364v6.698h-2v-15.167h9.396v1.646h-7.396v5.187h6.364Zm-21.645 6.698v-15.167h4.958q2.469 0 3.708 1.021 1.25 1.02 1.25 3.021 0 1.062-.604 1.885-.604.813-1.646 1.26 1.23.345 1.938 1.313.719.959.719 2.292 0 2.041-1.323 3.208t-3.74 1.167Zm2-7.094v5.458h3.302q1.395 0 2.198-.719.812-.728.812-2 0-2.739-2.979-2.739Zm0-1.604h3.021q1.312 0 2.093-.657.792-.656.792-1.781 0-1.25-.729-1.812-.73-.573-2.219-.573h-2.958Z" class="label-text"/></g></svg>