<svg xmlns="http://www.w3.org/2000/svg" width="1200" height="600" viewBox="0 0 1200 600"><g class="entities"><path d="m601.394 87.8 3.379-2.305 2.191-1.31.748-.322.322-.077 1.615-.392.486-.04 3.661-.172.207.126.267.274 2.496 2.807-.157 1.403.023.407.251.596.439.408.45.235.408.133.404-.04.109-.047.882-.602.337-.25.129-.197 1.204-.282 1.748.759.929.423-.047.666.086.173.451.353.983.58.58.297 1.096-1.89.259-.744.425-4.146.668-1.356.095-.141.294-.266 1.337-.768.631-.213.242-.156.354-.328.129-.18 2.039-3.167.061-.863-.039-.187-.482-.776-.156-.172h-.18l-.22.196-.968.973-.426.759-.558.769-.56.696-1.279 1.553-.047.023-.054-.047-.109-.65-.015-.392.085-.376.475-.917 1.289-1.771 5.609-4.618.157-.047.399-.04.411-.023 2.521-.086.126.016.462.212.544.164.709.166.859.109.748.023.659-.046.412-.103.945-.297 5.18-2.062 3.069.462 2.183.283 1.111-2.516 1.465-2.815.235-.336.74-.674 1.196-.84 2.598-1.621.85-.518.364-.267.392-.32.468-.479.344-.424.431-.697 3.12-5.87 2.029-4.006 1.638-2.813 1.302 1.066.628.266.341.087 3.021.391 2.645.306 5.379-.141 3.205-.228.976-.117 1.333-.031.999.109.087.047.047.085.022.15-.053.077-1.898 1.27-.293.165-1.393.36-3.15.235-2.164.07-.764-.054-.093-.03-.166-.142-.332-.51-.189-.502-.197-.101h-.039l-1.144.054-2.415.62-2.293 1.442-6.631 2.413-.689.573-2.035 4.78-.227 1.388.023 1.858.031.054 1.654 1.129.788.29.874.055.74-.134.267-.149.008-.148-.22-.18-.258-.134-.918-.188h-.346l-.132-.055-.435-.854-.055-.635.333-.736 2.359-2.69 3.465-2.671 4.433-2.148 3.752.76 3.471 1.584 1.454-.266.279-.18 1.007-.894.157-.156.157-.307.062-.336.008-.713.436-1.145.04-.11 1.031-.91.18-.14 2.787-1.05 1.645.165 3.05 4.451-.585 1.334.126.587 1.277 4.138 1.86 2.086 1.28-.722.514-.25h.125l4.543 2.17.109.111.319.54 1.163 2.439.189.439.165.29.133.085.138-.008.203.448 1.63-.015 1.646.626.016.071-1.254 1.105.102.502.141.149.223.023.385-.25.172-.173.169-.016.913.572.071.055.109.211.487 1.05.007.683.07.212.836 1.363.27.235.273.125 1.103.197.14-.04.184-.117.024-.047-.054-.18-.326-.438-.344-.487-.491-1.16-.007-.148.685-.565.243-.086 6.546-2.179 2.621-.79 2.888 2.875.468.525.407.652.157.486.031.265.008 3.105 2.457 5.055 2.905 3.049.552.776.314.51.094.25-.024.18-.281.44-.245.259-.077.047-.133-.04-.287.008-.282.126-.259.227-.599.651-1.342 1.544-1.077 1.576.062.29.427.854.149.14 4.316 2.666 1.52 1.128 1.164 1.066.282.125 5.033 1.795.991.322.772.117 2.497.055.251-.016.156-.102.796-.704.623-.699.298-.453.102-.11.319-.016.501.117.279.118.619.54.31.847.794 4.232 1.47 4.727.27 2.806-.293 2.1-.009.086.187.729.53 1.45.614 1.575.127.095 1.203 1.685.271 1.645.92 3.653 1.889 5.448.212.517-.329-.071-.231.015-3.723 1.567-.119.691-.457 1.332-1.501 2.101-.6.196-1.857.298-4.324-.149-.82-.094.135-.902.077-.353.356-.595 1.165-1.411.543-.494.754-.792.796-.955.583-.776.75-1.223.314-.729.101-.353.396-1.457.015-.393-.179-2.107-.311-.511-.541-.36-4.696-.29-.534 1.035-2.876.094-1.991-.314-2.52.447-.431.188-1.199-.485-1.094-2.336-.717-2.453-3.708-4.296-.385.095-.27.47-.055.235-.187 1.434.008.243.117 1.027 1.014.917-2.037 1.803-1.991.149-1.294 1.027-.706.634-4.883 4.687-.156.369-.876 2.101-.348 1.191.184.964.22 1.34.008.086-.048.071-1.582 2.132-3.512 3.691-.521.228-.266-.078-.804-1.208-.095-.658-.047-.15-.29-.398-.157-.086-2.606-.04-.811.385-1.349 1.167-.266.377-.14.556-.079.91.009.376-.095.502-.364.642-1.101-.164-.134-.149-.607-1.302-.173-.47-.226-.423-1.436.188-.134.024-1.676.815-.323.297-5.197 5.668-.223.118-.118.015-1.536-.659-.109-.094-.008-.046.2-.307.69-.54.772-.463-.016-.125-.157-.376-.03-.031-.507-.149-5.4.149-1.321.431-.063.047-.015.109-.857.329-.616.228-.867-.093-.281-.51-1.827-1.898-2.512-2.343-.577-.102-5.69-.533-1.31.282.032.385-.149.157-2.411.29-1.835-2.07-.377-1.058-.725-.588-1.379-.745-.548-.259-.45-.125-.409-.274-1.472-.447-2.866-2.194-.247.015-4.099.839-1.101.4-1.262-.172-1.14-.212-1.537 2.195.117 1.317-.274.368-2.778 1.982-.286.181-3.717 1.356-2.379.172.819 1.379.098.259-.02.086-.156.172-4.098.917-.467.078-.517-1.082-1.263-.713-.757-.054-2.03.031-.42.322-2.872 2.617.507 3.034-.475 1.881-.244.728-.637.448-1.141-.04-1.211-.219-.476-.22-.023-.189-.592-.439-2.504.299-2.046 1.614-4.167-.243-.133-.259-.156-.211-.695-.753-.423-.298-.458-.227-2.638-1.059.403-.147.409-.409.046-.149.22-.697-.031-.259-.109-.172-.58-.322-.419-.039-.663-.157-.865-.211-2.125-1.576-.499-.502-.85-1.153-1.696-3.284-1.808-4.122-1.327-.354-1.914-.494-1.032.8-.285.556.031.071-.031.203-.835.55-.819.54-.634.361-1.972-.753-.494-.298-.811-.736-.258-.409-.373-.484-.907-1.09-.462-.439-.757-.596-.172-.11-.143-.062-2.936.015-.781.078-.502.18-.49.306 1.317-6.004.455-.948.741-.432.376.024.481.203 1.023.22 2.843-2.154.223-.236.745-.816 1.591-1.873 4.86-6.442.297-1.803 1.04-1.442-.526-2.806-.984-1.073-.662-.322-.836-.173-.125.032-.164.094-.024.134-.294.086-.929.047-.164-.071-1.133-.69-2.823-2.744.311-2.312.134-1.112-.048-.377-.251-.666-.145-.282-.737-1.834-.015-1.34 1.055-1.686 3.872-2.72 1.943.141.702-1.584Zm104.557-57.62-.432.267-1.308 1.066-.953 1.097-.164.259-2.219 5.526-.054.149-.068.65.099.016.353-.117.172-.14 2.214-2.134.486-1.253-.117-.447-.197-.66-.023-.102.039-.085 1.227-1.74.771-.22.08.023.148.322.113.902-.016.227-.081.439-.244.745-.547.979-.208.283-.18.423-.266 1.512.032.768 2.076-.987 1.537-.886 5.064 2.086.117.032.085-.008 1.396-.173 1.376-.557.085 3.841-.101 2.085-.11.072-.274.008-1.254.03-1.984-.634-.512-.251-2.959-1.724-.172-.196.015-.243.243-2.32-2.317.086-2.469.102-.834.188-2.442.698-.663.384.451 1.975.336.65 1.498-.085 1.172.11 1.858 1.683-.636 1.215-.175.103-1.663.58-.857.157-.944.188-.859 1.912.009.408.032.103.253.14 3.936.862.498.102-1.07.66-4.401 2.13-.114.165-.102.3-.329 1.817.032.775 1.242 3.684.09.18 11.495 3.857.945-.713.196-.243.102-.196.024-.094-.055-.44-.306-.696-.631-.737-.071-.032h-.419l-.117.149-.063.125.04.18-.032.095-.479.415-.583.291-.275.023-.27-.314-.024-.893 3.104-3.284 2.442-2.344.781-.58.242-.094 7.448-.91.309.055 1.031 1.7.032.087.008.345-.14.322-.055.094-.593.448-.047.03-.701.361-.009 1.143 1.585-.415.663-1.316.897-1.85-.514-1.23-1.312-2.132-.937-.769-.949-.665-.086.102-.164.086-.479.055-.921.046-.145-.015-.211-.134-.306-.274-.749-.885-.818-1.544-.189-.486-.236-.83-.081-1.083.081-.415.142-.251.118-.165.069-.086 1.173-1.324 1.56-1.31.415-.212.153-.03.454-.33.42-.862.109-.784-.18-1.567-.294-.377-.509-.47-1.059-.697-.188-.063h-.336l-1.317.126-.313.031-1.686.353-.234.102-1.514.478-2.14.391-.475-.032-.764-.187-.29-.103-.357-.235-.219-.148-.618-.627-.545-.721-.389-.808-.313-1.128-.102-.635.032-.242.258-.769.255-.353.126-.086.399-.189.294-.077.291-.023.21-.094.306-.267.184-.353.259-1.01-.008-.048-.267-.376-.182-.196-2.258.203-3.333.942Zm-9.242 16.453.094.234h.072l.133-.187.133-.518.811-4.515.585-2.885 1.693-.854-2.206-.784-1.345 7.697-.102.776-.008.4.054.25Zm3.598 1.112 3.151-1.74.385-.305.086-.11-.212-.682-.188-.235-.968-.447-.177-.078-.509-.062-.498.125-.486.329-.623.83-.117.267-.788 1.841-.023.495.046.117.103.047Zm-7.093.706-.109-.031-.158.008-.137.047-.173.109-.085.094.008.102.202.196.185.164.494-.03 2.393-.847.495-.432.262-.282-.372-.407-.165.04-2.101.79-.27.314-.385.462Zm37.974 19.266-.377-.408-.18-.125-.381-.093-.243.023-.489.133-.54.29-.358.283-.109.157-.125.266.032.995.259.785.156.195 1.474 1.647.157.101.38 3.724 2.747 4.271.078.118.133.079.142.022 2.819-1.364.035-.023.297-.816-.016-.086-.928-1.387-.275-1.222-.008-.04.055-.077 2.579.226 1.144.989 1.999 2.225.188.244.14.282.31.822-.054 3.817-2.686-.47-.551-1.136-.439-1.467-.114-.101-.338-.15-.551-.07-1.399.368-.103.04-.094.07-.271.564-.125 1.012.024.18.133.305.224.189.913 1.104.266.636.584 1.708.023.36-.317.832-.243.61-.172.15-.788.478-.929.5-.952.48-.31.063-.298-.016-.196-.03-.561 1.144.553.533.883.384 1.037.26.772-.08 1.929-.337 2.038-.556.238-.101 3.085-1.584 5.558-.58.239.009.156.03.999-4.466-2.895-2.376-3.175-2.916-3.81-3.582-.811-.479-1.094-.564-.27-.126-.259-.062-.756-.125-.749-.267-1.36-.768-.396-.235-.818-.69-.813-.83-.581-.666-.179-.267ZM627.294 85.541l.524-1.63.162-.894-.041-.39-.057-.142-.197-.094-.694-.165-.784.118-.255.07-.369.15-1.739.916-1.093.839-.193.44.04.767.106.485.18.392.171.228.267.22.27.054 2.622.486Z"/><path d="m683.836 105.947 4.333-12.51h2.188l-5.625 15.166h-1.771l-5.615-15.166h2.177Zm-21.063-12.51 4.958 12.375 4.959-12.375h2.594v15.166h-2v-5.906l.187-6.375-4.979 12.281h-1.531l-4.969-12.25.198 6.344v5.906h-2V93.437Z" class="label-text"/><path d="m601.394 87.8.669 2.225-.7 1.583-1.945-.14-3.871 2.719-1.052 1.686.016 1.34.733 1.834.149.282.246.667.047.375-.133 1.113-.31 2.312 2.822 2.743 1.132.69.166.072.928-.048.299-.086.023-.133.16-.094.126-.032.835.172.666.322.978 1.074.528 2.806-1.04 1.442-.297 1.802-4.861 6.443-1.591 1.874-.741.815-.227.235-2.842 2.155-1.023-.219-.481-.204-.377-.023-.741.431-.451.948-1.319 6.004.039.031-.063.04-.322.189-.239.109-.36-.032-3.066-.901-.43-.172-.679-.4-.608-.431-1.794-.924-4.371-2-1.188-.65-.4-.768-2.766-2.971-.181-.588.102-.462-.353.047-.282-.063-2.59-1.81-.158-.15-.63-1.795-.047-1.544.22-.878.482-.47 1.525-1.231.928-1.975.031-.078.169-.493-1.183-1.607-.557-.659-.106-3.464.45-1.05.094-.635-.952-.542-.149-.061-.211-.032-3.175 1.536-1.062.698.369.462-.596 1.441-3.619 2.798h-.556l-.373-.039-.712-.156-.185-.149-.921-.023-.835.046-.054.564.008.243-.243.417-.275.415-2.614 3.276-.56.274-.392-.172-.78-.721-1.261-1.536-.094-.494.069-.384-.289.015-.172.235-.538 1.552-.188.667-.314 1.151-.333 1.686-1.243-.134-1.222-.408-3.973-2.594-1.679-1.348-.322-.454-.301-.651-.26-.926-.062-1.191-.078-.345-.31-.759-.579-1.395-.255-.44-.728-.815-1.734-1.286-.638-.587-.435-.611-.549-.948-.568-1.372-1.352-2.908-.388-.714-1.748-2.522-1.336-.965-2.63-1.136-1.404-.189-1.536.024-2.693-.04-2.367-.157-.748.023-.624.11-.196-1.935-.126.03-1.097.55-.235.086-.344-.008-.271-.11-.776-.634-1.411-1.153-.693-.98-.479-1.27-.24-.815-.991-2.374-1.544-2.454-.274.039-.235-.04-.04-.157 1.117-.924.874-.486.711-.148 1.85.438.352.243.326.36.484.072.624-.165.377-.157.184-.141.188-.212.165-.282.109-.423.126-.494.008-.188-.024-.227-.077-.266-2.391-4.938-.177-.22-.509-.156-.192-.04-.706.14-.294.189-.929.61-.384-.242-.804-.516-.11-.134-.395-.753-.76-2.07-.075-.352.016-.126.176-.447.788-1.662.478-1.01.071-.314.228-2.587.038-.533v-.148l-.171-.04.133-.11v-.219l-.046-.431-.094-.314-.204-.384-.275-.353-.125-.094-.223-.063-2.818-.007-.561.04-1.803.133-.752.736-.467.556.039.047.361.087.106.008.063-.047.023.016-.039.086-.086.094-.114.047-.267.032-.296-.04-3.293-1.732-.416-.282-.403-.769-.079-.391.041-.548.186-1.066.166-.597.255-.65.149-.282.078-.086.678-.353.047.674.911.65.417-.04.125-.046 1.933-1.176.094-.077.062-.157v-.674l-.016-.134-.047-.407.399-1.788 4.915-.854.96.103 1.024.485.811-.22.93-.422.81-.423 4.058-3.426.101-.109.479-.792.126-.815-.016-.259-.156-.579-.938-2.085-4.754-6.756-2.206-3.135-.874-.526-1.345-.634-.874-.862-.255-.322-1.635-4.248-.575-2.805-.646-1.348-.086-.117-1.671-1.976-1.567-1.747-.024-.15.287-2.68 1.101-2.493 1.356.025.51.062.306.14.889.612 4.033-.211.521-.086.564-.063.396.023 3.021.204 2.008.172.419.125.188.078 2.3 1.066.655.471-.027.157.326.196.517.298.655.07 1.222.086.968-.259 1.006.008.298.056.537.18 2.187.91 1.545.713.203.47-.274.353-.156.29.023.314.109.329.502 1.317 3.487.344.75-.07 1.082-.957.133-.134.055-.47 1.935-.376.812.353 1.008-.407.991-.275.685-.322 3.81-3.393.35-.071 1.598.572-.302.485-.763 1.404 3.174 1.302 2.458 1.003 4.377 4.954.749.4.666.187.381.04h.07l.078-.087 1.196-2.579-.064-.156.134-.369.13-.227.078-.062.783.485 1.286.87.795 1.458 2.505 7.855-.047 1.605-.125 2.25-.019 3.99-.032.329-1.242 2.133-.141.194-.467.542-.772.65-1.187.69-1.913.98-1.302.642-.305.071-.179-.125-.136-.18-.457-.016-.243.055-.197.109-.086.102.526 1.043.203.344.271.298.36.22.204.054 1.481-.227.506-.11.227-.133 1.404-.62v-.053l.564-.19 3.787-.9 2.837-.557.266-.046.384-.01.35.064 1.101.721.497.4 1.055 1.043-.341.587-.776 1.168.133.447.557 2.79-.921.777-.416.838-.094.455.999 1.317.251-.91 1.717-3.754.34-.376 3.383-1.67.764-.149.412-.015.462.078.881.243 1.263.36 9.219 4.601.537.305 1.101.706.275.242.355.54.173.385-.047.04.086.212 1.513 1.63.313.258.181.102.419.118.461-.008 1.98-.094.291-.04.4-.125.553-.227.392-.235 1.378-1.114.537-.548.851-1.01 1.305-1.154 1.866-1.434.881-.228 6.049-.274-.189 2.65-.341.595-.047.235.109 1.716.451 4.978.552 4.2-.023.078-.062.055-1.933 1.576-.485.344-2.394 1.679-2.204 2.029-1.941 2.438-.327.275-.369.227-.372.14-1.655-.297-.234-.063-.352-.25-2.34 2.491-.197.205-.125.258-.13.447-.047.353.009.212.077.376.514 1.239.435.815.283.447.313.4.172.165.389.243.336.055h1.404l.172-.024.654-.165.235.031.384.18.302.251.234.306.149.384.009.142-.102.775.093.588.388.166.227.03ZM487.462 10.882l-.827 2.124-.677 1.921-.22 1.05-.184 1.505-.157 1.764-.47 6.787-.009.526.408.94.235.306.095-.032.082-.133.015-.306.18-5.792-.101-.172-.103-.345v-.125l.118-1.113.321-1.027.189-.243 1.576-1.026.449.391.087.117 1.069.603 1.038.753.346.117h.16l2.031-1.035 1.297-1.081-.062-.055-.26-.063-.392-.04-1.598.064-.396-.063-.204-.07-1.367-1.222-.032-.032-1.214-1.247-.306-4.411.843-1.678.376-.479.709-.564.071-.04.898-.211.944-.59 1.16-2.271-.016-.063-.082-.07-1.571-.652-.427-.125-.251-.015-.133.046-.381.243-.102.102-.313.51-1.411 3.323-.275.697Zm6.252 15.904-.381-.008-1.439.275-.418.155-.314.244-.404.415-.297.533-.392.942-.058.611.066.314.125.227.15.125 2.967 1.458.615.172.717.047 2.419.094.313-.015.158-.07 1.372-2.869-.444-1.772-.109-.204-.678-.47-.82-.29-.336-.077-.22-.055-.529-.04-.615.22-.235.094Zm-8.183 6.725.007.165.223.571.906 1.459.478.736.545.839.126.062.259.04.842-.007.055-.017.882-.43.086-.094.223-.557-.031-.078-.063-.032-.886-.447-.768-1.183-.937-2.618-.105-.548.129-.369.204-.376.756-.745-.063-.078-.121-.04-.298.135-1.818 1.653-.235.305-.278.69-.032.62Zm12.788 2.68 2.707-.674.353-.211.256-.33.14-.447.134-.752-.126-.063-4.66 1.826-1.222.502-.109.306.039.11.78.635Zm-3.167 3.817-.196.024-.149.126.039.133.189.29.125.094 1.191.886.212.14.631.009.385-.11.086-.157-.008-.329-.557-.854-.081-.125-.08-.055-.242-.071-.49.14Zm4.096 6.483.408.368.231.071.494-.023.757-.157.646-.188.181-.11.258-.29.819-1.81.443-1.043.063-1.097-.172-.102-.459-.078-.415.055-1.647.517-.234.07-1.917.8-.274.14-.158.204-.038.197.022.847.095.36.11.234.172.235.101.078Zm11.284-1.992-2.332 1.513-.307.377v.202l-.008 1.914.503.391.435.22.575.133 1.612.157.677-.007.945-.785.411-.51.063-.085 1.109-1.702.023-.117-.18-.965-.234-.265-.695-.158-1.662-.063Zm98.156-.54-.348-.117-.141-.134-.071-.117-.118.046-.243.19-.584.664-.45.627-.265.464-.518 1.152-.256.736-.07.243-.228 2.524.095.416.101.148 1.165.785.184.086.29.047.039-.04-.039-.032-.015.032h-.047l-.291-.102-.708-.448.007-.462.142-.133 1.715-.604.78.252.291.125.305.125.099.196.212.62-.064.69-.109.947 3.754.698 5.785.055.051-.016.024-.07-.032-.439-.933-2.006-.768-1.623-2.332-3.566-2.394-1.247ZM502.097 80.948l-.133-.086-.259-.266-.373-.456.008-.297.086-.36.154-.314.125-.172.164-.156.15-.094.187-.079.184-.015.228.189.016.046-.11 1.89-.215.148Zm-35.039-11.875.874-.086.055.455-.643 1.128-.545-.047-.211-.047-.655-1.198.031-.18.396-.275.322-.11Z"/><path d="M564.597 82.646h-2.01v-7.01h-7.646v7.01h-2V67.48h2V74h7.646v-6.52h2.01Zm-19.844-6.76q-2.573-.74-3.75-1.813-1.167-1.083-1.166-2.666 0-1.792 1.427-2.959 1.437-1.177 3.729-1.177 1.562 0 2.781.604 1.229.605 1.896 1.667a4.24 4.24 0 0 1 .677 2.323h-2.01q0-1.376-.875-2.156-.876-.792-2.469-.792-1.479 0-2.313.656-.822.645-.823 1.802 0 .927.782 1.573.791.636 2.677 1.167 1.896.53 2.958 1.177 1.073.636 1.583 1.49.521.854.521 2.01 0 1.844-1.437 2.958-1.438 1.104-3.844 1.104a7.2 7.2 0 0 1-2.917-.593q-1.354-.605-2.093-1.646a4 4 0 0 1-.73-2.365h2.011q0 1.376 1.01 2.177 1.021.792 2.719.792 1.584 0 2.427-.646.844-.645.844-1.76t-.781-1.719q-.782-.614-2.834-1.208" class="label-text"/><path d="m761.701 129.826-.158 1.52.789 2.438.611-.015.481.094.243.681.055.369-.725 1.599-1.803 2.727-.384.181-.126.11-.247 1.559-.109.714.009.18.2.784.094.298.772 1.003-.192 1.897-.056.392-.407 2.367-.498 1.678-.432.728-.187.235-2.419 2.531-.906.871-1.247 1.058-.696.369-.593.195-1.576 1.066-1.085 1.035-.202.681.023.117.211 1.224.811 2.907.259.525-.078.972-.552.911-.588.806-.35.823.023.478.047.134.263.471.124.134.51.227 1.364.109 2.779 1.105 5.789 3.762 1.132 1.082 1.188 1.379 1.262 1.505.055.071.18.297.134.518 1.552 1.481.725.493 1.352.894.609.305 1.061.526.639.322.228.077.363.071.235.126 1.282.87.317.345 1.733 2.218.117.22.157 5.768-.102.494-.103.196-1.278 2.234-.556.752-1.167.816-.211.149-.235.274-.15.337-.077.377-.271 1.701-.062.565.772 1.19.195.409.256 1.982 1.109 4.162.054.188.141.165.702.784.148.141.306.149.544-.032.235.048 3.496.877.071.031.216.165.157.204.733 1.027.086.14.015.172-.163 4.75-.04.329-.35.682-.607.768-.101.197-.009.259.223 1.904.298.618.235.33.372.384.165.11.541.047.459.14.313.165.444.321.305.306.702 1.129.023.235-.321 2.437-.041.094-.262.541-1.054 1.787.094.055.204.447-.133 4.444-.718 2.516-2.178 2.986-.858.722-1.258 1.301-.263.298v.054l.023.87.039.385.608.933.149.228.125.086.757.219 2.114 4.664.367.823 1.14 1.269 1.678 1.262.251.165.513.416.412.485.502 1.043.372 3.127-.592 1.999-.662 1.011-.726-.588-.61.565-.483 1.74-.078.196-.117.172-.35.408-.125.046-2.367.235-.395-.054-.314-.072-.109-.125-.325-.556-.109-.494-1.639-.634-5.15 1.826-.267.188-.093.267.008.282.062.399-.243-.133-2.55.329-3.223 1.818-2.172-.753-2.978-.384-2.273.071-.96-.157-.293.047-1.574 2.28-1.12 3.292-1.054 4.092-1.976 2.594-5.576 1.144-.243.04-2.069-.063-1.173.44-1.521.752-.623.423-2.3-.282-.377-.079-.615-.336-.252-.321-.344.501-2.458.07-1.473.04-.259-.032-2.151-.642-3.645-2.234-1.591-1.294-1.713-1.52-.436-.337-3.362 1.803-1.943 1.725.006.109.08.791-1.267.354-.381.093-1.692-.039-.157-.298-.165-.47-1.133-1.356.572-2.735.165-3.864-.117-.501-.165-.503-.835-2.037-1.383-3.034-.333-.604-1.96-1.051-.141.229-.243.235-.545.353-.427-.235-1.787-2.877 4.782-3.174.384-.416 1.035-1.865v-.103l-.028-.353-.345-.698-.203-.187-.356-.322-2.461-8.677-.009-.187-.008-.165 1.289-.205-.015-.461-.102-.455-.537-.533-.306-.196-.671-.031.048.493-.251.157-1.522.619-1.747-.157-.117-.015-.22-.14-2.246-2.322-3.614-1.92-.788.283-.384-.016-1.795-.453-3.653-2.102-.357-1.065-.258-.016-1.341-.697-1.187-.666-.514-.329-1.478-.683-.685.009-.329.438-.118 1.004-1.347.957-.57.094-2.935-.447-5.346-2.077-3.403-2.116-1.234-1.396-1.963-2.554-1.548-2.384-2.168-2.782 1.357-3.073-.172-2.986.203-1.834.094-.353.423-1.325.866-1.905.079-.125.183-.086.881-1.779-.481-2.54-.298-2.116-.141-1.223.644-1.599.426-.759.228-.691-.275-2.422-4.11-1.426-.134.697-.032.109-.235.346-.826.242-.874.141-.64-.76-1.355-1.607-.032-.032.032-.556 1.316-5.275.67-1.206.306.086.313.015 1.207-.885.306-2.728-.015-.431-.204-.658-.881-1.326-.921-1.504-.023-.078.313-3.292.259-.846.498-.957 1.087-.54.148-1.341-.913-3.629-.071-.203-.463-.306-1.097-.494-1.148.518-.678.354-1.219.407-.623-1.473.023-.503.184-.478.102-.126-.552.51-6.096.722-.211-.039-3.868-1.247-2.662-1.082-.259-.133-.164-.165-.189-.369-.047-.36.04-.148.141-.298.384-.408.395-.336.103-.141.071-.204.015-.18-.023-.204-.071-.197-.18-.226-3.838-2.227-.164-.086-.283-.132-.293-.103-.401-.063-.125.023-.732.432-.553.384-.227.063-.392-.071-.161-.102-2.645-2.108-.181-.189-.102-.212-.039-.282.039-.228.638-.853.078-.126.016-.149-.054-.18-.157-.134-.172-.094-.153-.039-.361-.031-.188.031-1.038.423-.444-.015-3.253-.785-.47-.14-.419-.298-.859-.909-.525-.588-.27-.212-.306-.149-.384-.031-.302.031-1.509.423-.286.078-.203.118-.764.588-1.258.673-.34.009-.173-.032-.211-.117-2.215-2.273-.851-1.026-.054-.149-.024-.243-.022-1.082 4.166.243 2.045-1.615 2.504-.298.593.439.023.189.474.22 1.212.219 1.141.039.638-.447.243-.728.475-1.881-.506-3.034 2.873-2.617.419-.322 2.029-.031.757.054 1.262.714.517 1.081.467-.078 4.099-.917.157-.172.018-.086-.098-.259-.819-1.38 2.379-.172 3.715-1.356.288-.18 2.777-1.983.275-.368-.117-1.316 1.536-2.195 1.142.211 1.261.172 1.1-.4 4.099-.839.248-.015 2.865 2.195 1.474.447.407.273.45.127.549.259 1.379.744.726.588.375 1.058 1.836 2.07 2.411-.291.149-.157-.032-.384 1.309-.282 5.692.533.575.102 2.512 2.343 1.827 1.897.282.51.865.095.617-.227.858-.33.016-.109.062-.047 1.321-.431 5.401-.149.505.149.033.032.155.384.016.117-.773.462-.689.541-.2.305.007.048.11.093 1.536.658.117-.015.224-.118 5.198-5.667.321-.297 1.678-.816.133-.023 1.434-.188.228.423.172.47.607 1.301.133.149 1.102.166.365-.644.095-.501-.009-.377.078-.909.141-.556.266-.378 1.347-1.166.813-.385 2.606.04.157.085.29.4.047.149.093.658.804 1.208.267.078.521-.228 3.512-3.692 1.584-2.131.047-.071-.008-.086-.22-1.341-.184-.964.35-1.191.873-2.101.156-.368 4.885-4.687.705-.635 1.293-1.026 1.991-.149 2.039-1.803-1.016-.917-.117-1.027-.008-.243.188-1.435.054-.235.271-.47.384-.094 3.708 4.295.719 2.453 1.093 2.336 1.199.486.431-.188 2.519-.447 1.992.312 2.877-.093.533-1.035 4.695.291.542.36.31.51.18 2.108-.016.393-.396 1.458-.102.352-.314.729-.748 1.222-.584.776-.801.957-.748.791-.544.493-1.164 1.411-.356.596-.079.352-.133.903.819.094 4.323.148 1.858-.297.601-.196 1.5-2.1.458-1.333.117-.69 3.724-1.568.232-.016Zm-43.733 54.193-.462.783-.491.636-.344.265-.287.157-.322.102-.537-.015-.674-.039-.851-.172-4.15.125-.834 1.653-.023.079.101.226.385.448.27.211.078.11.015.101-.047.283-.811-.062-.372-.071-.922-.4-.368-.212-.385.109-1.237.832-.032.297-.314 4.562.039.453 1.204-.234 1.168.831-1.663 2.171-.309.227-.337.503-.211.408v1.128l.337.392.296.516-.445.776-.373.377-.736.4.125.572.172.141 1.529.955 1.463.095.481-.046-.405-.087.064-.478 1.646-1.035 1.169-.44.156-.039.881-.063 2.497.534.732.963 1.407-.705 2.184 2.14 1.485.11-.172-2.391.023-.126.071-.071 1.214-.571.534-.243.388-.118.556 1.373 2.806.894 5.233 1.481.933.195 1.18-.407.289-.517.04-.266-.109-.259-.18-.008-.388-.118.008-.188 1.341-1.121.506-1.27.603-1.834-1.141-1.184-.663-.047-1.88-1.23-1.195-.345-.561-2.336-1.187-2.595-2.639-2.789-3.457-6.443-.654-.346-.593.455-.43.588-.451 1.051-.322.878-.435.133-.791-.431Z"/><path d="M745.108 244.614v-15.166h4.958q2.469 0 3.708 1.021 1.25 1.02 1.25 3.02 0 1.063-.604 1.886-.604.812-1.646 1.26 1.23.344 1.938 1.313.719.959.719 2.291 0 2.042-1.323 3.209-1.323 1.166-3.74 1.166Zm2-7.093v5.458h3.302q1.395 0 2.198-.719.812-.73.812-2 0-2.739-2.979-2.739Zm0-1.605h3.021q1.311 0 2.093-.656.792-.656.792-1.781 0-1.25-.729-1.813-.73-.572-2.219-.572h-2.958Zm-15.282 8.698v-15.166h4.959q2.469 0 3.708 1.021 1.25 1.02 1.25 3.02 0 1.063-.604 1.886-.604.812-1.646 1.26 1.23.344 1.938 1.313.718.959.718 2.291 0 2.042-1.323 3.209-1.323 1.166-3.739 1.166Zm2-7.093v5.458h3.302q1.397 0 2.198-.719.813-.73.813-2 0-2.739-2.979-2.739Zm0-1.605h3.021q1.313 0 2.094-.656.792-.656.792-1.781 0-1.25-.73-1.813-.729-.572-2.218-.572h-2.959Z" class="label-text"/><path d="m717.968 184.019.404.352.791.431.435-.133.322-.878.45-1.051.431-.587.593-.455.654.346 3.457 6.442 2.638 2.791 1.188 2.593.56 2.336 1.195.345 1.881 1.231.663.046 1.141 1.184-.603 1.834-.506 1.27-1.342 1.121-.008.188.388.118.181.008.109.259-.039.266-.292.517-1.175.408-.937-.196-5.228-1.482-2.81-.893-.558-1.372-.387.117-.533.243-1.215.571-.07.072-.024.126.172 2.39-1.486-.109-2.182-2.14-1.407.705-.733-.964-2.496-.533-.882.062-.156.04-1.167.439-1.648 1.035-.062.478.403.087-.481.046-1.462-.094-1.529-.956-.173-.141-.126-.572.737-.4.373-.376.448-.777-.298-.516-.337-.392v-1.128l.21-.408.337-.501.311-.228 1.666-2.172-1.173-.831-1.202.235-.041-.454.314-4.562.032-.297 1.239-.83.384-.11.369.211.921.4.372.071.812.062.046-.281-.015-.103-.077-.109-.271-.212-.384-.447-.102-.227.023-.078.834-1.654 4.152-.125.85.172.673.039.537.016.322-.103.287-.156.345-.266.49-.636Z"/><path d="M819.29 174.146h47.056c3.061 0 5.525 2.343 5.525 5.253v21.19c0 2.909-2.465 5.252-5.525 5.252H819.29c-3.062 0-5.525-2.343-5.525-5.252v-21.19c0-2.91 2.464-5.253 5.525-5.253" class="label-box"/><path d="M853.214 190.567h-6.573v5.375h7.635v1.635h-9.635V182.41h9.531v1.646h-7.531v4.875h6.573Zm-21.855 7.01V182.41h4.959q2.469 0 3.708 1.021 1.25 1.021 1.25 3.021a3.1 3.1 0 0 1-.604 1.885q-.604.813-1.646 1.261 1.23.343 1.938 1.312.718.959.718 2.292 0 2.041-1.323 3.208t-3.739 1.167Zm2-7.094v5.459h3.303q1.396 0 2.197-.719.813-.73.813-2 0-2.74-2.979-2.74Zm0-1.604h3.021q1.312 0 2.094-.656.792-.656.792-1.781 0-1.25-.729-1.813-.73-.573-2.219-.573h-2.959Z" class="label-text"/><path d="M810.411 188.68v1.503h-80.266v-1.503Z" class="label-connector"/><path d="m493.839 114.048-.678-1.615-.874-2.242-.009-1.497v-.94l.047-.487 2.795-8.416.388-1.028.764-1.944 1.627-2.123.622-.589 1.341-.4.952-.242.819-.047-.023.4.047.228.109.227 1.086 1.317 2.093 1.535.718.502.474.22.548.15 1.154.148 3.761.305 1.211-.242.216-.078.048-.056.008-.11.211-.076 1.544-.33.392.024 1.591.383-.36-.47-.568-1.458-.306-.91.603-.273.663-.228.623-.11.748-.023 2.369.158 2.691.038 1.536-.023 1.404.189 2.63 1.135 1.337.965 1.747 2.524.389.713 1.351 2.907.569 1.373.549.949.434.61.638.588 1.733 1.285.729.815.255.439.58 1.396.309.759.078.345.063 1.184.259.933.302.651.322.455 1.677 1.348 3.974 2.594 1.223.408 1.243.133 1.998.275v2.092l-.227 1.646.615.635.709 1.653.055.439 2.528 2.603.188-.086.615-.463.953-1.058.187-.117.244.164.552.682 1.567 1.489 1.173.98.313-.023 2.089-1.536.133-.673.448-.966.412-.547 1.305.775.38.431.275.377 1.304 1.489 1.886 1.779.328.219.283.063 2.38.103.274-.04.137-.094.18-.188.448-1.105.14-.204.184-.189.275-.147 1.646-.902.141-.071.109-.008 1.188.651 4.371 1.997 1.794.925.608.431.679.4.431.173 3.065.902.36.03.239-.109.322-.188.062-.04-.039-.031.49-.305.502-.18.779-.078 2.936-.016.149.063.169.109.757.596.462.438.906 1.091.373.486.258.407.812.736.493.298 1.971.753.636-.36.818-.54.836-.549.031-.204-.031-.07.29-.557 1.026-.799 1.914.493 1.328.353 1.811 4.123 1.693 3.285.85 1.152.499.503 2.124 1.575.867.212.662.156.418.04.581.321.109.172.032.267-.22.69-.047.148-.407.408-.404.148 2.638 1.059.458.228.423.297.694.753.157.211.134.26.023 1.073.022.251.055.149.851 1.027 2.214 2.273.212.117.173.031.34-.008 1.258-.673.764-.589.204-.117.286-.077 1.508-.424.302-.031.385.031.305.149.27.211.525.589.859.908.419.298.472.141 3.251.784.448.016.067.102-.009.063-1.837 2.696-.025.039-.548-.054-.481-.267-.282-.391-.063-.031-.616.117-.251.525-.164.753-.429 2.375.593 1.387-.639-.009-.912.212-.826.471-1.307 1.261-.662.862-.109.118-4.221 2.062-.836.228-2.338-.236-.236-.047-.078-.055-.031-.093v-.204l-.093-.234-.237-.243-.551-.573-2.889-.564-6.867-.297-.251.023-.192.078-.243.282-.126.486-.03.556.07.338-.016.117-.15.313-2.112 2.297-4.494.118-1.984.407-1.529.431-.376 1.623-.015.148.164 1.686-.109.447-.063.422 1.951 5.33 1.937 1.427 2.763 3.942 2.074 4.021-.008.031-.133 1.623.251.995.25.564.561.957.976 1.247 1.352 1.566-1.29-.054-1.662.893-.461 1.153.633 1.364 3.355 4.278.961.597.235.04.168.077.572.494.458.447.039.291-.031 1.042-.039.133-.599.479-.835.384-.134.04-.417-.103-.908 1.27.309 3.042.04.07 1.062 1.168 1.007 1.011 1.063 1.482.324.713.016.063-.024.046-.434.58-.803.165-.518.133-.741.345-.242.158-.215.399-.307.777-.086.556.048.313.101.228.133.141.28.219.493.298.355.008.651-.087.126.016.044.055.078.266-.04 1.081-.121.205-.881 1.315-1.392 1.137-1.505 1.073-.282 1.427-.228 2.29-.082-.071-1.265-.126-2.545.077-.385.072-.693.493-.266.11-1.028.211-1.352.047-.7-.165h-.189l-3.731.047-.757.148-1.427.432-.078.706.118.328-.032.203-.039.11-1.313 1.293-3.119.329 1.25 1.764 2.767 2.077-.945.313-.56.817-.016.133.016 1.206.662.243.598.244.387.478.077.211.056.486v.549l-.079.259-.756 1.184-.134.094-.282.015-.287.118-1.59 1.317-.267.345-.109.375.009 2.564.195 2.092.521 1.09.765.423 2.233 3.301.694 1.653-.156.391.062.634.166.949.101.29.937 1.505.224.305.039.039.275.086-.079.134-.858.118-.203-.032-1.544 4.1-.687 1.309-3.385.862-1.804.228-.431-.228-.897-1.334-.287-.187-.548-.344-.309-.142-1.141-.485-.624-.204-.141.016-1.756.463-.517.862-.67 1.434.323.149.029.071-.171.603-.109.234-1.117 1.678-.106.079-1.921 1.543-5.949 4.029-3.939.8-4.939 2.869-2.282 1.536-.363.14-.157.046-.149-.1.266-.173.032-.102-.032-.87-.251-.44-.929-1.504-.211-.125-2.293.305-2.371.337-.134.031-.321.204-3.262 2.743-.802 1.113 1.315 2.061 1.276-.611.38-.015.054.11.055 1.01-.07.354-.201.877-1.72.886-.098-.172-2.493-1.23-3.924-1.639-1.281-.408-.49-.853-.376-.581.055-.235.375-1.481.149-.322.796-1.254.381-.07 1.195-.196.951.039.552-.847.072-.156-.56-3.191-.259-1.176-.404-.446-1.531-2.61-.04-.117.008-.072.109-.235 1.803-2.014 1.132-.196.134-.266.435-.589.541-.446.489.141h.079l.086-.126.242-.619-.133-.298-.134-.141-.607-.392-.517-.43-1.055-1.153-.054-.078-2.527-1.293-.719.016-2.371-.04-.516-.07-.538-.329-.227-.306-.031-.242.157-.612.179-.399-.024-.283-.109-.164-.203-.04-2.427.533-.101-.063-.172.008-.435.141-.047.016-.338.18-.101.016-1.191.031h-.158l-.203-.054-.341-.252.638-5.361 1.342-4.129.921-2.259.016-2.523-1.317-1.316-.415-.243-1.097-.409-.33-.094-.157-.007-.459.164-.25.149-.749.471.173-.11.379-1.795.11-.753.031-.446-.25-.964-.349-.611-.047-.063-.788-.423-.251-.04-.046.023-.749.117-.647-.36-4.194-3.033-.467-1.136-.203-4.602.023-1.332.024-.18.345-.494.372-.196.102-.086-.678-1.176-.999-.909.212-1.646-.252-.722-.391-.431-.169-.077-.69-.244-2.567-.494-2.56-1.967-1.419-1.881 1.702.894 1.078.015 1.473-3.644.046-.172-1.888-1.254-1.49-.597-1.156-.321-.212-.086-.121-.094-.376-1.152 1.677-3.543.493-.337.757-.501.719-.354.889-.125.583-.345.557-.502.082-.103.596-1.143 1.105-2.258.141-.36.063-.517-.678-1.732 1.337-3.033-.04-.158-.156-.501-2.008-.911-1.731-.406-1.172 1.529-.562 1.041-1.576 2.062-2.147 2.79-.141.054-3.789.848-4.99.047-1.363-.589-.4-.29-.129-1.089-.181-5.653.2-.995-.035-.227-.165-.423-.541-.517-1.575-1.231-4.377 2.273-2.285-1.12-2.305 1.771-.102 1.042-.145.972-.077.252-1.142.971-.725.103-2.489.188-.368-.377.024-.14-.228-.228-1.755-.463-.325-.07-.306.196.367.799.483 2.375 3.865 2.908 1.614 1.247 1.157 3.425-.11 1.301.177 2.468-.357.722-.827 3.3.063.172.404.753.581.51.207.086.266.015.897.291.921.478-.475.627-.353.44-.748.783-.172.141-.392.189-.27.046-.479-.032-.126.047-1.638 1.09-.317.298-.252.36-.039.251.086.423.181.533-2.235-.235-1.811-.658-2.166-.471-.448-.055-1.023.761-1.261 1.206-2.983 2.156-1.184.274-1.677 1.042-.229-.462-.811-.211-.772-.11-1.132-.086-.126.008-1.685 1.285-.291.392-.465.69-.851-.322-1.336-.565-.764-.399-.181-.745-1.042-1.701h-.204l.032-.102.694-.525 2.739-.91 2.363-.721-.14-3.073-1.458-1.363-1.724-.329-.047-.023-.913-.652-.212-.36-.223-.737-.125-.572.008-.086 2.026-4.31.78-.525-1.01-1.035-.12-.148-.053-.439.031-.345.07-.282 1.56-1.662-.517-1.881-.709-1.247-2.065-1.261-1.165.282-.196.125-.984.439-1.637-.251-3.763-2.288-1.152-3.3-.392-.831-.149-.196-.113-.118-3.415-1.34-.175-.078-.58.722-.444.768-.281.595-.345 1.122.5.344 1.024.549-.094.502-1.336 2.359-1.717.855-.238.015-.197.023-1.258.721-3.119 1.921-2.756 2.037-.455.385-.254.51-.197.369-.772.407-.757.078-.596.063-.301.43-.655.769-3.716-.274-.96-.063-1.92-.212-1.584.353-.447.416-.165.196-.513.738-1.56.054-1.032-1.168-.45-1.215-.11-.572-.109-.627.039-.361 1.023-2.32.49-1.089.788-1.059.078-1.583-.368-1.387-3.018-5.8-.063-.11-.188-.165-.466.291-.408.776-.381.815-.744.502-.24.086-7.689-2.172-.988-.368-2.492-1.818.032-.22.265-1.45.181-.901.583-2.14.306-3.033-.321-2.986 1.566-1.286.785-.25 1.183-.197.322.008 4.845.29 3.927.658.944.322.134.181.015.047.271.156 1.298.345.054-.016.18-.18.444-.611.615-5.338.297-3.049.408-4.272.812-2.979 1.559-2.115 3.057-4.632 1.023-3.12.417-1.317.163-.847-.39-5.148.234-2.556-.858-.697-.103-.62-.031-.627.639-1.755.592-1.051.651-1.528.287-4.053.825-3.519.502-1.568.063-.187.071-.071.396-.141h2.132l-.266-.102-1.679-.478-.92-.213-.638-.101-2.298-.204-5.181-.165-1.505-.211-.297-.18-.208-.267-.549-1.019-.14-.376.063-.211.728-1.254.099-1.936 1.164-9.453 2.488 1.129.725 1.027 1.423-1.427.788-.847-.741-1.324-.502-.298-1.222-.815-.377-.486.212-.666 3.402-3.527.898-.894 2.014-1.466.819-.572 2.09-.737.999-.227.912-.109 1.227-.11 5.534.455.263.094.447.259.102.14.38.26.534.266.34.008 1.306-.243 2.923-.948 3.124-.886.294-.055.447-.062.328.032.009.117.419.109.851.023.912-.086 2.34-.705 4.589-.408 2.363.259 2.116.337.726.369.181.22-.032.352-.063.172-.333.47-.071.542.255 1.684.164.643.393 1.026 2.135.298.212.258.384.58.428.831 2.488 5.84v.078l-.039.243-.078.266-.192.659-.211.431-.671.344-.666.251-1.591.58-.302.078-.681-.023-.733-.572.055 1.529.077.69.094.392.181.494.231.502.455.602.592.643.291-.117.615-.408.14-.032.663-.023.517.149.741.949.898 1.301.473.752.04.078-.015.181.156.313.102.109.482.204.8.188.583.071.274-.032.46-.234.375-.283.13-.14.502-.565.427-.603.345-.611.544-1.286.243-.572.095-.587.172-2.759-.055-1.153-.054-.165-.181-.368-.11-.125-.325-.189-1.164.455-.407.117-1.584-.297.36-3.089.188-1.23.056-.227.309-.66.243-.345.693-.689.695-.548.974-.361.891.086 1.038.682.322.463.552 1.034.678 1.011.827.455 2.763 1.246.158.032.297-.039.341-.008 1.047.18.56.094 1.423.878.094.101.071.197.122.713-.017.055-.137.125-.259.188.251.353 1.011 1.348v.134l-.043.149-.274.392.125.172.239.149 1.351.148.134-.008 1.898-2.007.07-.384-.666-2.876.796-3.685-.047-.07-1.247-.196-3.998-.204Zm20.471 36.924-.197-.422-1.023-1.239-.505-.36-.235-.008-.85.54-3.489-.102-2.794-1.419-3.135-1.536-4.802-.571-5.569-3.003-.204-.642-.008-.502-.016.54.165.973.294.634.236.416.544.799 1.148.925 1.764.847.592.25.674.095.569.149.265.228.189.376 1.168 3.111.109.979.679.463 1.453 1.568.365.501.047.47.047 1.936.361.377.403.345.228.055.78-.267.274-.109 1 .008 3.962 1.372 2.305.902 2.41-2.062.04-1.458-.283-3.535-.584-.91.063-.094.102-.055.717-.266Zm-49.627-50.358-.764-.933-.079-.085v-.135l.322-.282.283-.117.991-.04.553.023.505.072 1.306.29.459.133.164.086.912.635.041.353-.126.031-1.207-.447-2.85-.728-.109.007-.071.055-.188.322Zm6.879 2.35-.078-.008-.243-.109-.189-.124-.156-.18-.071-.173-.318-1.246.009-.283.536-.642.267.329.305 1.567-.016.792Zm-15.305-.98-.393-.07-.129-.078-.156-.299.008-.289.202-.416.452-.565.211-.203.196-.124.45-.142.781-.03 1.117.03 1.763.156.322.048 1.004.274.29.305.039.11-.039.031-2.724.51-2.739-.173Zm-9.403 2.101-.165-.032-.266-.219-.11-.666.015-.54.055-.212.533-.728.146-.125.462-.236.321-.055 2.513-.016 1.987.102.722.087.183.054.298.11.266.157.095.141.023.36-.015.078-.031.008-.588.039-.008-.039.093-.094-.008-.04-.047-.015-1.574-.102h-.174l-1.176.102-1.725.165-.211.071Zm-1.717.095-1.023-.041-1.195-.14-1.031-.235-.24-.36.009-.078.063-.072 1.09-.446.188-.039h.243l1.544.337.102.055.235.829.031.118Zm-12.902 1.191-.474-.4-.197-.281-.04-.142.095-.172.227-.165.278-.14 1.047-.47.687-.181.407-.054 5.299.023.794.023.393.103.185.093.133.377-.032.109-.656.235-.443.141-5.682.705-1.473.125Zm-11.512 1.991-.435-.033-.086-.007-.251-.085-.372-.244-.047-.125.047-.103.254-.07 1.557-.149 5.134-.509h2.317l.647.14.094.118.039.109-.008.188-.125.172-.044-.117-.063-.031-1.109-.072-.462-.015-.553.015-2.622.095-3.465.533-.416.126Zm-7.183 7.815-.385-.8-.228-.149-.387.023-.322.118-.047.102v.219l.078.228.094.07-.008.031-.086.024-.481-.078-1.929-1.535-.329-.503-.125-.634.062-.306.117-.188.071-.071.212-.078 3.885-1.175.202-.009.408.056.49.21 1.306.98.387.408.039.118-3.915 1.105.937.838.498.604-.04.07-.411.314Z"/><path d="M567.677 207.353h-2v-15.167h2Zm-5.697 0h-2.011l-7.635-11.688v11.688h-2.011v-15.167h2.011l7.656 11.74v-11.74h1.99Z" class="label-text"/><path d="m494.918 120.577.425-.275.134-.338.055-.195-.032-.58-.047-.251-.093-.227-1.591-2.798-.639-.996.718-.878.686-.054 3.998.203 1.247.196.046.071-.795 3.683.666 2.878-.071.384-1.896 2.006-.134.008-1.353-.149-.238-.148-.126-.172.274-.391.047-.142v-.141l-1.015-1.347Zm19.187 29.957-1.021-1.239-.508-.36-.234-.008-.85.54-3.489-.102-2.794-1.418-3.135-1.536-4.803-.572-5.569-3.002-.204-.643-.008-.502-.015.541.165.972.294.635.234.416.545.799 1.149.925 1.763.846.591.252.676.094.568.149.267.227.187.376 1.169 3.111.108.98.679.463 1.454 1.567.364.502.047.471.047 1.936.361.375.403.346.227.055.781-.267.275-.11.999.008 3.962 1.373 2.305.902 2.41-2.062.04-1.458-.283-3.536-.583-.908.062-.095.102-.055.718-.266.749-.282Z"/><path d="M333.654 135.788h47.056c3.061 0 5.525 2.343 5.525 5.253v21.19c0 2.909-2.465 5.252-5.525 5.252h-47.056c-3.062 0-5.525-2.343-5.525-5.252v-21.19c0-2.91 2.464-5.253 5.525-5.253" class="label-box"/><path d="M359.625 159.219v-15.166h4.958q2.469 0 3.709 1.02 1.249 1.022 1.25 3.021a3.1 3.1 0 0 1-.605 1.886q-.603.811-1.645 1.26 1.229.344 1.937 1.313.719.957.719 2.291 0 2.042-1.323 3.209-1.323 1.166-3.74 1.166Zm2-7.093v5.458h3.302q1.395 0 2.198-.719.812-.73.812-2 0-2.739-2.979-2.739Zm0-1.605h3.021q1.313 0 2.093-.656.792-.656.792-1.781 0-1.25-.729-1.813-.73-.573-2.219-.573h-2.958Zm-5.552 8.698h-2.011v-7.01h-7.646v7.01h-2v-15.166h2v6.52h7.646v-6.52h2.011Z" class="label-text"/><path d="M388.272 149.645v1.498h106.004v-1.498Z" class="label-connector"/><path d="m548.592 118.406.334-1.686.314-1.151.187-.667.538-1.552.172-.234.291-.016-.072.385.095.494 1.261 1.536.781.721.391.172.561-.274 2.613-3.277.276-.415.243-.416-.008-.243.053-.564.835-.047.921.023.185.149.714.156.372.04h.556l3.617-2.798.597-1.441-.369-.463 1.063-.698 3.175-1.536.211.032.148.062.953.541-.094.634-.451 1.051.107 3.464.556.659 1.184 1.607-.169.494-.031.077-.929 1.975-1.525 1.231-.482.47-.22.878.048 1.545.63 1.795.158.149 2.591 1.811.281.061.353-.047-.102.463.18.587 2.767 2.971.4.769-.109.008-.141.07-1.647.902-.274.149-.184.188-.142.204-.447 1.104-.179.189-.139.094-.272.039-2.38-.102-.283-.062-.329-.221-1.885-1.778-1.305-1.49-.274-.376-.381-.431-1.306-.776-.41.549-.447.963-.134.674-2.089 1.537-.313.023-1.173-.98-1.567-1.489-.552-.682-.243-.166-.189.119-.951 1.058-.616.462-.188.086-2.528-2.603-.055-.438-.709-1.654-.616-.634.228-1.647v-2.092Z"/><path d="M376.212 37.886h47.056c3.061 0 5.525 2.342 5.525 5.252v21.19c0 2.91-2.465 5.252-5.525 5.252h-47.056c-3.062 0-5.525-2.343-5.525-5.251v-21.19c0-2.91 2.464-5.254 5.525-5.254" class="label-box"/><path d="M413.172 61.316h-2.01v-7.01h-7.646v7.01h-2V46.15h2v6.52h7.646v-6.52h2.01Zm-15.208 0h-2.011v-7.01h-7.646v7.01h-2V46.15h2v6.52h7.646v-6.52h2.011Z" class="label-text"/><path d="M431.364 52.955v1.503h55.446l59.839 59.838 1.063-1.062-60.231-60.231Z" class="label-connector"/><path d="m634.015 157.306 1.034-.424.189-.031.362.031.155.04.169.094.157.133.055.18-.016.149-.079.126-.638.854-.04.227.04.283.102.211.181.189 2.646 2.109.16.101.392.071.228-.063.551-.384.734-.431.125-.024.4.063.293.103.283.132.165.087 3.836 2.226.181.227.07.196.023.204-.016.18-.069.204-.103.141-.396.337-.384.407-.141.298-.039.149.046.36.189.368.165.165.259.133 2.663 1.082 3.866 1.247.212.039 6.095-.721.553-.51-.098.125-.188.478-.025.503.625 1.473 1.218-.407.679-.354 1.148-.517 1.097.494.463.306.07.202.914 3.63-.149 1.34-1.086.541-.499.956-.258.847-.315 3.292.024.078.922 1.504.881 1.326.204.658.015.431-.305 2.728-1.208.885-.313-.016-.306-.086-.671 1.206-1.315 5.276-.032.556.032.032 1.355 1.606.639.761.873-.141.827-.242.236-.347.031-.109.133-.696 4.112 1.426.274 2.422-.228.69-.427.76-.642 1.598.14 1.223.298 2.116.483 2.541-.882 1.778-.184.086-.079.126-.866 1.905-.422 1.325-.095.353-.2 1.834.169 2.986-1.357 3.073 2.169 2.782 1.548 2.383 1.963 2.555 1.234 1.395 3.403 2.117 5.345 2.076 2.936.447.569-.094 1.351-.956.114-1.004.329-.439.686-.008 1.477.683.513.328 1.188.667 1.342.697.259.015.356 1.065 3.653 2.102 1.795.454.384.015.788-.282 3.613 1.92 2.246 2.321.219.14.119.016 1.747.156 1.521-.618.25-.158-.046-.493.67.031.305.197.538.533.102.454.016.462-1.289.205.008.164.007.188 2.462 8.676.356.323.204.187.345.697.031.354v.102l-1.038 1.865-.385.416-4.782 3.175-1.594.219-4.861.235h-.04l-7.061.14-.686-.258-.077-.047-.522-.384-.746-.266-.254-.078-.393-.071h-.748l-.266.164-.2.235-.095.172-.078.439-.509 1.372-.165.134-.601.471-.614.454-1.165.564-1.503-1.027-.244.832-1.473.728-5.581 1.599-1.701.165-1.881.039-.49.062-3.904 2.055-2.568 2.288-.148 1.772-1.81 3.934.289 1.066.749 2.509.103.047.03.062.165.51.718 4.053.134 1.176-.984.376-1.188.643 1.243 3.33.937 1.356.297 1.41.031.198.279 1.794-.016 5.361 1.509.322.232.118.399.43-.04.29-.493.417 1.705 1.497 1.027.721-1.192 1.858.189 1.246.963.714.283.172.353.462-.031.76-.046.227-2.36 5.095-.53.682-.18.103-.428.297-.031-.024-.196-.799-.329-.618-1.042-1.335-.078-.077-.502.408-.203.227-.184.204.054.534-.804-.37-2.684-.886-.181.016-2.386.386-.259.062-.71.313-.031-.659-.016-.179-.133-.393-1.74-2.234-.189-.172-1.608-1.152-2.558-1.63-.619-.204-1.505.399-2.081.432-1.337-.36-3.543-1.128-.102-.416-.141-.988-.232-.901-1.156-.714-4.668-.737-.149.134-.255.557-.189.171-.622.526-2.873.063-.04-.197-.669-.314-.36-.274-.616-2.539.976-.181.203-.376.396-.925v-.203l-.804-1.819-1.163-1.191-.639-.265-.181-.016-.695.328-1.179-.03-1.153-.917.079-.596.427-.745.251-.391.164-.118.138-.008.557.634.04.009.348-.134.203-.149.384-.439.608-.862 1.086-1.583.522-.823.297-.51.047-.109-.032-.203-.344-.376-.968-.871-.295-.156-.228-.079-.498-.478-.367-.471.015-.109.047-.109.387-.377-1.332-.446-.016-.298-.408-.753.204-1.387-.032-.251-.172-.219-3.104-1.192-2.054-.086-.522.11-1.038.023-4.773-.102-.345-.04-4.778-1.512-.467.234-.858.306-.556.055-.622-.078-.64-.713-.575-.345.097-2.007.11-1.772-.71-.909-1.245-1.921-1.549-2.414-.898-2.14.353-1.191 1.235-1.662-.938.4-1.454-1.347-.318-.228-2.162-.51-1.419-.125-2.512-.204-1.369.298-.274-.087-.04-.039-.223-.306-.937-1.504-.103-.29-.164-.949-.063-.634.157-.392-.694-1.653-2.234-3.3-.765-.423-.52-1.09-.197-2.093-.007-2.562.109-.377.265-.345 1.592-1.316.286-.117.283-.016.132-.094.757-1.184.078-.259v-.548l-.056-.486-.077-.211-.387-.479-.596-.243-.663-.243-.016-1.207.016-.134.561-.815.944-.313-2.767-2.078-1.25-1.764 3.119-.328 1.313-1.294.039-.101.031-.212-.117-.329.078-.706 1.426-.43.757-.149 3.732-.047h.188l.702.165 1.351-.04 1.028-.219.266-.109.694-.495.384-.069 2.544-.08 1.266.126.082.072.227-2.29.283-1.426 1.504-1.074 1.392-1.137.882-1.316.121-.204.039-1.081-.077-.266-.044-.054-.125-.017-.652.087-.353-.013-.493-.298-.278-.219-.134-.141-.101-.228-.047-.312.087-.557.305-.776.216-.4.242-.157.74-.346.517-.131.804-.167.435-.579.024-.047-.016-.063-.324-.714-1.063-1.481-1.006-1.011-1.063-1.167-.04-.071-.309-3.041.91-1.271.415.102.133-.039.836-.384.599-.479.04-.133.03-1.042-.038-.291-.458-.447-.572-.493-.169-.079-.235-.039-.96-.596-3.355-4.279-.635-1.364.463-1.152 1.66-.894 1.29.054-1.351-1.566-.976-1.247-.56-.956-.252-.557-.25-1.004.133-1.622.008-.031-2.074-4.021-2.763-3.943-1.936-1.427-1.952-5.329.063-.423.109-.447-.164-1.685.015-.149.378-1.622 1.528-.431 1.984-.407 4.494-.118 2.113-2.297.15-.314.014-.117-.07-.336.032-.558.125-.485.243-.282.191-.078.252-.024 6.867.298 2.889.565.553.571.234.243.094.235v.203l.032.095.078.055.235.046 2.339.244.835-.236 4.221-2.061.109-.117.663-.862 1.306-1.262.827-.47.912-.212.639.008-.592-1.387.427-2.376.165-.751.251-.526.616-.117.062.031.283.392.481.266.549.054.023-.039 1.838-2.696.008-.063Z"/><path d="M649.167 241.014h-4.875v13.521h-1.99v-13.521h-4.864v-1.646h11.729Zm-18.667 6.76q-2.572-.74-3.75-1.812-1.167-1.084-1.167-2.667 0-1.792 1.428-2.958 1.437-1.177 3.729-1.177 1.562 0 2.781.604 1.228.604 1.896 1.666.677 1.063.677 2.323h-2.011q0-1.374-.875-2.156-.875-.792-2.468-.792-1.479 0-2.313.657-.822.645-.823 1.802 0 .927.782 1.573.791.635 2.677 1.166 1.895.532 2.958 1.177 1.073.636 1.583 1.49.521.854.521 2.01 0 1.845-1.437 2.959-1.438 1.104-3.844 1.104a7.2 7.2 0 0 1-2.917-.594q-1.355-.604-2.094-1.646a4.02 4.02 0 0 1-.729-2.364h2.011q0 1.374 1.01 2.177 1.021.792 2.719.792 1.582 0 2.427-.646.843-.647.844-1.761 0-1.115-.782-1.718-.78-.615-2.833-1.209" class="label-text"/><path d="m705.03 260.714 1.787 2.877.427.234.545-.353.243-.234.14-.228 1.961 1.05.332.603 1.383 3.034.836 2.038.164.501.117.502-.163 3.865-.573 2.734 1.132 1.357.166.47.157.297 1.692.04.38-.094 1.267-.353-.078-.792-.008-.109 1.943-1.724 3.364-1.803.439.336 1.709 1.522 1.591 1.292 3.644 2.235 2.152.643.258.031 1.474-.04 2.458-.07.344-.502.252.322.614.336.378.078 2.299.283.624-.424 1.525-.752 1.169-.439 2.07.063.241-.04 5.578-1.144 1.975-2.595 1.054-4.09 1.121-3.293 1.573-2.281.293-.046.96.156 2.274-.07 2.979.384 2.171.752 3.222-1.819 2.552-.328.243.133-.064-.399-.008-.283.094-.266.267-.188 5.15-1.827 1.638.636.11.493.325.556.109.126.315.07.395.055 2.367-.235.125-.047.349-.407.117-.172.079-.196.481-1.741.612-.564.725.588-.741 1.449-.023.117.944 2.219.325.392.796.289.635.181.654.047.694-.054.18.016 6.079 2.264.165.086 1.223.652.077.07.322.517.938 1.584.015.305-.039 2.986 3.613 7.744.49 1.498-.023 2.147-.858 1.998-.168.886-1.448 10.637-.164 1.214-.638.902-.515 1.841.193.181.015.063-.16.791-.548 2.39-.89 2.713-.219.376-1.138 1.45-1.023 1.293-1.038 2.03-.235 1.787-.333 1.795-.109.526-.26.157-1.061.093-.349.01-1.576-.26-4.053-1.537-1.522-.611-.069-.571.622-1.805-.622-2.783-1.568-4.568-.984-.949-3.936-3.323-.387.259.117.502-.062 1.066-3.527.51-.369.039-.125-.007-3.403-1.278-.133-.072-.145-.125-.714-.846-.152-.126-.11-.023-.525.039-.27.337-.204.463-1.375 4.326.063.141 2.693 2.367.172.133.329.141 2.599.69.505-.14.275.124.228.157.199.307.103.681-.521 1.858-3.912 1.41-8.278 4.21-1.446.792-.828 1.003-.433.164-6.237 1.992-.599.053-1.369.104.188.344.166 2.353-.048.313-.242.587-1.833 1.231-.452.148-.874.134-.102-.015-.314-.094-.411-.289-.228-.086-1.399-.307-.114-.015-5.162.683-.724.1-5.371 3.213.141.378.172.682-.03.103-1.358 3.079-.682.422-1.41 1.811-2.872-1.41-1.585-.149-4.353 3.34-2.496 2.75.07.51-1.376 3.347-1.113.244-2.281-.722-4.088.361-.447.172-.113.054-.032.124-.314 1.584-.109 1.521.093.534.117.282-.014.369-.008.03-.064.274-.164.275-1.491 1.858-.296.204-1.56.957-.553-.197-2.162-1.404-3.098-1.984-.485-.259-.047.024-3.908 2.351-2.747 1.545-.82.108-3.739.479-3.307.925-5.486 6.873-1.561 2.297-1.43 2.807-.153.563-.204 2.046.118.339.094.102.169.086.156.149.26.531-.126 1.396-.204.149h-.575l-.568-.07-.73-.157-.144-.08-.087-.102-.595-.954-.2-.416.03-.188.396-.172.133-.096.149-.594-.172-1.208-4.307-6.192-.842-.965-.354-.015-1.457.015-2.016.072-.286.233-.346-.477-1.473-.557-3.312-.979-.857-.143-.302-.218.231-1.301.165-1.271.032-.313-1.898-1.96-.506-.469-.686-.141-1.164-.817-.36-.359-.098-.149.325-.516.453-.371 1.208-.642 1.369-1.285.246-.392-.031-.196-.175-.367-1.471-1.38-.616-.564-.834.103-.678-.016-.228-.377-.552-1.333.008-.07.094-.251 2.316-3.261.282-.164.538-.252.157-.063 1.661-1.715.041-.603.998-.918.102-.062.279-.078.557.587.324 2.281-.342 2.084 2.94-.148 1.834.229.857-.565.26.102.624-.07.157-.08.078-.062.109-.401-.172-.296-.071-.033-.505-.015-.26.236-1.458-.431.216-.627.156-.11.384-.165 2.395-1.05 2.701-1.16.11.015 1.434-.328 1.517-1.584.066-.077.804-1.067.165-.956-2.191-.587-.584-.58-1.849-3.285-.016-.211-.024-.377.063-.776.56-4.036.354-.713.419.548.982.108 3.247-1.167-.016-1.019.008-.055 1.212-.941.219-.069h1.168l.439.164.413.541.03.047.938-.276.148-.062.686-1.944.023-.924 1.078-.926.196-.102 2.38-.604 1.403-.218.416.1 1.054-.186 2.073-.674.603-.917-.399-.274-.196-.189-.49-.815-.109-.187-.435-1.686-.252-1.222-1.795-.454-1.763-.667-1.835-1.379-.228-1.31.054-.924.094-.486-.179-.658-.138-.205-.282-.179-2.147-.792-5.703-1.778-.071.008-2.217 1.089-1.028-.721-1.705-1.498.495-.415.039-.291-.4-.431-.232-.117-1.508-.322.015-5.361-.278-1.795-.032-.196-.298-1.41-.937-1.356-1.242-3.331 1.188-.643.984-.376-.134-1.176-.718-4.053-.164-.509-.031-.063-.104-.047-.748-2.508-.291-1.066 1.812-3.936.149-1.771 2.566-2.289 3.904-2.053.49-.063 1.882-.04 1.701-.164 5.58-1.599 1.474-.729.243-.83 1.505 1.026 1.164-.565.615-.453.599-.471.166-.134.51-1.372.077-.439.094-.172.201-.235.266-.164h.748l.392.07.256.078.745.266.521.384.078.047.686.259 7.061-.14h.04l4.861-.235Z"/><path d="M733.6 313.979h-2.01l-7.635-11.688v11.688h-2.011v-15.167h2.011l7.656 11.739v-11.739h1.989Zm-19.843-6.761q-2.574-.74-3.75-1.812-1.167-1.084-1.167-2.667 0-1.792 1.427-2.958 1.438-1.177 3.729-1.177 1.563 0 2.782.604 1.229.603 1.895 1.666.678 1.063.677 2.323h-2.01q0-1.374-.875-2.156-.875-.792-2.469-.792-1.48 0-2.312.657-.823.645-.823 1.802 0 .927.781 1.573.792.635 2.677 1.166 1.896.532 2.959 1.177 1.073.636 1.583 1.49.52.854.521 2.01 0 1.845-1.438 2.959-1.437 1.104-3.844 1.104a7.2 7.2 0 0 1-2.916-.594q-1.355-.604-2.094-1.646a4.02 4.02 0 0 1-.729-2.364h2.01q0 1.374 1.011 2.177 1.02.792 2.718.791 1.584 0 2.428-.645.843-.647.843-1.761t-.781-1.719q-.781-.614-2.833-1.208" class="label-text"/><path d="m593.995 264.021 1.368-.297 2.513.203 1.418.126 2.164.51.318.227 1.453 1.349.938-.401-1.235 1.662-.354 1.191.898 2.14 1.55 2.414 1.245 1.921.71.909-.109 1.772-.098 2.006.576.346.637.712.625.078.556-.054.858-.305.466-.235 4.778 1.512.341.04 4.776.102 1.04-.023.521-.11 2.053.086 3.105 1.191.173.22.031.25-.204 1.388.408.753.015.298 1.332.447-.387.375-.048.11-.014.109.363.47.502.479.229.078.294.156.968.87.346.377.03.203-.047.11-.296.509-.521.823-1.087 1.591-.607.854-.385.44-.203.148-.35.134-.039-.009-.556-.633-.138.008-.164.117-.251.391-.427.745-.078.596 1.152.917 1.18.031.694-.329.18.015.639.266 1.165 1.192.802 1.818v.204l-.395.925-.204.376-.976.18.616 2.539.36.275.67.314.04.195 2.872-.062.623-.525.189-.171.254-.559.15-.132 4.667.737 1.158.712.232.903.139.987.103.416 3.541 1.128 1.339.36 2.081-.43 1.504-.4.619.202 2.56 1.631 1.607 1.153.188.171 1.741 2.234.133.393.016.179.032.66.708-.315.255-.062 2.391-.385.181-.016 2.68.886.808.37-.055-.534.184-.203.204-.228.501-.408.079.077 1.042 1.334.329.62.196.798.031.023.428-.298.179-.092.53-.691 2.358-5.094.048-.228.031-.76-.352-.463-.283-.172-.968-.714-.184-1.246 1.191-1.857 2.217-1.082.072-.015 5.702 1.786 2.147.784.279.181.141.203.179.66-.094.484-.054.925.228 1.31 1.835 1.379 1.763.666 1.795.454.252 1.223.434 1.684.109.189.49.814.196.188.401.275-.604.917-2.073.676-1.054.186-.416-.1-1.404.218-2.379.604-.196.109-1.079.916-.023.925-.685 1.945-.149.062-.938.274-.03-.047-.412-.541-.44-.163h-1.167l-.22.071-1.21.941-.009.053.016 1.02-3.23 1.167-.982-.11-.424-.548-.35.714-.559 4.035-.063.777.023.375.016.212 1.846 3.284.588.581 2.191.588-.165.958-.804 1.065-.07.077-1.513 1.584-1.435.328-.109-.015-2.701 1.161-2.395 1.05-.384.164-.157.11-.216.626 1.459.431.259-.235.506.016.07.03.173.299-.11.401-.078.062-.156.078-.624.069-.261-.101-.857.565-1.834-.226-2.939.147.34-2.085-.324-2.28-.557-.587-.279.076-.102.065-.998.915-.041.604-1.661 1.717-.157.062-.538.251-.282.166-2.32 3.259-.09.252-.008.071.552 1.331.228.376.678.016.834-.102.616.566 1.471 1.378.175.367.031.199-.246.39-1.369 1.285-1.208.643-.453.368-.33.518.103.147.36.361 1.164.816-1.976.886-3.044 1.08-9.253 1.271h-.158l-.219-.124-.419-.393-.313-.361-.211-.156-.288-.14-.976.21-.118.07-.116.189-.119.572-.014.157-.326.306-1.399.439-.436-.219-1.241-1.388-.49-.879-.407-1.622-1.302.157-1.47-.87-.077-.133-.064-.415-.026-1.561.105-1.168.329-.485.329.008.055-.078.2-.501v-.11l-.419-.612-.243-.352-.196-.164-2.576-.495-1.168.155-.125.048-.804.854-.164.557-1.631 1.317-1.124.517-.071-.117-.338-.101-.317.101-.164.187-.109.463v.149l.085 1.582.513.354.329.118.22.619.889 5.604v.048l-1.486 5.095-2.307.383-.695 1.396-.071.102-.607.021-1.639-1.582-.516-.753-.023-.078-.072-.36.079-.431.313-.353.243-.212.411-.305.314-.102.032-.455-1.007-1.755-1.203-1.011-.663-.008-.552.124-.094.08-.283.854-.866.368-1.008.344-.297-.039-2.658-.471-.999-1.089-.842-1.505-.407-.415-.141-.032h-.119l-4.922.032-5.566 2.272-.157.697.134 2.266.063.275.273.228 4.08 2.883.127.04.461.11.952.312.436.229.306.391.039 1.019-.165.456-.102.124-.507.345-.516.134-.211-.031-2.097-.48-1.796-.414-.431-.086-.215.166-.055.156.032 1.261.106.048.102 1.301-.333.563-.14.064-.205.033-3.875-1.422-1.361-.335-.141-.33-.31-.862-.494-2.133.252-2.647.195-2.085-2.257-.518-2.963-1.112-1.693-1.85-.228-.878-.188-.752-.655.328-.685.314-1.376-.149-.126-.015-.395-.558-.016-.431-.29-1.787-1.802-3.824-.374-.393-.406-.329-3.466-1.448-1.078-1.459-1.364-1.786-.4-.041-4.923.526-1.344 1.489-.732.729-.274.132-.208.065-.15-7.196.126-.274.294-.471.157-.172 1.337-1.12-.549-1.528-.576-1.005-.219-.179-.944-.094-1.6-.095-.356.095-1.803.705-.18.234.031.455.914 1.136-.401.918-.685.14-.805-.135-2.425-.43-.047-.69.054-1.967.224-.328.502-.721 1.03-1.272.93-1.982.349-.918v-.242l-.125-1.091-.687-.837 1-.315.196-.07.094-.108-.008-.345-.07-.722-.283-.527-.007-.415.265-1.332.102-.259.813-.659.34-.242 1.203.156 1.023-.03.53-.856 1.203-3.041-.016-.588-.717-4.38-1.086-3.568.451-.94.109-.22.11-.071.196-.102.639-.079 1.062.11 1.701.235.952.518.22.266.215.165.344.101.307-.04 1.27-.172.179-.133.134.032.381-.148.203-.118.408-.485-.11-.134.436-.862.126-.369-.389-.698-.376-.391-.149-.157-.663-.448-1.332-.484-.157-3.198-.454-.91-1-2.123-.078-.197.338-.423 1.935-.47.78.799.266.98.208.328-.008.033.275.516h.422l.138-.164.031-.581-.031-1.324-.153.023-.266-.392-.024-.196.314-.988.247-.227.274-.134.455-.328.239-.589-.208-.453-.921-.22-.976-.956-.431-.353-.607-.369-1.226-.416-3.379-1.716-.678-2.147-1.4-.596-2.53-.909-.899-1.137-1.066-2.555-.431-1.606-.109-.745.148-.674.149.102.157-.046.365-.142 2.28-1.536 4.939-2.868 3.943-.799 5.945-4.03 1.922-1.536.106-.086 1.117-1.669.109-.243.173-.604-.032-.071-.322-.148.674-1.435.513-.862 1.756-.462.142-.015.622.203 1.141.485.31.141.547.345.287.189.897 1.332.432.227 1.803-.227 3.386-.862.687-1.309 1.543-4.1.204.032.857-.118Z"/><path d="M621.278 329.363h-2.011v-7.01h-7.645v7.01h-2v-15.167h2v6.521h7.645v-6.521h2.011Zm-13.906-13.521h-4.875v13.521h-1.99v-13.521h-4.865v-1.646h11.73Z" class="label-text"/><path d="m557.278 284.282-.149.675.109.744.428 1.608 1.069 2.554.898 1.129 2.527.924 1.4.596.678 2.148 3.38 1.716 1.226.416.607.368.431.353.972.956.921.22.212.454-.242.588-.451.329-.275.134-.247.227-.314.988.024.188.267.399.152-.023.031 1.317-.031.588-.137.164h-.424l-.275-.517.009-.031-.206-.329-.267-.98-.78-.8-1.937.472-.337.422.079.197 1 2.124.453.909.154 3.198 1.336.485.663.447.149.158.376.391.388.698-.126.368-.435.854.109.142-.407.485-.203.118-.382.148-.133-.032-.179.132-1.27.173-.306.04-.345-.101-.216-.166-.219-.265-.953-.518-1.701-.235-1.062-.11-.638.079-.197.094-.109.077-.109.221-.451.94 1.085 3.568.718 4.38.015.588-1.204 3.041-.528.856-1.023.03-1.203-.156-.341.242-.811.66-.103.258-.266 1.331.007.417.283.526.071.722.008.344-.095.109-.195.07-1 .314.686.839.125 1.09v.242l-.353.919-.925 1.982-1.031 1.27-.501.722-.224.328-.056 1.966.048.69 2.426.431.803.135.686-.141.399-.925-.911-1.129-.032-.454.176-.235 1.802-.705.361-.094 1.599.094.944.095.22.18.576 1.004.548 1.527-1.336 1.122-.157.171-.294.471-.125.275.149 7.196.032.565-.229 1.222-.345.97-.686 1.029-2.614 2.812-1.18.684-.897.727-.866.533-.89.369-1.144.134-1.662-.691-.565-.448-2.637.77-.259 1.175-.42 1.593-.117.242-.506.469.514.745.187.416.063 1.215-.063.823-.086.291-.321.596-.568.563-1.195 1.083-.538.21-.071.026h-.506l-1.266.452-.094.125-.243.401-.513.949-.694 1.761-.056.314-.093.079-1.18.079-.576.014-2.262-.577-.807-.275-.881 1.872-.263 2.531.497 3.011.181.909.322.768v.596l-.298.879-3.786.681-1 .11h-.144l-.401-.321-1.378-3.198-.079-.094-.228-.063-7.188-1.403-9.986 2.744-.094.069-.385.453-.545.88-.344 1.84-.481.974.96.83.224-.048.43.016.381.118.101.047.235.204.103.203.266 2.884-1.172.658.259.354.031.164.278 2.243.111 2.115.07 1.528.282 2.259.078.164.53.705-.679-.077-.157.04.023.469.086 1.066.072.291.196.21 3.229 3.23.291.016.575.125.173.054.133.094.874 3.935-1.202 3.198-.369.18-1.007 2.76-.607 5.165.662 1.214-.129 1.216.066.063-.285.729-.11.164-.4.321 1.196.643.258.189.419 1.026-.008.313-.215.315-.683.18-1.096-1.277-.847-.199-4.182 1.342-.181.086-.772.549-1.176 1.357-.282.525-.149.471.549.502.412.625-4.805 4.389-.189.135-.094.024-1.382-.063-.357-.07-.439-.479-.224-.643.278-.633 1.306-2.777 1.709-.595 1.723-1.561-.148-.924.117-.477h-1.771l-4.817-.95-.341-.116-1.709-.761-1.078-.736-1.387-5.66.27-.149.07.141.323.117.077-.085.381-.738-.094-.352-.718-.165-2.915.729-1.267.36-.22.448.032.603.156.29.468-.071.665 3.01v.376l-.078.399-.494.809-1.285 1.01-.694.032-.219-.063-.337-.133-.678-.51-.468-.635-.281-.878-1.513-1.945-1.078-.94-.408-.345-.741-.085-.21.015-.232.055-.772.376-.118.061-.375-.877-1.18-1.772-.373-.681-1.188-3.817-.079-.338.126-.721.055-.179.149-.275.086-.094.467-.36.408-.26.356-.171.517-.197 1.117-.243.287-.118.305-.172.353-.281.301-.447.063-.141.11-.22.459-.754-.256-1.731-2.07-2.162-.388-.73-.743-1.066-.224-.368-1.655-4.178-.14-.589v-.288l.086-.392.099-.259.258-.424.228-.478.048-.25.015-.368-.094-.407-.439-1.411-.024-.705-.356-.872-.346-.603-.277-.415-.533-.627-.945-.863-.576-.861-.329-.479-.513-.557-.859-.822-.431-.18-1.371-.291-.78-.108-.678.046-1.874.604-3.069 1.402-5.205 1.993-.219.062-1.474.234-2.472.078-.261-.03-.203-.064-.349-.242-4.013-5.612-.505-1.434.7-.15 1.478-.83 3.08-2.571.283.11 1.716.477.223-.298.283-2.217-.094-.266-.741-.667-.584-.447-.385-.234-.27-.386-.047-.98.056-.092 1.127-1.489.432-.314.255-.134 3.219-1.394 1.363.799.74.179.221-.007 1.242-1.379-.071-.126-.274-.196-1.239-1.207-.172-.353.733-.965.661-.204.495.063 1.553.634 1.481-.853-.016-1.427-.054-.298-.544-1.66-.055-.127-.149-.297-1.967-3.599-3.915-2.61-.377-.008.212-.572 1.301-3.667-.545-.722-.395-.957-.008-.243.349-1.803.392-.791 1.771-2.109.279-.102.447-.125.228.023.897.36.372.776.756.258.797.157.564-.077.141-.322.576-1.372.203-.493.545-1.334.283-.879-.008-.437-.867-.495-.266-.156-.095-.189-.686-3.605.008-.69.047-.407.11-.306.654-.745.545-.737 1.484-2.758.041-.259-.134-.705-.596-.832-.569-1.122-.289-.61-.31-.745 7.031-6.866.149-.126.144-.023.721.023.138.047 3.03 1.598.133.039.404-.086.087-.092.834-.894 3.179-4.798.442-1.92.041-.095.296-.172.071-.038.443-.008.117.046-.195-.275-.008-.178.063-.118.634-.69 1.066-1.152.733-.644.291-.273.353-.541-.274-.65-.499-1.082-.788-2.429-.07-.229v-.14l.325-.47.391-.337.569-.479.094-.055.937-.352.109-.086 2.082.133 1.266.203.56.228.828.196.328-.015 2.363-.911 2.102-4.609.203-.485.054-.283-.117-1.512-.556-4.758-.082-.188-.635-.862-.677-.016-.522.047-3.386 1.521-.713.486-.078.023-.561-.032-.227-.077-.162-.158-1.532-2.139.423-.636 1.936-2.781.812-1.004.804-.525 2.191-1.395 3.691-1.136 2.795-.745 3.088-.07 2.551.164.111-.04.61-1.818-.156-1.003-.032-.165-.228-.126-.403-.093-1.866-3.074-.135-.485v-.329l.508-.51 2.115-.901 1.177-.4 1.649-.408.867-.04 2.168.917.874 1.45-.53 1.317.419 1.208.126.18.203.133.459.149 2.046.133.439-.07.444-.745.481-.777 3.202-2.579 3.308-2.586 2.403-3.942 2.85-3.417.96-1.615 2.425-.526.204.041.109.156.024.283-.18.399-.157.61.031.253.227.297.538.328.517.071 2.371.04.717-.016 2.529 1.294.053.078 1.056 1.152.513.431.611.392.133.14.13.298-.24.619-.086.126h-.077l-.491-.141-.54.447-.435.588-.134.267-1.132.195-1.804 2.015-.109.235-.008.07.039.119 1.529 2.609.408.447.259 1.176.56 3.191-.07.156-.552.848-.954-.04-1.194.203-.38.063-.796 1.254-.149.322-.376 1.481-.054.234.375.581.49.854 1.282.416 3.923 1.63 2.489 1.23.102.172 1.716-.885.203-.879.072-.353-.056-1.011-.055-.109-.38.016-1.273.611-1.317-2.061.804-1.113 3.26-2.743.322-.204.129-.031 2.376-.338 2.293-.305.211.126.928 1.503.251.44.032.87-.032.102Z"/><path d="M528.01 336.433h-6.573v5.375h7.636v1.636h-9.636v-15.167h9.531v1.646h-7.531v4.875h6.573Zm-12.125 7.011h-2.01v-7.011h-7.646v7.011h-2v-15.167h2v6.521h7.646v-6.521h2.01Z" class="label-text"/><path d="m534.341 263.355-.959 1.615-2.85 3.416-2.402 3.943-3.309 2.586-3.197 2.58-.486.775-.443.745-.439.071-2.046-.133-.459-.149-.203-.134-.125-.18-.42-1.207.529-1.316-.874-1.45-2.167-.917-.867.04-1.646.407-1.179.399-2.117.902-.506.51v.329l.133.486 1.866 3.072.404.095.227.124.032.166.157 1.004-.611 1.818-.109.04-2.551-.166-3.09.072-2.794.744-3.692 1.136-2.191 1.396-.804.524-.811 1.004-1.935 2.783-.424.634 1.532 2.141.161.156.228.078.56.032.079-.024.713-.486 3.386-1.52.521-.047.678.016.634.862.086.188.553 4.758.118 1.513-.055.282-.203.486-2.101 4.608-2.364.91-.324.016-.831-.197-.562-.227-1.261-.204-2.085-.133-.11.085-.937.354-.093.055-.569.478-.391.338-.325.47v.141l.07.227.788 2.429.498 1.082.275.65-.354.541-.286.275-.737.642-1.067 1.152-.633.69-.063.118.008.18.197.275-.118-.048-.443.008-.071.041-.298.171-.039.093-.443 1.922-3.178 4.797-.836.894-.086.094-.403.086-.134-.039-3.026-1.599-.141-.047-.72-.022-.146.022-.148.124-7.031 6.867.309.745.29.612.572 1.12.593.831.133.705-.039.26-1.486 2.76-.544.735-.749-.924-.51-.462-.941-.253-1.968.683.228-1.12-.102-1.16-.298-.321-1.077-1.147-1.086-1.056-.2-.221-.454-.565-.212-.345-.153-.705.055-.682.035-.484.275-.284.054-.149.172-1.567.009-.416-.409-1.035-.192-.22-.187-.163-3.654-2.07-.826-.212-1.71-.448-.055-.35.009-.213.062-.291.404-1.151.322-.644.367-.556-1.732-1.239-.96-.188-.33.172-1.778 1.537-.337.407.416 3.685-.929 1.332-1.771 1.591-.087.032-1.156.431h-.239l-.479-.109.718.602.211.234.126 1.178-.259.633-.796 1.019-.341.306-9.716 3.457-.659.298-.192.172-1.54-.51-1.435.047-.359.36-.349.746.061 1.089-.015 1.168-.385 1.56-.14.25-.997.534-2.061.635-.607.18-1.187.259-2.196-.016.024-.298.047-1.159v-.338l-.047-.202-.365-.016-.196.094-.203.432-.079.352-.27 1.075-.054.062-.749.752-1.22.338-3.903.884-1.925.323-.65.814-.804.831-.142.103-1.269.619-.521-.04-1.611-.25-.168 1.004-1.392 5.746-1.779.815-.506.155-1.779-1.19-.275-.204-2.402 1.545.086 4.428.71 1.316.669 1.145-.411-.094-.564-.101-2.231.689-2.352-.65-2.838-1.176-.102-.149-.952-1.011-3.464 1.184-3.583.549-.529-.786-.063-.061-1.603-1.436-1.395.329.243.989.529 1.974.14.393.346.602.521.8-1.07-.079.228-.893-.008-.086-.345-.659-1.81-2.123-.083-1.497.435-.754.244-.587.403-1.858.062-.525-.062-.822-.141-.338-1.262-2.149-.359-.547-.828-.534-.149-.201-.184-.167-1.889-.328-.89.015-.094.032-.385.265-.708.307-.072.015-.077-.032-1.459-2.053-.235-.409-.363-1.168-.047-1.121.063-.188 2.441-2.304.591-2.68-2.559-.673-.662-.849.117-.046.828-.322-.581-.549-.349-.494-.733-1.206-.188-.384-.086-.338-.999-2.532-.243-.227-.138-.086-3.303-1.85-1.98-3.308 1.2-3.841.171-.555.741-.292.763-.227.299.032.062.203.765.385.788-1.912-.063-.549-.228-.268-.192-.391-.054-.374.325-1.098.062-.151.275-.264.094-.197.039-.275-.58-.25-.995-.416-1.787-.642-.095-1.021.047-1.04.435-.917.212-.644-.024-.077-.385-.062-2.916-.235-1.88.454-.663-.769-1.047-2.311-.454-2.235-.016-.384.047-.054 2.25-.997 4.632-1.497 5.84-3.918.734-2.124 1.762-.745.299-.134-.706-.628-.795.315-1.263.556-.368.251-.086.141-.149.148-.271.118-.242.087-.33.008-.152-.016-.352-.102-.401-.792-.066-2.391.881-2.554 5.35-6.741 1.733-1.881-.733-2.65.471-2.359.38-1.176.243-1.67.008-.485-.36-2.94-.49-1.018-1.913-3.151-.513-.368-2.419-2.783.177-.792-.118-3.338-2.371-1.098-.266-.337-.038-.08-1.39-4.632-1.102-5.205 1.132-1.85 3.27-1.458 1.622.071 3.621-.486 1.446-.949 3.661.158.184.039.525.251.497.322 2.211 1.426 1.442 1.254.944.541.322.046-.792-2.61-.035-.235.207-.689.126.015 1.568.673 3.597.04.679-.36 1.094-.58 2.154-.839 4.269-1.458.46-.109.367.228.235.376 1.066 1.066.024.016.502-.18.913-.603.912-.634.938-.98 1.971-2.54.196-.462.015-.165-.077-1.011-.145-.572-3.336-2.837-1.772-.948 1.094-2.594 1.141-1.819 4.22-1.355.412-.056.58-.548.286-.297.306-1.208.117-.602 1.364-1.468 5.692-3.558 1.881-1.112 1.56-.055.514-.737.164-.196.447-.415 1.585-.353 1.92.21.96.063 3.703.197.659-.769.302-.431.596-.062.757-.079.771-.407.198-.369.254-.501.455-.392 2.756-2.037 3.118-1.921 1.259-.722.197-.023.238-.015 1.716-.854 1.337-2.36.094-.502-1.023-.548-.502-.346.345-1.12.282-.597.443-.767.581-.721.175.077 3.414 1.342.114.117.148.195.392.831 1.153 3.299 3.762 2.29 1.638.251.984-.439.196-.125 1.164-.283 2.065 1.261.709 1.247.518 1.881-1.56 1.662-.071.283-.032.344.055.439.117.149 1.012 1.035-.78.525-2.026 4.31-.008.086.12.573.228.736.212.36.913.651.046.023 1.725.337 1.458 1.356.141 3.073-2.364.721-2.739.91-.695.525-.031.102h.204l1.042 1.701.181.745.764.399 1.336.565.85.321.466-.69.292-.391 1.683-1.286.126-.008 1.132.086.773.11.811.212.224.462 1.682-1.043 1.184-.274 2.982-2.154 1.262-1.208 1.023-.761.447.063 2.167.462 1.811.659 2.235.235-.181-.533-.086-.423.04-.25.25-.361.318-.297 1.638-1.091.126-.046.478.032.271-.047.392-.188.171-.141.749-.785.353-.438.475-.628-.921-.479-.897-.289-.267-.016-.206-.086-.581-.509-.404-.753-.063-.173.828-3.299.356-.721-.176-2.469.109-1.302-1.157-3.424-1.615-1.247-3.865-2.909-.482-2.374-.367-.799.305-.197.325.071 1.756.462.227.228-.023.142.369.375 2.488-.189.725-.101 1.142-.972.077-.251.145-.972.102-1.043 2.304-1.771 2.285 1.12 4.378-2.272 1.575 1.23.541.518.165.422.035.228-.2.996.176 5.651.133 1.089.401.29 1.364.589 4.988-.047 3.79-.847.142-.054 2.147-2.791 1.576-2.061.56-1.043 1.172-1.528 1.732.407 2.008.91.155.501.037.157-1.333 3.035.678 1.731-.063.517-.141.36-1.105 2.266-.596 1.137-.094.085-.553.51-.583.337-.89.125-.717.353-.76.503-.49.336-1.679 3.543.378 1.152.121.094.212.086 1.155.322 1.49.596 1.889 1.255-.046.172-1.475 3.644-1.076-.015-1.702-.895 1.418 1.883 2.56 1.967 2.568.494.689.242.169.078.392.431.251.722-.211 1.646.999.909.677 1.176-.102.086-.371.196-.345.494-.024.18-.023 1.333.203 4.601.466 1.136 4.19 3.034.651.36.748-.118.047-.023.251.039.788.424.047.063.349.611.251.964-.032.447-.109.752-.38 1.796-.173.109.749-.471.251-.148.459-.157.158.008.328.086 1.097.408.416.243 1.317 1.316-.017 2.523-.92 2.258-1.34 4.13-.64 5.362.341.25.204.055h.156l1.192-.031.102-.015.337-.181.047-.015.435-.14.172-.008Z"/><path d="m444.096 280.236.291 2 .427-1.802 3-10.583h1.688l2.927 10.583.417 1.834.322-2.042 2.355-10.375h2.01l-3.677 15.167h-1.823l-3.125-11.053-.24-1.156-.239 1.156-3.24 11.053h-1.823l-3.666-15.167h2Zm-6.823 4.782h-2.011l-7.635-11.688v11.688h-2.011v-15.167h2.011l7.656 11.739v-11.739h1.99Z" class="label-text"/><path d="m470.342 335.638-.655.745-.109.305-.046.408-.008.689.685 3.607.094.187.267.158.867.493.007.44-.282.878-.545 1.331-.203.494-.576 1.374-.141.319-.564.08-.796-.157-.757-.259-.372-.775-.898-.361-.227-.024-.447.126-.279.101-1.772 2.108-.392.792-.348 1.804.004.242.4.956.545.721-1.302 3.668-.212.574.377.007 3.915 2.61 1.968 3.598.148.296.055.126.545 1.662.054.296.016 1.427-1.482.856-1.553-.635-.494-.064-.662.204-.733.964.169.354 1.243 1.208.274.195.071.125-1.244 1.379-.219.008-.74-.179-1.364-.8-3.217 1.395-.256.134-.432.313-1.132 1.49-.05.095.043.979.274.383.385.236.584.448.741.665.094.266-.283 2.218-.224.297-1.715-.477-.283-.11-3.084 2.571-1.474.832-.701.147.506 1.434 4.013 5.614.349.243.203.062.26.03 2.473-.077 1.474-.235.218-.064 5.205-1.99 3.071-1.395 1.873-.613.678-.046.78.109 1.372.291.431.179.858.823.513.556.329.479.576.862.945.86.532.63.278.415.346.603.356.87.023.704.44 1.411.093.409-.015.368-.047.251-.228.479-.258.421-.098.261-.086.39v.291l.141.587 1.654 4.18.223.367.745 1.066.387.729 2.07 2.162.255 1.734-.459.752-.109.218-.062.142-.302.447-.353.283-.306.173-.286.118-1.117.241-.518.196-.357.181-.407.25-.467.36-.086.094-.148.275-.056.18-.125.722.079.336 1.188 3.817.372.683 1.18 1.771.376.879-.063.846-.298.517-.094.369-.015.313.031.274.078.228.314.627.811 3.276.063.463.318 2.367-.176.134-.165.172-.086.227.008.265.093.181.118.133.192.165.172.079.432.077.489-.021.741-.024.416.077.266.118.255.297.072.236-.008.235-.577 1.553.126 1.699.039.635-.031.423-.181.689-.282.628-.436.644-.367.382-.329.253-.333.227-.385.36-.165.235-.097.242-.024.149.024.323.105.28.141.167.157.102.764.259.18.102.26.234.171.267.09.399-.034.313-.08.167-1.006.516-1.306 1.459-.364.329-1.069.689-.408.251-.38.328-.267.321-.211.401-.134.455-.039.524.016.031h.071l.126-.031.117 1.334-1.788 7.626-.134.384-.332.54-.51.627-.008.008-.724.785-.53.784-.266.486-.337.879-.145.665-.149 1.042-.054.22-.072.235-.313.697-.211.392-.233.336-.297.306-.795.628-1.18.917-.301.179-.212-.437-.125-.213-.11-.072-2.583-.313-.235.102-.733.032-.63-.126-2.235-.902-1.207-.555-.086-.212-.49-.596-.533-.533-3.699-1.788-2.411-.69-1-.086-.725-.345-3.637-.548-2.536.58-.22.054-1.442.071-2.873-.165-2.143-.816-3.314-2.036-.677-.447-1.038-.886-1.548-3.001.009-.587.141-.918-.141-1.05-2.371-1.199-1.756.307-1.481.264-.808.212-.026.375.043.212.14.213-.725.007-.196-.157-.117-.164-1.333-1.921-.663-.893-.757-2.258.024-.439.007-.116.742-.98 2.119-1.435 1.023-.51.447-.197.278-.321.431-.626.396-1.694-.404-.361-.016-.07.53-3.221.447-.323-.329-.281-.921.416-.537.139-3.723-2.132.016-.274.203-1.097-.077-.617-1.867-1.249-.11-.29-.133-.736-.015-.11.282-.203 1.234-.376.357-3.873-.095-3.267-.047-.619-.016-.15-.341-.754-.266-.54-.134-.227-.317.313-.822.431-.601.205-.561-.11-4.526-2.438-2.442-2.218-1.953-1.27-.407.462-.396.338-1.219.47-.109.031-.008-.141.125-.518.055-.228-.701-.133-1.474-.186-.274.1-2.262 1.325-.094.078-.04.048.008.062h-.321l-1.41.548-2.241.902-.569.266-.204.141-.419.455-.158.259-.391.399-.134.094-.994.573-.456.249-3.167.918-5.251.924-3.226-.219-.984-.116-5.22-1.632-.356-.21-1.039-1.616v-.086l.063-.124 1-1.451.317-.337.165-.086.377-.015.203-.094.184-.189.898-.949 4.314-6.982 1.11-3.802-.016-.479-.427-3.126-1.47-.973-1.089.697-1.086.016-.102-.024-1.337-.775-.176-.166-2.298-2.28-4.158-2.541-1.32-1.536-2.481-4.13-.318-.712-.25-.573-.875-2.163-1.125-4.506.235-2.228 1.489-5.313 1.826-1.535-.234-3.137.133-.987.008-.071.117-.164 5.527-3.558.266-.675.882-1.872.324-.118.71-.181 1.626.832 2.097-.542 1.07.079-.525-.799-.341-.603-.14-.393-.53-1.974-.242-.989 1.394-.329 1.603 1.436.059.061.534.786 3.581-.549 3.465-1.184.953 1.011.102.149 2.837 1.176 2.352.651 2.23-.69.564.101.412.094-.67-1.145-.709-1.316-.086-4.427 2.402-1.545.274.203 1.78 1.19.505-.155 1.781-.815 1.386-5.746.172-1.004 1.607.25.525.04 1.271-.619.14-.103.804-.831.651-.814 1.923-.323 3.904-.884 1.22-.338.749-.752.054-.062.271-1.074.078-.353.204-.432.195-.094.365.016.047.202v.338l-.047 1.159-.024.298 2.196.016 1.187-.259.608-.18 2.057-.635 1-.534.14-.25.385-1.56.016-1.168-.064-1.089.35-.746.36-.36 1.435-.047 1.54.51.193-.172.658-.298 9.716-3.457.341-.306.794-1.019.261-.633-.127-1.177-.211-.235-.717-.602.478.109h.239l1.157-.431.086-.032 1.772-1.591.928-1.332-.415-3.685.337-.407 1.779-1.537.329-.171.956.187 1.737 1.239-.369.556-.322.644-.403 1.151-.063.291-.009.213.056.35 1.709.448.826.212 3.654 2.07.188.163.192.22.407 1.035-.008.416-.171 1.567-.056.149-.273.284-.04.484-.05.682.152.705.211.345.455.565.2.221 1.086 1.056 1.078 1.147.297.321.099 1.16-.224 1.12 1.963-.683.944.253.51.463Z"/><path d="M427.502 388.502v5.937h-2v-15.167h5.593q2.49 0 3.896 1.271 1.417 1.27 1.417 3.365 0 2.208-1.386 3.406-1.374 1.188-3.947 1.188Zm0-1.636h3.593q1.605 0 2.459-.75.854-.76.854-2.187 0-1.354-.854-2.167-.855-.813-2.344-.844h-3.708Zm-9.573 1.438h-3.563v6.135h-2.01v-15.167h5.021q2.562 0 3.937 1.167 1.386 1.167 1.386 3.396 0 1.416-.771 2.469-.761 1.051-2.125 1.573l3.562 6.437v.125h-2.146Zm-3.563-1.636h3.073q1.49 0 2.365-.771.885-.77.885-2.062 0-1.406-.844-2.156-.833-.75-2.416-.761h-3.063Z" class="label-text"/><path d="m381.863 418.619.356.212 5.221 1.63.983.118 3.227.22 5.252-.926 3.166-.916.451-.253.999-.571.133-.094.393-.401.156-.258.42-.453.203-.141.568-.268 2.241-.9 1.411-.549h.322l-.008-.063.04-.047.094-.077 2.26-1.326.275-.102 1.473.188.702.135-.054.226-.126.518.008.14.109-.03 1.219-.471.396-.337.409-.461 1.951 1.269 2.442 2.217 4.526 2.439.561.108.6-.203.822-.431.319-.314.132.228.267.541.341.752.016.148.046.62.093 3.268-.355 3.872-1.234.378-.284.204.016.108.134.738.109.29 1.866 1.245.078.611-.202 1.106-.017.275 3.723 2.13.537-.139.922-.417.328.284-.446.32-.53 3.222.016.071.428.291-.396 1.693-.432.626-.278.323-.447.194-1.024.511-2.119 1.433-.741.98-.008.118-.023.439.756 2.266.663.885 1.332 1.921.118.163.197.159.725-.009-.395.634-3.234 2.596-.263.164-.54-.172-.726-.549-1.076-.447-3.057-.289-.33.077-.49.198-.439.507-.172-.085-.624-.361-.356-.201-.952-.919-.713-1.228-.616 1.888-1.215 1.198-.494.167-.243-.086-.215-.212-.149-.369-.494-2.784-.176-1.057.055-.392-.922-1.427-1.634-1.246-1.731-.627-1.035-.291-2.976-.337-1.062.668-.103.163.329.282.428.605.416 1.401-.032.229-.125.312-.695 1.097-1.257.221-4.096-.744-.858-.932-.415-1.004 1.069-1.301-.364-1.004-1.58-.908.055-1.357-.031-.14-.965-2.375-1.431-1.232-1.199-.665-.22-.229-.701-.878-.251-.352-1.014-1.874-.055-.124-1.141-4.429-.046-.321.077-.197.517-.407.444-.11-.302-.462-.391-.424-.362-.275-3.181-2.453-1.725-.643-1.243.259-.254.119-.494.118-.929-.057-.365-.422-.297-4.632.039-.14.196-.323Z"/><path d="M413.891 437.584h7.188v1.635h-9.198v-15.166h2.01Zm-10.198-5.125q-2.572-.74-3.75-1.813-1.167-1.083-1.167-2.666 0-1.792 1.428-2.959 1.437-1.177 3.729-1.177 1.562 0 2.781.605 1.229.603 1.896 1.666.677 1.063.677 2.323h-2.011q0-1.375-.875-2.156-.875-.792-2.468-.792-1.479 0-2.313.656-.822.647-.823 1.803 0 .927.782 1.572.791.636 2.677 1.167 1.895.532 2.958 1.177 1.073.635 1.583 1.49.522.853.521 2.01 0 1.843-1.437 2.959-1.438 1.104-3.844 1.104a7.2 7.2 0 0 1-2.917-.594q-1.355-.604-2.094-1.646a4.02 4.02 0 0 1-.729-2.364h2.011q0 1.374 1.01 2.177 1.021.79 2.719.791 1.582 0 2.427-.646.844-.645.844-1.76t-.782-1.719q-.78-.614-2.833-1.208" class="label-text"/><path d="m516.469 420.751.722.283.145.024 3.668.016.96-.181.447-.103.875-.265.427-.242 1.795-2.283-.054-.172-.42-.595.514-.832.937-1.354 2.207.329 1.729.548 1.097-.203.501-.619.157-.401-.393-.368.561-2.454-.324-1.252-.765-1.303-.674-.172-.262.424.109.392-.032 1.208-.234.06-.541.056-.458-.063-.655-.996-1.117-1.879-.352-1.381v-.423l.093-.18.196-.086.322-.041 1.67-.187 4.127-.195.921.375.489-.775.298-.392.133-.118.961-.102.171.047.166.14.207.197.062.149-.008.195-.125.431-.03.283.046.157.173.296.211.183 1.904 1.238.197.086.169.006.102-.062 3.163-3.065.905-.423.107.728-.467 4.437-.047.228-.407.203-.082.063-.282 1.028.372.54 1.069.579.4-.056.655-.313 1.967-1.12 3.12-1.074.819-.283 1.266 1.255.513.525 1.756 6.201.172.735 1.274 2.006.215-.037.346-.033.195.047.086.204.513 1.654.024.086.117.806-.117 3.11-.024.087-.124.29-.302.324-.103.5.6.603.141.081 1.132.263 3.004-.188.265-.093 1.6-1.787.14-.156.396-.691-.467-.111-.49-.437-.18-.243.04-.063 1.129-1.072.25-.073.835.159.494.821.599 1.324.212 1.004-.29.275-.165.351-.032.141.04.462.749.98.11.04.874 2.908.842 1.694.463 1.252-.055.158-.203.345-.505.227-1.695.054-.235.463-.219 2.617.032.212.07.251 1.458 3.215.401.633-.71 2.007-.156 4.616.023.126.215.259 1.921 1.31 1.109.579 1.274.542 1.536 2.774.984 4.944-.314.151h-.11l-.008.516.118.769 3.1 1.315 4.532 3.302.109.264.533 1.45.96.995.067.088.361.462.281 1.387-.094 4.569-.259 3.81-.015.046-.897 2.33-.514.219.196 2.43.153-.016 1.881.619.047.636.501 1.903.467.455.165-.008.235.469-.252.323-1.085 1.2-1.615.517-.749.031-.023-.015-.041-.182.08-.14.316-.227.738-1.608-.04-.228-.102-.133-.258-.188-1.195.062-3.543.77-.459-.151-2.999-.947-.631 1.809-.039.167-.039.996.423.594.873 1.223.968 1.333.719 4.256.04.447-.064 2.9-.795.462-.487.063h-.427l-.693-.306-.362.048-.179.078-1.151.602.175.375.149.417-3.52 3.096-1.702.36-.849-1.003-.702-.54-2.45 1.395-1.179.093.235.354.117.524-.211 1.272-.913 1.661-.103.156-1.116 2.626.289 1.481.6 1.13 2.125 3.329.717.69.906 6.562.109.588.251 1.301.224.494v.361l.642 2.077.184.477.063.102.635.683.607.555.134 2.525.039 2.204-.196 1.794-.118.502-.411.414-.298.502-.18 1.388-.047.76-.49.103-.534.118-.192.117-.126.133-.102.18-.086.353-.031.416.109.454.157.296.185.205.25.204.592.384-.278 1.059-.157 1.332-.015.258.008.299.109 2.578.348 1.866.392.808.385.477.333.22.203.581-.983.885-.749.016.039 2.743 1.89 4.624-.009.447-.501 1.661-.819.762h-.141l-.522-.111-.328.188-.482.558-.164.297-.314.854.054.218-.646-2.623-.023-.08-.244-.421-.023-.026-1.917-.375-.992.172-.117.063-.18.18-.78.972-.219.378-4.049.069-3.543.197-.055.087-4.088 4.154-2.311.108-.31-.102-.189-.14-.078-.165-.039-.274-1.749-.142-.921.629-1.968 1.488h-1.544l-.622-.062-.252-.117-.234-.134-1.062-1.16-.593-1.403-.101-.642-.287-.581-.486-.665-.435-.353-3.644-1.153-.718-.204-.439-.022-.305.039-.989.156-.18.032-.391.22-.38.117-.267-.016-.197-.087-.669-.358-1.497-.817-2-1.347-.764-.682-.579-.588-.388-.659-.141-.377-.102-.635.072-.132-.024-.275-.04-.077-.458-.416-5.668-3.731-1.56-.996-.195-.087-.267-.453-.215-.166-1.126-.195-.29.464-.165.366-.008.096.102.179 1.835 1.905.564.453.412.291 2.434 1.661.094.024.384-.063.235.025 1.231 1.025 1.912 4.038.297 1.182-1.179.714-1.008.164-1.88-.767-1.701-.91-.294-.172-.361-.108-1.826-.417-.329-.054-1.325-.142-.211-.006-.259.061-.875.345-.874.462-.317.221-.369.344-.576.338-.921.453-2.156.612h-.152l-.938-.558-3.401-2.962-.745 1.349-.206.03-.424-.179-2.842-1.232-.063-.219-.749-2.641.18-.641.478-.534-.845-1.388-1.2-1.05-1.724-.556.188.839-.275.471-.164.204-.686.452-.197-.085-.418-.636-.236-2.553-2.085-.416-.561.792-.314.901-2.394.516-1.101.197-.804.665-.858 1.106-2.402 4.145-.36 1.498.016.11.313.54 2.936 2.124.16.071 2.897-1.192-.103-.437.315-.205.991-.415.45-.102 1.905-.15.172.01.27.046 1.094 1.497.016.228-.294.674-1.102 2.296-.654.699-.409.374-.771-.126-.189-.398.15-.534.188-.07.063-.125-.04-.196-.094-.149-.548-.597-.949-.493-.031-.016-.851-.196-2.778 2.194 1.015 1.247.269.415.016.087-.411.274-1.133.377-1.364.36-.368.048-4.946-.409-.275-.038-.109-.048-.188-.102-1.199-1.121-.134-.172-.102-.242v-.268l.141-.673-.023-.087-.158-.156-.439-.227-1.378-.369-2.38-.447-.368-.046-.203.046-.146.07-4.621 2.68-.242.244-.11.165-.055.194-.07.636-.142.306-.324.259-.196.077-3.418.447h-.133l-3.088-.681-2.494-1.018-.779-1.161-.118-.109-.27-.117-.18-.032-2.63.095-1.063 1.05-.139.297-.765.816-.381.202-1.983.722-2.85.808-.203.015-.616-.047-.568-.235-.109-.109-.921-.954-.503-.825.189-.101.353.108 1.85-.752.008-.251-.126-.673-.265-.722-4.293-1.129-3.228-4.216-.141-.229-.118-.321-.047-.267-.322-2.1.063-.296.102-.15 1.172-.927.172-.186.203-.298.184-.453.102-.527-.008-.259-.102-.399-.716-2.139-.041-.314.041-.611.078-.267.685-1.629.913-2.116.165-.511.04-.391-.04-.423-.252-.705-.061-.283v-.509l.094-.392 1.344-3.535 1.355-1.89.354-.5.379-.691.103-.368-.015-.479-.224-.917-.203-.47-.345-.581-1.576-1.982-.117-.171-.062-.221.008-.265.117-3.206.038-.313.459-2.345.008-.346.078-.201 1.164-2.507.125-.237 1.623-2.125 1.748-2.382.14-.314.243-.791.499-1.7.521-2.743.061-.259.166-.36.297-.355.35-.265 1.242-.455.36-.218.154-.15.108-.148.126-.275.063-.234.009-.228-.538-2.886-.071-.666v-.437l.063-.528.102-.484.152-.479 1.579-3.863 1.71-3.479.216-.314.235-.509.078-.393.008-.307.031-2.648-.054-.674-.157-.808-.009-.352.032-.235.109-.321 1.992-3.887.109-.166.18-.173.889-.376 1.09-.61.377-.291 3.536-4.076.551-2.681.111-.243.109-.108.361-.157.293-.015 1.849-.471 2.584-1.826.571-.518.522-.633.321-.488.176-.407.142-.587.197-.902.32-.956.435-1.231.261-.634.309-.659.658-1.216 2.496-3.926.228-.243.224-.125 1.484-.471.302-.18 1.181-.916.796-.629.297-.305.231-.337.212-.391.314-.697.07-.236.056-.22.147-1.04.146-.667.337-.878.265-.485.53-.786.726-.782.008-.01.509-.626.333-.541.134-.384 1.787-7.627-.118-1.333-.125.032h-.07l-.016-.032.039-.524.135-.453.21-.401.267-.321.38-.329.407-.252 1.071-.691.363-.328 1.306-1.458 1.007-.518.075-.156.039-.321-.089-.401-.173-.264-.258-.236-.181-.102-.764-.26-.157-.102-.141-.165-.106-.283-.023-.321.023-.148.098-.242.166-.236.384-.361.333-.227.329-.25.369-.386.435-.641.281-.629.181-.69.03-.421-.038-.634-.126-1.703.576-1.551.008-.236-.071-.234-.259-.298-.263-.118-.415-.077-.741.022-.489.025-.431-.078-.173-.079-.192-.164-.118-.134-.095-.181-.008-.266.087-.227.165-.172.175-.134-.318-2.366-.061-.455-.813-3.284-.313-.628-.077-.227-.032-.274.016-.314.093-.369.298-.517.063-.846.114-.062.775-.377.232-.056.212-.015.74.087.408.344 1.077.941 1.513 1.943.283.879.467.634.677.51.338.133.219.064.695-.033 1.284-1.01.494-.807.078-.401v-.374l-.666-3.012-.467.071-.156-.289-.031-.604.22-.447 1.265-.36 2.916-.73.718.166.094.353-.38.735-.079.087-.321-.117-.071-.142-.271.15 1.389 5.661 1.076.734 1.71.762.34.116 4.818.948h1.772l-.118.479.15.925-1.725 1.56-1.71.595-1.305 2.775-.279.643.225.635.439.477.356.073 1.383.06.094-.023.189-.134 4.804-4.388-.411-.627-.549-.503.149-.471.282-.523 1.175-1.357.773-.549.18-.086 4.183-1.341.846.197 1.097 1.279.678-.181.22-.314.008-.314-.419-1.028-.259-.186-1.195-.643.399-.321.111-.166.286-.728-.067-.063Zm-21.623 142.835-.544-1.396-.172-.15-1.89.11.166 1.623.474.384 1.532-.157.521-.07Z"/><path d="m517.926 499.188.291 2 .427-1.802 3-10.584h1.688l2.927 10.584.417 1.833.322-2.042 2.355-10.375h2.01l-3.677 15.167h-1.823l-3.125-11.052-.24-1.156-.239 1.156-3.24 11.052h-1.823l-3.666-15.167h2Zm-16.553 4.781v-15.167h4.959q2.469 0 3.708 1.021 1.25 1.021 1.25 3.021a3.1 3.1 0 0 1-.604 1.885q-.604.813-1.646 1.261 1.23.344 1.938 1.312.718.959.718 2.292 0 2.042-1.323 3.208t-3.739 1.167Zm2-7.094v5.459h3.303q1.396 0 2.197-.719.813-.73.813-2 0-2.74-2.979-2.74Zm0-1.604h3.021q1.312 0 2.094-.656.792-.657.792-1.781 0-1.25-.729-1.813-.73-.573-2.219-.573h-2.959Z" class="label-text"/><path d="m654.11 355.405.685.141.507.47 1.898 1.96-.032.315-.165 1.268-.231 1.303.302.218.858.142 3.311.978 1.473.557.341.479 1.11 1.089.89 1.966-.047.135-.039.077-.545.423-.701.172-.307.314-.717.879.11.227.943.848 2.427 1.293.189.155.834.886 1.038 1.269.749 1.545-.047.275-.149.439-.501.493-.239.729-.016.375.141 1.153.184.926.064.14.407.463.063.038.521-.162.376.102.756.579 1.141 1.183-.234 1.53 2.857.447 2.457 2.493 3.048 1.794 1.243.031.733.116 1.055.58.467.675 2.076 3.582-.047 2.586-.22.195-.434.518-1.654 3.096-.439 1.293-.227 2.493-.113.501-3.156 2.187-.032.204.032.181.274 1.009.341.557 1.407 1.974.132.151.157.094.358.094 3.308.948.126.054.297 1.223.577 3.951 2.036 4.396.71 1.02.305.251-.251.29.695.438.922.331.398.04.095-.315.078-.071.223.015.228.346.063.157.11 1.026.07 1.576v.417l-.031.086-.455.595 1.281 1.912 5.071 4.021.228.943-.134.555 1.109 2.039.359.186.834.261 3.722.547.494-.007.099-.07-.145-.425-.275-.337-.062-.525.426-.054.627.071 2.192.361.234.053 1.149.644 1.521 1.425 1.505 1.96 4.331 5.769.651.886 1.231 1.105.686.549.188.092.259.01.054 2.217.67.692.795.555.632.369 1.288.525.468-.14.517-.213 1.007-.25.301-.016.353.149 1.827 1.301 1.023.807 2.371 2.634.422.643.49 1.684.741 3.176.804.548 3.253 2.172.15.022.478-.093-.024-.665-.102-.314-.063-.393.031-.673 1.094-.424 2.552.11.219.132.13.118 1.874 2.069.78.996.556 1.286.49 1.083.849.978.26.102.646-.016 1.376-.054.231-.118.297-.298.447.011 4.286 6.317.96 1.974-.432 1.654-.506 1.583-.666 1.192.969 1.685.873 4.239.024 1.207-.983 3.363-3.402 4.791-.158.123-1.066-.265-2.154-1.122-.197-.163-3.72-2.344-3.974-1.506-.274 1.2-.129.242-.572.636-.804.673-.36.171-1.473.472.564.682.047.077.513 1.991-.031.15-.93 2.884-.195.385-.204.736-.008.282.032.135.572.924.101.344.016.219-.063.283-.944 3.692-.141.36-.117.197-.197.202-3.751 3.866-.4.313-2.919 1.944-.269.148-.347.063-3.684.047-2.081 1.175-.377.156-.553.103-.905-.023-.447-.015-.42.095-2.911 1.574-.252.173-.238.251-.134.218-.244.549-.156.283-1.716 2-.266.232-.271.182-.314.14-.242.054-1.372.071-2.116.354-.154.047-.211.148-.164.227-.032.142-.032.51-.062.212-.71 1.521-.655.814-.132.157-1.607 1.262-1.921 1.584-.377.477-.086.126-.015.204.204 1.365.157.578.234.519.474.61 2.125 1.765 1.489 1.222.6.619.306.385.212.384.054.188.677 2.696.174.336.192.189 1.779.329.361.156.164.141.686.973 1.67 2.626 2.085 3.746.141.345.048.338-.064.235-1.913 3.401-2.77 5.534-.008.142.054.157.407.447.64.469 2.481.188.717-.054.212-.103.529-.376.117-.149.055-.126-.055-.085.172-.328.117-.049.365-.03 1.463.713.204.149 1.089 1.395 1.591 3.896.085.337-.131.556-.224.244-.954 1.121-1.367 2.132-.075.516-.416 3.301.016.108.102.134.228.195.247.08.219.179.063.188.109 1.693-.008.542-2.022 2.202-.149.078-.134-.04-1.955-.792-.597-.273-2.183-1.216-5.69-3.871-.507-.495-.568-.893-.259-.76.085-.266.538-1.411.717-.767-1.986-4.131-1.094-.329-2.857-.791h-.602l-.314.022-.607.134-2.911.635-.228.063-.388.548-.67 1.434-3.582 1.828-.682.039-1.799-1.82-1.336-1.81-.087-.188-3.884-.423-1.33-.493-.163-.125.117-.338-3.551 1.341-.857-2.641.266-.471.332-.814-.105-.338-.33-.448-.376.135-3.191 3.119-.101 2.572.857 1.873.22.752.365 1.442.008.157-.044.188-.094.149-.118.085-1.014.229-2.765-.07-2.41-.244-1.14-.659-2.096.589-2.662-.329-2.888.384-2.388.925-.873 1.511-.157.097-.757-.057-2.069-.374-7.227-.033-.859-.149-1.316.848-.087.109-.842 1.833-.087.831-.007.165.016.142.086.196.039 1.041-.796.848-.179.077-3.249.745-2.56-.243-.49-.14-.353-.439-.177.077-.179.135-1.015 1.168-.125.281-1.267 1.449-4.049 3.598-.419.738-.125.282-.242.736-.298.377-.585.345-.148.048-2.151.22-.18-.016-.126-.15.077-.321.812-1.403.67-.628-.14-.289-.109-.072-2.246-.056-2.536.996-.267.142-.961.547-2.558 1.279-3.931.197-.494-.033-.882-.172-.467-.22-.093-.9.109-.353.063-.077.434-.08.212-.187-.078-.691-1.187-1.386-1.702-1.766-2.419-.516-.163-.016-.365-.179-.102-.298.04-1.01.332-.328 1.455-1.107-1.008-1.467-1.63.189-2.881 1.129-1.748-.338-3.621-1.466-.157-.469-.023-.236.046-.139-.063-.198-3.758-.619-.905-.077-.596.696-.342.69-.008.126-.439 1.089-.219.024-2.301-.102-1.819-.359-1.458-.934-.346-.251.322-.479.467-.565.164-.752-.031-.596h-.196l-1.622.251-.101.032-.288.487.095 5.611.489 1.3.118.134.149.048.309-.119.486.235.357.407.053.573.252 2.891-2.959 3.973-3.594 4.593-1.118 1.074-2.194 1.365-2.042.753-3.313.594-.215-.006-.087-.291-.022-.377.171-.673.177-.572 1.944-4.5.479-.603.544-.775.032-.079-.047-.634-.36-.485-.114-.041-2.344-.259-.639.495-.023.808.031.29-.196.187-3.402 1.081-1.163-3.73.407-.799.443-.189.086-.07.518-.823-.675-1.159-.639-.862-1.418-1.607-1.528-.619-.652.181-.388.007-.101-.04-.298-.306-1.56-2.665-.008-.799.016-.494.14-.604-.165.15-1.623.885-.556.229-2.488.077-3.017-1.442-.032-.158.11-.28.094-.079.106-.031.133-.173.125-.234.078-1.404-.195-.627-1.09-.667-.11-.022-1.203.055-.601.462-.478.69-1.85 2.548-2.822-.886-2.366-.979-.655-.423-.236-.628 1.967-1.489.922-.626 1.747.14.04.274.079.164.187.141.31.102 2.313-.109 4.087-4.154.055-.086 3.542-.199 4.05-.06.219-.385.78-.972.18-.18.118-.063.992-.166 1.921.37.019.023.242.422.024.079.647 2.633-.051-.227.309-.855.283-.32.458-.589.329-.188.521.11h.141l.819-.76.501-1.663.008-.447-1.889-4.621-.039-2.746.749-.016.984-.884-.204-.581-.333-.219-.384-.478-.392-.807-.349-1.866-.11-2.579-.008-.298.016-.26.156-1.33.279-1.059-.592-.385-.251-.204-.184-.202-.157-.299-.109-.453.031-.424.087-.344.102-.181.125-.133.191-.118.533-.118.491-.102.047-.766.181-1.38.297-.504.412-.415.117-.501.196-1.794-.039-2.203-.134-2.525-.607-.555-.634-.683-.063-.101-.185-.479-.642-2.077v-.36l-.224-.495-.25-1.299-.11-.589-.905-6.56-.718-.69-2.123-3.332-.601-1.129-.29-1.482 1.118-2.623.101-.158.913-1.661.212-1.271-.118-.524-.234-.355 1.18-.092 2.449-1.395.701.539.851 1.005 1.701-.361 3.519-3.095-.149-.417-.176-.375 1.153-.605.181-.077.359-.048.694.307h.428l.485-.063.795-.463.063-2.899-.039-.448-.718-4.255-.967-1.333-.875-1.222-.423-.596.039-.995.039-.165.632-1.812 2.999.948.458.15 3.542-.768 1.196-.062.259.189.103.133.039.227-.737 1.607-.318.227-.077.14.038.181.024.016.748-.033 1.616-.516 1.086-1.2.25-.321-.234-.471-.166.01-.466-.457-.502-1.903-.047-.634-1.881-.618-.153.015-.195-2.431.513-.218.897-2.329.015-.047.259-3.81.095-4.57-.283-1.387-.361-.463-.066-.086-.96-.994-.533-1.459-.111-.259-4.529-3.301-3.101-1.315-.118-.769.009-.517h.109l.314-.148-.984-4.946-1.536-2.783-1.274-.534-1.11-.578-1.919-1.31-.216-.258-.024-.126.157-4.618.709-2.004-.4-.635-1.457-3.214-.072-.251-.03-.213.219-2.616.235-.464 1.693-.054.506-.227.203-.345.055-.157-.463-1.253-.843-1.694-.874-2.906-.109-.043-.748-.977-.04-.463.031-.14.164-.353.292-.275-.212-1.002-.601-1.325-.494-.824-.834-.156-.251.07-1.128 1.072-.04.065.181.242.489.439.466.11-.395.689-.141.157-1.599 1.788-.265.094-3.003.187-1.133-.265-.141-.079-.599-.603.101-.502.303-.32.125-.292.022-.086.118-3.11-.118-.808-.022-.086-.514-1.653-.086-.204-.196-.048-.345.032-.215.039-1.273-2.005-.173-.737-1.756-6.2-.514-.526-1.266-1.252-.818.282-3.12 1.072-1.967 1.12-.655.316-.399.056-1.071-.582-.371-.541.281-1.026.082-.064.409-.202.046-.229.467-4.435-.106-.729-.906.424-3.164 3.065-.101.063-.172-.008-.192-.087-1.905-1.239-.211-.18-.173-.298-.047-.156.031-.281.126-.432.008-.198-.062-.147-.208-.198-.166-.14-.172-.048-.96.102-.133.119-.298.392-.49.776-.92-.376-4.127.196-1.67.189-.322.04-.196.086-.094.178v.425l.353 1.378 1.118 1.881.654.996.458.063.541-.055.235-.062.031-1.207-.11-.393.263-.424.673.172.766 1.302.324 1.255-.561 2.452.392.371-.156.398-.503.619-1.097.204-1.728-.548-2.207-.329-.937 1.355-.513.832.419.595.055.173-1.795 2.28-.427.242-.874.266-.448.103-.96.181-3.668-.016-.146-.022-.72-.285-.663-1.213.607-5.166 1.006-2.761.369-.178 1.204-3.199-.875-3.935-.134-.093-.172-.055-.576-.126-.29-.016-3.23-3.229-.195-.21-.071-.291-.086-1.066-.023-.471.156-.04.678.079-.529-.697-.078-.174-.281-2.257-.072-1.527-.109-2.116-.279-2.243-.031-.163-.258-.354 1.17-.658-.265-2.885-.102-.204-.235-.202-.103-.048-.38-.117-.431-.016-.224.047-.96-.829.482-.974.345-1.841.544-.879.385-.452.094-.071 9.987-2.745 7.188 1.405.227.061.079.095 1.378 3.199.4.32h.145l.999-.109 3.787-.682.297-.878v-.595l-.321-.77-.181-.909-.497-3.01.262-2.531.882-1.875.808.275 2.261.579.576-.015 1.18-.077.094-.08.055-.312.694-1.764.513-.948.243-.401.094-.124 1.266-.455h.506l.071-.023.537-.211 1.195-1.082.569-.566.322-.594.085-.29.063-.824-.063-1.215-.188-.417-.513-.744.506-.469.118-.244.418-1.591.259-1.174 2.638-.77.565.447 1.661.69 1.145-.132.89-.369.866-.533.897-.728 1.18-.683 2.614-2.813.687-1.019.345-.98.227-1.223-.032-.564.209-.063.273-.133.733-.729 1.345-1.489 4.924-.526.398.039 1.365 1.788 1.077 1.459 3.465 1.449.404.328.376.392 1.803 3.818.292 1.794.014.432.397.557.125.014 1.372.15.69-.313.655-.33.189.752.224.878 1.692 1.852 2.968 1.112 2.256.517-.195 2.085-.252 2.649.49 2.131.314.864.141.328 1.356.33 3.88 1.426.203-.03.141-.064.333-.565-.102-1.3-.109-.048-.028-1.26.052-.159.219-.164.43.086 1.796.415 2.096.479.212.032.513-.134.509-.345.104-.134.164-.447-.039-1.019-.306-.392-.439-.227-.949-.313-.462-.109-.126-.041-4.079-2.882-.275-.229-.062-.275-.134-2.265.158-.697 5.564-2.273 4.923-.032h.117l.141.032.409.416.843 1.505.995 1.089 2.661.471.297.04 1.009-.346.865-.368.282-.854.091-.079.556-.125.662.008 1.204 1.011 1.006 1.756-.031.454-.313.102-.417.305-.238.213-.313.353-.079.43.072.361.024.078.512.752 1.642 1.583.608-.022.07-.102.693-1.404 2.31-.376 1.485-5.095v-.047l-.89-5.606-.219-.619-.329-.116-.513-.354-.086-1.583v-.148l.11-.463.164-.189.318-.101.337.101.07.119 1.126-.519 1.63-1.315.165-.557.803-.854.126-.047 1.167-.157 2.576.495.197.163.242.354.42.61v.111l-.204.502-.051.077-.329-.008-.329.486-.11 1.167.032 1.56.063.416.077.134 1.471.87 1.3-.157.408 1.622.49.878 1.242 1.389.436.21 1.4-.43.324-.307.016-.156.117-.572.117-.188.117-.078.976-.204.288.142.211.156.313.361.42.391.22.126h.156l9.253-1.27 3.045-1.083Z"/><path d="m652.494 473.087 3.959-7.614h2.271l-5.23 9.51v5.657h-2v-5.657l-5.229-9.51h2.292Zm-17.333 7.553v-15.167h4.958q2.469 0 3.709 1.021 1.25 1.02 1.25 3.021 0 1.062-.604 1.885-.605.813-1.646 1.26 1.229.344 1.937 1.313.719.959.719 2.292 0 2.041-1.323 3.208t-3.739 1.167Zm2-7.094v5.458h3.302q1.396 0 2.198-.719.813-.728.813-2 0-2.739-2.98-2.739Zm0-1.604h3.021q1.313 0 2.094-.657.79-.656.791-1.781 0-1.25-.729-1.812-.728-.573-2.219-.573h-2.958Z" class="label-text"/></g></svg>