<svg xmlns="http://www.w3.org/2000/svg" fill="none" viewBox="0 0 423 100"><path fill="#1f1e1e" d="M80.175 67.384q-3.792 0-7.344-1.152-3.504-1.2-5.52-3.072l1.776-3.744q1.92 1.728 4.896 2.832a18.7 18.7 0 0 0 6.192 1.056q4.176 0 6.24-1.392 2.064-1.44 2.064-3.792 0-1.728-1.152-2.784-1.104-1.104-2.784-1.68-1.632-.576-4.656-1.296-3.792-.912-6.144-1.824a10.5 10.5 0 0 1-3.984-2.784q-1.632-1.92-1.632-5.136 0-2.688 1.392-4.848 1.44-2.16 4.32-3.456t7.152-1.296q2.976 0 5.856.768t4.944 2.208l-1.584 3.84a16.8 16.8 0 0 0-4.512-2.016q-2.4-.72-4.704-.72-4.08 0-6.144 1.488-2.016 1.488-2.016 3.84 0 1.728 1.152 2.832 1.152 1.056 2.832 1.68 1.728.576 4.656 1.248 3.792.912 6.096 1.824a10.06 10.06 0 0 1 3.936 2.784q1.68 1.872 1.68 5.04 0 2.64-1.44 4.848-1.44 2.16-4.368 3.456-2.928 1.248-7.2 1.248m33.124 0q-5.04 0-9.12-2.208-4.032-2.256-6.336-6.144-2.304-3.936-2.304-8.832t2.304-8.784q2.304-3.936 6.384-6.144 4.08-2.256 9.12-2.256 3.936 0 7.2 1.344a14.5 14.5 0 0 1 5.568 3.888l-3.12 3.024q-3.792-3.984-9.456-3.984-3.744 0-6.768 1.68a12.3 12.3 0 0 0-4.752 4.656q-1.68 2.928-1.68 6.576t1.68 6.624q1.728 2.928 4.752 4.608t6.768 1.68q5.616 0 9.456-4.032l3.12 3.024q-2.304 2.592-5.616 3.936-3.264 1.344-7.2 1.344M153.507 67l-7.248-10.32q-1.344.096-2.112.096h-8.304V67h-4.8V33.4h13.104q6.528 0 10.272 3.12t3.744 8.592q0 3.888-1.92 6.624t-5.472 3.984L158.739 67zm-9.504-14.304q4.56 0 6.96-1.968t2.4-5.616-2.4-5.568q-2.4-1.968-6.96-1.968h-8.16v15.12zm41.403 5.904H167.55l-3.696 8.4h-4.944l15.216-33.6h4.752L194.142 67h-5.04zm-1.68-3.84-7.248-16.464-7.248 16.464zm18.493-17.184h-11.52V33.4h27.792v4.176h-11.52V67h-4.752zm34.135 29.808q-5.04 0-9.12-2.208-4.032-2.256-6.336-6.144-2.304-3.936-2.304-8.832t2.304-8.784q2.304-3.936 6.384-6.144 4.08-2.256 9.12-2.256 3.936 0 7.2 1.344a14.5 14.5 0 0 1 5.568 3.888l-3.12 3.024q-3.792-3.984-9.456-3.984-3.744 0-6.768 1.68a12.3 12.3 0 0 0-4.752 4.656q-1.68 2.928-1.68 6.576t1.68 6.624q1.728 2.928 4.752 4.608t6.768 1.68q5.616 0 9.456-4.032l3.12 3.024q-2.304 2.592-5.616 3.936-3.264 1.344-7.2 1.344M282.993 33.4V67h-4.8V52.024h-19.296V67h-4.8V33.4h4.8v14.448h19.296V33.4zm50.26 33.6-.048-24.48-12.144 20.4h-2.208l-12.144-20.256V67h-4.608V33.4h3.936l14.016 23.616L333.877 33.4h3.936l.048 33.6zm34.18-8.4h-17.856l-3.696 8.4h-4.944l15.216-33.6h4.752L376.169 67h-5.04zm-1.68-3.84-7.248-16.464-7.248 16.464zm26.612-21.36q6.528 0 10.272 3.12t3.744 8.592-3.744 8.592-10.272 3.12h-8.304V67h-4.8V33.4zm-.144 19.248q4.56 0 6.96-1.92 2.4-1.968 2.4-5.616t-2.4-5.568q-2.4-1.968-6.96-1.968h-8.16v15.072z" class="logo"/><path stroke="#1f1e1e" stroke-linecap="square" stroke-width="4" d="M30.486 67.949v11.218M21.368 79.167h18.238M30.487 20.833c3.948 0 7.837.938 11.327 2.73a24 24 0 0 1 8.702 7.557 23.15 23.15 0 0 1 4.06 10.632 22.94 22.94 0 0 1-1.521 11.243 23.6 23.6 0 0 1-6.752 9.249 24.5 24.5 0 0 1-10.418 5.112 24.9 24.9 0 0 1-11.668-.208A24.46 24.46 0 0 1 14 61.667" class="icon"/><path stroke="#1f1e1e" stroke-linecap="square" stroke-width="4" d="M30.485 58.98c8.292 0 15.014-6.532 15.014-14.589s-6.722-14.588-15.014-14.588-15.014 6.531-15.014 14.588S22.193 58.98 30.485 58.98Z" class="icon"/></svg>