<svg xmlns="http://www.w3.org/2000/svg" width="48" height="48"><path d="M38.839 1c-4.349.01-7.926 3.662-8.133 8.303l-15.837 8.22c-2.345-2.45-5.835-3.164-8.86-1.81C2.983 17.067 1.01 20.224 1 23.73c.005 3.447 1.91 6.567 4.86 7.961s6.392.802 8.782-1.513l16.05 8.575c.237 4.67 3.88 8.308 8.255 8.247 4.377-.06 7.93-3.798 8.053-8.473-.01-3.544-2.027-6.73-5.103-8.058s-6.598-.535-8.91 2.006l-15.689-8.38a9 9 0 0 0 .025-.365l-.002-.026 15.537-8.064c2.282 2.625 5.834 3.492 8.956 2.186S46.993 13.306 47 9.724c0-2.314-.858-4.532-2.39-6.169C43.08 1.92 41.005 1 38.84 1"/></svg>