<svg xmlns="http://www.w3.org/2000/svg" width="1200" height="600" viewBox="0 0 1200 600"><g class="entities"><g data-state-name="Alabama"><path d="m777.822 463.206-1.49-14.321-2.748-18.753.161-14.064.809-31.039-.162-16.651.165-6.419 44.484-3.62-.147 2.183.161 2.101.647 3.395 3.395 7.921 2.425 9.862 1.455 6.143 1.616 4.85 1.455 6.951 2.102 6.305 2.586 3.395.485 3.395 1.94.808.162 2.102-1.778 4.849-.485 3.234-.162 1.939 1.617 4.365.323 5.335-.808 2.425.646.808 1.455.809.328 2.888-5.597-.353-6.79.647-25.542 2.909-10.412 1.407-.221 2.878 1.778 1.778 2.587 1.94.58 7.935-5.542 2.573-2.748-.323 2.748-1.94v-.97l-3.071-5.982-2.263-.646-1.455 4.365-1.294 2.748-.646-.162Z"/><path d="M807.64 411.834h7.187v1.635h-9.198v-15.166h2.011Zm-7.552-2.323h-6.354l-1.427 3.958h-2.063l5.792-15.166h1.75l5.802 15.166h-2.052Zm-5.75-1.646h5.156l-2.583-7.094Z" class="label-text"/></g><g data-state-name="Alaska"><path d="m238.641 454.449-.323 85.357 1.616.97 3.072.162 1.455-1.132h2.586l.162 2.91 6.951 6.79.485 2.586 3.395-1.94.647-.161.323-3.072 1.455-1.616 1.132-.162 1.94-1.455 3.071 2.102.647 2.909 1.94 1.132 1.132 2.425 3.879 1.778 3.395 5.982 2.749 3.88 2.263 2.748 1.455 3.718 5.011 1.778 5.173 2.102.97 4.365.485 3.071-.97 3.395-1.778 2.263-1.616-.808-1.455-3.071-2.749-1.455-1.778-1.132-.808.808 1.455 2.749.161 3.718-1.131.485-1.94-1.94-2.102-1.293.485 1.616 1.294 1.778-.809.809s-.808-.324-1.293-.97c-.485-.647-2.102-3.395-2.102-3.395l-.97-2.263s-.323 1.293-.97.97c-.646-.324-1.293-1.455-1.293-1.455l1.778-1.94-1.455-1.455v-5.012h-.808l-.808 3.395-1.132.485-.97-3.718-.646-3.718-.809-.485.324 5.658v1.131l-1.455-1.293-3.557-5.981-2.102-.485-.646-3.718-1.617-2.91-1.616-1.132v-2.263l2.101-1.294-.485-.323-2.586.647-3.395-2.425-2.587-2.91-4.85-2.587-4.041-2.586 1.293-3.233v-1.617l-1.778 1.617-2.91 1.131-3.718-1.131-5.658-2.425h-5.497l-.647.485-6.466-3.88-2.102-.324-2.748-5.819-3.556.323-3.557 1.455.485 4.526 1.132-2.909.97.323-1.455 4.365 3.233-2.749.647 1.617-3.88 4.365-1.294-.323-.485-1.94-1.293-.809-1.293 1.132-2.748-1.778-3.072 2.101-1.778 2.102-3.395 2.101-4.688-.161-.485-2.102 3.718-.646v-1.294l-2.263-.646.97-2.425 2.263-3.88v-1.778l.162-.809 4.364-2.263.97 1.293h2.749l-1.294-2.586-3.718-.324-5.011 2.749-2.425 3.395-1.779 2.586-1.131 2.263-4.203 1.455-3.072 2.587-.323 1.617 2.263.969.808 2.102-2.748 3.233-6.466 4.204-7.76 4.203-2.102 1.131-5.335 1.132-5.334 2.263 1.778 1.293-1.455 1.455-.485 1.132-2.748-.97-3.233.162-.809 2.263h-.97l.324-2.425-3.557 1.293-2.91.97-3.395-1.293-2.91 1.94h-3.233l-2.101 1.293-1.617.809-2.102-.324-2.586-1.131-2.264.646-.97.97-1.616-1.131v-1.94l3.071-1.294 6.305.647 4.365-1.617 2.102-2.101 2.91-.647 1.778-.808 2.748.162 1.617 1.293.97-.323 2.263-2.749 3.071-.97 3.395-.646 1.294-.324.646.485h.809l1.293-3.718 4.041-1.455 1.94-3.718 2.264-4.527 1.616-1.454.324-2.587-1.617 1.293-3.395.647-.647-2.425-1.293-.323-.97.97-.161 2.909-1.455-.161-1.455-5.82-1.294 1.293-1.131-.485-.324-1.94-4.041.162-2.102 1.132-2.586-.324 1.455-1.455.485-2.586-.647-1.94 1.455-.97 1.293-.162-.646-1.778v-4.365l-.97-.97-.809 1.455h-6.143l-1.455-1.293-.646-3.88-2.102-3.557v-.97l2.102-.808.161-2.101 1.132-1.132-.808-.485-1.294.485-1.131-2.748.97-5.012 4.526-3.233 2.587-1.617 1.94-3.718 2.748-1.293 2.586 1.131.324 2.425 2.425-.323 3.233-2.425 1.617.647.969.646h1.617l2.263-1.293.809-4.365s.323-2.91.97-3.395c.646-.485.97-.97.97-.97l-1.132-1.939-2.587.808-3.233.808-1.94-.485-3.556-1.778-5.012-.162-3.556-3.718.485-3.88.646-2.425-2.101-1.778-1.94-3.718.485-.809 6.789-.485h2.102l.97.97h.647l-.162-1.616 3.88-.647 2.586.323 1.455 1.132-1.455 2.102-.485 1.455 2.749 1.616 5.011 1.779 1.779-.97-2.264-4.365-.97-3.234.97-.808-3.395-1.94-.485-1.131.485-1.617-.808-3.88-2.91-4.688-2.425-4.203 2.91-1.94h3.233l1.779.646 4.203-.161 3.718-3.557 1.132-3.071 3.718-2.425 1.616.97 2.749-.647 3.718-2.101 1.132-.162.97.808 4.526-.161 2.748-3.072h1.132l3.556 2.425 1.94 2.101-.485 1.132.647 1.132 1.617-1.617 3.88.323.323 3.719 1.94 1.455 7.113.646 6.305 4.203 1.455-.97 5.173 2.587 2.101-.647 1.94-.808 4.85 1.94Zm-115.103 28.937 2.102 5.335-.162.97-2.91-.323-1.778-4.042-1.778-1.455h-2.425l-.162-2.586 1.778-2.425 1.132 2.425 1.455 1.455Zm-2.586 33.464 3.718.808 3.718.97.808.97-1.616 3.719-3.072-.162-3.395-3.557Zm-20.693-14.064 1.132 2.586 1.131 1.617-1.131.808-2.102-3.071v-1.94Zm-13.741 73.07 3.395-2.263 3.395-.97 2.586.324.485 1.616 1.94.485 1.94-1.94-.323-1.616 2.748-.647 2.91 2.587-1.132 1.778-4.365 1.131-2.748-.485-3.718-1.131-4.365 1.455-1.617.323Zm48.983-4.526 1.617 1.94 2.101-1.617-1.455-1.293Zm2.91 3.072 1.132-2.264 2.101.324-.808 1.94Zm23.603-1.94 1.455 1.778.97-1.132-.809-1.94Zm8.729-12.448 1.132 5.819 2.91.809 5.011-2.91 4.365-2.587-1.616-2.425.485-2.425-2.102 1.294-2.91-.809 1.617-1.131 1.94.808 3.879-1.778.485-1.455-2.424-.808.808-1.94-2.748 1.94-4.689 3.556-4.849 2.91Zm42.356-19.885 2.424-1.455-.97-1.778-1.778.97Z"/><path d="m202.662 493.088-1.854 1.927v5.125h-2v-15.167h2v7.5l6.739-7.5h2.417l-5.969 6.698 6.438 8.469h-2.396Zm-9.396 3.093h-6.354l-1.427 3.959h-2.063l5.792-15.167h1.75l5.802 15.167h-2.052Zm-5.75-1.646h5.156l-2.583-7.093Z" class="label-text"/></g><g data-state-name="Arizona"><path d="m291.427 385.42-2.627 2.158-.323 1.455.485.97 18.914 10.669 12.125 7.598 14.711 8.569 16.812 10.022 12.287 2.425 24.951 2.705 17.255-119.127-83.735-11.917-3.093 16.412-1.606.016-1.715 2.629-2.514-.114-1.258-2.744-2.743-.343-.915-1.143h-.914l-.915.572-1.943 1.028-.114 6.973-.229 1.715-.572 12.574-1.486 2.172-.571 3.315 2.743 4.916 1.258 5.83.8 1.028 1.029.572-.115 2.286-1.6 1.372-3.429 1.714-1.944 1.944-1.486 3.658-.571 4.915-2.858 2.744-2.058.685.136.83-.457 1.715.457.8 3.658.572-.571 2.743-1.487 2.172z"/><path d="M354.166 364.905h8.677v1.635h-11.042v-1.5l8.313-12.021h-8.177v-1.646h10.573v1.469Zm-7.042-2.323h-6.354l-1.427 3.958h-2.062l5.791-15.167h1.75l5.802 15.167h-2.052Zm-5.75-1.646h5.156l-2.583-7.094Z" class="label-text"/></g><g data-state-name="Arkansas"><path d="m740.341 345.843-3.98.717-5.112-.634.42-1.602 2.98-2.567.944-3.656-1.829-2.972-78.418 2.515 1.6 6.859v8.23l1.372 10.974.229 37.837 2.286 1.943 2.972-1.372 2.744 1.144.68 6.573 55.621-1.141 1.146-2.09-.287-3.55-1.825-2.972 1.598-1.485-1.598-2.511.684-2.51 1.368-5.606 2.518-2.062-.686-2.285 3.658-5.372 2.744-1.368-.114-1.494-.345-1.825 2.857-5.599 2.403-1.257.384-3.427 1.771-1.242-3.144-.484-1.341-4.011 2.804-2.376.55-2.02 1.28-4.046Z"/><path d="M699.384 369.835h-3.563v6.135h-2.01v-15.167h5.021q2.562 0 3.937 1.167 1.385 1.167 1.385 3.396 0 1.416-.77 2.469-.761 1.051-2.125 1.573l3.562 6.437v.125h-2.146Zm-3.563-1.636h3.073q1.49 0 2.365-.771.885-.77.885-2.062 0-1.406-.844-2.156-.833-.75-2.416-.761h-3.063Zm-7.541 3.813h-6.355l-1.427 3.958h-2.062l5.791-15.167h1.75l5.803 15.167h-2.053Zm-5.75-1.646h5.156l-2.584-7.094Z" class="label-text"/></g><g data-state-name="California"><path d="m291.21 384.989 3.941-.489 1.486-2.011.544-2.941-3.551-.591-.515-.668.478-2.032-.159-.59 1.922-.619 3.043-2.833.582-4.995 1.379-3.402 1.944-2.167 3.519-1.589 1.654-1.605.069-2.109-.994-.58-1.023-1.073-1.155-5.848-2.685-4.83.566-3.505-2.42-1.029-69.061-104.179 18.902-67.601-67.08-15.698-1.507 4.733-.162 7.436-5.173 11.801-3.071 2.587-.324 1.132-1.778.808-1.455 4.203-.808 3.233 2.748 4.204 1.617 4.203 1.131 3.556-.323 6.467-1.778 3.071-.647 5.82-.97 3.718 1.778 3.88 2.749 4.527 2.263 4.849 1.293 4.042-.323 3.233-.323.485v2.102l5.658 6.304-.485 2.425-.647 2.264-.647 1.939.162 8.245 2.102 3.718 1.94 2.587 2.748.485.97 2.748-1.132 3.557-2.101 1.616h-1.132l-.808 3.88.485 2.91 3.233 4.365 1.616 5.335 1.455 4.688 1.294 3.071 3.394 5.82 1.455 2.587.485 2.91 1.617.97v2.424l-.808 1.94-1.779 7.113-.485 1.94 2.425 2.749 4.204.485 4.526 1.778 3.88 2.101h2.91l2.91 3.072 2.586 4.85 1.132 2.263 3.88 2.102 4.85.808 1.454 2.101.647 3.234-1.455.646.323.97 3.234.809 2.748.161 3.16-1.687 3.88 4.204.808 2.263 2.587 4.203.323 3.233v9.377l.485 1.778 10.023 1.455 19.722 2.748zm-88.135-43.717 1.294 1.536-.162 1.293-3.233-.081-.566-1.212-.647-1.455zm1.94 0 1.213-.647 3.556 2.102 3.072 1.212-.889.647-4.527-.242-1.617-1.617Zm20.693 19.803 1.778 2.345.808.97 1.536.565.566-1.455-.97-1.778-2.667-2.021-1.051.162Zm-1.455 8.649 1.778 3.153 1.213 1.94-1.455.242-1.294-1.212s-.727-1.455-.727-1.859v-2.183z"/><path d="M232.38 289.397h-6.354l-1.428 3.958h-2.062l5.792-15.167h1.75l5.802 15.167h-2.052Zm-5.75-1.646h5.156l-2.583-7.094Zm-5.354.791q-.282 2.407-1.782 3.719-1.49 1.302-3.968 1.302-2.688 0-4.313-1.927-1.614-1.927-1.614-5.156v-1.458q0-2.115.75-3.719.76-1.605 2.145-2.459 1.386-.864 3.209-.864 2.416 0 3.875 1.354 1.458 1.344 1.698 3.729h-2.011q-.26-1.812-1.135-2.625-.865-.812-2.427-.812-1.917 0-3.011 1.416-1.083 1.417-1.083 4.032v1.468q0 2.469 1.031 3.927 1.031 1.46 2.886 1.459 1.666 0 2.552-.75.896-.76 1.187-2.636Z" class="label-text"/></g><g data-state-name="Colorado"><path d="m526.548 323.755 4.904-86.325-113.389-12.644-12.214 87.939Z"/><path d="M482.766 275.064q0 2.23-.75 3.896-.75 1.656-2.125 2.531t-3.209.875q-1.791 0-3.177-.875-1.385-.885-2.156-2.51-.76-1.635-.781-3.781v-1.094q0-2.187.76-3.865.76-1.677 2.146-2.562 1.395-.896 3.187-.896 1.824 0 3.209.886 1.395.875 2.146 2.552.75 1.667.75 3.885Zm-1.99-.979q0-2.698-1.083-4.135-1.084-1.448-3.032-1.448-1.895 0-2.989 1.448-1.083 1.437-1.115 4v1.114q0 2.615 1.094 4.115 1.104 1.49 3.031 1.49 1.938 0 3-1.407 1.063-1.416 1.094-4.052Zm-12.406 3.261q-.282 2.406-1.782 3.718-1.489 1.302-3.968 1.302-2.687 0-4.313-1.927-1.614-1.926-1.614-5.156v-1.458q0-2.115.75-3.719.76-1.604 2.145-2.458 1.386-.865 3.209-.865 2.417 0 3.875 1.354 1.458 1.344 1.698 3.729h-2.011q-.26-1.812-1.135-2.625-.865-.812-2.427-.812-1.917 0-3.011 1.417-1.083 1.416-1.083 4.031v1.469q0 2.468 1.031 3.927 1.032 1.458 2.886 1.458 1.667 0 2.552-.75.896-.76 1.187-2.635Z" class="label-text"/></g><g data-state-name="Connecticut"><path d="m1020.58 181.653-3.67-14.878-4.72.92-21.231 4.743 1 3.226 1.455 7.274.177 8.967-1.22 2.175 1.921 1.933 4.271-3.906 3.557-3.233 1.94-2.102.81.647 2.75-1.455 5.17-1.132Z"/><path d="M1063.71 207.791h44.54c2.9 0 5.23 2.217 5.23 4.971v20.057c0 2.754-2.33 4.972-5.23 4.972h-44.54c-2.9 0-5.23-2.218-5.23-4.972v-20.057c0-2.754 2.33-4.971 5.23-4.971" class="label-box"/><path d="M1098.27 216.853h-4.87v13.521h-1.99v-13.521h-4.87v-1.646h11.73Zm-12.9 8.708c-.19 1.605-.78 2.844-1.78 3.719-1 .868-2.32 1.302-3.97 1.302q-2.685 0-4.32-1.927c-1.07-1.285-1.61-3.003-1.61-5.156v-1.458q0-2.115.75-3.719c.51-1.07 1.22-1.889 2.15-2.459.92-.576 1.99-.864 3.2-.864 1.62 0 2.91.451 3.88 1.354.97.896 1.54 2.139 1.7 3.729h-2.01q-.27-1.812-1.14-2.625c-.58-.541-1.38-.812-2.43-.812-1.27 0-2.28.472-3.01 1.416q-1.08 1.417-1.08 4.032v1.468c0 1.646.34 2.955 1.03 3.927.69.973 1.65 1.459 2.89 1.459q1.665 0 2.55-.75c.6-.507.99-1.386 1.19-2.636Z" class="label-text"/><path d="M1057.48 221.404h-28.25v-35.15l-14.04.001v-1.059l-1.84-.003v2.562h14.25v35.15h29.88Z" class="label-connector"/></g><g data-state-name="Delaware"><path d="m972.142 231.07.368-2.147.375-1.691-1.623.397-1.615.468-2.206 1.764 1.72 5.043 2.263 5.658 2.102 9.7 1.616 6.305 5.012-.162 6.142-1.181-2.264-7.386-.97.485-3.557-2.425-1.778-4.688-1.94-3.556-3.147-2.871-.864-2.098Z"/><path d="M1063.71 281.791h44.54c2.9 0 5.23 2.217 5.23 4.971v20.057c0 2.754-2.33 4.972-5.23 4.972h-44.54c-2.9 0-5.23-2.218-5.23-4.972v-20.057c0-2.754 2.33-4.971 5.23-4.971" class="label-box"/><path d="M1096.73 297.363h-6.57v5.375h7.63v1.636h-9.63v-15.167h9.53v1.646h-7.53v4.875h6.57Zm-22.56 7.011v-15.167h4.28c1.32 0 2.49.292 3.5.875a5.85 5.85 0 0 1 2.34 2.49c.56 1.076.84 2.312.85 3.708v.969q0 2.146-.84 3.76a5.7 5.7 0 0 1-2.36 2.479q-1.53.865-3.57.886Zm2-13.521v11.885h2.1q2.31 0 3.6-1.437t1.29-4.094v-.885c0-1.722-.41-3.059-1.22-4.011-.81-.958-1.95-1.444-3.44-1.458Z" class="label-text"/><path d="M1056.81 295.154h-37.46v-45.75h-32.249v1.5h30.379v45.875h39.31Z" class="label-connector"/></g><g data-state-name="Florida"><path d="m906.333 441.933 2.265 7.319 3.73 9.742 5.335 9.376 3.718 6.305 4.85 5.497 4.041 3.718 1.617 2.91-1.132 1.293-.808 1.293 2.91 7.437 2.91 2.91 2.586 5.334 3.557 5.82 4.526 8.245 1.294 7.598.485 11.963.646 1.778-.323 3.395-2.425 1.293.323 1.94-.646 1.94.323 2.425.485 1.94-2.748 3.233-3.072 1.455-3.88.162-1.455 1.616-2.424.97-1.294-.485-1.131-.97-.324-2.91-.808-3.394-3.395-5.174-3.556-2.263-3.88-.323-.808 1.293-3.072-4.365-.647-3.556-2.586-4.042-1.779-1.131-1.616 2.101-1.778-.323-2.102-5.012-2.91-3.879-2.91-5.335-2.586-3.072-3.557-3.718 2.102-2.425 3.233-5.496-.162-1.617-4.526-.97-1.617.647.324.646 2.586.97-1.455 4.527-.808.485-1.778-4.042-1.294-4.849-.323-2.749 1.455-4.688v-9.538l-3.072-3.718-1.293-3.072-5.173-1.293-1.94-.646-1.617-2.587-3.394-1.617-1.132-3.395-2.748-.969-2.425-3.719-4.203-1.455-2.91-1.455h-2.587l-4.041.809-.162 1.94.808.97-.485 1.131-3.071-.161-3.718 3.556-3.557 1.94h-3.88l-3.233 1.293-.323-2.748-1.617-1.94-2.91-1.131-1.616-1.455-8.083-3.88-7.599-1.779-4.364.647-5.982.485-5.981 2.102-3.479.613-.238-8.05-2.587-1.94-1.778-1.778.323-3.072 10.185-1.293 25.542-2.91 6.79-.647 5.436.281 2.586 3.879 1.455 1.455 8.099.516 10.819-.647 21.513-1.293 5.445-.675 5.108.205.427 2.91 2.233.808.235-4.63-1.528-4.173 1.308-1.44 5.555.455Zm12.545 132.405 2.425-.646 1.293-.243 1.455-2.344 2.344-1.616 1.294.485 1.697.323.404 1.051-3.475 1.212-4.204 1.455-2.344 1.213Zm13.499-5.011 1.212 1.051 2.749-2.102 5.334-4.203 3.719-3.88 2.505-6.628.97-1.697.162-3.395-.728.485-.97 2.829-1.455 4.607-3.233 5.254-4.365 4.203-3.394 1.94Z"/><path d="M912.751 495.313h7.188v1.636h-9.198v-15.167h2.01Zm-5.437-5.062h-6.365v6.698h-2v-15.167h9.396v1.646h-7.396v5.187h6.365Z" class="label-text"/></g><g data-state-name="Georgia"><path d="M818.808 358.342v2.183l.162 2.101.647 3.395 3.394 7.922 2.425 9.861 1.455 6.143 1.617 4.85 1.455 6.951 2.101 6.305 2.587 3.395.485 3.395 1.94.808.162 2.102-1.779 4.849-.485 3.234-.161 1.94 1.616 4.364.324 5.335-.809 2.425.647.808 1.455.809.205 3.218 2.233 3.349 2.25 2.162 7.921.162 10.82-.647 21.513-1.293 5.445-.674 4.578.028.161 2.909 2.587.809.323-4.365-1.616-4.527 1.131-1.616 5.82.808 4.977.318-.775-6.299 2.263-10.023 1.455-4.203-.485-2.587 3.335-6.244-.511-1.352-1.913.705-2.587-1.293-.646-2.102-1.294-3.556-2.263-2.102-2.587-.647-1.616-4.85-2.925-6.335-4.203-1.939-2.102-1.94-1.293-2.587-2.102-1.94-2.263-1.293-2.263-2.91-3.072-2.263-4.526-1.779-.485-1.455-2.425-2.909-.485-1.455-3.395-4.971-3.52.099-3.755-2.356-1.418-1.293-.323-1.778.87-1.94 2.227-1.11-.634-2.098Z"/><path d="M874.431 406.669h-6.355l-1.427 3.958h-2.062l5.792-15.166h1.75l5.802 15.166h-2.052Zm-5.75-1.646h5.156l-2.583-7.094Zm-5.959 3.615q-.77 1.104-2.156 1.656-1.375.542-3.208.542-1.854 0-3.292-.865-1.437-.875-2.229-2.479-.781-1.604-.802-3.719v-1.323q0-3.426 1.594-5.312 1.604-1.886 4.5-1.886 2.375 0 3.822 1.219 1.449 1.208 1.771 3.438h-2q-.562-3.01-3.583-3.011-2.01 0-3.052 1.417-1.032 1.406-1.042 4.083v1.24q0 2.552 1.167 4.062 1.167 1.5 3.156 1.5 1.125 0 1.969-.25a3.04 3.04 0 0 0 1.396-.844V404.7h-3.511v-1.625h5.5Z" class="label-text"/></g><g data-state-name="Hawaii"><path d="m310.476 485.586 3.002-5.503 3.503-.501.5 1.251-3.252 4.753Zm15.761-5.754 9.507 4.003 3.252-.5 2.502-6.004-1.001-5.254-6.504-.751-6.255 2.752Zm47.534 15.511 5.754 8.506 3.753-.5 1.751-.75 2.252 2.001 5.754-.25 1.501-2.252-4.503-2.752-3.002-5.754-3.253-5.504-9.006 4.503Zm31.272 13.76 2.002-3.002 7.255 1.501 1.001-.75 9.506 1-.5 2.002-4.003 2.251-6.755-.5Zm8.256 8.006 3.002 6.004 4.754-1.751.5-2.502-2.502-3.252-5.754-.501Zm10.758-1.751 3.502-4.504 7.256 3.753 6.754 1.751 6.755 4.253v3.003l-5.504 2.751-7.505 1.502-3.753-2.252Zm25.768 24.017 2.502-2.002 5.254 2.502 11.758 5.504 5.254 3.252 2.502 3.753 3.002 6.755 6.254 4.003-.5 2.001-6.004 5.004-6.505 2.251-2.252-1-4.753 2.752-3.753 5.003-3.502 4.503-2.752-.25-5.504-4.003-.5-7.005 1-3.752-2.501-8.757-3.253-2.752-.25-4.002 3.503-1.502 3.252-4.753.75-1.501-2.501-2.752Z"/><path d="M472.129 567.131h-2v-15.167h2Zm-5.698 0h-2.01v-7.011h-7.646v7.011h-2v-15.167h2v6.521h7.646v-6.521h2.01Z" class="label-text"/></g><g data-state-name="Idaho"><path d="m294.995 179.274 8.771-35.22 1.371-4.23 2.515-5.944-1.257-2.286-2.515.114-.8-1.029.457-1.143.343-3.086 4.458-5.487 1.829-.457 1.143-1.143.572-3.201.914-.686 3.887-5.83 3.886-4.344.229-3.772-3.429-2.63-1.536-4.4 13.625-63.342 13.518 2.528-4.408 21.383 3.56 7.486-1.581 4.66 1.97 4.642 3.138 1.255 3.835 9.557 3.513 4.437.507 1.143 3.341 1.143.369 2.097-6.971 17.376-.165 2.566 2.631 3.322.905-.049 4.911-3.026.678-1.095 1.562.659-.278 5.354 2.739 12.582 3.918 3.178 1.681 2.166-.717 4.084 1.066 2.807 1.062 1.091 2.479-2.351 2.849.049 2.919 1.335 2.78-.682 3.794-.16 3.979 1.6 2.743-.297.497-3.037 2.933-.765 1.26 1.516.441 2.945 1.424 1.213-8.386 53.609s-87.966-16.701-94.959-18.205"/><path d="M340.485 162.537V147.37h4.282q1.979 0 3.5.875t2.343 2.489q.834 1.615.844 3.709v.969q0 2.145-.833 3.76a5.8 5.8 0 0 1-2.365 2.479q-1.531.865-3.573.886Zm2-13.521v11.885h2.105q2.312 0 3.593-1.437 1.292-1.438 1.292-4.094v-.886q0-2.583-1.219-4.01-1.208-1.437-3.437-1.458Zm-5.656 13.521h-2V147.37h2Z" class="label-text"/></g><g data-state-name="Illinois"><path d="m766.057 303.133.032-3.23.567-4.646 2.333-2.916 1.866-4.075 2.233-3.996-.371-5.252-2.005-3.543-.097-3.346.695-5.27-.825-7.178-1.067-15.778-1.293-15.017-.922-11.639-.273-.922-.808-2.586-1.293-3.718-1.617-1.779-1.455-2.586-.234-5.489-45.796 2.598.229 2.372 2.286.686.914 1.143.458 1.829 3.886 3.429.686 2.287-.686 3.429-1.829 3.658-.686 2.515-2.286 1.829-1.829.686-5.258 1.371-.686 1.829-.686 2.058.686 1.372 1.829 1.6-.229 4.115-1.829 1.601-.686 1.6v2.743l-1.829.458-1.6 1.143-.229 1.372.229 2.057-1.715 1.315-1.028 2.8.457 3.658 2.286 7.316 7.316 7.545 5.487 3.658-.229 4.344.915 1.371 6.401.458 2.744 1.371-.686 3.658-2.286 5.944-.686 3.201 2.286 3.887 6.401 5.258 4.573.686 2.057 5.03 2.058 3.2-.914 2.972 1.6 4.116 1.829 2.057 1.414-.88.908-2.075 2.213-1.747 2.131-.615 2.603 1.18 3.627 1.376 1.189-.299.2-2.258-1.288-2.412.304-2.377 1.839-1.347 3.022-.81 1.261-.459-.612-1.387-.792-2.354 1.433-.981z"/><path d="M744.256 260.556h7.187v1.636h-9.197v-15.167h2.01Zm-5.667 1.636h-2v-15.167h2Z" class="label-text"/></g><g data-state-name="Indiana"><path d="m766.086 302.762.065-2.859.485-4.526 2.263-2.91 1.778-3.88 2.587-4.203-.485-5.82-1.778-2.748-.324-3.233.809-5.497-.485-6.951-1.294-16.005-1.293-15.357-.97-11.72 3.071.889 1.455.97 1.131-.323 2.102-1.94 2.829-1.617 5.093-.162 21.986-2.264 5.576-.533 1.503 15.957 4.251 36.841.599 5.772-.372 2.263 1.228 1.795.097 1.373-2.522 1.599-3.539 1.552-3.202.55-.599 4.867-4.574 3.312-2.797 4.011.324 2.377-.582 1.534h-3.326l-1.586-1.617-2.493 1.262-2.683 1.503.162 3.055-1.194.258-.468-1.018-2.167-1.503-3.25 1.341-1.552 3.006-1.437-.808-1.455-1.599-4.465.485-5.593.97z"/><path d="M800.055 258.877h-2.011l-7.635-11.688v11.688h-2.011V243.71h2.011l7.656 11.739V243.71h1.99Zm-15.313 0h-2V243.71h2Z" class="label-text"/></g><g data-state-name="Iowa"><path d="m715.708 202.375.264 2.786 2.224.577.954 1.226.5 1.855 3.792 3.359.686 2.391-.674 3.425-1.582 3.232-.8 2.741-2.172 1.602-1.716.573-5.579 1.86-1.391 3.849.728 1.371 1.841 1.683-.283 4.036-1.763 1.538-.772 1.643.127 2.777-1.886.457-1.625 1.105-.279 1.352.279 2.115-1.551 1.116-2.471-3.133-1.262-2.45-65.736 2.515-.918.166-2.053-4.516-.228-6.63-1.601-4.116-.686-5.258-2.286-3.658-.914-4.801-2.744-7.545-1.143-5.372-1.372-2.172-1.6-2.744 1.954-4.843 1.372-5.716-2.744-2.058-.457-2.743.915-2.515h1.714l82.654-1.269.835 4.183 2.252 1.561.256 1.423-2.029 3.389.19 3.206 2.515 3.798 2.527 1.293 3.079.503Z"/><path d="M672.706 218.19h-6.355l-1.427 3.958h-2.062l5.791-15.166h1.75l5.803 15.166h-2.053Zm-5.75-1.646h5.156l-2.584-7.093Zm-6.469 5.604h-2v-15.166h2Z" class="label-text"/></g><g data-state-name="Kansas"><path d="m654.397 327.171-12.619.204-46.089-.457-44.557-2.058-24.63-1.257 3.894-64.595 22.083.675 40.289.842 44.302.987h5.095l2.185 2.163 2.017-.022 1.641 1.013-.063 3.009-1.829 1.725-.332 2.232 1.843 3.403 2.952 3.195 2.328 1.614 1.3 11.241z"/><path d="M593.524 295.169q-2.573-.74-3.75-1.812-1.167-1.084-1.167-2.667 0-1.792 1.427-2.958 1.438-1.177 3.73-1.177 1.562 0 2.781.604 1.228.604 1.896 1.666.677 1.063.677 2.323h-2.011q0-1.374-.875-2.156-.875-.792-2.468-.792-1.479 0-2.313.657-.822.645-.823 1.802 0 .927.781 1.573.792.635 2.678 1.166 1.895.532 2.958 1.177 1.073.635 1.583 1.49.52.853.521 2.01 0 1.844-1.437 2.959-1.438 1.104-3.844 1.104a7.2 7.2 0 0 1-2.917-.594q-1.354-.604-2.094-1.646a4.02 4.02 0 0 1-.729-2.364h2.011q0 1.374 1.01 2.177 1.021.792 2.719.791 1.582 0 2.427-.645.843-.647.844-1.761 0-1.114-.782-1.719-.78-.614-2.833-1.208m-13.989-.292-1.855 1.927v5.125h-2v-15.166h2v7.5l6.74-7.5h2.417l-5.969 6.698 6.437 8.468h-2.396Z" class="label-text"/></g><g data-state-name="Kentucky"><path d="m872.51 298.061-2.293 2.402-3.578 3.994-4.925 5.465-1.215 1.715-.063 2.102-4.38 2.164-5.658 3.395-7.232 1.799-51.868 4.899-15.759 1.778-4.621.513-3.869-.028-.227 4.22-8.179.145-6.952.646-7.987-.06 1.208-1.32 2.499-1.541.229-3.2.914-1.829-1.606-2.539.801-1.907 2.264-1.778 2.101-.647 2.748 1.293 3.557 1.294 1.132-.324.161-2.263-1.293-2.425.323-2.263 1.94-1.455 2.587-.647 1.616-.646-.808-1.779-.646-1.94 1.506-.995c.003-.038 1.254-3.523 1.238-3.658l3.054-1.479 5.319-.97 4.494-.485 1.393 1.628 1.528.87 1.591-3.108 3.187-1.282 2.205 1.484.411.999 1.173-.264-.161-2.953 3.13-1.75 2.149-1.073 1.529 1.661 3.318-.044.587-1.572-.367-2.263 2.6-3.998 4.777-3.438.706-4.836 2.925-.456 3.791-1.646 2.444-1.708-.199-1.565-1.142-1.455.566-2.995 4.185-.117 2.299-.746 3.348 1.429 2.054 4.365 5.132.011 2.051 2.208 1.616-.148 2.601-1.278 5.237.573 2.575.218 1.688-2.056 2.618-1.426 1.882-.707.646 2.836 2.044 1.059 2.643 2.082.117 5.673.808 1.573 2.59 1.556.772 2.295 4.16 3.436 1.805 3.624z"/><path d="m830.65 304.579 3.958-7.615h2.271l-5.229 9.51v5.657h-2v-5.657l-5.229-9.51h2.291Zm-14.146.5-1.854 1.927v5.125h-2v-15.167h2v7.5l6.739-7.5h2.417l-5.969 6.698 6.438 8.469h-2.396Z" class="label-text"/></g><g data-state-name="Louisiana"><path d="m754.483 461.952-3.285-3.166 1.01-5.501-.661-.893-9.262 1.007-25.028.459-.684-2.395.913-8.456 3.316-5.945 5.031-8.691-.574-2.398 1.256-.681.459-1.953-2.286-2.056-.112-1.942-1.83-4.346-.147-6.338-55.474.924.028 9.573.686 9.374.686 3.886 2.515 4.116.914 5.029 4.344 5.487.229 3.201.686.686-.686 8.459-2.972 5.03 1.6 2.057-.686 2.515-.686 7.316-1.371 3.201.122 3.616 4.687-1.52 12.113.207 10.346 3.556 6.467 1.132 3.718-1.455 3.233 1.132 3.233.97.809-2.102-3.234-1.131-2.586.485-2.748-1.617s.161-1.293.808-1.455 3.071-.97 3.071-.97l1.779 1.455 1.778-.97 3.233.647 1.455 2.425.323 2.263 4.527.323 1.778 1.778-.808 1.617-1.293.808 1.616 1.617 8.407 3.556 3.556-1.293.97-2.425 2.587-.646 1.778-1.455 1.293.97.808 2.909-2.263.809.647.646 3.395-1.293 2.263-3.395.808-.485-2.101-.323.808-1.617-.162-1.455 2.102-.485 1.132-1.293.646.808s-.161 3.072.647 3.072 4.203.647 4.203.647l4.042 1.94.969 1.455h2.91l1.132.969 2.263-3.071v-1.455h-1.293l-3.395-2.748-5.82-.809-3.233-2.263 1.132-2.748 2.263.323.162-.646-1.779-.97v-.485h3.234l1.778-3.072-1.293-1.94-.324-2.748-1.455.162-1.94 2.101-.646 2.587-3.072-.647-.97-1.778 1.778-1.94 1.904-3.446-1.061-2.412z"/><path d="M705.563 434.59h-6.354l-1.427 3.959h-2.063l5.792-15.167h1.75l5.802 15.167h-2.052Zm-5.75-1.646h5.156l-2.583-7.093Zm-12.292 3.969h7.188v1.636h-9.198v-15.167h2.01Z" class="label-text"/></g><g data-state-name="Maine"><path d="m1069.36 81.621 1.94 2.102 2.26 3.718v1.94l-2.1 4.688-1.94.647-3.4 3.071-4.85 5.497h-1.29c-.65 0-.97-2.102-.97-2.102l-1.78.162-.97 1.455-2.42 1.455-.97 1.455 1.61 1.455-.48.646-.49 2.748-1.94-.161v-1.617l-.32-1.293-1.46.323-1.77-3.233-2.11 1.293 1.3 1.455.32 1.132-.81 1.293.33 3.072.16 1.616-1.62 2.587-2.91.485-.32 2.91-5.34 3.071-1.29.485-1.62-1.455-3.07 3.557.97 3.233-1.45 1.293-.16 4.365-1.13 6.26-2.46-1.156-.48-3.072-3.88-1.132-.33-2.748-7.27-23.441-4.7-14.64 1.42-.118 1.51.41v-2.586l1.31-4.497 2.59-4.688 1.45-4.041-1.94-2.425v-5.982l.81-.97.81-2.748-.16-1.455-.16-4.85 1.77-4.85 2.91-8.89 2.11-4.204h1.29l1.29.162v1.131l1.3 2.264 2.74.646.81-.808v-.97l4.04-2.91 1.78-1.778 1.46.161 5.98 2.425 1.94.97 9.05 29.908h5.98l.81 1.94.16 4.85 2.91 2.263h.81l.16-.486-.48-1.131Zm-20.94 30.148 1.54-1.536 1.37 1.051.57 2.425-1.7.889Zm6.71-5.901 1.78 1.859s1.29.081 1.29-.242c0-.324.25-2.021.25-2.021l.89-.808-.81-1.779-2.02.728Z"/><path d="M1052.34 87.697h-6.57v5.375h7.63v1.635h-9.63V79.541h9.53v1.645h-7.53v4.875h6.57Zm-24.61-8.157 4.96 12.375 4.95-12.375h2.6v15.167h-2v-5.906l.19-6.375-4.98 12.281h-1.53l-4.97-12.25.19 6.344v5.906h-2V79.541Z" class="label-text"/></g><g data-state-name="Maryland"><path d="m986.308 255.205-6.009 1.204-5.143.118-1.843-6.923-1.925-9.169-2.573-6.189-1.288-4.398-7.506 1.623-14.876 2.823-37.452 7.551 1.132 5.011.97 5.659.323-.324 2.101-2.425 2.264-2.617 2.425-.616 1.455-1.455 1.778-2.586 1.293.646 2.91-.323 2.587-2.102 2.006-1.453 1.846-.485 1.644 1.13 2.91 1.455 1.94 1.778 1.212 1.536 4.123 1.697v2.91l5.496 1.294 1.145.542 1.411-2.029 2.882 1.97-1.278 2.482-.765 3.986-1.778 2.587v2.101l.646 1.778 5.064 1.356 4.311-.062 3.072.97 2.102.324.97-2.102-1.455-2.101v-1.779l-2.425-2.101-2.102-5.497 1.293-5.335-.161-2.101-1.294-1.293s1.455-1.617 1.455-2.264.485-2.101.485-2.101l1.94-1.294 1.94-1.616.485.97-1.455 1.616-1.293 3.719.323 1.131 1.779.324.485 5.496-2.102.97.323 3.556.485-.161 1.132-1.94 1.616 1.778-1.616 1.293-.323 3.395 2.586 3.395 3.88.485 1.617-.808 3.236 4.183 1.358.536 6.654-2.797 2.008-4.024zm-15.97 9.029 1.132 2.506.161 1.778 1.132 1.859s.889-.889.889-1.212c0-.324-.727-3.072-.727-3.072l-.728-2.344Z"/><path d="M1063.71 318.791h44.54c2.9 0 5.23 2.217 5.23 4.971v20.057c0 2.754-2.33 4.972-5.23 4.972h-44.54c-2.9 0-5.23-2.218-5.23-4.972v-20.057c0-2.754 2.33-4.971 5.23-4.971" class="label-box"/><path d="M1089.81 341.374v-15.167h4.28c1.32 0 2.49.292 3.5.875a5.85 5.85 0 0 1 2.34 2.49c.56 1.076.84 2.312.85 3.708v.969q0 2.146-.84 3.76a5.7 5.7 0 0 1-2.36 2.479q-1.53.865-3.57.886Zm2-13.521v11.885h2.1c1.55 0 2.74-.479 3.6-1.437q1.29-1.437 1.29-4.094v-.885c0-1.722-.41-3.059-1.22-4.011-.81-.958-1.95-1.444-3.44-1.458Zm-18.04-1.646 4.96 12.375 4.95-12.375h2.6v15.167h-2v-5.906l.19-6.375-4.98 12.281h-1.53l-4.97-12.25.19 6.344v5.906h-2v-15.167Z" class="label-text"/><path d="M1056.86 333.154h-46.13v-76h-22.254v1.5h20.464v76.427h47.9Z" class="label-connector"/></g><g data-state-name="Massachusetts"><path d="m1046.14 176.044 2.17-.685.46-1.715 1.03.114 1.03 2.286-1.26.458-3.89.114Zm-9.37.801 2.28-2.63h1.6l1.83 1.487-2.4 1.028-2.17 1.029Zm-34.8-21.989 17.64-4.64 2.27-.647 1.91-2.796 3.74-1.663 2.89 4.413-2.43 5.173-.32 1.455 1.94 2.587 1.13-.809h1.78l2.26 2.587 3.88 5.981 3.56.485 2.26-.97 1.78-1.778-.81-2.748-2.1-1.617-1.46.809-.97-1.294.49-.485 2.1-.161 1.78.808 1.94 2.425.97 2.91.32 2.425-4.2 1.455-3.88 1.939-3.88 4.527-1.94 1.455v-.97l2.43-1.455.48-1.778-.81-3.072-2.91 1.455-.81 1.455.49 2.263-2.07 1.001-2.74-4.527-3.4-4.365-2.07-1.813-6.53 1.877-5.1 1.05-20.671 4.593-.668-4.768.647-10.589 4.289-.889Z"/><path d="M1063.71 133.791h44.54c2.9 0 5.23 2.217 5.23 4.971v20.057c0 2.754-2.33 4.972-5.23 4.972h-44.54c-2.9 0-5.23-2.218-5.23-4.972v-20.057c0-2.754 2.33-4.971 5.23-4.971" class="label-box"/><path d="M1097.83 152.416h-6.36l-1.43 3.958h-2.06l5.79-15.167h1.75l5.81 15.167h-2.06Zm-5.75-1.646h5.15l-2.58-7.094Zm-18.86-9.563 4.96 12.375 4.96-12.375h2.59v15.167h-2v-5.906l.19-6.375-4.98 12.281h-1.53l-4.97-12.25.2 6.344v5.906h-2v-15.167Z" class="label-text"/><path d="M1033.15 155.608v-9.899h23.86v1.502h-22.36v8.397Z" class="label-connector"/></g><g data-state-name="Michigan"><path d="m850.126 186.934-3.233-8.245-2.263-9.053-2.425-3.233-2.587-1.778-1.616 1.131-3.88 1.778-1.94 5.012-2.748 3.718-1.132.647-1.455-.647s-2.587-1.455-2.425-2.102.485-5.011.485-5.011l3.395-1.293.808-3.395.647-2.587 2.425-1.616-.324-10.023-1.616-2.264-1.293-.808-.809-2.101.809-.809 1.616.324.162-1.617-2.425-2.263-1.293-2.587h-2.587l-4.526-1.455-5.497-3.395h-2.748l-.647.647-.97-.485-3.071-2.263-2.91 1.778-2.91 2.263.323 3.557.97.323 2.102.485.485.808-2.587.809-2.586.323-1.455 1.778-.324 2.102.324 1.617.323 5.496-3.556 2.102-.647-.162v-4.203l1.293-2.425.647-2.425-.809-.808-1.939.808-.97 4.203-2.749 1.132-1.778 1.94-.162.97.647.808-.647 2.586-2.263.485v1.132l.809 2.425-1.132 6.143-1.617 4.042.647 4.688.485 1.131-.808 2.425-.324.809-.323 2.748 3.556 5.981 2.91 6.467 1.455 4.849-.808 4.689-.97 5.981-2.425 5.173-.323 2.748-3.259 3.086 4.409-.162 21.418-2.264 7.278-.987.096 1.667 6.852-1.213 10.298-1.503 3.855-.461.138-.587.161-1.455 2.102-3.719 2-1.737-.222-5.052 1.597-1.597 1.091-.343.222-3.557 1.536-3.031 1.051.606.161.647.808.162 1.94-.97z"/><path d="m733.885 91.756 1.829-2.058 2.172-.8 5.373-3.887 2.286-.571.457.457-5.144 5.144-3.315 1.943-2.057.915Zm86.175 32.128.646 2.506 3.234.161 1.293-1.212s-.081-1.455-.404-1.617c-.324-.161-1.617-1.859-1.617-1.859l-2.182.243-1.617.161-.323 1.132Zm-100.302-2.974.716-.58 2.749-.809 3.556-2.263v-.97l.647-.647 5.981-.97 2.425-1.939 4.365-2.102.162-1.293 1.94-2.91 1.778-.809 1.293-1.778 2.263-2.263 4.365-2.425 4.688-.485 1.132 1.132-.323.97-3.719.97-1.455 3.071-2.263.808-.485 2.425-2.425 3.234-.323 2.586.808.485.97-1.132 3.557-2.909 1.293 1.293h2.263l3.234.97 1.455 1.131 1.454 3.072 2.749 2.748 3.88-.161 1.454-.97 1.617 1.293 1.617.485 1.293-.808h1.132l1.616-.97 4.042-3.557 3.395-1.132 6.628-.323 4.526-1.94 2.587-1.293 1.455.162v5.658l.485.323 2.91.808 1.939-.485 6.144-1.616 1.131-1.132 1.455.485v6.952l3.233 3.071 1.294.647 1.293.97-1.293.323-.809-.323-3.718-.485-2.101.646-2.264-.161-3.233 1.455h-1.778l-5.82-1.294-5.173.162-1.94 2.587-6.951.646-2.425.808-1.132 3.072-1.293 1.132-.485-.162-1.455-1.617-4.527 2.425h-.646l-1.132-1.616-.808.161-1.94 4.365-.97 4.042-3.181 7.001-1.177-1.035-1.372-1.031-1.941-10.288-3.544-1.37-2.053-2.286-12.12-2.744-2.855-1.029-8.231-2.173-7.89-1.143Z"/><path d="M822.305 200.796h-2v-15.167h2Zm-18.188-15.167 4.959 12.375 4.958-12.375h2.594v15.167h-2v-5.906l.187-6.375-4.979 12.281h-1.531l-4.969-12.25.198 6.344v5.906h-2v-15.167Z" class="label-text"/></g><g data-state-name="Minnesota"><path d="m621.754 131.615-.457-8.459-1.829-7.316-1.829-13.489-.458-9.83-1.829-3.43-1.6-5.03V73.773l.686-3.886-1.821-5.452 30.132.035.324-8.244.646-.162 2.264.485 1.939.808.809 5.497 1.455 6.143 1.616 1.617h4.85l.323 1.454 6.305.324v2.101h4.85l.323-1.293 1.132-1.132 2.263-.646 1.294.97h2.909l3.88 2.586 5.335 2.425 2.425.485.485-.97 1.455-.485.485 2.91 2.586 1.293.485-.484 1.294.161v2.102l2.586.97h3.072l1.616-.809 3.234-3.233 2.586-.485.809 1.778.484 1.294h.97l.97-.809 8.892-.323 1.778 3.072h.647l.713-1.085 4.44-.37-.612 2.28-3.939 1.836-9.245 4.061-4.775 2.007-3.072 2.587-2.425 3.556-2.263 3.88-1.778.809-4.527 5.011-1.293.162-4.328 2.757-2.463 3.205-.228 3.191.094 8.044-1.376 1.688-5.081 3.76-2.23 5.983 2.871 2.234.68 3.227-1.855 3.238.171 3.748.369 6.731 3.028 3.002h3.329l1.891 3.132 3.379.504 3.859 5.671 7.088 4.117 2.143 2.875.671 6.44-81.212 1.144-.338-35.676-.457-2.973-4.115-3.429-1.143-1.829v-1.6l2.057-1.601 1.372-1.371z"/><path d="M668.154 108.711h-2.011l-7.635-11.687v11.687h-2.011V93.545h2.011l7.656 11.739v-11.74h1.99Zm-27.698-15.166 4.958 12.375 4.958-12.376h2.594v15.167h-2v-5.906l.188-6.375-4.98 12.281h-1.531l-4.969-12.25.198 6.344v5.906h-2V93.545Z" class="label-text"/></g><g data-state-name="Mississippi"><path d="m778.075 462.135-.254 1.256h-5.174l-1.455-.808-2.101-.323-6.79 1.94-1.778-.809-2.587 4.203-1.102.778-1.124-2.488-1.143-3.886-3.43-3.201 1.144-5.544-.686-.915-1.829.229-7.918.873-24.547.373-.769-2.225.873-8.377 3.117-5.672 5.227-9.145-.446-2.433 1.237-.656.436-1.92-2.318-2.079-.115-2.141-1.835-4.121-.109-5.963 1.327-2.481-.223-3.416-1.77-3.082 1.527-1.483-1.571-2.499.457-1.652 1.578-6.527 2.486-2.036-.642-2.367 3.658-5.303 2.832-1.356-.221-1.675-.288-1.681 2.876-5.568 2.346-1.231.151-.893 37.344-3.882.185 6.284.161 16.651-.808 31.039-.162 14.064 2.748 18.753Z"/><path d="M759.357 412.546q-2.574-.74-3.75-1.812-1.167-1.084-1.167-2.667 0-1.792 1.427-2.958 1.437-1.178 3.729-1.178 1.563 0 2.781.605 1.23.603 1.896 1.666.678 1.063.677 2.323h-2.01q0-1.374-.875-2.156-.874-.792-2.469-.792-1.48 0-2.312.657-.823.645-.823 1.802 0 .927.781 1.573.792.635 2.677 1.166 1.896.532 2.958 1.177 1.073.635 1.584 1.49.52.853.521 2.01 0 1.844-1.438 2.959-1.437 1.104-3.844 1.104a7.2 7.2 0 0 1-2.916-.594q-1.355-.604-2.094-1.646a4.02 4.02 0 0 1-.729-2.364h2.01q0 1.374 1.011 2.177 1.02.79 2.718.791 1.584 0 2.427-.645.844-.646.844-1.761t-.781-1.719q-.781-.614-2.833-1.208m-20.511-8.406 4.958 12.375 4.959-12.375h2.594v15.166h-2V413.4l.187-6.375-4.979 12.281h-1.531l-4.969-12.25.198 6.344v5.906h-2V404.14Z" class="label-text"/></g><g data-state-name="Missouri"><path d="m704.956 250.904-2.52-3.088-1.143-2.286-64.357 2.401-2.286.114 1.257 2.515-.228 2.286 2.514 3.887 3.087 4.115 3.086 2.743 2.161.229 1.497.915v2.972l-1.829 1.6-.457 2.286 2.058 3.43 2.514 2.972 2.515 1.829 1.372 11.659.314 36.073.229 4.686.457 5.384 22.433-.867 23.206-.686 20.805-.801 11.654-.23 2.17 3.426-.684 3.307-3.088 2.403-.572 1.838 5.378.457 3.895-.686 1.718-5.494.651-5.856 2.098-2.555 2.596-1.487.051-3.051 1.016-1.936-1.694-2.544-1.331.984-1.992-2.227-1.285-4.759.801-2.518-1.944-3.428-1.831-4.576-4.799-.799-6.969-5.599-1.719-4.113.799-3.201 2.059-6.058.459-2.863-1.949-1.031-6.855-.798-1.028-1.712-.112-4.231-5.487-3.431-6.975-7.771-2.287-7.316-.23-4.225z"/><path d="M703.218 298.334q0 2.228-.75 3.896-.75 1.655-2.125 2.531-1.375.875-3.208.875-1.791 0-3.177-.875-1.386-.885-2.156-2.511-.76-1.635-.782-3.781v-1.094q0-2.187.761-3.864.76-1.677 2.146-2.563 1.395-.895 3.187-.895 1.823 0 3.209.885 1.395.875 2.145 2.552.75 1.667.75 3.885Zm-1.989-.979q0-2.698-1.084-4.136-1.083-1.448-3.031-1.448-1.896 0-2.989 1.448-1.084 1.438-1.115 4v1.115q0 2.614 1.094 4.114 1.104 1.49 3.031 1.49 1.938 0 3-1.406 1.062-1.417 1.094-4.052Zm-25.719-7.094 4.958 12.375 4.959-12.375h2.593v15.166h-2v-5.906l.188-6.375-4.979 12.281h-1.531l-4.969-12.249.198 6.343v5.906h-2v-15.166Z" class="label-text"/></g><g data-state-name="Montana"><path d="m515.726 59.76-30.675-2.808-29.26-3.557-29.261-4.041-32.332-5.335-18.429-3.395-32.724-6.933-4.479 21.348 3.429 7.544-1.371 4.573 1.829 4.572 3.2 1.372 4.621 10.77 2.695 3.176.458 1.143 3.429 1.143.457 2.058-7.087 17.604v2.515l2.515 3.2h.914l4.801-2.972.686-1.143 1.6.686-.228 5.258 2.743 12.575 2.972 2.514.915.686 1.829 2.287-.457 3.429.685 3.429 1.144.915 2.286-2.286h2.743l3.201 1.6 2.515-.915h4.115l3.658 1.601 2.743-.457.458-2.973 2.972-.685 1.372 1.371.457 3.201 1.426.835 1.887-11.035 106.745 13.429Z"/><path d="M446.82 84.568h-4.875V98.09h-1.989V84.57h-4.865v-1.647h11.729Zm-26.218-1.645 4.958 12.374 4.958-12.374h2.594v15.166h-2v-5.906l.188-6.375-4.98 12.281h-1.531l-4.969-12.25.198 6.344v5.906h-2V82.923Z" class="label-text"/></g><g data-state-name="Nebraska"><path d="m632.614 243.491 3.23 7.02-.128 2.303 3.459 5.493 2.719 3.153h-5.049l-43.483-.939-40.787-.89-22.252-.784 1.073-21.328-32.318-2.92 4.344-44.01 15.546 1.029 20.119 1.143 17.832 1.143 23.777 1.143 10.745-.457 2.058 2.286 4.801 2.972 1.143.915 4.344-1.372 3.887-.457 2.743-.229 1.829 1.372 4.057 1.6 2.972 1.601.458 1.6.914 2.057h1.829l.798.047.894 4.681 2.921 8.468.572 3.757 2.524 3.774.569 5.115 1.608 4.24z"/><path d="M582.219 226.659h-6.573v5.375h7.635v1.636h-9.635v-15.167h9.531v1.646h-7.531v4.875h6.573Zm-12.125 7.011h-2.011l-7.635-11.688v11.688h-2.01v-15.167h2.01l7.656 11.74v-11.74h1.99Z" class="label-text"/></g><g data-state-name="Nevada"><path d="M342.909 188.366 319.27 317.189l-1.832.349-1.573 2.406-2.373.011-1.472-2.744-2.619-.378-.77-1.108-1.038-.054-2.779 1.645-.31 6.785-.362 5.777-.349 8.593-1.447 2.089-2.439-1.074-69.079-104.201 18.989-67.585z"/><path d="m293.314 230.984 4.333-12.51h2.188l-5.625 15.166h-1.771l-5.615-15.166h2.177Zm-8.573 2.656h-2.01l-7.636-11.687v11.687h-2.01v-15.166h2.01l7.656 11.739v-11.739h1.99Z" class="label-text"/></g><g data-state-name="New Hampshire"><path d="m1027.32 145.215.86-1.076 1.09-3.291-2.54-.914-.48-3.071-3.88-1.132-.33-2.748-7.27-23.441-4.6-14.543-.9-.005-.65 1.617-.64-.485-.97-.97-1.46 1.94-.05 5.032.31 5.667 1.94 2.748v4.042l-3.71 5.062-2.59 1.132v1.132l1.13 1.778v8.568l-.81 9.215-.16 4.849.97 1.294-.16 4.526-.49 1.778.97.71 16.79-4.425 2.18-.602 1.84-2.774 3.6-1.613Z"/><path d="M945.711 48.894h44.541c2.897 0 5.23 2.217 5.23 4.971v20.057c0 2.755-2.333 4.972-5.23 4.972h-44.541c-2.897 0-5.229-2.217-5.229-4.972V53.866c0-2.754 2.332-4.971 5.229-4.971" class="label-box"/><path d="M981.414 71.477h-2.011v-7.01h-7.645v7.01h-2V56.311h2v6.52h7.645v-6.52h2.011Zm-15.209 0h-2.01L956.56 59.79v11.687h-2.011V56.311h2.011l7.656 11.74V56.31h1.989Z" class="label-text"/><path d="M1009.02 93.742v-32.71h-12.907v1.503h11.317v31.201Z" class="label-connector"/></g><g data-state-name="New Jersey"><path d="m976.195 191.251-2.322 2.734v3.072l-1.94 3.071-.162 1.617 1.294 1.293-.162 2.425-2.263 1.132.808 2.748.162 1.131 2.748.324.97 2.586 3.556 2.425 2.425 1.617v.808l-2.983 2.697-1.617 2.263-1.455 2.748-2.263 1.293-.462 1.603-.243 1.212-.609 2.607 1.092 2.244 3.234 2.91 4.849 2.263 4.042.647.162 1.455-.809.97.324 2.748h.808l2.101-2.425.809-4.85 2.748-4.041 3.072-6.466 1.131-5.497-.647-1.132-.161-9.376-1.617-3.395-1.131.809-2.749.323-.485-.485 1.132-.97 2.102-1.94.063-1.094-.385-3.434.574-2.748-.118-1.969-2.807-1.75-5.092-1.176-4.138-1.382z"/><path d="M1063.71 244.791h44.54c2.9 0 5.23 2.217 5.23 4.971v20.057c0 2.754-2.33 4.972-5.23 4.972h-44.54c-2.9 0-5.23-2.218-5.23-4.972v-20.057c0-2.754 2.33-4.971 5.23-4.971" class="label-box"/><path d="M1095.76 252.103h2.01v10.74c0 1.451-.44 2.586-1.31 3.406q-1.305 1.229-3.48 1.229c-1.51 0-2.68-.385-3.52-1.156q-1.26-1.156-1.26-3.24h2c0 .868.23 1.545.7 2.031.48.487 1.17.73 2.08.73.82 0 1.49-.261 2-.782q.765-.781.78-2.187Zm-9.91 15.167h-2.01l-7.63-11.688v11.688h-2.01v-15.167h2.01l7.65 11.74v-11.74h1.99Z" class="label-text"/><path d="M1057.1 256.904h-26.5v-26.25h-36.124v1.498h34.514v26.075h28.11Z" class="label-connector"/></g><g data-state-name="New Mexico"><path d="m434.669 426.804-.776-4.748 8.644.525 30.172 2.946 27.268 1.69 2.215-18.708 3.857-55.876 1.738-19.389 1.572.129.825-11.164-104.004-10.636-17.498 120.435 15.461 1.989 1.293-10.023Z"/><path d="m454.295 361.151 4.958 12.375 4.958-12.375h2.594v15.167h-2v-5.907l.188-6.375-4.98 12.282h-1.531l-4.969-12.25.198 6.343v5.907h-2v-15.167Zm-6.136 15.167h-2.01l-7.636-11.688v11.688h-2.01v-15.167h2.01l7.657 11.739v-11.739h1.989Z" class="label-text"/></g><g data-state-name="New York"><path d="m976.895 191.536-1.131-.97-2.587-.161-2.263-1.94-1.631-6.13-3.458.091-2.444-2.708-19.385 4.382-43.002 8.729-7.53 1.228-.738-6.468 1.428-1.125 1.294-1.132.97-1.617 1.778-1.131 1.94-1.778.485-1.617 2.101-2.748 1.132-.97-.162-.97-1.293-3.072-1.778-.161-1.94-6.144 2.91-1.778 4.365-1.455 4.041-1.293 3.233-.485 6.305-.162 1.94 1.294 1.617.161 2.101-1.293 2.587-1.132 5.173-.485 2.101-1.778 1.779-3.233 1.616-1.94h2.102l1.94-1.132.162-2.263-1.455-2.101-.324-1.455 1.132-2.102v-1.455h-1.778l-1.779-.808-.808-1.132-.162-2.586 5.82-5.497.647-.808 1.455-2.91 2.91-4.527 2.748-3.718 2.101-2.425 2.416-1.825 3.081-1.246 5.496-1.293 3.234.161 4.526-1.455 7.565-2.071.52 4.98 2.425 6.466.808 5.173-.97 3.88 2.587 4.527.808 2.101-.808 2.91 2.91 1.293.646.324 3.072 10.993-.536 5.059-.485 10.832.808 5.496.808 3.557 1.455 7.274v8.083l-1.131 2.264 1.839 1.992.797 1.679-1.94 1.778.323 1.293 1.293-.323 1.455-1.293 2.263-2.587 1.132-.646 1.613.646 2.27.162 7.92-3.88 2.91-2.748 1.29-1.455 4.2 1.617-3.39 3.556-3.88 2.91-7.11 5.335-2.59.97-5.82 1.94-4.041 1.131-1.175-.533-.244-3.688.485-2.748-.161-2.102-2.814-1.699-4.526-.97-3.88-1.132z"/><path d="m967.57 161.933 3.958-7.615h2.271l-5.229 9.51v5.657h-2v-5.657l-5.229-9.51h2.292Zm-7.885 7.552h-2.011l-7.635-11.688v11.688h-2.011v-15.167h2.011l7.656 11.74v-11.74h1.99Z" class="label-text"/></g><g data-state-name="North Carolina"><path d="m981.498 297.106 2.085 4.917 3.556 6.467 2.425 2.425.647 2.263-2.425.162.808.646-.323 4.203-2.587 1.294-.647 2.101-1.293 2.91-3.718 1.617-2.425-.323-1.455-.162-1.616-1.293.323 1.293v.97h1.94l.808 1.293-1.94 6.305h4.203l.647 1.616 2.263-2.263 1.294-.485-1.94 3.557-3.072 4.85h-1.293l-1.132-.485-2.748.646-5.173 2.425-6.467 5.335-3.395 4.688-1.939 6.467-.485 2.424-4.689.485-5.453 1.337-9.946-8.202-12.61-7.599-2.91-.808-12.609 1.455-4.277.75-1.616-3.233-2.971-2.117-16.489.485-7.275.809-9.053 4.526-6.143 2.587-21.177 2.586.5-4.054 1.778-1.455 2.748-.647.647-3.718 4.203-2.748 3.88-1.455 4.203-3.557 4.365-2.101.647-3.072 3.88-3.88.646-.161s0 1.131.808 1.131c.809 0 1.94.324 1.94.324l2.264-3.557 2.101-.646 2.263.323 1.617-3.557 2.91-2.586.485-2.102.187-3.648 4.277-.023 7.199-.855 15.757-2.253 15.136-2.086 21.64-4.72 19.984-4.258 11.177-2.406zm4.27 33.207 2.587-2.506 3.152-2.587 1.536-.646.161-2.021-.646-6.143-1.455-2.344-.647-1.859.728-.243 2.748 5.497.404 4.445-.162 3.395-3.395 1.536-2.829 2.425-1.131 1.212Z"/><path d="M943.521 332.889q-.282 2.407-1.782 3.719-1.49 1.302-3.968 1.302-2.688 0-4.313-1.927-1.615-1.927-1.615-5.156v-1.458q0-2.115.75-3.719.761-1.605 2.146-2.458 1.386-.865 3.209-.865 2.416 0 3.875 1.354 1.458 1.344 1.698 3.729h-2.011q-.26-1.812-1.135-2.625-.865-.812-2.427-.812-1.917 0-3.011 1.416-1.083 1.418-1.083 4.032v1.468q0 2.469 1.031 3.928 1.031 1.458 2.886 1.458 1.666 0 2.552-.75.896-.76 1.187-2.636Zm-14.709 4.813h-2.01l-7.636-11.688v11.688h-2.01v-15.167h2.01l7.657 11.74v-11.74h1.989Z" class="label-text"/></g><g data-state-name="North Dakota"><path d="m621.821 131.709-.615-8.434-1.677-6.816-1.891-13.024-.457-10.987-1.74-3.077-1.756-5.194.031-10.445.623-3.824-1.834-5.468-28.642-.563-18.591-.647-26.512-1.293-22.947-2.134-6.993 67.177 54.932 3.343z"/><path d="M567.328 103.792V88.625h4.282q1.979 0 3.5.875t2.343 2.49q.834 1.614.844 3.708v.969q0 2.145-.833 3.76a5.8 5.8 0 0 1-2.365 2.48q-1.53.864-3.573.885Zm2-13.52v11.885h2.105q2.312 0 3.593-1.438 1.293-1.437 1.292-4.094v-.885q0-2.584-1.219-4.01-1.208-1.438-3.437-1.459Zm-5.552 13.52h-2.01l-7.635-11.687v11.687h-2.011V88.625h2.011l7.656 11.74v-11.74h1.989Z" class="label-text"/></g><g data-state-name="Ohio"><path d="m881.841 196.119-6.094 4.053-3.879 2.263-3.395 3.719-4.042 3.879-3.233.809-2.91.485-5.496 2.586-2.102.162-3.395-3.072-5.173.647-2.587-1.455-2.381-1.351-4.892.704-10.185 1.616-11.207 2.185 1.294 14.63 1.778 13.742 2.586 23.44.566 4.831 4.123-.129 2.425-.808 3.363 1.503 2.071 4.365 5.139-.017 1.892 2.119 1.761-.066 2.538-1.341 2.504.371 5.422.483 1.727-2.133 2.345-1.293 2.071-.681.646 2.749 1.779.97 3.475 2.344 2.183-.081 1.333-.493.185-2.761 1.585-1.455.099-4.793 1.024-4.109 1.299-.601 1.322 1.148.538 1.697 1.719-1.038.439-1.461-1.117-1.903.067-2.314.749-1.072 2.152-3.307 1.051-1.543 2.101.485 2.263-1.617 3.072-3.395 2.771-4.078.321-5.056.485-5.011-.177-5.307-.955-2.895.351-1.19 1.805-1.75-2.289-9.047z"/><path d="M857.269 249.2h-2.01v-7.01h-7.646v7.01h-2v-15.166h2v6.52h7.646v-6.52h2.01Zm-14.656-7.093q0 2.229-.75 3.895-.75 1.657-2.125 2.532t-3.208.875q-1.793 0-3.177-.875-1.386-.886-2.156-2.511-.76-1.636-.782-3.781v-1.094q0-2.187.761-3.864.76-1.677 2.146-2.563 1.395-.896 3.187-.896 1.823 0 3.208.886 1.396.875 2.146 2.552.75 1.666.75 3.885Zm-1.989-.98q0-2.697-1.084-4.135-1.083-1.448-3.031-1.448-1.895 0-2.99 1.448-1.083 1.438-1.114 4v1.115q0 2.614 1.094 4.114 1.104 1.49 3.031 1.49 1.938 0 3-1.407 1.062-1.416 1.094-4.052Z" class="label-text"/></g><g data-state-name="Oklahoma"><path d="m526.859 323.612-16.684-1.273-.88 10.952 20.465 1.157 32.056 1.304-2.335 24.418-.457 17.833.228 1.6 4.344 3.658 2.058 1.143.686-.228.686-2.058 1.371 1.829h2.058v-1.372l2.743 1.372-.457 3.887 4.115.228 2.515 1.143 4.115.686 2.515 1.829 2.287-2.057 3.429.685 2.515 3.43h.914v2.286l2.286.686 2.287-2.286 1.829.685h2.514l.915 2.515 6.301 2.079 1.372-.686 1.829-4.115h1.143l1.143 2.058 4.115.686 3.658 1.371 2.972.915 1.829-.915.686-2.514h4.344l2.058.914 2.743-2.058h1.143l.686 1.601h4.115l1.601-2.058 1.829.458 2.057 2.514 3.201 1.829 3.201.915 1.941 1.119-.389-37.217-1.372-10.974-.161-8.873-1.44-6.537-.778-7.18-.068-3.816-12.137.319-46.41-.458-45.039-2.057z"/><path d="m614.689 361.256-1.855 1.927v5.125h-2v-15.167h2v7.5l6.74-7.5h2.417l-5.969 6.698 6.437 8.469h-2.395Zm-6.855-.042q0 2.23-.75 3.896-.75 1.656-2.125 2.531t-3.208.875q-1.791 0-3.177-.875-1.386-.885-2.156-2.51-.76-1.635-.782-3.781v-1.094q0-2.188.761-3.865.76-1.677 2.146-2.562 1.395-.896 3.187-.896 1.823 0 3.209.886 1.395.875 2.145 2.552.75 1.666.75 3.885Zm-1.989-.979q0-2.697-1.084-4.135-1.083-1.448-3.031-1.448-1.896 0-2.989 1.448-1.084 1.437-1.115 4v1.114q0 2.615 1.094 4.115 1.104 1.49 3.031 1.489 1.938 0 3-1.406 1.062-1.416 1.094-4.052Z" class="label-text"/></g><g data-state-name="Oregon"><path d="m295.238 178.322 8.85-34.801 1.05-4.23 2.355-5.623-.616-1.163-2.515-.046-1.281-1.671.457-1.464.503-3.247 4.459-5.487 1.829-1.099 1.143-1.143 1.486-3.566 4.047-5.669 3.565-3.863.229-3.451-3.269-2.469-1.783-4.642-12.664-3.612-15.089-3.544-15.432.115-.457-1.372-5.487 2.057-4.459-.571-2.4-1.6-1.257.685-4.687-.228-1.715-1.372-5.258-2.058-.8.115-4.344-1.486-1.944 1.829-6.172-.343-5.945-4.115.686-.8.229-7.774-2.286-3.886-4.115-.572-.686-2.515-2.354-.466-5.799 2.058-2.263 6.467-3.233 10.023-3.233 6.466-5.012 14.065-6.466 13.579-8.083 12.61-1.94 2.909-.809 8.568.386 12.081z"/><path d="M256.995 128.199h-3.563v6.135h-2.01v-15.167h5.02q2.563 0 3.938 1.167 1.385 1.167 1.385 3.396 0 1.416-.77 2.469-.761 1.051-2.125 1.572l3.562 6.438v.125h-2.146Zm-3.563-1.636h3.073q1.49 0 2.365-.771.885-.77.885-2.062 0-1.407-.844-2.156-.833-.75-2.416-.761h-3.063Zm-5 .677q0 2.23-.75 3.896-.75 1.656-2.125 2.531t-3.208.875q-1.793 0-3.177-.875-1.386-.885-2.157-2.51-.76-1.636-.781-3.781v-1.094q0-2.187.761-3.865.76-1.677 2.145-2.562 1.396-.896 3.188-.896 1.823 0 3.208.885 1.396.875 2.146 2.552.75 1.668.75 3.886Zm-1.99-.979q0-2.698-1.083-4.135-1.083-1.448-3.031-1.448-1.896 0-2.99 1.448-1.083 1.437-1.114 4v1.114q0 2.615 1.093 4.115 1.105 1.49 3.032 1.489 1.936 0 3-1.406 1.063-1.416 1.093-4.052Z" class="label-text"/></g><g data-state-name="Pennsylvania"><path d="m971.64 227.483 1.308-.271 2.33-1.254 1.212-2.483 1.616-2.263 3.233-3.072v-.808l-2.425-1.616-3.556-2.425-.97-2.587-2.748-.323-.162-1.132-.808-2.748 2.263-1.132.162-2.425-1.294-1.293.162-1.617 1.94-3.071v-3.072l2.698-2.646-.921-.675-2.524-.192-2.294-1.94-1.55-6.116-3.505.1-2.455-2.703-18.091 4.198-43.002 8.729-8.891 1.455-.621-6.521-5.362 5.067-1.294.485-4.202 3.009 2.911 19.138 2.482 9.729 3.571 19.262 3.27-.638 11.943-1.503 37.927-7.665 14.876-2.823 8.3-1.622.268-.239 2.101-1.617Z"/><path d="M937.22 217.137h-6.355l-1.427 3.958h-2.062l5.791-15.167h1.75l5.803 15.167h-2.053Zm-5.75-1.646h5.156l-2.584-7.094Zm-12.646-.333v5.937h-2v-15.167h5.594q2.489 0 3.895 1.271 1.417 1.272 1.417 3.365 0 2.208-1.385 3.406-1.375 1.188-3.948 1.188Zm0-1.636h3.594q1.603 0 2.458-.75.854-.76.854-2.187 0-1.354-.854-2.167-.855-.813-2.344-.844h-3.708Z" class="label-text"/></g><g data-state-name="Rhode Island"><path d="m1020.59 181.686-3.7-14.956 6.27-1.845 2.19 1.927 3.31 4.321 2.69 4.402-3 1.624-1.3-.161-1.13 1.778-2.42 1.94Z"/><path d="M1063.71 170.791h44.54c2.9 0 5.23 2.217 5.23 4.971v20.057c0 2.754-2.33 4.972-5.23 4.972h-44.54c-2.9 0-5.23-2.218-5.23-4.972v-20.057c0-2.754 2.33-4.971 5.23-4.971" class="label-box"/><path d="M1093.63 193.374h-2v-15.167h2Zm-9.72-6.136h-3.56v6.136h-2.01v-15.167h5.02c1.7 0 3.02.389 3.93 1.167.93.778 1.39 1.91 1.39 3.396 0 .944-.26 1.767-.77 2.468q-.765 1.053-2.13 1.573l3.57 6.438v.125h-2.15Zm-3.56-1.635h3.07c.99 0 1.78-.257 2.36-.771.59-.514.89-1.201.89-2.062q0-1.407-.84-2.157c-.56-.5-1.37-.753-2.42-.76h-3.06Z" class="label-text"/><path d="M1057.45 182.746h-29.08v-3.538h-1.5v4.775h30.58Z" class="label-connector"/></g><g data-state-name="South Carolina"><path d="m911.459 410.955-1.777.97-2.586-1.293-.647-2.102-1.293-3.557-2.264-2.101-2.586-.647-1.617-4.85-2.748-5.981-4.203-1.94-2.102-1.94-1.293-2.586-2.102-1.94-2.263-1.294-2.263-2.91-3.072-2.263-4.526-1.778-.485-1.455-2.425-2.91-.485-1.455-3.395-5.173-3.395.162-4.041-2.425-1.294-1.294-.323-1.778.808-1.94 2.264-.97-.511-2.289 5.768-2.336 9.115-4.589 7.775-.809 16.115-.422 2.638 1.877 1.679 3.359 4.302-.61 12.61-1.455 2.91.808 12.609 7.598 10.108 8.122-5.421 5.458-2.586 6.143-.485 6.305-1.617.808-1.132 2.748-2.425.647-2.101 3.557-2.748 2.748-2.264 3.395-1.616.808-3.557 3.395-2.91.161.97 3.234-5.011 5.496Z"/><path d="M919.038 372.905q-.281 2.406-1.781 3.718-1.49 1.302-3.969 1.302-2.688 0-4.313-1.927-1.614-1.926-1.614-5.156v-1.458q0-2.115.75-3.719.76-1.604 2.146-2.458 1.385-.865 3.208-.865 2.417 0 3.875 1.354 1.458 1.344 1.698 3.729h-2.011q-.26-1.812-1.135-2.625-.864-.812-2.427-.812-1.917 0-3.011 1.417-1.083 1.416-1.083 4.031v1.469q0 2.467 1.031 3.927 1.032 1.458 2.886 1.458 1.667 0 2.552-.75.896-.76 1.187-2.635Zm-19.344-1.948q-2.572-.74-3.75-1.813-1.167-1.083-1.167-2.666 0-1.792 1.427-2.959 1.438-1.177 3.73-1.177 1.562 0 2.781.604 1.228.605 1.896 1.667.677 1.063.677 2.323h-2.011q0-1.376-.875-2.156-.875-.792-2.468-.792-1.479 0-2.313.656-.822.646-.823 1.802 0 .928.781 1.573.792.636 2.678 1.167 1.895.53 2.958 1.177 1.073.635 1.583 1.49.52.853.521 2.01 0 1.843-1.437 2.958-1.438 1.104-3.844 1.104a7.2 7.2 0 0 1-2.917-.593q-1.355-.605-2.094-1.646a4.03 4.03 0 0 1-.729-2.365h2.011q0 1.376 1.01 2.177 1.021.792 2.719.792 1.582 0 2.427-.646.843-.645.844-1.76 0-1.114-.782-1.719-.78-.615-2.833-1.208" class="label-text"/></g><g data-state-name="South Dakota"><path d="m622.963 206.815-.048-.581-2.895-4.845 1.86-4.712 1.493-5.887-2.782-2.079-.385-2.744.792-2.554 3.189.015-.123-5.006-.334-30.174-.618-3.768-4.072-3.331-.982-1.677-.063-1.609 2.022-1.529 1.532-1.666.245-2.657-58.257-1.6-54.799-3.449-5.325 63.691 14.59.904 19.95 1.206 17.743.928 23.777 1.304 11.982-.425 1.967 2.245 5.194 3.254.764.722 4.542-1.452 6.54-.615 1.676 1.336 4.204 1.596 2.945 1.636.399 1.484 1.04 2.241z"/><path d="M565.276 170.398v-15.167h4.281q1.979 0 3.5.875 1.52.876 2.344 2.49.832 1.614.843 3.708v.969q0 2.146-.833 3.76a5.8 5.8 0 0 1-2.365 2.48q-1.53.864-3.573.885Zm2-13.521v11.886h2.104q2.312 0 3.593-1.438 1.293-1.437 1.292-4.094v-.885q0-2.583-1.219-4.01-1.208-1.438-3.437-1.459Zm-10.188 6.761q-2.573-.74-3.75-1.813-1.167-1.083-1.167-2.667 0-1.791 1.428-2.958 1.437-1.177 3.729-1.177 1.562 0 2.781.604 1.229.605 1.896 1.667.677 1.062.677 2.323h-2.011q0-1.376-.875-2.156-.875-.792-2.468-.792-1.479 0-2.313.656-.822.646-.823 1.802 0 .928.781 1.573.792.636 2.678 1.167 1.895.53 2.958 1.177 1.073.635 1.583 1.489.52.855.521 2.011 0 1.844-1.437 2.958-1.438 1.104-3.844 1.104a7.2 7.2 0 0 1-2.917-.593q-1.355-.605-2.094-1.646a4.03 4.03 0 0 1-.729-2.365h2.011q0 1.376 1.01 2.177 1.021.792 2.719.792 1.582 0 2.427-.646.844-.645.844-1.76t-.782-1.719q-.78-.615-2.833-1.208" class="label-text"/></g><g data-state-name="Tennessee"><path d="m843.194 321.045-51.893 5.011-15.76 1.778-4.621.513-3.868-.028-.221 4.101-8.186.264-6.951.647-8.091-.124-1.414 7.073-1.696 5.48-3.293 2.751-1.349 4.381-.323 2.586-4.042 2.264 1.455 3.556-.97 4.365-.968.79 108.158-10.408.404-3.955 1.81-1.49 2.835-.75.672-3.717 4.098-2.705 4.047-1.494 4.084-3.57 4.436-2.025.521-3.068 4.065-3.985.55-.114s.032 1.132.84 1.132 1.94.354 1.94.354l2.263-3.588 2.07-.646 2.276.295 1.598-3.533 2.955-2.644.422-1.939.309-3.711-2.147-.2-2.601 2.029-6.994.029-18.359 2.386z"/><path d="M815.68 351.08h-2.011l-7.635-11.688v11.688h-2.01v-15.167h2.01l7.656 11.74v-11.74h1.99Zm-13.906-13.521h-4.875v13.521h-1.99v-13.521h-4.865v-1.646h11.73Z" class="label-text"/></g><g data-state-name="Texas"><path d="m507.98 333.364 22.691 1.086 31.093 1.143-2.335 23.456-.297 18.153.068 2.082 4.344 3.819 1.987 1.447 1.184-.56.374-1.818 1.14 1.804 2.111.044-.003-1.447 1.67.967 1.139.409-.359 3.968 4.088.093 2.925 1.197 3.955.526 2.381 2.079 2.125-2.076 3.725.614 2.22 3.225 1.075.321-.16 1.966 2.214.792 2.33-2.055 2.133.615 2.229.036.933 2.435 6.328 2.114 1.593-.767 1.49-4.177h.34l.907.081 1.229 2.069 3.93.665 3.337 1.123 3.426 1.196 1.84-.975.714-2.515 4.453.044 1.809.931 2.799-2.106 1.104.044.851 1.605h4.054l1.519-2.029 1.868.408 1.946 2.403 3.52 2.044 2.859.81 1.514.8 2.446 1.997 3.043-1.328 2.692 1.139.563 6.106-.039 9.702.685 9.534.703 3.605 2.675 4.42.898 4.951 4.216 5.538.196 3.145.746.786-.73 8.38-2.872 5.006 1.533 2.153-.63 2.338-.669 7.405-1.505 3.338.295 3.502-5.665 1.585-9.861 4.527-.97 1.94-2.587 1.939-2.101 1.455-1.293.809-5.659 5.335-2.748 2.101-5.335 3.233-5.658 2.425-6.304 3.395-1.779 1.455-5.82 3.557-3.394.646-3.88 5.497-4.042.323-.97 1.94 2.264 1.94-1.455 5.496-1.294 4.527-1.131 3.88-.809 4.526.809 2.425 1.778 6.951.97 6.144 1.778 2.748-.97 1.455-3.071 1.94-5.658-3.88-5.497-1.132-1.293.485-3.233-.646-4.204-3.072-5.173-1.132-7.598-3.395-2.101-3.879-1.294-6.467-3.233-1.94-.646-2.263.646-.647.324-3.394-1.294-.647-.646-.97 1.293-4.365-1.617-2.263-3.233-1.293-3.395-4.365-3.556-6.628-4.204-2.587.162-1.94-5.335-12.286-.808-4.203-1.778-1.94-.162-1.455-5.981-5.335-2.587-3.071v-1.132l-2.586-2.102-6.79-1.131-7.437-.647-3.071-2.263-4.527 1.778-3.556 1.455-2.263 3.233-.97 3.718-4.365 6.144-2.425 2.424-2.587-.97-1.778-1.131-1.94-.647-3.88-2.263v-.647l-1.778-1.94-5.173-2.101-7.436-7.76-2.264-4.688v-8.083l-3.233-6.466-.485-2.749-1.617-.97-1.131-2.101-5.012-2.102-1.293-1.616-7.113-7.922-1.293-3.233-4.688-2.263-1.455-4.365-2.587-2.91-1.94-.485-.649-4.678 8.002.686 29.035 2.744 29.035 1.6 2.233-19.462 3.887-55.555 1.6-18.747 1.372.029m99.029 229.662-.565-7.113-2.749-7.194-.565-7.032 1.535-8.245 3.314-6.87 3.476-5.416 3.152-3.556.647.242-4.769 6.628-4.365 6.547-2.02 6.628-.324 5.174.889 6.143 2.587 7.194.485 5.173.162 1.455Z"/><path d="m587.622 445.184 3.635-5.813h2.355l-4.792 7.521 4.906 7.646h-2.375l-3.729-5.917-3.75 5.917h-2.365l4.917-7.646-4.802-7.521h2.344Zm-7.198-4.167h-4.875v13.521h-1.989v-13.521h-4.865v-1.646h11.729Z" class="label-text"/></g><g data-state-name="Utah"><path d="m406.014 312.896-83.749-11.873 20.588-112.541 46.78 8.745-1.485 10.631-2.311 13.172 7.808.929 16.406 1.804 8.211.856Z"/><path d="M380.626 254.821h-4.875v13.521h-1.99v-13.521h-4.864v-1.646h11.729Zm-13.636-1.646v10.312q-.01 2.146-1.354 3.511-1.333 1.365-3.625 1.531l-.531.021q-2.49 0-3.969-1.344-1.479-1.343-1.5-3.698v-10.333h1.979v10.271q0 1.645.907 2.562.906.906 2.583.907 1.697 0 2.594-.907.906-.906.906-2.552v-10.281Z" class="label-text"/></g><g data-state-name="Vermont"><path d="m991 156.848.317-5.345-2.891-10.784-.646-.324-2.91-1.293.808-2.91-.808-2.101-2.7-4.64.97-3.88-.809-5.173-2.425-6.467-.805-4.922 26.419-6.732.31 5.522 1.92 2.742v4.042l-3.71 5.058-2.59 1.142-.01 1.121 1.31 1.519-.31 8.098-.61 9.259-.23 5.557.97 1.293-.16 4.571-.48 1.69 1.01.727-7.438 1.507z"/><path d="M880.28 48.894h44.541c2.897 0 5.229 2.217 5.229 4.971v20.057c0 2.755-2.332 4.972-5.229 4.972H880.28c-2.897 0-5.23-2.217-5.23-4.972V53.866c0-2.754 2.333-4.971 5.23-4.971" class="label-box"/><path d="M915.311 57.957h-4.875v13.52h-1.99v-13.52h-4.864V56.31h11.729ZM896.28 68.82l4.333-12.51h2.187l-5.625 15.166h-1.77l-5.615-15.166h2.177Z" class="label-text"/><path d="M900.726 80.161h1.497v6.318h88.847v17.589h-1.5V87.914h-88.859Z" class="label-connector"/></g><g data-state-name="Virginia"><path d="m978.155 268.859-.144-1.947 6.453-2.549-.77 3.217-2.92 3.779-.418 4.586.462 3.391-1.828 4.978-2.165 1.916-1.47-4.641.446-5.449 1.587-4.183Zm3.34 28.302-58.174 12.575-37.427 5.279-6.678-.375-2.586 1.927-7.339.22-8.382.978-10.915 1.614 10.47-5.611-.014-2.075 1.52-2.146 10.554-11.501 3.947 4.477 3.783.964 2.543-1.14 2.238-1.311 2.536 1.343 3.914-1.427 1.877-4.557 2.601.54 2.855-2.131 1.8.494 2.827-3.677.348-2.083-.964-1.276 1.003-1.866 5.274-12.277.617-5.736 1.229-.523 2.179 2.443 3.936-.301 1.929-7.574 2.794-.561 1.049-2.741 2.58-2.347 2.772-5.695.085-5.068 9.822 3.823c.68.341.832-5.049.832-5.049l3.653 1.598.068 2.939 5.785 1.299 2.132 1.176 1.66 2.056-.654 3.649-1.948 2.591.11 2.059.589 1.853 4.979 1.268 4.451.04 3.069.959 1.944.309.714 3.088 3.191.403.868 1.2-.44 4.69 1.375 1.103-.479 1.93 1.23.79-.222 1.384-2.694-.095.089 1.616 2.281 1.543.121 1.412 1.773 1.785.492 2.524-2.553 1.381 1.572 1.495 5.801-1.686z"/><path d="M942.231 292.297h-6.355l-1.427 3.958h-2.062l5.791-15.167h1.75l5.803 15.167h-2.053Zm-5.75-1.646h5.156l-2.584-7.094Zm-10.396 2.948 4.333-12.511h2.188l-5.625 15.167h-1.771l-5.615-15.167h2.177Z" class="label-text"/></g><g data-state-name="Washington"><path d="m248.589 10.402 4.365 1.455 9.7 2.749 8.568 1.94 20.046 5.657 22.955 5.659 15.224 3.207-13.633 63.586-12.445-3.526-15.508-3.57-15.229.033-.456-1.345-5.599 2.18-4.595-.737-2.147-1.584-1.314.658-4.735-.14-1.699-1.35-5.263-2.112-.735.146-4.389-1.524-1.893 1.817-6.266-.298-5.926-4.126.779-.933.122-7.677-2.282-3.84-4.116-.607-.677-2.51-2.276-.458-3.555 1.23-2.263-3.218.324-2.91 2.748-.323 1.616-4.042-2.586-1.132.161-3.718 4.365-.647-2.748-2.748-1.455-7.113.647-2.91V27.7l-1.778-3.233 2.263-9.376 2.101.484 2.425 2.91 2.749 2.587 3.233 1.94 4.526 2.101 3.072.647 2.91 1.455 3.395.97 2.263-.162v-2.425l1.293-1.131 2.102-1.293.323 1.131.323 1.778-2.263.485-.323 2.102 1.778 1.455 1.132 2.425.646 1.94 1.455-.162.162-1.293-.97-1.293-.485-3.234.808-1.778-.646-1.455v-2.263l1.778-3.557-1.132-2.586-2.425-4.85.324-.808zm-9.456 5.98 2.02-.162.485 1.374 1.536-1.617h2.344l.808 1.536-1.535 1.697.646.809-.727 2.02-1.374.405s-.889.08-.889-.243 1.455-2.587 1.455-2.587l-1.698-.565-.323 1.455-.728.646-1.535-2.263Z"/><path d="M288.329 58.079h-6.355l-1.427 3.958h-2.062l5.791-15.166h1.75l5.803 15.166h-2.053Zm-5.75-1.646h5.156l-2.584-7.093Zm-17.834.823.292 2 .427-1.802 3-10.583h1.687l2.928 10.583.416 1.833.323-2.041 2.354-10.375h2.011l-3.677 15.166h-1.823l-3.125-11.052-.24-1.156-.239 1.156-3.24 11.052h-1.823l-3.667-15.166h2Z" class="label-text"/></g><g data-state-name="West Virginia"><path d="m907.702 241.758 1.112 4.944 1.083 6.032 2.13-2.581 2.263-3.071 2.539-.616 1.455-1.455 1.778-2.586 1.445.646 2.91-.323 2.587-2.102 2.006-1.453 1.846-.485 1.304 1.017 3.643 1.821 1.94 1.779 1.374 1.293-.762 5.555-5.835-2.541-4.245-1.622-.101 5.178-2.748 5.537-2.53 2.426-1.192 2.75-2.643.5-.898 3.602-1.044 3.949-3.968.341-2.324-2.439-1.071.56-.632 5.469-1.351 3.535-4.958 10.955.897 1.161-.206 1.908-2.809 3.885-1.808-.545-2.968 2.16-2.543-.572-1.999 4.555s-3.259 1.431-3.923 1.368c-.16-.015-2.469-1.249-2.469-1.249l-2.337 1.379-2.409 1.045-3.745-.889-1.121-1.169-2.193-3.023-3.142-1.988-1.712-3.623-4.285-3.469-.646-2.263-2.587-1.455-.808-1.616-.243-5.254 2.183-.081 1.94-.808.161-2.749 1.617-1.455.162-5.011.969-3.88 1.294-.647 1.293 1.132.485 1.778 1.778-.97.485-1.616-1.131-1.779v-2.424l.97-1.294 2.263-3.395 1.293-1.455 2.102.485 2.263-1.616 3.072-3.395 2.263-3.88.323-5.658.485-5.011v-4.689l-1.132-3.071.97-1.455 1.284-1.293 3.491 19.827 4.631-.751z"/><path d="m900.253 275.05 4.333-12.51h2.188l-5.625 15.166h-1.771l-5.615-15.166h2.177Zm-20.677-2.125.292 2 .427-1.802 3-10.583h1.687l2.927 10.583.417 1.833.323-2.041 2.354-10.375h2.01l-3.677 15.166h-1.823l-3.125-11.052-.239-1.156-.24 1.156-3.239 11.052h-1.823l-3.667-15.166h2Z" class="label-text"/></g><g data-state-name="Wisconsin"><path d="m761.582 200.159-.067-3.157-1.179-4.527-.647-6.143-1.131-2.425.97-3.071.808-2.91 1.455-2.587-.647-3.395-.646-3.556.485-1.778 1.94-2.425.161-2.749-.808-1.293.647-2.586-.453-4.171 2.748-5.658 2.91-6.79.162-2.263-.323-.97-.809.485-4.203 6.305-2.748 4.041-1.94 1.778-.808 2.264-1.955.808-1.132 1.94-1.455-.323-.162-1.779 1.294-2.425 2.101-4.688 1.779-1.616.99-2.358-2.56-1.902-1.975-10.367-3.547-1.342-1.947-2.308-12.129-2.722-2.876-1.012-8.213-2.167-7.918-1.159-3.765-5.13-.751.554-1.198-.162-.646-1.132-1.334.297-1.132.162-1.778.97-.97-.647.646-1.94 1.94-3.072 1.132-1.131-1.94-1.455-2.102.808-2.909 1.94-7.437 3.233-2.91.647-2.91-.485-.981-.878-2.117 2.835-.229 2.743v8.459l-1.143 1.601-5.258 3.886-2.286 5.945.457.228 2.515 2.058.686 3.201-1.829 3.2v3.887l.457 6.63 2.972 2.972h3.429l1.829 3.201 3.43.457 3.886 5.715 7.088 4.116 2.057 2.743.915 7.43.686 3.315 2.286 1.601.228 1.372-2.057 3.429.228 3.201 2.515 3.886 2.515 1.143 2.972.458 1.343 1.38z"/><path d="M735.958 166.989h-2v-15.167h2Zm-17.802-4.781.292 2 .427-1.803 3-10.583h1.687l2.927 10.583.417 1.834.323-2.042 2.354-10.375h2.011l-3.677 15.167h-1.823l-3.125-11.052-.24-1.157-.24 1.157-3.239 11.052h-1.823l-3.667-15.167h2Z" class="label-text"/></g><g data-state-name="Wyoming"><path d="M506.893 146.066 400.15 132.609l-14.083 88.458 113.264 13.586Z"/><path d="m456.682 184.335 3.959-7.615h2.271l-5.23 9.511v5.656h-2v-5.656l-5.229-9.511h2.292Zm-20.281 2.771.292 2 .427-1.802 3-10.584h1.687l2.927 10.584.417 1.833.323-2.042 2.354-10.375h2.011l-3.677 15.167h-1.823l-3.125-11.052-.24-1.156-.24 1.156-3.239 11.052h-1.823l-3.667-15.167h2Z" class="label-text"/></g><g data-state-name="Washington DC"><path d="m952.335 253.634-1.858-1.824-1.232-.686 1.443-2.023 2.889 1.949Z"/><path d="M1063.71 355.791h44.54c2.9 0 5.23 2.217 5.23 4.971v20.057c0 2.754-2.33 4.972-5.23 4.972h-44.54c-2.9 0-5.23-2.218-5.23-4.972v-20.057c0-2.754 2.33-4.971 5.23-4.971" class="label-box"/><path d="M1098.55 373.561c-.18 1.605-.78 2.844-1.78 3.719-.99.868-2.31 1.302-3.97 1.302-1.79 0-3.22-.642-4.31-1.927-1.07-1.285-1.61-3.003-1.61-5.156v-1.458q0-2.115.75-3.719c.5-1.07 1.22-1.889 2.14-2.459q1.395-.864 3.21-.864c1.61 0 2.9.451 3.88 1.354.97.896 1.53 2.139 1.69 3.729h-2.01c-.17-1.208-.55-2.083-1.13-2.625q-.87-.812-2.43-.812c-1.28 0-2.28.472-3.01 1.416q-1.08 1.418-1.08 4.032v1.468c0 1.646.34 2.955 1.03 3.927q1.035 1.46 2.88 1.459c1.12 0 1.97-.25 2.56-.75.59-.507.99-1.386 1.18-2.636Zm-25.14 4.813v-15.167h4.28c1.32 0 2.49.292 3.5.875q1.515.875 2.34 2.49c.56 1.076.84 2.312.85 3.708v.969q0 2.146-.84 3.76a5.7 5.7 0 0 1-2.36 2.479q-1.53.865-3.57.886Zm2-13.521v11.885h2.1q2.31 0 3.6-1.437t1.29-4.094v-.885c0-1.722-.41-3.059-1.22-4.011-.81-.958-1.95-1.444-3.44-1.458Z" class="label-text"/><path d="M1056.66 370.48h-54.09v-71.241l-46.154-46.15-1.061 1.061 45.685 45.686v72.193h55.62Z" class="label-connector"/></g></g></svg>